G04 #@! TF.GenerationSoftware,KiCad,Pcbnew,(5.1.6-0-10_14)*
G04 #@! TF.CreationDate,2020-11-21T00:06:08+00:00*
G04 #@! TF.ProjectId,usb3-ngff-carrier,75736233-2d6e-4676-9666-2d6361727269,1*
G04 #@! TF.SameCoordinates,Original*
G04 #@! TF.FileFunction,Soldermask,Top*
G04 #@! TF.FilePolarity,Negative*
%FSLAX46Y46*%
G04 Gerber Fmt 4.6, Leading zero omitted, Abs format (unit mm)*
G04 Created by KiCad (PCBNEW (5.1.6-0-10_14)) date 2020-11-21 00:06:08*
%MOMM*%
%LPD*%
G01*
G04 APERTURE LIST*
%ADD10C,0.100000*%
%ADD11C,0.152400*%
G04 APERTURE END LIST*
D10*
G36*
X89700000Y-35050000D02*
G01*
X43000000Y-35050000D01*
X39000000Y-31050000D01*
X39000000Y-8950000D01*
X43000000Y-4950000D01*
X89700000Y-4950000D01*
X89700000Y-35050000D01*
G37*
X89700000Y-35050000D02*
X43000000Y-35050000D01*
X39000000Y-31050000D01*
X39000000Y-8950000D01*
X43000000Y-4950000D01*
X89700000Y-4950000D01*
X89700000Y-35050000D01*
D11*
G36*
X21019322Y-37653956D02*
G01*
X21055544Y-37664944D01*
X21088934Y-37682791D01*
X21118195Y-37706805D01*
X21142209Y-37736066D01*
X21160056Y-37769456D01*
X21171044Y-37805678D01*
X21175000Y-37845841D01*
X21175000Y-38329159D01*
X21171044Y-38369322D01*
X21160056Y-38405544D01*
X21142209Y-38438934D01*
X21118195Y-38468195D01*
X21088934Y-38492209D01*
X21055544Y-38510056D01*
X21019322Y-38521044D01*
X20979159Y-38525000D01*
X20420841Y-38525000D01*
X20380678Y-38521044D01*
X20344456Y-38510056D01*
X20311066Y-38492209D01*
X20281805Y-38468195D01*
X20257791Y-38438934D01*
X20239944Y-38405544D01*
X20228956Y-38369322D01*
X20225000Y-38329159D01*
X20225000Y-37845841D01*
X20228956Y-37805678D01*
X20239944Y-37769456D01*
X20257791Y-37736066D01*
X20281805Y-37706805D01*
X20311066Y-37682791D01*
X20344456Y-37664944D01*
X20380678Y-37653956D01*
X20420841Y-37650000D01*
X20979159Y-37650000D01*
X21019322Y-37653956D01*
G37*
G36*
X18719322Y-37653956D02*
G01*
X18755544Y-37664944D01*
X18788934Y-37682791D01*
X18818195Y-37706805D01*
X18842209Y-37736066D01*
X18860056Y-37769456D01*
X18871044Y-37805678D01*
X18875000Y-37845841D01*
X18875000Y-38329159D01*
X18871044Y-38369322D01*
X18860056Y-38405544D01*
X18842209Y-38438934D01*
X18818195Y-38468195D01*
X18788934Y-38492209D01*
X18755544Y-38510056D01*
X18719322Y-38521044D01*
X18679159Y-38525000D01*
X18120841Y-38525000D01*
X18080678Y-38521044D01*
X18044456Y-38510056D01*
X18011066Y-38492209D01*
X17981805Y-38468195D01*
X17957791Y-38438934D01*
X17939944Y-38405544D01*
X17928956Y-38369322D01*
X17925000Y-38329159D01*
X17925000Y-37845841D01*
X17928956Y-37805678D01*
X17939944Y-37769456D01*
X17957791Y-37736066D01*
X17981805Y-37706805D01*
X18011066Y-37682791D01*
X18044456Y-37664944D01*
X18080678Y-37653956D01*
X18120841Y-37650000D01*
X18679159Y-37650000D01*
X18719322Y-37653956D01*
G37*
G36*
X86685470Y-33740309D02*
G01*
X87113143Y-33917457D01*
X87498038Y-34174636D01*
X87825364Y-34501962D01*
X88082543Y-34886857D01*
X88259691Y-35314530D01*
X88350000Y-35768545D01*
X88350000Y-36231455D01*
X88259691Y-36685470D01*
X88082543Y-37113143D01*
X87825364Y-37498038D01*
X87498038Y-37825364D01*
X87113143Y-38082543D01*
X86685470Y-38259691D01*
X86231455Y-38350000D01*
X85768545Y-38350000D01*
X85314530Y-38259691D01*
X84886857Y-38082543D01*
X84501962Y-37825364D01*
X84174636Y-37498038D01*
X83917457Y-37113143D01*
X83740309Y-36685470D01*
X83650000Y-36231455D01*
X83650000Y-35768545D01*
X83740309Y-35314530D01*
X83917457Y-34886857D01*
X84174636Y-34501962D01*
X84501962Y-34174636D01*
X84886857Y-33917457D01*
X85314530Y-33740309D01*
X85768545Y-33650000D01*
X86231455Y-33650000D01*
X86685470Y-33740309D01*
G37*
G36*
X4685470Y-33740309D02*
G01*
X5113143Y-33917457D01*
X5498038Y-34174636D01*
X5825364Y-34501962D01*
X6082543Y-34886857D01*
X6259691Y-35314530D01*
X6350000Y-35768545D01*
X6350000Y-36231455D01*
X6259691Y-36685470D01*
X6082543Y-37113143D01*
X5825364Y-37498038D01*
X5498038Y-37825364D01*
X5113143Y-38082543D01*
X4685470Y-38259691D01*
X4231455Y-38350000D01*
X3768545Y-38350000D01*
X3314530Y-38259691D01*
X2886857Y-38082543D01*
X2501962Y-37825364D01*
X2174636Y-37498038D01*
X1917457Y-37113143D01*
X1740309Y-36685470D01*
X1650000Y-36231455D01*
X1650000Y-35768545D01*
X1740309Y-35314530D01*
X1917457Y-34886857D01*
X2174636Y-34501962D01*
X2501962Y-34174636D01*
X2886857Y-33917457D01*
X3314530Y-33740309D01*
X3768545Y-33650000D01*
X4231455Y-33650000D01*
X4685470Y-33740309D01*
G37*
G36*
X9617936Y-36532665D02*
G01*
X9772627Y-36596739D01*
X9911845Y-36689762D01*
X10030238Y-36808155D01*
X10123261Y-36947373D01*
X10187335Y-37102064D01*
X10220000Y-37266282D01*
X10220000Y-37433718D01*
X10187335Y-37597936D01*
X10123261Y-37752627D01*
X10030238Y-37891845D01*
X9911845Y-38010238D01*
X9772627Y-38103261D01*
X9617936Y-38167335D01*
X9453718Y-38200000D01*
X9286282Y-38200000D01*
X9122064Y-38167335D01*
X8967373Y-38103261D01*
X8828155Y-38010238D01*
X8709762Y-37891845D01*
X8616739Y-37752627D01*
X8552665Y-37597936D01*
X8520000Y-37433718D01*
X8520000Y-37266282D01*
X8552665Y-37102064D01*
X8616739Y-36947373D01*
X8709762Y-36808155D01*
X8828155Y-36689762D01*
X8967373Y-36596739D01*
X9122064Y-36532665D01*
X9286282Y-36500000D01*
X9453718Y-36500000D01*
X9617936Y-36532665D01*
G37*
G36*
X12157936Y-36532665D02*
G01*
X12312627Y-36596739D01*
X12451845Y-36689762D01*
X12570238Y-36808155D01*
X12663261Y-36947373D01*
X12727335Y-37102064D01*
X12760000Y-37266282D01*
X12760000Y-37433718D01*
X12727335Y-37597936D01*
X12663261Y-37752627D01*
X12570238Y-37891845D01*
X12451845Y-38010238D01*
X12312627Y-38103261D01*
X12157936Y-38167335D01*
X11993718Y-38200000D01*
X11826282Y-38200000D01*
X11662064Y-38167335D01*
X11507373Y-38103261D01*
X11368155Y-38010238D01*
X11249762Y-37891845D01*
X11156739Y-37752627D01*
X11092665Y-37597936D01*
X11060000Y-37433718D01*
X11060000Y-37266282D01*
X11092665Y-37102064D01*
X11156739Y-36947373D01*
X11249762Y-36808155D01*
X11368155Y-36689762D01*
X11507373Y-36596739D01*
X11662064Y-36532665D01*
X11826282Y-36500000D01*
X11993718Y-36500000D01*
X12157936Y-36532665D01*
G37*
G36*
X15300000Y-38200000D02*
G01*
X13600000Y-38200000D01*
X13600000Y-36500000D01*
X15300000Y-36500000D01*
X15300000Y-38200000D01*
G37*
G36*
X18719322Y-36078956D02*
G01*
X18755544Y-36089944D01*
X18788934Y-36107791D01*
X18818195Y-36131805D01*
X18842209Y-36161066D01*
X18860056Y-36194456D01*
X18871044Y-36230678D01*
X18875000Y-36270841D01*
X18875000Y-36754159D01*
X18871044Y-36794322D01*
X18860056Y-36830544D01*
X18842209Y-36863934D01*
X18818195Y-36893195D01*
X18788934Y-36917209D01*
X18755544Y-36935056D01*
X18719322Y-36946044D01*
X18679159Y-36950000D01*
X18120841Y-36950000D01*
X18080678Y-36946044D01*
X18044456Y-36935056D01*
X18011066Y-36917209D01*
X17981805Y-36893195D01*
X17957791Y-36863934D01*
X17939944Y-36830544D01*
X17928956Y-36794322D01*
X17925000Y-36754159D01*
X17925000Y-36270841D01*
X17928956Y-36230678D01*
X17939944Y-36194456D01*
X17957791Y-36161066D01*
X17981805Y-36131805D01*
X18011066Y-36107791D01*
X18044456Y-36089944D01*
X18080678Y-36078956D01*
X18120841Y-36075000D01*
X18679159Y-36075000D01*
X18719322Y-36078956D01*
G37*
G36*
X21019322Y-36078956D02*
G01*
X21055544Y-36089944D01*
X21088934Y-36107791D01*
X21118195Y-36131805D01*
X21142209Y-36161066D01*
X21160056Y-36194456D01*
X21171044Y-36230678D01*
X21175000Y-36270841D01*
X21175000Y-36754159D01*
X21171044Y-36794322D01*
X21160056Y-36830544D01*
X21142209Y-36863934D01*
X21118195Y-36893195D01*
X21088934Y-36917209D01*
X21055544Y-36935056D01*
X21019322Y-36946044D01*
X20979159Y-36950000D01*
X20420841Y-36950000D01*
X20380678Y-36946044D01*
X20344456Y-36935056D01*
X20311066Y-36917209D01*
X20281805Y-36893195D01*
X20257791Y-36863934D01*
X20239944Y-36830544D01*
X20228956Y-36794322D01*
X20225000Y-36754159D01*
X20225000Y-36270841D01*
X20228956Y-36230678D01*
X20239944Y-36194456D01*
X20257791Y-36161066D01*
X20281805Y-36131805D01*
X20311066Y-36107791D01*
X20344456Y-36089944D01*
X20380678Y-36078956D01*
X20420841Y-36075000D01*
X20979159Y-36075000D01*
X21019322Y-36078956D01*
G37*
G36*
X27449180Y-35429436D02*
G01*
X27490102Y-35441849D01*
X27527814Y-35462007D01*
X27560867Y-35489133D01*
X27587993Y-35522186D01*
X27608151Y-35559898D01*
X27620564Y-35600820D01*
X27625000Y-35645861D01*
X27625000Y-36529139D01*
X27620564Y-36574180D01*
X27608151Y-36615102D01*
X27587993Y-36652814D01*
X27560867Y-36685867D01*
X27527814Y-36712993D01*
X27490102Y-36733151D01*
X27449180Y-36745564D01*
X27404139Y-36750000D01*
X25495861Y-36750000D01*
X25450820Y-36745564D01*
X25409898Y-36733151D01*
X25372186Y-36712993D01*
X25339133Y-36685867D01*
X25312007Y-36652814D01*
X25291849Y-36615102D01*
X25279436Y-36574180D01*
X25275000Y-36529139D01*
X25275000Y-35645861D01*
X25279436Y-35600820D01*
X25291849Y-35559898D01*
X25312007Y-35522186D01*
X25339133Y-35489133D01*
X25372186Y-35462007D01*
X25409898Y-35441849D01*
X25450820Y-35429436D01*
X25495861Y-35425000D01*
X27404139Y-35425000D01*
X27449180Y-35429436D01*
G37*
G36*
X23518768Y-35178822D02*
G01*
X23655258Y-35235358D01*
X23778099Y-35317438D01*
X23882562Y-35421901D01*
X23964642Y-35544742D01*
X24021178Y-35681232D01*
X24050000Y-35826131D01*
X24050000Y-35973869D01*
X24021178Y-36118768D01*
X23964642Y-36255258D01*
X23882562Y-36378099D01*
X23778099Y-36482562D01*
X23655258Y-36564642D01*
X23518768Y-36621178D01*
X23373869Y-36650000D01*
X23226131Y-36650000D01*
X23081232Y-36621178D01*
X22944742Y-36564642D01*
X22821901Y-36482562D01*
X22717438Y-36378099D01*
X22635358Y-36255258D01*
X22578822Y-36118768D01*
X22550000Y-35973869D01*
X22550000Y-35826131D01*
X22578822Y-35681232D01*
X22635358Y-35544742D01*
X22717438Y-35421901D01*
X22821901Y-35317438D01*
X22944742Y-35235358D01*
X23081232Y-35178822D01*
X23226131Y-35150000D01*
X23373869Y-35150000D01*
X23518768Y-35178822D01*
G37*
G36*
X29919322Y-35003956D02*
G01*
X29955544Y-35014944D01*
X29988934Y-35032791D01*
X30018195Y-35056805D01*
X30042209Y-35086066D01*
X30060056Y-35119456D01*
X30071044Y-35155678D01*
X30075000Y-35195841D01*
X30075000Y-35679159D01*
X30071044Y-35719322D01*
X30060056Y-35755544D01*
X30042209Y-35788934D01*
X30018195Y-35818195D01*
X29988934Y-35842209D01*
X29955544Y-35860056D01*
X29919322Y-35871044D01*
X29879159Y-35875000D01*
X29320841Y-35875000D01*
X29280678Y-35871044D01*
X29244456Y-35860056D01*
X29211066Y-35842209D01*
X29181805Y-35818195D01*
X29157791Y-35788934D01*
X29139944Y-35755544D01*
X29128956Y-35719322D01*
X29125000Y-35679159D01*
X29125000Y-35195841D01*
X29128956Y-35155678D01*
X29139944Y-35119456D01*
X29157791Y-35086066D01*
X29181805Y-35056805D01*
X29211066Y-35032791D01*
X29244456Y-35014944D01*
X29280678Y-35003956D01*
X29320841Y-35000000D01*
X29879159Y-35000000D01*
X29919322Y-35003956D01*
G37*
G36*
X21224196Y-34254436D02*
G01*
X21265114Y-34266848D01*
X21302826Y-34287006D01*
X21335873Y-34314127D01*
X21362994Y-34347174D01*
X21383152Y-34384886D01*
X21395564Y-34425804D01*
X21400000Y-34470843D01*
X21400000Y-35004157D01*
X21395564Y-35049196D01*
X21383152Y-35090114D01*
X21362994Y-35127826D01*
X21335873Y-35160873D01*
X21302826Y-35187994D01*
X21265114Y-35208152D01*
X21224196Y-35220564D01*
X21179157Y-35225000D01*
X20220843Y-35225000D01*
X20175804Y-35220564D01*
X20134886Y-35208152D01*
X20097174Y-35187994D01*
X20064127Y-35160873D01*
X20037006Y-35127826D01*
X20016848Y-35090114D01*
X20004436Y-35049196D01*
X20000000Y-35004157D01*
X20000000Y-34470843D01*
X20004436Y-34425804D01*
X20016848Y-34384886D01*
X20037006Y-34347174D01*
X20064127Y-34314127D01*
X20097174Y-34287006D01*
X20134886Y-34266848D01*
X20175804Y-34254436D01*
X20220843Y-34250000D01*
X21179157Y-34250000D01*
X21224196Y-34254436D01*
G37*
G36*
X18924196Y-34254436D02*
G01*
X18965114Y-34266848D01*
X19002826Y-34287006D01*
X19035873Y-34314127D01*
X19062994Y-34347174D01*
X19083152Y-34384886D01*
X19095564Y-34425804D01*
X19100000Y-34470843D01*
X19100000Y-35004157D01*
X19095564Y-35049196D01*
X19083152Y-35090114D01*
X19062994Y-35127826D01*
X19035873Y-35160873D01*
X19002826Y-35187994D01*
X18965114Y-35208152D01*
X18924196Y-35220564D01*
X18879157Y-35225000D01*
X17920843Y-35225000D01*
X17875804Y-35220564D01*
X17834886Y-35208152D01*
X17797174Y-35187994D01*
X17764127Y-35160873D01*
X17737006Y-35127826D01*
X17716848Y-35090114D01*
X17704436Y-35049196D01*
X17700000Y-35004157D01*
X17700000Y-34470843D01*
X17704436Y-34425804D01*
X17716848Y-34384886D01*
X17737006Y-34347174D01*
X17764127Y-34314127D01*
X17797174Y-34287006D01*
X17834886Y-34266848D01*
X17875804Y-34254436D01*
X17920843Y-34250000D01*
X18879157Y-34250000D01*
X18924196Y-34254436D01*
G37*
G36*
X32071669Y-34617586D02*
G01*
X32094535Y-34624523D01*
X32115596Y-34635780D01*
X32134064Y-34650936D01*
X32149220Y-34669404D01*
X32160477Y-34690465D01*
X32167414Y-34713331D01*
X32170000Y-34739591D01*
X32170000Y-35080409D01*
X32167414Y-35106669D01*
X32160477Y-35129535D01*
X32149220Y-35150596D01*
X32134064Y-35169064D01*
X32115596Y-35184220D01*
X32094535Y-35195477D01*
X32071669Y-35202414D01*
X32045409Y-35205000D01*
X31654591Y-35205000D01*
X31628331Y-35202414D01*
X31605465Y-35195477D01*
X31584404Y-35184220D01*
X31565936Y-35169064D01*
X31550780Y-35150596D01*
X31539523Y-35129535D01*
X31532586Y-35106669D01*
X31530000Y-35080409D01*
X31530000Y-34739591D01*
X31532586Y-34713331D01*
X31539523Y-34690465D01*
X31550780Y-34669404D01*
X31565936Y-34650936D01*
X31584404Y-34635780D01*
X31605465Y-34624523D01*
X31628331Y-34617586D01*
X31654591Y-34615000D01*
X32045409Y-34615000D01*
X32071669Y-34617586D01*
G37*
G36*
X29919322Y-33428956D02*
G01*
X29955544Y-33439944D01*
X29988934Y-33457791D01*
X30018195Y-33481805D01*
X30042209Y-33511066D01*
X30060056Y-33544456D01*
X30071044Y-33580678D01*
X30075000Y-33620841D01*
X30075000Y-34104159D01*
X30071044Y-34144322D01*
X30060056Y-34180544D01*
X30042209Y-34213934D01*
X30018195Y-34243195D01*
X29988934Y-34267209D01*
X29955544Y-34285056D01*
X29919322Y-34296044D01*
X29879159Y-34300000D01*
X29320841Y-34300000D01*
X29280678Y-34296044D01*
X29244456Y-34285056D01*
X29211066Y-34267209D01*
X29181805Y-34243195D01*
X29157791Y-34213934D01*
X29139944Y-34180544D01*
X29128956Y-34144322D01*
X29125000Y-34104159D01*
X29125000Y-33620841D01*
X29128956Y-33580678D01*
X29139944Y-33544456D01*
X29157791Y-33511066D01*
X29181805Y-33481805D01*
X29211066Y-33457791D01*
X29244456Y-33439944D01*
X29280678Y-33428956D01*
X29320841Y-33425000D01*
X29879159Y-33425000D01*
X29919322Y-33428956D01*
G37*
G36*
X32071669Y-33647586D02*
G01*
X32094535Y-33654523D01*
X32115596Y-33665780D01*
X32134064Y-33680936D01*
X32149220Y-33699404D01*
X32160477Y-33720465D01*
X32167414Y-33743331D01*
X32170000Y-33769591D01*
X32170000Y-34110409D01*
X32167414Y-34136669D01*
X32160477Y-34159535D01*
X32149220Y-34180596D01*
X32134064Y-34199064D01*
X32115596Y-34214220D01*
X32094535Y-34225477D01*
X32071669Y-34232414D01*
X32045409Y-34235000D01*
X31654591Y-34235000D01*
X31628331Y-34232414D01*
X31605465Y-34225477D01*
X31584404Y-34214220D01*
X31565936Y-34199064D01*
X31550780Y-34180596D01*
X31539523Y-34159535D01*
X31532586Y-34136669D01*
X31530000Y-34110409D01*
X31530000Y-33769591D01*
X31532586Y-33743331D01*
X31539523Y-33720465D01*
X31550780Y-33699404D01*
X31565936Y-33680936D01*
X31584404Y-33665780D01*
X31605465Y-33654523D01*
X31628331Y-33647586D01*
X31654591Y-33645000D01*
X32045409Y-33645000D01*
X32071669Y-33647586D01*
G37*
G36*
X27449180Y-32354436D02*
G01*
X27490102Y-32366849D01*
X27527814Y-32387007D01*
X27560867Y-32414133D01*
X27587993Y-32447186D01*
X27608151Y-32484898D01*
X27620564Y-32525820D01*
X27625000Y-32570861D01*
X27625000Y-33454139D01*
X27620564Y-33499180D01*
X27608151Y-33540102D01*
X27587993Y-33577814D01*
X27560867Y-33610867D01*
X27527814Y-33637993D01*
X27490102Y-33658151D01*
X27449180Y-33670564D01*
X27404139Y-33675000D01*
X25495861Y-33675000D01*
X25450820Y-33670564D01*
X25409898Y-33658151D01*
X25372186Y-33637993D01*
X25339133Y-33610867D01*
X25312007Y-33577814D01*
X25291849Y-33540102D01*
X25279436Y-33499180D01*
X25275000Y-33454139D01*
X25275000Y-32570861D01*
X25279436Y-32525820D01*
X25291849Y-32484898D01*
X25312007Y-32447186D01*
X25339133Y-32414133D01*
X25372186Y-32387007D01*
X25409898Y-32366849D01*
X25450820Y-32354436D01*
X25495861Y-32350000D01*
X27404139Y-32350000D01*
X27449180Y-32354436D01*
G37*
G36*
X18924196Y-32379436D02*
G01*
X18965114Y-32391848D01*
X19002826Y-32412006D01*
X19035873Y-32439127D01*
X19062994Y-32472174D01*
X19083152Y-32509886D01*
X19095564Y-32550804D01*
X19100000Y-32595843D01*
X19100000Y-33129157D01*
X19095564Y-33174196D01*
X19083152Y-33215114D01*
X19062994Y-33252826D01*
X19035873Y-33285873D01*
X19002826Y-33312994D01*
X18965114Y-33333152D01*
X18924196Y-33345564D01*
X18879157Y-33350000D01*
X17920843Y-33350000D01*
X17875804Y-33345564D01*
X17834886Y-33333152D01*
X17797174Y-33312994D01*
X17764127Y-33285873D01*
X17737006Y-33252826D01*
X17716848Y-33215114D01*
X17704436Y-33174196D01*
X17700000Y-33129157D01*
X17700000Y-32595843D01*
X17704436Y-32550804D01*
X17716848Y-32509886D01*
X17737006Y-32472174D01*
X17764127Y-32439127D01*
X17797174Y-32412006D01*
X17834886Y-32391848D01*
X17875804Y-32379436D01*
X17920843Y-32375000D01*
X18879157Y-32375000D01*
X18924196Y-32379436D01*
G37*
G36*
X21224196Y-32379436D02*
G01*
X21265114Y-32391848D01*
X21302826Y-32412006D01*
X21335873Y-32439127D01*
X21362994Y-32472174D01*
X21383152Y-32509886D01*
X21395564Y-32550804D01*
X21400000Y-32595843D01*
X21400000Y-33129157D01*
X21395564Y-33174196D01*
X21383152Y-33215114D01*
X21362994Y-33252826D01*
X21335873Y-33285873D01*
X21302826Y-33312994D01*
X21265114Y-33333152D01*
X21224196Y-33345564D01*
X21179157Y-33350000D01*
X20220843Y-33350000D01*
X20175804Y-33345564D01*
X20134886Y-33333152D01*
X20097174Y-33312994D01*
X20064127Y-33285873D01*
X20037006Y-33252826D01*
X20016848Y-33215114D01*
X20004436Y-33174196D01*
X20000000Y-33129157D01*
X20000000Y-32595843D01*
X20004436Y-32550804D01*
X20016848Y-32509886D01*
X20037006Y-32472174D01*
X20064127Y-32439127D01*
X20097174Y-32412006D01*
X20134886Y-32391848D01*
X20175804Y-32379436D01*
X20220843Y-32375000D01*
X21179157Y-32375000D01*
X21224196Y-32379436D01*
G37*
G36*
X26875000Y-30950000D02*
G01*
X24125000Y-30950000D01*
X24125000Y-29750000D01*
X26875000Y-29750000D01*
X26875000Y-30950000D01*
G37*
G36*
X30160430Y-29471136D02*
G01*
X30260522Y-29512596D01*
X30350606Y-29572788D01*
X30427212Y-29649394D01*
X30487404Y-29739478D01*
X30528864Y-29839570D01*
X30550000Y-29945829D01*
X30550000Y-30054171D01*
X30528864Y-30160430D01*
X30487404Y-30260522D01*
X30427212Y-30350606D01*
X30350606Y-30427212D01*
X30260522Y-30487404D01*
X30160430Y-30528864D01*
X30054171Y-30550000D01*
X29945829Y-30550000D01*
X29839570Y-30528864D01*
X29739478Y-30487404D01*
X29649394Y-30427212D01*
X29572788Y-30350606D01*
X29512596Y-30260522D01*
X29471136Y-30160430D01*
X29450000Y-30054171D01*
X29450000Y-29945829D01*
X29471136Y-29839570D01*
X29512596Y-29739478D01*
X29572788Y-29649394D01*
X29649394Y-29572788D01*
X29739478Y-29512596D01*
X29839570Y-29471136D01*
X29945829Y-29450000D01*
X30054171Y-29450000D01*
X30160430Y-29471136D01*
G37*
G36*
X35581669Y-29782586D02*
G01*
X35604535Y-29789523D01*
X35625596Y-29800780D01*
X35644064Y-29815936D01*
X35659220Y-29834404D01*
X35670477Y-29855465D01*
X35677414Y-29878331D01*
X35680000Y-29904591D01*
X35680000Y-30295409D01*
X35677414Y-30321669D01*
X35670477Y-30344535D01*
X35659220Y-30365596D01*
X35644064Y-30384064D01*
X35625596Y-30399220D01*
X35604535Y-30410477D01*
X35581669Y-30417414D01*
X35555409Y-30420000D01*
X35214591Y-30420000D01*
X35188331Y-30417414D01*
X35165465Y-30410477D01*
X35144404Y-30399220D01*
X35125936Y-30384064D01*
X35110780Y-30365596D01*
X35099523Y-30344535D01*
X35092586Y-30321669D01*
X35090000Y-30295409D01*
X35090000Y-29904591D01*
X35092586Y-29878331D01*
X35099523Y-29855465D01*
X35110780Y-29834404D01*
X35125936Y-29815936D01*
X35144404Y-29800780D01*
X35165465Y-29789523D01*
X35188331Y-29782586D01*
X35214591Y-29780000D01*
X35555409Y-29780000D01*
X35581669Y-29782586D01*
G37*
G36*
X34611669Y-29782586D02*
G01*
X34634535Y-29789523D01*
X34655596Y-29800780D01*
X34674064Y-29815936D01*
X34689220Y-29834404D01*
X34700477Y-29855465D01*
X34707414Y-29878331D01*
X34710000Y-29904591D01*
X34710000Y-30295409D01*
X34707414Y-30321669D01*
X34700477Y-30344535D01*
X34689220Y-30365596D01*
X34674064Y-30384064D01*
X34655596Y-30399220D01*
X34634535Y-30410477D01*
X34611669Y-30417414D01*
X34585409Y-30420000D01*
X34244591Y-30420000D01*
X34218331Y-30417414D01*
X34195465Y-30410477D01*
X34174404Y-30399220D01*
X34155936Y-30384064D01*
X34140780Y-30365596D01*
X34129523Y-30344535D01*
X34122586Y-30321669D01*
X34120000Y-30295409D01*
X34120000Y-29904591D01*
X34122586Y-29878331D01*
X34129523Y-29855465D01*
X34140780Y-29834404D01*
X34155936Y-29815936D01*
X34174404Y-29800780D01*
X34195465Y-29789523D01*
X34218331Y-29782586D01*
X34244591Y-29780000D01*
X34585409Y-29780000D01*
X34611669Y-29782586D01*
G37*
G36*
X25500000Y-29400000D02*
G01*
X23950000Y-29400000D01*
X23950000Y-29100000D01*
X25500000Y-29100000D01*
X25500000Y-29400000D01*
G37*
G36*
X33050000Y-29150000D02*
G01*
X31500000Y-29150000D01*
X31500000Y-28850000D01*
X33050000Y-28850000D01*
X33050000Y-29150000D01*
G37*
G36*
X34611669Y-28432586D02*
G01*
X34634535Y-28439523D01*
X34655596Y-28450780D01*
X34674064Y-28465936D01*
X34689220Y-28484404D01*
X34700477Y-28505465D01*
X34707414Y-28528331D01*
X34710000Y-28554591D01*
X34710000Y-28945409D01*
X34707414Y-28971669D01*
X34700477Y-28994535D01*
X34689220Y-29015596D01*
X34674064Y-29034064D01*
X34655596Y-29049220D01*
X34634535Y-29060477D01*
X34611669Y-29067414D01*
X34585409Y-29070000D01*
X34244591Y-29070000D01*
X34218331Y-29067414D01*
X34195465Y-29060477D01*
X34174404Y-29049220D01*
X34155936Y-29034064D01*
X34140780Y-29015596D01*
X34129523Y-28994535D01*
X34122586Y-28971669D01*
X34120000Y-28945409D01*
X34120000Y-28554591D01*
X34122586Y-28528331D01*
X34129523Y-28505465D01*
X34140780Y-28484404D01*
X34155936Y-28465936D01*
X34174404Y-28450780D01*
X34195465Y-28439523D01*
X34218331Y-28432586D01*
X34244591Y-28430000D01*
X34585409Y-28430000D01*
X34611669Y-28432586D01*
G37*
G36*
X35581669Y-28432586D02*
G01*
X35604535Y-28439523D01*
X35625596Y-28450780D01*
X35644064Y-28465936D01*
X35659220Y-28484404D01*
X35670477Y-28505465D01*
X35677414Y-28528331D01*
X35680000Y-28554591D01*
X35680000Y-28945409D01*
X35677414Y-28971669D01*
X35670477Y-28994535D01*
X35659220Y-29015596D01*
X35644064Y-29034064D01*
X35625596Y-29049220D01*
X35604535Y-29060477D01*
X35581669Y-29067414D01*
X35555409Y-29070000D01*
X35214591Y-29070000D01*
X35188331Y-29067414D01*
X35165465Y-29060477D01*
X35144404Y-29049220D01*
X35125936Y-29034064D01*
X35110780Y-29015596D01*
X35099523Y-28994535D01*
X35092586Y-28971669D01*
X35090000Y-28945409D01*
X35090000Y-28554591D01*
X35092586Y-28528331D01*
X35099523Y-28505465D01*
X35110780Y-28484404D01*
X35125936Y-28465936D01*
X35144404Y-28450780D01*
X35165465Y-28439523D01*
X35188331Y-28432586D01*
X35214591Y-28430000D01*
X35555409Y-28430000D01*
X35581669Y-28432586D01*
G37*
G36*
X25500000Y-28900000D02*
G01*
X23950000Y-28900000D01*
X23950000Y-28600000D01*
X25500000Y-28600000D01*
X25500000Y-28900000D01*
G37*
G36*
X33050000Y-28650000D02*
G01*
X31500000Y-28650000D01*
X31500000Y-28350000D01*
X33050000Y-28350000D01*
X33050000Y-28650000D01*
G37*
G36*
X25500000Y-28400000D02*
G01*
X23950000Y-28400000D01*
X23950000Y-28100000D01*
X25500000Y-28100000D01*
X25500000Y-28400000D01*
G37*
G36*
X33050000Y-28150000D02*
G01*
X31500000Y-28150000D01*
X31500000Y-27850000D01*
X33050000Y-27850000D01*
X33050000Y-28150000D01*
G37*
G36*
X25500000Y-27900000D02*
G01*
X23950000Y-27900000D01*
X23950000Y-27600000D01*
X25500000Y-27600000D01*
X25500000Y-27900000D01*
G37*
G36*
X33050000Y-27650000D02*
G01*
X31500000Y-27650000D01*
X31500000Y-27350000D01*
X33050000Y-27350000D01*
X33050000Y-27650000D01*
G37*
G36*
X34994322Y-26678956D02*
G01*
X35030544Y-26689944D01*
X35063934Y-26707791D01*
X35093195Y-26731805D01*
X35117209Y-26761066D01*
X35135056Y-26794456D01*
X35146044Y-26830678D01*
X35150000Y-26870841D01*
X35150000Y-27429159D01*
X35146044Y-27469322D01*
X35135056Y-27505544D01*
X35117209Y-27538934D01*
X35093195Y-27568195D01*
X35063934Y-27592209D01*
X35030544Y-27610056D01*
X34994322Y-27621044D01*
X34954159Y-27625000D01*
X34470841Y-27625000D01*
X34430678Y-27621044D01*
X34394456Y-27610056D01*
X34361066Y-27592209D01*
X34331805Y-27568195D01*
X34307791Y-27538934D01*
X34289944Y-27505544D01*
X34278956Y-27469322D01*
X34275000Y-27429159D01*
X34275000Y-26870841D01*
X34278956Y-26830678D01*
X34289944Y-26794456D01*
X34307791Y-26761066D01*
X34331805Y-26731805D01*
X34361066Y-26707791D01*
X34394456Y-26689944D01*
X34430678Y-26678956D01*
X34470841Y-26675000D01*
X34954159Y-26675000D01*
X34994322Y-26678956D01*
G37*
G36*
X36569322Y-26678956D02*
G01*
X36605544Y-26689944D01*
X36638934Y-26707791D01*
X36668195Y-26731805D01*
X36692209Y-26761066D01*
X36710056Y-26794456D01*
X36721044Y-26830678D01*
X36725000Y-26870841D01*
X36725000Y-27429159D01*
X36721044Y-27469322D01*
X36710056Y-27505544D01*
X36692209Y-27538934D01*
X36668195Y-27568195D01*
X36638934Y-27592209D01*
X36605544Y-27610056D01*
X36569322Y-27621044D01*
X36529159Y-27625000D01*
X36045841Y-27625000D01*
X36005678Y-27621044D01*
X35969456Y-27610056D01*
X35936066Y-27592209D01*
X35906805Y-27568195D01*
X35882791Y-27538934D01*
X35864944Y-27505544D01*
X35853956Y-27469322D01*
X35850000Y-27429159D01*
X35850000Y-26870841D01*
X35853956Y-26830678D01*
X35864944Y-26794456D01*
X35882791Y-26761066D01*
X35906805Y-26731805D01*
X35936066Y-26707791D01*
X35969456Y-26689944D01*
X36005678Y-26678956D01*
X36045841Y-26675000D01*
X36529159Y-26675000D01*
X36569322Y-26678956D01*
G37*
G36*
X25500000Y-27400000D02*
G01*
X23950000Y-27400000D01*
X23950000Y-27100000D01*
X25500000Y-27100000D01*
X25500000Y-27400000D01*
G37*
G36*
X33050000Y-27150000D02*
G01*
X31500000Y-27150000D01*
X31500000Y-26850000D01*
X33050000Y-26850000D01*
X33050000Y-27150000D01*
G37*
G36*
X25500000Y-26900000D02*
G01*
X23950000Y-26900000D01*
X23950000Y-26600000D01*
X25500000Y-26600000D01*
X25500000Y-26900000D01*
G37*
G36*
X20600000Y-26099999D02*
G01*
X19600000Y-26099999D01*
X19600000Y-25199999D01*
X20600000Y-25199999D01*
X20600000Y-26099999D01*
G37*
G36*
X19000000Y-26099999D02*
G01*
X18000000Y-26099999D01*
X18000000Y-25199999D01*
X19000000Y-25199999D01*
X19000000Y-26099999D01*
G37*
G36*
X33050000Y-24650000D02*
G01*
X31500000Y-24650000D01*
X31500000Y-24350000D01*
X33050000Y-24350000D01*
X33050000Y-24650000D01*
G37*
G36*
X21000000Y-24450000D02*
G01*
X20450000Y-24450000D01*
X20450000Y-22750000D01*
X21000000Y-22750000D01*
X21000000Y-24450000D01*
G37*
G36*
X25500000Y-24400000D02*
G01*
X23950000Y-24400000D01*
X23950000Y-24100000D01*
X25500000Y-24100000D01*
X25500000Y-24400000D01*
G37*
G36*
X33050000Y-24150000D02*
G01*
X31500000Y-24150000D01*
X31500000Y-23850000D01*
X33050000Y-23850000D01*
X33050000Y-24150000D01*
G37*
G36*
X25500000Y-23900000D02*
G01*
X23950000Y-23900000D01*
X23950000Y-23600000D01*
X25500000Y-23600000D01*
X25500000Y-23900000D01*
G37*
G36*
X33050000Y-23650000D02*
G01*
X31500000Y-23650000D01*
X31500000Y-23350000D01*
X33050000Y-23350000D01*
X33050000Y-23650000D01*
G37*
G36*
X25500000Y-23400000D02*
G01*
X23950000Y-23400000D01*
X23950000Y-23100000D01*
X25500000Y-23100000D01*
X25500000Y-23400000D01*
G37*
G36*
X33050000Y-23150000D02*
G01*
X31500000Y-23150000D01*
X31500000Y-22850000D01*
X33050000Y-22850000D01*
X33050000Y-23150000D01*
G37*
G36*
X25500000Y-22900000D02*
G01*
X23950000Y-22900000D01*
X23950000Y-22600000D01*
X25500000Y-22600000D01*
X25500000Y-22900000D01*
G37*
G36*
X71022977Y-17451838D02*
G01*
X71505246Y-17651600D01*
X71939278Y-17941611D01*
X72308389Y-18310722D01*
X72598400Y-18744754D01*
X72798162Y-19227023D01*
X72900000Y-19738998D01*
X72900000Y-20261002D01*
X72798162Y-20772977D01*
X72598400Y-21255246D01*
X72308389Y-21689278D01*
X71939278Y-22058389D01*
X71505246Y-22348400D01*
X71022977Y-22548162D01*
X70511002Y-22650000D01*
X69988998Y-22650000D01*
X69477023Y-22548162D01*
X68994754Y-22348400D01*
X68560722Y-22058389D01*
X68191611Y-21689278D01*
X67901600Y-21255246D01*
X67701838Y-20772977D01*
X67600000Y-20261002D01*
X67600000Y-19738998D01*
X67701838Y-19227023D01*
X67901600Y-18744754D01*
X68191611Y-18310722D01*
X68560722Y-17941611D01*
X68994754Y-17651600D01*
X69477023Y-17451838D01*
X69988998Y-17350000D01*
X70511002Y-17350000D01*
X71022977Y-17451838D01*
G37*
G36*
X81022977Y-17451838D02*
G01*
X81505246Y-17651600D01*
X81939278Y-17941611D01*
X82308389Y-18310722D01*
X82598400Y-18744754D01*
X82798162Y-19227023D01*
X82900000Y-19738998D01*
X82900000Y-20261002D01*
X82798162Y-20772977D01*
X82598400Y-21255246D01*
X82308389Y-21689278D01*
X81939278Y-22058389D01*
X81505246Y-22348400D01*
X81022977Y-22548162D01*
X80511002Y-22650000D01*
X79988998Y-22650000D01*
X79477023Y-22548162D01*
X78994754Y-22348400D01*
X78560722Y-22058389D01*
X78191611Y-21689278D01*
X77901600Y-21255246D01*
X77701838Y-20772977D01*
X77600000Y-20261002D01*
X77600000Y-19738998D01*
X77701838Y-19227023D01*
X77901600Y-18744754D01*
X78191611Y-18310722D01*
X78560722Y-17941611D01*
X78994754Y-17651600D01*
X79477023Y-17451838D01*
X79988998Y-17350000D01*
X80511002Y-17350000D01*
X81022977Y-17451838D01*
G37*
G36*
X33050000Y-22650000D02*
G01*
X31500000Y-22650000D01*
X31500000Y-22350000D01*
X33050000Y-22350000D01*
X33050000Y-22650000D01*
G37*
G36*
X25500000Y-22400000D02*
G01*
X23950000Y-22400000D01*
X23950000Y-22100000D01*
X25500000Y-22100000D01*
X25500000Y-22400000D01*
G37*
G36*
X33050000Y-22150000D02*
G01*
X31500000Y-22150000D01*
X31500000Y-21850000D01*
X33050000Y-21850000D01*
X33050000Y-22150000D01*
G37*
G36*
X20600000Y-22000001D02*
G01*
X19600000Y-22000001D01*
X19600000Y-21100001D01*
X20600000Y-21100001D01*
X20600000Y-22000001D01*
G37*
G36*
X19000000Y-22000001D02*
G01*
X18000000Y-22000001D01*
X18000000Y-21100001D01*
X19000000Y-21100001D01*
X19000000Y-22000001D01*
G37*
G36*
X25500000Y-21900000D02*
G01*
X23950000Y-21900000D01*
X23950000Y-21600000D01*
X25500000Y-21600000D01*
X25500000Y-21900000D01*
G37*
G36*
X33050000Y-21650000D02*
G01*
X31500000Y-21650000D01*
X31500000Y-21350000D01*
X33050000Y-21350000D01*
X33050000Y-21650000D01*
G37*
G36*
X25500000Y-21400000D02*
G01*
X23950000Y-21400000D01*
X23950000Y-21100000D01*
X25500000Y-21100000D01*
X25500000Y-21400000D01*
G37*
G36*
X33050000Y-21150000D02*
G01*
X31500000Y-21150000D01*
X31500000Y-20850000D01*
X33050000Y-20850000D01*
X33050000Y-21150000D01*
G37*
G36*
X25500000Y-20900000D02*
G01*
X23950000Y-20900000D01*
X23950000Y-20600000D01*
X25500000Y-20600000D01*
X25500000Y-20900000D01*
G37*
G36*
X33050000Y-20650000D02*
G01*
X31500000Y-20650000D01*
X31500000Y-20350000D01*
X33050000Y-20350000D01*
X33050000Y-20650000D01*
G37*
G36*
X25500000Y-20400000D02*
G01*
X23950000Y-20400000D01*
X23950000Y-20100000D01*
X25500000Y-20100000D01*
X25500000Y-20400000D01*
G37*
G36*
X21281669Y-19682586D02*
G01*
X21304535Y-19689523D01*
X21325596Y-19700780D01*
X21344064Y-19715936D01*
X21359220Y-19734404D01*
X21370477Y-19755465D01*
X21377414Y-19778331D01*
X21380000Y-19804591D01*
X21380000Y-20195409D01*
X21377414Y-20221669D01*
X21370477Y-20244535D01*
X21359220Y-20265596D01*
X21344064Y-20284064D01*
X21325596Y-20299220D01*
X21304535Y-20310477D01*
X21281669Y-20317414D01*
X21255409Y-20320000D01*
X20914591Y-20320000D01*
X20888331Y-20317414D01*
X20865465Y-20310477D01*
X20844404Y-20299220D01*
X20825936Y-20284064D01*
X20810780Y-20265596D01*
X20799523Y-20244535D01*
X20792586Y-20221669D01*
X20790000Y-20195409D01*
X20790000Y-19804591D01*
X20792586Y-19778331D01*
X20799523Y-19755465D01*
X20810780Y-19734404D01*
X20825936Y-19715936D01*
X20844404Y-19700780D01*
X20865465Y-19689523D01*
X20888331Y-19682586D01*
X20914591Y-19680000D01*
X21255409Y-19680000D01*
X21281669Y-19682586D01*
G37*
G36*
X20311669Y-19682586D02*
G01*
X20334535Y-19689523D01*
X20355596Y-19700780D01*
X20374064Y-19715936D01*
X20389220Y-19734404D01*
X20400477Y-19755465D01*
X20407414Y-19778331D01*
X20410000Y-19804591D01*
X20410000Y-20195409D01*
X20407414Y-20221669D01*
X20400477Y-20244535D01*
X20389220Y-20265596D01*
X20374064Y-20284064D01*
X20355596Y-20299220D01*
X20334535Y-20310477D01*
X20311669Y-20317414D01*
X20285409Y-20320000D01*
X19944591Y-20320000D01*
X19918331Y-20317414D01*
X19895465Y-20310477D01*
X19874404Y-20299220D01*
X19855936Y-20284064D01*
X19840780Y-20265596D01*
X19829523Y-20244535D01*
X19822586Y-20221669D01*
X19820000Y-20195409D01*
X19820000Y-19804591D01*
X19822586Y-19778331D01*
X19829523Y-19755465D01*
X19840780Y-19734404D01*
X19855936Y-19715936D01*
X19874404Y-19700780D01*
X19895465Y-19689523D01*
X19918331Y-19682586D01*
X19944591Y-19680000D01*
X20285409Y-19680000D01*
X20311669Y-19682586D01*
G37*
G36*
X33050000Y-20150000D02*
G01*
X31500000Y-20150000D01*
X31500000Y-19850000D01*
X33050000Y-19850000D01*
X33050000Y-20150000D01*
G37*
G36*
X25500000Y-19900000D02*
G01*
X23950000Y-19900000D01*
X23950000Y-19600000D01*
X25500000Y-19600000D01*
X25500000Y-19900000D01*
G37*
G36*
X33050000Y-19650000D02*
G01*
X31500000Y-19650000D01*
X31500000Y-19350000D01*
X33050000Y-19350000D01*
X33050000Y-19650000D01*
G37*
G36*
X25500000Y-19400000D02*
G01*
X23950000Y-19400000D01*
X23950000Y-19100000D01*
X25500000Y-19100000D01*
X25500000Y-19400000D01*
G37*
G36*
X33050000Y-19150000D02*
G01*
X31500000Y-19150000D01*
X31500000Y-18850000D01*
X33050000Y-18850000D01*
X33050000Y-19150000D01*
G37*
G36*
X25500000Y-18900000D02*
G01*
X23950000Y-18900000D01*
X23950000Y-18600000D01*
X25500000Y-18600000D01*
X25500000Y-18900000D01*
G37*
G36*
X33050000Y-18650000D02*
G01*
X31500000Y-18650000D01*
X31500000Y-18350000D01*
X33050000Y-18350000D01*
X33050000Y-18650000D01*
G37*
G36*
X25500000Y-18400000D02*
G01*
X23950000Y-18400000D01*
X23950000Y-18100000D01*
X25500000Y-18100000D01*
X25500000Y-18400000D01*
G37*
G36*
X33050000Y-18150000D02*
G01*
X31500000Y-18150000D01*
X31500000Y-17850000D01*
X33050000Y-17850000D01*
X33050000Y-18150000D01*
G37*
G36*
X25500000Y-17900000D02*
G01*
X23950000Y-17900000D01*
X23950000Y-17600000D01*
X25500000Y-17600000D01*
X25500000Y-17900000D01*
G37*
G36*
X33050000Y-17650000D02*
G01*
X31500000Y-17650000D01*
X31500000Y-17350000D01*
X33050000Y-17350000D01*
X33050000Y-17650000D01*
G37*
G36*
X9876427Y-15813022D02*
G01*
X9876430Y-15813023D01*
X9876431Y-15813023D01*
X9916208Y-15825089D01*
X10046080Y-15864485D01*
X10112523Y-15900000D01*
X10202432Y-15948057D01*
X10202434Y-15948058D01*
X10202433Y-15948058D01*
X10339475Y-16060525D01*
X10451942Y-16197567D01*
X10535515Y-16353920D01*
X10586978Y-16523573D01*
X10604355Y-16700000D01*
X10586978Y-16876427D01*
X10535515Y-17046080D01*
X10535514Y-17046081D01*
X10451943Y-17202432D01*
X10339475Y-17339475D01*
X10202432Y-17451943D01*
X10046080Y-17535515D01*
X9916208Y-17574911D01*
X9876431Y-17586977D01*
X9876430Y-17586977D01*
X9876427Y-17586978D01*
X9744212Y-17600000D01*
X7455788Y-17600000D01*
X7323573Y-17586978D01*
X7323570Y-17586977D01*
X7323569Y-17586977D01*
X7283792Y-17574911D01*
X7153920Y-17535515D01*
X6997568Y-17451943D01*
X6860525Y-17339475D01*
X6748057Y-17202432D01*
X6664486Y-17046081D01*
X6664485Y-17046080D01*
X6613022Y-16876427D01*
X6595645Y-16700000D01*
X6613022Y-16523573D01*
X6664485Y-16353920D01*
X6748058Y-16197567D01*
X6860525Y-16060525D01*
X6997567Y-15948058D01*
X6997566Y-15948058D01*
X6997568Y-15948057D01*
X7087477Y-15900000D01*
X7153920Y-15864485D01*
X7283792Y-15825089D01*
X7323569Y-15813023D01*
X7323570Y-15813023D01*
X7323573Y-15813022D01*
X7455788Y-15800000D01*
X9744212Y-15800000D01*
X9876427Y-15813022D01*
G37*
G36*
X16900000Y-17500000D02*
G01*
X15100000Y-17500000D01*
X15100000Y-15000000D01*
X16900000Y-15000000D01*
X16900000Y-17500000D01*
G37*
G36*
X20900000Y-17500000D02*
G01*
X19100000Y-17500000D01*
X19100000Y-15000000D01*
X20900000Y-15000000D01*
X20900000Y-17500000D01*
G37*
G36*
X25500000Y-17400000D02*
G01*
X23950000Y-17400000D01*
X23950000Y-17100000D01*
X25500000Y-17100000D01*
X25500000Y-17400000D01*
G37*
G36*
X33050000Y-17150000D02*
G01*
X31500000Y-17150000D01*
X31500000Y-16850000D01*
X33050000Y-16850000D01*
X33050000Y-17150000D01*
G37*
G36*
X25500000Y-16900000D02*
G01*
X23950000Y-16900000D01*
X23950000Y-16600000D01*
X25500000Y-16600000D01*
X25500000Y-16900000D01*
G37*
G36*
X33050000Y-16650000D02*
G01*
X31500000Y-16650000D01*
X31500000Y-16350000D01*
X33050000Y-16350000D01*
X33050000Y-16650000D01*
G37*
G36*
X25500000Y-16400000D02*
G01*
X23950000Y-16400000D01*
X23950000Y-16100000D01*
X25500000Y-16100000D01*
X25500000Y-16400000D01*
G37*
G36*
X33050000Y-16150000D02*
G01*
X31500000Y-16150000D01*
X31500000Y-15850000D01*
X33050000Y-15850000D01*
X33050000Y-16150000D01*
G37*
G36*
X25500000Y-15900000D02*
G01*
X23950000Y-15900000D01*
X23950000Y-15600000D01*
X25500000Y-15600000D01*
X25500000Y-15900000D01*
G37*
G36*
X33050000Y-15650000D02*
G01*
X31500000Y-15650000D01*
X31500000Y-15350000D01*
X33050000Y-15350000D01*
X33050000Y-15650000D01*
G37*
G36*
X25500000Y-15400000D02*
G01*
X23950000Y-15400000D01*
X23950000Y-15100000D01*
X25500000Y-15100000D01*
X25500000Y-15400000D01*
G37*
G36*
X33050000Y-15150000D02*
G01*
X31500000Y-15150000D01*
X31500000Y-14850000D01*
X33050000Y-14850000D01*
X33050000Y-15150000D01*
G37*
G36*
X25500000Y-14900000D02*
G01*
X23950000Y-14900000D01*
X23950000Y-14600000D01*
X25500000Y-14600000D01*
X25500000Y-14900000D01*
G37*
G36*
X33050000Y-14650000D02*
G01*
X31500000Y-14650000D01*
X31500000Y-14350000D01*
X33050000Y-14350000D01*
X33050000Y-14650000D01*
G37*
G36*
X25500000Y-14400000D02*
G01*
X23950000Y-14400000D01*
X23950000Y-14100000D01*
X25500000Y-14100000D01*
X25500000Y-14400000D01*
G37*
G36*
X33050000Y-14150000D02*
G01*
X31500000Y-14150000D01*
X31500000Y-13850000D01*
X33050000Y-13850000D01*
X33050000Y-14150000D01*
G37*
G36*
X12500000Y-14100000D02*
G01*
X10700000Y-14100000D01*
X10700000Y-9700000D01*
X12500000Y-9700000D01*
X12500000Y-14100000D01*
G37*
G36*
X5976427Y-9913022D02*
G01*
X5976430Y-9913023D01*
X5976431Y-9913023D01*
X6003410Y-9921207D01*
X6146080Y-9964485D01*
X6181003Y-9983152D01*
X6302432Y-10048057D01*
X6439475Y-10160525D01*
X6541140Y-10284404D01*
X6551942Y-10297567D01*
X6635515Y-10453920D01*
X6686978Y-10623573D01*
X6700000Y-10755788D01*
X6700000Y-13044212D01*
X6686978Y-13176427D01*
X6635515Y-13346080D01*
X6606694Y-13400000D01*
X6551944Y-13502431D01*
X6551942Y-13502433D01*
X6439475Y-13639475D01*
X6302431Y-13751943D01*
X6146081Y-13835514D01*
X6046486Y-13865726D01*
X5976430Y-13886977D01*
X5976429Y-13886977D01*
X5976426Y-13886978D01*
X5800000Y-13904355D01*
X5623573Y-13886978D01*
X5623570Y-13886977D01*
X5623569Y-13886977D01*
X5583792Y-13874911D01*
X5453920Y-13835515D01*
X5375743Y-13793728D01*
X5297568Y-13751943D01*
X5160525Y-13639475D01*
X5048057Y-13502431D01*
X5046758Y-13500000D01*
X4964486Y-13346081D01*
X4934274Y-13246486D01*
X4913023Y-13176430D01*
X4913023Y-13176429D01*
X4913022Y-13176426D01*
X4900000Y-13044211D01*
X4900001Y-10755788D01*
X4913023Y-10623573D01*
X4964486Y-10453920D01*
X5048059Y-10297567D01*
X5058862Y-10284404D01*
X5160526Y-10160525D01*
X5297569Y-10048057D01*
X5418998Y-9983152D01*
X5453921Y-9964485D01*
X5596591Y-9921207D01*
X5623570Y-9913023D01*
X5623571Y-9913023D01*
X5623574Y-9913022D01*
X5800000Y-9895645D01*
X5976427Y-9913022D01*
G37*
G36*
X25500000Y-13900000D02*
G01*
X23950000Y-13900000D01*
X23950000Y-13600000D01*
X25500000Y-13600000D01*
X25500000Y-13900000D01*
G37*
G36*
X33050000Y-13650000D02*
G01*
X31500000Y-13650000D01*
X31500000Y-13350000D01*
X33050000Y-13350000D01*
X33050000Y-13650000D01*
G37*
G36*
X20900000Y-13500000D02*
G01*
X19100000Y-13500000D01*
X19100000Y-11000000D01*
X20900000Y-11000000D01*
X20900000Y-13500000D01*
G37*
G36*
X16900000Y-13500000D02*
G01*
X15100000Y-13500000D01*
X15100000Y-11000000D01*
X16900000Y-11000000D01*
X16900000Y-13500000D01*
G37*
G36*
X25500000Y-13400000D02*
G01*
X23950000Y-13400000D01*
X23950000Y-13100000D01*
X25500000Y-13100000D01*
X25500000Y-13400000D01*
G37*
G36*
X33050000Y-13150000D02*
G01*
X31500000Y-13150000D01*
X31500000Y-12850000D01*
X33050000Y-12850000D01*
X33050000Y-13150000D01*
G37*
G36*
X25500000Y-12900000D02*
G01*
X23950000Y-12900000D01*
X23950000Y-12600000D01*
X25500000Y-12600000D01*
X25500000Y-12900000D01*
G37*
G36*
X33050000Y-12650000D02*
G01*
X31500000Y-12650000D01*
X31500000Y-12350000D01*
X33050000Y-12350000D01*
X33050000Y-12650000D01*
G37*
G36*
X25500000Y-12400000D02*
G01*
X23950000Y-12400000D01*
X23950000Y-12100000D01*
X25500000Y-12100000D01*
X25500000Y-12400000D01*
G37*
G36*
X35706669Y-11582586D02*
G01*
X35729535Y-11589523D01*
X35750596Y-11600780D01*
X35769064Y-11615936D01*
X35784220Y-11634404D01*
X35795477Y-11655465D01*
X35802414Y-11678331D01*
X35805000Y-11704591D01*
X35805000Y-12095409D01*
X35802414Y-12121669D01*
X35795477Y-12144535D01*
X35784220Y-12165596D01*
X35769064Y-12184064D01*
X35750596Y-12199220D01*
X35729535Y-12210477D01*
X35706669Y-12217414D01*
X35680409Y-12220000D01*
X35339591Y-12220000D01*
X35313331Y-12217414D01*
X35290465Y-12210477D01*
X35269404Y-12199220D01*
X35250936Y-12184064D01*
X35235780Y-12165596D01*
X35224523Y-12144535D01*
X35217586Y-12121669D01*
X35215000Y-12095409D01*
X35215000Y-11704591D01*
X35217586Y-11678331D01*
X35224523Y-11655465D01*
X35235780Y-11634404D01*
X35250936Y-11615936D01*
X35269404Y-11600780D01*
X35290465Y-11589523D01*
X35313331Y-11582586D01*
X35339591Y-11580000D01*
X35680409Y-11580000D01*
X35706669Y-11582586D01*
G37*
G36*
X34736669Y-11582586D02*
G01*
X34759535Y-11589523D01*
X34780596Y-11600780D01*
X34799064Y-11615936D01*
X34814220Y-11634404D01*
X34825477Y-11655465D01*
X34832414Y-11678331D01*
X34835000Y-11704591D01*
X34835000Y-12095409D01*
X34832414Y-12121669D01*
X34825477Y-12144535D01*
X34814220Y-12165596D01*
X34799064Y-12184064D01*
X34780596Y-12199220D01*
X34759535Y-12210477D01*
X34736669Y-12217414D01*
X34710409Y-12220000D01*
X34369591Y-12220000D01*
X34343331Y-12217414D01*
X34320465Y-12210477D01*
X34299404Y-12199220D01*
X34280936Y-12184064D01*
X34265780Y-12165596D01*
X34254523Y-12144535D01*
X34247586Y-12121669D01*
X34245000Y-12095409D01*
X34245000Y-11704591D01*
X34247586Y-11678331D01*
X34254523Y-11655465D01*
X34265780Y-11634404D01*
X34280936Y-11615936D01*
X34299404Y-11600780D01*
X34320465Y-11589523D01*
X34343331Y-11582586D01*
X34369591Y-11580000D01*
X34710409Y-11580000D01*
X34736669Y-11582586D01*
G37*
G36*
X33050000Y-12150000D02*
G01*
X31500000Y-12150000D01*
X31500000Y-11850000D01*
X33050000Y-11850000D01*
X33050000Y-12150000D01*
G37*
G36*
X25500000Y-11900000D02*
G01*
X23950000Y-11900000D01*
X23950000Y-11600000D01*
X25500000Y-11600000D01*
X25500000Y-11900000D01*
G37*
G36*
X33050000Y-11650000D02*
G01*
X31500000Y-11650000D01*
X31500000Y-11350000D01*
X33050000Y-11350000D01*
X33050000Y-11650000D01*
G37*
G36*
X25500000Y-11400000D02*
G01*
X23950000Y-11400000D01*
X23950000Y-11100000D01*
X25500000Y-11100000D01*
X25500000Y-11400000D01*
G37*
G36*
X33050000Y-11150000D02*
G01*
X31500000Y-11150000D01*
X31500000Y-10850000D01*
X33050000Y-10850000D01*
X33050000Y-11150000D01*
G37*
G36*
X25500000Y-10900000D02*
G01*
X23950000Y-10900000D01*
X23950000Y-10600000D01*
X25500000Y-10600000D01*
X25500000Y-10900000D01*
G37*
G36*
X34726669Y-10232586D02*
G01*
X34749535Y-10239523D01*
X34770596Y-10250780D01*
X34789064Y-10265936D01*
X34804220Y-10284404D01*
X34815477Y-10305465D01*
X34822414Y-10328331D01*
X34825000Y-10354591D01*
X34825000Y-10745409D01*
X34822414Y-10771669D01*
X34815477Y-10794535D01*
X34804220Y-10815596D01*
X34789064Y-10834064D01*
X34770596Y-10849220D01*
X34749535Y-10860477D01*
X34726669Y-10867414D01*
X34700409Y-10870000D01*
X34359591Y-10870000D01*
X34333331Y-10867414D01*
X34310465Y-10860477D01*
X34289404Y-10849220D01*
X34270936Y-10834064D01*
X34255780Y-10815596D01*
X34244523Y-10794535D01*
X34237586Y-10771669D01*
X34235000Y-10745409D01*
X34235000Y-10354591D01*
X34237586Y-10328331D01*
X34244523Y-10305465D01*
X34255780Y-10284404D01*
X34270936Y-10265936D01*
X34289404Y-10250780D01*
X34310465Y-10239523D01*
X34333331Y-10232586D01*
X34359591Y-10230000D01*
X34700409Y-10230000D01*
X34726669Y-10232586D01*
G37*
G36*
X35696669Y-10232586D02*
G01*
X35719535Y-10239523D01*
X35740596Y-10250780D01*
X35759064Y-10265936D01*
X35774220Y-10284404D01*
X35785477Y-10305465D01*
X35792414Y-10328331D01*
X35795000Y-10354591D01*
X35795000Y-10745409D01*
X35792414Y-10771669D01*
X35785477Y-10794535D01*
X35774220Y-10815596D01*
X35759064Y-10834064D01*
X35740596Y-10849220D01*
X35719535Y-10860477D01*
X35696669Y-10867414D01*
X35670409Y-10870000D01*
X35329591Y-10870000D01*
X35303331Y-10867414D01*
X35280465Y-10860477D01*
X35259404Y-10849220D01*
X35240936Y-10834064D01*
X35225780Y-10815596D01*
X35214523Y-10794535D01*
X35207586Y-10771669D01*
X35205000Y-10745409D01*
X35205000Y-10354591D01*
X35207586Y-10328331D01*
X35214523Y-10305465D01*
X35225780Y-10284404D01*
X35240936Y-10265936D01*
X35259404Y-10250780D01*
X35280465Y-10239523D01*
X35303331Y-10232586D01*
X35329591Y-10230000D01*
X35670409Y-10230000D01*
X35696669Y-10232586D01*
G37*
G36*
X30233352Y-9230743D02*
G01*
X30378940Y-9291047D01*
X30509974Y-9378602D01*
X30621398Y-9490026D01*
X30708953Y-9621060D01*
X30769257Y-9766648D01*
X30800000Y-9921207D01*
X30800000Y-10078793D01*
X30769257Y-10233352D01*
X30708953Y-10378940D01*
X30621398Y-10509974D01*
X30509974Y-10621398D01*
X30378940Y-10708953D01*
X30233352Y-10769257D01*
X30078793Y-10800000D01*
X29921207Y-10800000D01*
X29766648Y-10769257D01*
X29621060Y-10708953D01*
X29490026Y-10621398D01*
X29378602Y-10509974D01*
X29291047Y-10378940D01*
X29230743Y-10233352D01*
X29200000Y-10078793D01*
X29200000Y-9921207D01*
X29230743Y-9766648D01*
X29291047Y-9621060D01*
X29378602Y-9490026D01*
X29490026Y-9378602D01*
X29621060Y-9291047D01*
X29766648Y-9230743D01*
X29921207Y-9200000D01*
X30078793Y-9200000D01*
X30233352Y-9230743D01*
G37*
G36*
X26875000Y-10250000D02*
G01*
X24125000Y-10250000D01*
X24125000Y-9050000D01*
X26875000Y-9050000D01*
X26875000Y-10250000D01*
G37*
G36*
X16849196Y-8604436D02*
G01*
X16890114Y-8616848D01*
X16927826Y-8637006D01*
X16960873Y-8664127D01*
X16987994Y-8697174D01*
X17008152Y-8734886D01*
X17020564Y-8775804D01*
X17025000Y-8820843D01*
X17025000Y-9779157D01*
X17020564Y-9824196D01*
X17008152Y-9865114D01*
X16987994Y-9902826D01*
X16960873Y-9935873D01*
X16927826Y-9962994D01*
X16890114Y-9983152D01*
X16849196Y-9995564D01*
X16804157Y-10000000D01*
X16270843Y-10000000D01*
X16225804Y-9995564D01*
X16184886Y-9983152D01*
X16147174Y-9962994D01*
X16114127Y-9935873D01*
X16087006Y-9902826D01*
X16066848Y-9865114D01*
X16054436Y-9824196D01*
X16050000Y-9779157D01*
X16050000Y-8820843D01*
X16054436Y-8775804D01*
X16066848Y-8734886D01*
X16087006Y-8697174D01*
X16114127Y-8664127D01*
X16147174Y-8637006D01*
X16184886Y-8616848D01*
X16225804Y-8604436D01*
X16270843Y-8600000D01*
X16804157Y-8600000D01*
X16849196Y-8604436D01*
G37*
G36*
X14974196Y-8604436D02*
G01*
X15015114Y-8616848D01*
X15052826Y-8637006D01*
X15085873Y-8664127D01*
X15112994Y-8697174D01*
X15133152Y-8734886D01*
X15145564Y-8775804D01*
X15150000Y-8820843D01*
X15150000Y-9779157D01*
X15145564Y-9824196D01*
X15133152Y-9865114D01*
X15112994Y-9902826D01*
X15085873Y-9935873D01*
X15052826Y-9962994D01*
X15015114Y-9983152D01*
X14974196Y-9995564D01*
X14929157Y-10000000D01*
X14395843Y-10000000D01*
X14350804Y-9995564D01*
X14309886Y-9983152D01*
X14272174Y-9962994D01*
X14239127Y-9935873D01*
X14212006Y-9902826D01*
X14191848Y-9865114D01*
X14179436Y-9824196D01*
X14175000Y-9779157D01*
X14175000Y-8820843D01*
X14179436Y-8775804D01*
X14191848Y-8734886D01*
X14212006Y-8697174D01*
X14239127Y-8664127D01*
X14272174Y-8637006D01*
X14309886Y-8616848D01*
X14350804Y-8604436D01*
X14395843Y-8600000D01*
X14929157Y-8600000D01*
X14974196Y-8604436D01*
G37*
G36*
X21648255Y-8629458D02*
G01*
X21689392Y-8641937D01*
X21727303Y-8662201D01*
X21760530Y-8689470D01*
X21787799Y-8722697D01*
X21808063Y-8760608D01*
X21820542Y-8801745D01*
X21825000Y-8847011D01*
X21825000Y-9652989D01*
X21820542Y-9698255D01*
X21808063Y-9739392D01*
X21787799Y-9777303D01*
X21760530Y-9810530D01*
X21727303Y-9837799D01*
X21689392Y-9858063D01*
X21648255Y-9870542D01*
X21602989Y-9875000D01*
X19397011Y-9875000D01*
X19351745Y-9870542D01*
X19310608Y-9858063D01*
X19272697Y-9837799D01*
X19239470Y-9810530D01*
X19212201Y-9777303D01*
X19191937Y-9739392D01*
X19179458Y-9698255D01*
X19175000Y-9652989D01*
X19175000Y-8847011D01*
X19179458Y-8801745D01*
X19191937Y-8760608D01*
X19212201Y-8722697D01*
X19239470Y-8689470D01*
X19272697Y-8662201D01*
X19310608Y-8641937D01*
X19351745Y-8629458D01*
X19397011Y-8625000D01*
X21602989Y-8625000D01*
X21648255Y-8629458D01*
G37*
G36*
X14414906Y-7201674D02*
G01*
X14428853Y-7205904D01*
X14441708Y-7212775D01*
X14452976Y-7222023D01*
X14462224Y-7233291D01*
X14469095Y-7246146D01*
X14473325Y-7260093D01*
X14475000Y-7277092D01*
X14475000Y-7622906D01*
X14473325Y-7639905D01*
X14469095Y-7653852D01*
X14462224Y-7666707D01*
X14452976Y-7677975D01*
X14441708Y-7687223D01*
X14428853Y-7694094D01*
X14414906Y-7698324D01*
X14397907Y-7699999D01*
X14152093Y-7699999D01*
X14135094Y-7698324D01*
X14121147Y-7694094D01*
X14108292Y-7687223D01*
X14097024Y-7677975D01*
X14087776Y-7666707D01*
X14080905Y-7653852D01*
X14076675Y-7639905D01*
X14075000Y-7622906D01*
X14075000Y-7277092D01*
X14076675Y-7260093D01*
X14080905Y-7246146D01*
X14087776Y-7233291D01*
X14097024Y-7222023D01*
X14108292Y-7212775D01*
X14121147Y-7205904D01*
X14135094Y-7201674D01*
X14152093Y-7199999D01*
X14397907Y-7199999D01*
X14414906Y-7201674D01*
G37*
G36*
X15064906Y-7201674D02*
G01*
X15078853Y-7205904D01*
X15091708Y-7212775D01*
X15102976Y-7222023D01*
X15112224Y-7233291D01*
X15119095Y-7246146D01*
X15123325Y-7260093D01*
X15125000Y-7277092D01*
X15125000Y-7622906D01*
X15123325Y-7639905D01*
X15119095Y-7653852D01*
X15112224Y-7666707D01*
X15102976Y-7677975D01*
X15091708Y-7687223D01*
X15078853Y-7694094D01*
X15064906Y-7698324D01*
X15047907Y-7699999D01*
X14802093Y-7699999D01*
X14785094Y-7698324D01*
X14771147Y-7694094D01*
X14758292Y-7687223D01*
X14747024Y-7677975D01*
X14737776Y-7666707D01*
X14730905Y-7653852D01*
X14726675Y-7639905D01*
X14725000Y-7622906D01*
X14725000Y-7277092D01*
X14726675Y-7260093D01*
X14730905Y-7246146D01*
X14737776Y-7233291D01*
X14747024Y-7222023D01*
X14758292Y-7212775D01*
X14771147Y-7205904D01*
X14785094Y-7201674D01*
X14802093Y-7199999D01*
X15047907Y-7199999D01*
X15064906Y-7201674D01*
G37*
G36*
X15714906Y-7201674D02*
G01*
X15728853Y-7205904D01*
X15741708Y-7212775D01*
X15752976Y-7222023D01*
X15762224Y-7233291D01*
X15769095Y-7246146D01*
X15773325Y-7260093D01*
X15775000Y-7277092D01*
X15775000Y-7622906D01*
X15773325Y-7639905D01*
X15769095Y-7653852D01*
X15762224Y-7666707D01*
X15752976Y-7677975D01*
X15741708Y-7687223D01*
X15728853Y-7694094D01*
X15714906Y-7698324D01*
X15697907Y-7699999D01*
X15452093Y-7699999D01*
X15435094Y-7698324D01*
X15421147Y-7694094D01*
X15408292Y-7687223D01*
X15397024Y-7677975D01*
X15387776Y-7666707D01*
X15380905Y-7653852D01*
X15376675Y-7639905D01*
X15375000Y-7622906D01*
X15375000Y-7277092D01*
X15376675Y-7260093D01*
X15380905Y-7246146D01*
X15387776Y-7233291D01*
X15397024Y-7222023D01*
X15408292Y-7212775D01*
X15421147Y-7205904D01*
X15435094Y-7201674D01*
X15452093Y-7199999D01*
X15697907Y-7199999D01*
X15714906Y-7201674D01*
G37*
G36*
X16364906Y-7201674D02*
G01*
X16378853Y-7205904D01*
X16391708Y-7212775D01*
X16402976Y-7222023D01*
X16412224Y-7233291D01*
X16419095Y-7246146D01*
X16423325Y-7260093D01*
X16425000Y-7277092D01*
X16425000Y-7622906D01*
X16423325Y-7639905D01*
X16419095Y-7653852D01*
X16412224Y-7666707D01*
X16402976Y-7677975D01*
X16391708Y-7687223D01*
X16378853Y-7694094D01*
X16364906Y-7698324D01*
X16347907Y-7699999D01*
X16102093Y-7699999D01*
X16085094Y-7698324D01*
X16071147Y-7694094D01*
X16058292Y-7687223D01*
X16047024Y-7677975D01*
X16037776Y-7666707D01*
X16030905Y-7653852D01*
X16026675Y-7639905D01*
X16025000Y-7622906D01*
X16025000Y-7277092D01*
X16026675Y-7260093D01*
X16030905Y-7246146D01*
X16037776Y-7233291D01*
X16047024Y-7222023D01*
X16058292Y-7212775D01*
X16071147Y-7205904D01*
X16085094Y-7201674D01*
X16102093Y-7199999D01*
X16347907Y-7199999D01*
X16364906Y-7201674D01*
G37*
G36*
X21648255Y-5829458D02*
G01*
X21689392Y-5841937D01*
X21727303Y-5862201D01*
X21760530Y-5889470D01*
X21787799Y-5922697D01*
X21808063Y-5960608D01*
X21820542Y-6001745D01*
X21825000Y-6047011D01*
X21825000Y-6852989D01*
X21820542Y-6898255D01*
X21808063Y-6939392D01*
X21787799Y-6977303D01*
X21760530Y-7010530D01*
X21727303Y-7037799D01*
X21689392Y-7058063D01*
X21648255Y-7070542D01*
X21602989Y-7075000D01*
X19397011Y-7075000D01*
X19351745Y-7070542D01*
X19310608Y-7058063D01*
X19272697Y-7037799D01*
X19239470Y-7010530D01*
X19212201Y-6977303D01*
X19191937Y-6939392D01*
X19179458Y-6898255D01*
X19175000Y-6852989D01*
X19175000Y-6047011D01*
X19179458Y-6001745D01*
X19191937Y-5960608D01*
X19212201Y-5922697D01*
X19239470Y-5889470D01*
X19272697Y-5862201D01*
X19310608Y-5841937D01*
X19351745Y-5829458D01*
X19397011Y-5825000D01*
X21602989Y-5825000D01*
X21648255Y-5829458D01*
G37*
G36*
X27249180Y-5679436D02*
G01*
X27290102Y-5691849D01*
X27327814Y-5712007D01*
X27360867Y-5739133D01*
X27387993Y-5772186D01*
X27408151Y-5809898D01*
X27420564Y-5850820D01*
X27425000Y-5895861D01*
X27425000Y-6779139D01*
X27420564Y-6824180D01*
X27408151Y-6865102D01*
X27387993Y-6902814D01*
X27360867Y-6935867D01*
X27327814Y-6962993D01*
X27290102Y-6983151D01*
X27249180Y-6995564D01*
X27204139Y-7000000D01*
X25295861Y-7000000D01*
X25250820Y-6995564D01*
X25209898Y-6983151D01*
X25172186Y-6962993D01*
X25139133Y-6935867D01*
X25112007Y-6902814D01*
X25091849Y-6865102D01*
X25079436Y-6824180D01*
X25075000Y-6779139D01*
X25075000Y-5895861D01*
X25079436Y-5850820D01*
X25091849Y-5809898D01*
X25112007Y-5772186D01*
X25139133Y-5739133D01*
X25172186Y-5712007D01*
X25209898Y-5691849D01*
X25250820Y-5679436D01*
X25295861Y-5675000D01*
X27204139Y-5675000D01*
X27249180Y-5679436D01*
G37*
G36*
X16152912Y-5851363D02*
G01*
X16163832Y-5854676D01*
X16173894Y-5860054D01*
X16182711Y-5867289D01*
X16189946Y-5876106D01*
X16195324Y-5886168D01*
X16198637Y-5897088D01*
X16200000Y-5910929D01*
X16200000Y-6889071D01*
X16198637Y-6902912D01*
X16195324Y-6913832D01*
X16189946Y-6923894D01*
X16182711Y-6932711D01*
X16173894Y-6939946D01*
X16163832Y-6945324D01*
X16152912Y-6948637D01*
X16139071Y-6950000D01*
X14360929Y-6950000D01*
X14347088Y-6948637D01*
X14336168Y-6945324D01*
X14326106Y-6939946D01*
X14317289Y-6932711D01*
X14310054Y-6923894D01*
X14304676Y-6913832D01*
X14301363Y-6902912D01*
X14300000Y-6889071D01*
X14300000Y-5910929D01*
X14301363Y-5897088D01*
X14304676Y-5886168D01*
X14310054Y-5876106D01*
X14317289Y-5867289D01*
X14326106Y-5860054D01*
X14336168Y-5854676D01*
X14347088Y-5851363D01*
X14360929Y-5850000D01*
X16139071Y-5850000D01*
X16152912Y-5851363D01*
G37*
G36*
X86685470Y-1740309D02*
G01*
X87113143Y-1917457D01*
X87498038Y-2174636D01*
X87825364Y-2501962D01*
X88082543Y-2886857D01*
X88259691Y-3314530D01*
X88350000Y-3768545D01*
X88350000Y-4231455D01*
X88259691Y-4685470D01*
X88082543Y-5113143D01*
X87825364Y-5498038D01*
X87498038Y-5825364D01*
X87113143Y-6082543D01*
X86685470Y-6259691D01*
X86231455Y-6350000D01*
X85768545Y-6350000D01*
X85314530Y-6259691D01*
X84886857Y-6082543D01*
X84501962Y-5825364D01*
X84174636Y-5498038D01*
X83917457Y-5113143D01*
X83740309Y-4685470D01*
X83650000Y-4231455D01*
X83650000Y-3768545D01*
X83740309Y-3314530D01*
X83917457Y-2886857D01*
X84174636Y-2501962D01*
X84501962Y-2174636D01*
X84886857Y-1917457D01*
X85314530Y-1740309D01*
X85768545Y-1650000D01*
X86231455Y-1650000D01*
X86685470Y-1740309D01*
G37*
G36*
X4685470Y-1740309D02*
G01*
X5113143Y-1917457D01*
X5498038Y-2174636D01*
X5825364Y-2501962D01*
X6082543Y-2886857D01*
X6259691Y-3314530D01*
X6350000Y-3768545D01*
X6350000Y-4231455D01*
X6259691Y-4685470D01*
X6082543Y-5113143D01*
X5825364Y-5498038D01*
X5498038Y-5825364D01*
X5113143Y-6082543D01*
X4685470Y-6259691D01*
X4231455Y-6350000D01*
X3768545Y-6350000D01*
X3314530Y-6259691D01*
X2886857Y-6082543D01*
X2501962Y-5825364D01*
X2174636Y-5498038D01*
X1917457Y-5113143D01*
X1740309Y-4685470D01*
X1650000Y-4231455D01*
X1650000Y-3768545D01*
X1740309Y-3314530D01*
X1917457Y-2886857D01*
X2174636Y-2501962D01*
X2501962Y-2174636D01*
X2886857Y-1917457D01*
X3314530Y-1740309D01*
X3768545Y-1650000D01*
X4231455Y-1650000D01*
X4685470Y-1740309D01*
G37*
G36*
X29769322Y-5203956D02*
G01*
X29805544Y-5214944D01*
X29838934Y-5232791D01*
X29868195Y-5256805D01*
X29892209Y-5286066D01*
X29910056Y-5319456D01*
X29921044Y-5355678D01*
X29925000Y-5395841D01*
X29925000Y-5879159D01*
X29921044Y-5919322D01*
X29910056Y-5955544D01*
X29892209Y-5988934D01*
X29868195Y-6018195D01*
X29838934Y-6042209D01*
X29805544Y-6060056D01*
X29769322Y-6071044D01*
X29729159Y-6075000D01*
X29170841Y-6075000D01*
X29130678Y-6071044D01*
X29094456Y-6060056D01*
X29061066Y-6042209D01*
X29031805Y-6018195D01*
X29007791Y-5988934D01*
X28989944Y-5955544D01*
X28978956Y-5919322D01*
X28975000Y-5879159D01*
X28975000Y-5395841D01*
X28978956Y-5355678D01*
X28989944Y-5319456D01*
X29007791Y-5286066D01*
X29031805Y-5256805D01*
X29061066Y-5232791D01*
X29094456Y-5214944D01*
X29130678Y-5203956D01*
X29170841Y-5200000D01*
X29729159Y-5200000D01*
X29769322Y-5203956D01*
G37*
G36*
X31871669Y-5242586D02*
G01*
X31894535Y-5249523D01*
X31915596Y-5260780D01*
X31934064Y-5275936D01*
X31949220Y-5294404D01*
X31960477Y-5315465D01*
X31967414Y-5338331D01*
X31970000Y-5364591D01*
X31970000Y-5705409D01*
X31967414Y-5731669D01*
X31960477Y-5754535D01*
X31949220Y-5775596D01*
X31934064Y-5794064D01*
X31915596Y-5809220D01*
X31894535Y-5820477D01*
X31871669Y-5827414D01*
X31845409Y-5830000D01*
X31454591Y-5830000D01*
X31428331Y-5827414D01*
X31405465Y-5820477D01*
X31384404Y-5809220D01*
X31365936Y-5794064D01*
X31350780Y-5775596D01*
X31339523Y-5754535D01*
X31332586Y-5731669D01*
X31330000Y-5705409D01*
X31330000Y-5364591D01*
X31332586Y-5338331D01*
X31339523Y-5315465D01*
X31350780Y-5294404D01*
X31365936Y-5275936D01*
X31384404Y-5260780D01*
X31405465Y-5249523D01*
X31428331Y-5242586D01*
X31454591Y-5240000D01*
X31845409Y-5240000D01*
X31871669Y-5242586D01*
G37*
G36*
X16364906Y-5101676D02*
G01*
X16378853Y-5105906D01*
X16391708Y-5112777D01*
X16402976Y-5122025D01*
X16412224Y-5133293D01*
X16419095Y-5146148D01*
X16423325Y-5160095D01*
X16425000Y-5177094D01*
X16425000Y-5522908D01*
X16423325Y-5539907D01*
X16419095Y-5553854D01*
X16412224Y-5566709D01*
X16402976Y-5577977D01*
X16391708Y-5587225D01*
X16378853Y-5594096D01*
X16364906Y-5598326D01*
X16347907Y-5600001D01*
X16102093Y-5600001D01*
X16085094Y-5598326D01*
X16071147Y-5594096D01*
X16058292Y-5587225D01*
X16047024Y-5577977D01*
X16037776Y-5566709D01*
X16030905Y-5553854D01*
X16026675Y-5539907D01*
X16025000Y-5522908D01*
X16025000Y-5177094D01*
X16026675Y-5160095D01*
X16030905Y-5146148D01*
X16037776Y-5133293D01*
X16047024Y-5122025D01*
X16058292Y-5112777D01*
X16071147Y-5105906D01*
X16085094Y-5101676D01*
X16102093Y-5100001D01*
X16347907Y-5100001D01*
X16364906Y-5101676D01*
G37*
G36*
X15714906Y-5101676D02*
G01*
X15728853Y-5105906D01*
X15741708Y-5112777D01*
X15752976Y-5122025D01*
X15762224Y-5133293D01*
X15769095Y-5146148D01*
X15773325Y-5160095D01*
X15775000Y-5177094D01*
X15775000Y-5522908D01*
X15773325Y-5539907D01*
X15769095Y-5553854D01*
X15762224Y-5566709D01*
X15752976Y-5577977D01*
X15741708Y-5587225D01*
X15728853Y-5594096D01*
X15714906Y-5598326D01*
X15697907Y-5600001D01*
X15452093Y-5600001D01*
X15435094Y-5598326D01*
X15421147Y-5594096D01*
X15408292Y-5587225D01*
X15397024Y-5577977D01*
X15387776Y-5566709D01*
X15380905Y-5553854D01*
X15376675Y-5539907D01*
X15375000Y-5522908D01*
X15375000Y-5177094D01*
X15376675Y-5160095D01*
X15380905Y-5146148D01*
X15387776Y-5133293D01*
X15397024Y-5122025D01*
X15408292Y-5112777D01*
X15421147Y-5105906D01*
X15435094Y-5101676D01*
X15452093Y-5100001D01*
X15697907Y-5100001D01*
X15714906Y-5101676D01*
G37*
G36*
X15064906Y-5101676D02*
G01*
X15078853Y-5105906D01*
X15091708Y-5112777D01*
X15102976Y-5122025D01*
X15112224Y-5133293D01*
X15119095Y-5146148D01*
X15123325Y-5160095D01*
X15125000Y-5177094D01*
X15125000Y-5522908D01*
X15123325Y-5539907D01*
X15119095Y-5553854D01*
X15112224Y-5566709D01*
X15102976Y-5577977D01*
X15091708Y-5587225D01*
X15078853Y-5594096D01*
X15064906Y-5598326D01*
X15047907Y-5600001D01*
X14802093Y-5600001D01*
X14785094Y-5598326D01*
X14771147Y-5594096D01*
X14758292Y-5587225D01*
X14747024Y-5577977D01*
X14737776Y-5566709D01*
X14730905Y-5553854D01*
X14726675Y-5539907D01*
X14725000Y-5522908D01*
X14725000Y-5177094D01*
X14726675Y-5160095D01*
X14730905Y-5146148D01*
X14737776Y-5133293D01*
X14747024Y-5122025D01*
X14758292Y-5112777D01*
X14771147Y-5105906D01*
X14785094Y-5101676D01*
X14802093Y-5100001D01*
X15047907Y-5100001D01*
X15064906Y-5101676D01*
G37*
G36*
X14414906Y-5101676D02*
G01*
X14428853Y-5105906D01*
X14441708Y-5112777D01*
X14452976Y-5122025D01*
X14462224Y-5133293D01*
X14469095Y-5146148D01*
X14473325Y-5160095D01*
X14475000Y-5177094D01*
X14475000Y-5522908D01*
X14473325Y-5539907D01*
X14469095Y-5553854D01*
X14462224Y-5566709D01*
X14452976Y-5577977D01*
X14441708Y-5587225D01*
X14428853Y-5594096D01*
X14414906Y-5598326D01*
X14397907Y-5600001D01*
X14152093Y-5600001D01*
X14135094Y-5598326D01*
X14121147Y-5594096D01*
X14108292Y-5587225D01*
X14097024Y-5577977D01*
X14087776Y-5566709D01*
X14080905Y-5553854D01*
X14076675Y-5539907D01*
X14075000Y-5522908D01*
X14075000Y-5177094D01*
X14076675Y-5160095D01*
X14080905Y-5146148D01*
X14087776Y-5133293D01*
X14097024Y-5122025D01*
X14108292Y-5112777D01*
X14121147Y-5105906D01*
X14135094Y-5101676D01*
X14152093Y-5100001D01*
X14397907Y-5100001D01*
X14414906Y-5101676D01*
G37*
G36*
X31871669Y-4272586D02*
G01*
X31894535Y-4279523D01*
X31915596Y-4290780D01*
X31934064Y-4305936D01*
X31949220Y-4324404D01*
X31960477Y-4345465D01*
X31967414Y-4368331D01*
X31970000Y-4394591D01*
X31970000Y-4735409D01*
X31967414Y-4761669D01*
X31960477Y-4784535D01*
X31949220Y-4805596D01*
X31934064Y-4824064D01*
X31915596Y-4839220D01*
X31894535Y-4850477D01*
X31871669Y-4857414D01*
X31845409Y-4860000D01*
X31454591Y-4860000D01*
X31428331Y-4857414D01*
X31405465Y-4850477D01*
X31384404Y-4839220D01*
X31365936Y-4824064D01*
X31350780Y-4805596D01*
X31339523Y-4784535D01*
X31332586Y-4761669D01*
X31330000Y-4735409D01*
X31330000Y-4394591D01*
X31332586Y-4368331D01*
X31339523Y-4345465D01*
X31350780Y-4324404D01*
X31365936Y-4305936D01*
X31384404Y-4290780D01*
X31405465Y-4279523D01*
X31428331Y-4272586D01*
X31454591Y-4270000D01*
X31845409Y-4270000D01*
X31871669Y-4272586D01*
G37*
G36*
X29769322Y-3628956D02*
G01*
X29805544Y-3639944D01*
X29838934Y-3657791D01*
X29868195Y-3681805D01*
X29892209Y-3711066D01*
X29910056Y-3744456D01*
X29921044Y-3780678D01*
X29925000Y-3820841D01*
X29925000Y-4304159D01*
X29921044Y-4344322D01*
X29910056Y-4380544D01*
X29892209Y-4413934D01*
X29868195Y-4443195D01*
X29838934Y-4467209D01*
X29805544Y-4485056D01*
X29769322Y-4496044D01*
X29729159Y-4500000D01*
X29170841Y-4500000D01*
X29130678Y-4496044D01*
X29094456Y-4485056D01*
X29061066Y-4467209D01*
X29031805Y-4443195D01*
X29007791Y-4413934D01*
X28989944Y-4380544D01*
X28978956Y-4344322D01*
X28975000Y-4304159D01*
X28975000Y-3820841D01*
X28978956Y-3780678D01*
X28989944Y-3744456D01*
X29007791Y-3711066D01*
X29031805Y-3681805D01*
X29061066Y-3657791D01*
X29094456Y-3639944D01*
X29130678Y-3628956D01*
X29170841Y-3625000D01*
X29729159Y-3625000D01*
X29769322Y-3628956D01*
G37*
G36*
X20219322Y-3353956D02*
G01*
X20255544Y-3364944D01*
X20288934Y-3382791D01*
X20318195Y-3406805D01*
X20342209Y-3436066D01*
X20360056Y-3469456D01*
X20371044Y-3505678D01*
X20375000Y-3545841D01*
X20375000Y-4029159D01*
X20371044Y-4069322D01*
X20360056Y-4105544D01*
X20342209Y-4138934D01*
X20318195Y-4168195D01*
X20288934Y-4192209D01*
X20255544Y-4210056D01*
X20219322Y-4221044D01*
X20179159Y-4225000D01*
X19620841Y-4225000D01*
X19580678Y-4221044D01*
X19544456Y-4210056D01*
X19511066Y-4192209D01*
X19481805Y-4168195D01*
X19457791Y-4138934D01*
X19439944Y-4105544D01*
X19428956Y-4069322D01*
X19425000Y-4029159D01*
X19425000Y-3545841D01*
X19428956Y-3505678D01*
X19439944Y-3469456D01*
X19457791Y-3436066D01*
X19481805Y-3406805D01*
X19511066Y-3382791D01*
X19544456Y-3364944D01*
X19580678Y-3353956D01*
X19620841Y-3350000D01*
X20179159Y-3350000D01*
X20219322Y-3353956D01*
G37*
G36*
X18419322Y-3353956D02*
G01*
X18455544Y-3364944D01*
X18488934Y-3382791D01*
X18518195Y-3406805D01*
X18542209Y-3436066D01*
X18560056Y-3469456D01*
X18571044Y-3505678D01*
X18575000Y-3545841D01*
X18575000Y-4029159D01*
X18571044Y-4069322D01*
X18560056Y-4105544D01*
X18542209Y-4138934D01*
X18518195Y-4168195D01*
X18488934Y-4192209D01*
X18455544Y-4210056D01*
X18419322Y-4221044D01*
X18379159Y-4225000D01*
X17820841Y-4225000D01*
X17780678Y-4221044D01*
X17744456Y-4210056D01*
X17711066Y-4192209D01*
X17681805Y-4168195D01*
X17657791Y-4138934D01*
X17639944Y-4105544D01*
X17628956Y-4069322D01*
X17625000Y-4029159D01*
X17625000Y-3545841D01*
X17628956Y-3505678D01*
X17639944Y-3469456D01*
X17657791Y-3436066D01*
X17681805Y-3406805D01*
X17711066Y-3382791D01*
X17744456Y-3364944D01*
X17780678Y-3353956D01*
X17820841Y-3350000D01*
X18379159Y-3350000D01*
X18419322Y-3353956D01*
G37*
G36*
X16619322Y-3353956D02*
G01*
X16655544Y-3364944D01*
X16688934Y-3382791D01*
X16718195Y-3406805D01*
X16742209Y-3436066D01*
X16760056Y-3469456D01*
X16771044Y-3505678D01*
X16775000Y-3545841D01*
X16775000Y-4029159D01*
X16771044Y-4069322D01*
X16760056Y-4105544D01*
X16742209Y-4138934D01*
X16718195Y-4168195D01*
X16688934Y-4192209D01*
X16655544Y-4210056D01*
X16619322Y-4221044D01*
X16579159Y-4225000D01*
X16020841Y-4225000D01*
X15980678Y-4221044D01*
X15944456Y-4210056D01*
X15911066Y-4192209D01*
X15881805Y-4168195D01*
X15857791Y-4138934D01*
X15839944Y-4105544D01*
X15828956Y-4069322D01*
X15825000Y-4029159D01*
X15825000Y-3545841D01*
X15828956Y-3505678D01*
X15839944Y-3469456D01*
X15857791Y-3436066D01*
X15881805Y-3406805D01*
X15911066Y-3382791D01*
X15944456Y-3364944D01*
X15980678Y-3353956D01*
X16020841Y-3350000D01*
X16579159Y-3350000D01*
X16619322Y-3353956D01*
G37*
G36*
X22918768Y-2678822D02*
G01*
X23055258Y-2735358D01*
X23178099Y-2817438D01*
X23282562Y-2921901D01*
X23364642Y-3044742D01*
X23421178Y-3181232D01*
X23450000Y-3326131D01*
X23450000Y-3473869D01*
X23421178Y-3618768D01*
X23364642Y-3755258D01*
X23282562Y-3878099D01*
X23178099Y-3982562D01*
X23055258Y-4064642D01*
X22918768Y-4121178D01*
X22773869Y-4150000D01*
X22626131Y-4150000D01*
X22481232Y-4121178D01*
X22344742Y-4064642D01*
X22221901Y-3982562D01*
X22117438Y-3878099D01*
X22035358Y-3755258D01*
X21978822Y-3618768D01*
X21950000Y-3473869D01*
X21950000Y-3326131D01*
X21978822Y-3181232D01*
X22035358Y-3044742D01*
X22117438Y-2921901D01*
X22221901Y-2817438D01*
X22344742Y-2735358D01*
X22481232Y-2678822D01*
X22626131Y-2650000D01*
X22773869Y-2650000D01*
X22918768Y-2678822D01*
G37*
G36*
X12668768Y-2678822D02*
G01*
X12805258Y-2735358D01*
X12928099Y-2817438D01*
X13032562Y-2921901D01*
X13114642Y-3044742D01*
X13171178Y-3181232D01*
X13200000Y-3326131D01*
X13200000Y-3473869D01*
X13171178Y-3618768D01*
X13114642Y-3755258D01*
X13032562Y-3878099D01*
X12928099Y-3982562D01*
X12805258Y-4064642D01*
X12668768Y-4121178D01*
X12523869Y-4150000D01*
X12376131Y-4150000D01*
X12231232Y-4121178D01*
X12094742Y-4064642D01*
X11971901Y-3982562D01*
X11867438Y-3878099D01*
X11785358Y-3755258D01*
X11728822Y-3618768D01*
X11700000Y-3473869D01*
X11700000Y-3326131D01*
X11728822Y-3181232D01*
X11785358Y-3044742D01*
X11867438Y-2921901D01*
X11971901Y-2817438D01*
X12094742Y-2735358D01*
X12231232Y-2678822D01*
X12376131Y-2650000D01*
X12523869Y-2650000D01*
X12668768Y-2678822D01*
G37*
G36*
X27249180Y-2604436D02*
G01*
X27290102Y-2616849D01*
X27327814Y-2637007D01*
X27360867Y-2664133D01*
X27387993Y-2697186D01*
X27408151Y-2734898D01*
X27420564Y-2775820D01*
X27425000Y-2820861D01*
X27425000Y-3704139D01*
X27420564Y-3749180D01*
X27408151Y-3790102D01*
X27387993Y-3827814D01*
X27360867Y-3860867D01*
X27327814Y-3887993D01*
X27290102Y-3908151D01*
X27249180Y-3920564D01*
X27204139Y-3925000D01*
X25295861Y-3925000D01*
X25250820Y-3920564D01*
X25209898Y-3908151D01*
X25172186Y-3887993D01*
X25139133Y-3860867D01*
X25112007Y-3827814D01*
X25091849Y-3790102D01*
X25079436Y-3749180D01*
X25075000Y-3704139D01*
X25075000Y-2820861D01*
X25079436Y-2775820D01*
X25091849Y-2734898D01*
X25112007Y-2697186D01*
X25139133Y-2664133D01*
X25172186Y-2637007D01*
X25209898Y-2616849D01*
X25250820Y-2604436D01*
X25295861Y-2600000D01*
X27204139Y-2600000D01*
X27249180Y-2604436D01*
G37*
G36*
X14721669Y-3192586D02*
G01*
X14744535Y-3199523D01*
X14765596Y-3210780D01*
X14784064Y-3225936D01*
X14799220Y-3244404D01*
X14810477Y-3265465D01*
X14817414Y-3288331D01*
X14820000Y-3314591D01*
X14820000Y-3655409D01*
X14817414Y-3681669D01*
X14810477Y-3704535D01*
X14799220Y-3725596D01*
X14784064Y-3744064D01*
X14765596Y-3759220D01*
X14744535Y-3770477D01*
X14721669Y-3777414D01*
X14695409Y-3780000D01*
X14304591Y-3780000D01*
X14278331Y-3777414D01*
X14255465Y-3770477D01*
X14234404Y-3759220D01*
X14215936Y-3744064D01*
X14200780Y-3725596D01*
X14189523Y-3704535D01*
X14182586Y-3681669D01*
X14180000Y-3655409D01*
X14180000Y-3314591D01*
X14182586Y-3288331D01*
X14189523Y-3265465D01*
X14200780Y-3244404D01*
X14215936Y-3225936D01*
X14234404Y-3210780D01*
X14255465Y-3199523D01*
X14278331Y-3192586D01*
X14304591Y-3190000D01*
X14695409Y-3190000D01*
X14721669Y-3192586D01*
G37*
G36*
X14721669Y-2222586D02*
G01*
X14744535Y-2229523D01*
X14765596Y-2240780D01*
X14784064Y-2255936D01*
X14799220Y-2274404D01*
X14810477Y-2295465D01*
X14817414Y-2318331D01*
X14820000Y-2344591D01*
X14820000Y-2685409D01*
X14817414Y-2711669D01*
X14810477Y-2734535D01*
X14799220Y-2755596D01*
X14784064Y-2774064D01*
X14765596Y-2789220D01*
X14744535Y-2800477D01*
X14721669Y-2807414D01*
X14695409Y-2810000D01*
X14304591Y-2810000D01*
X14278331Y-2807414D01*
X14255465Y-2800477D01*
X14234404Y-2789220D01*
X14215936Y-2774064D01*
X14200780Y-2755596D01*
X14189523Y-2734535D01*
X14182586Y-2711669D01*
X14180000Y-2685409D01*
X14180000Y-2344591D01*
X14182586Y-2318331D01*
X14189523Y-2295465D01*
X14200780Y-2274404D01*
X14215936Y-2255936D01*
X14234404Y-2240780D01*
X14255465Y-2229523D01*
X14278331Y-2222586D01*
X14304591Y-2220000D01*
X14695409Y-2220000D01*
X14721669Y-2222586D01*
G37*
G36*
X20219322Y-1778956D02*
G01*
X20255544Y-1789944D01*
X20288934Y-1807791D01*
X20318195Y-1831805D01*
X20342209Y-1861066D01*
X20360056Y-1894456D01*
X20371044Y-1930678D01*
X20375000Y-1970841D01*
X20375000Y-2454159D01*
X20371044Y-2494322D01*
X20360056Y-2530544D01*
X20342209Y-2563934D01*
X20318195Y-2593195D01*
X20288934Y-2617209D01*
X20255544Y-2635056D01*
X20219322Y-2646044D01*
X20179159Y-2650000D01*
X19620841Y-2650000D01*
X19580678Y-2646044D01*
X19544456Y-2635056D01*
X19511066Y-2617209D01*
X19481805Y-2593195D01*
X19457791Y-2563934D01*
X19439944Y-2530544D01*
X19428956Y-2494322D01*
X19425000Y-2454159D01*
X19425000Y-1970841D01*
X19428956Y-1930678D01*
X19439944Y-1894456D01*
X19457791Y-1861066D01*
X19481805Y-1831805D01*
X19511066Y-1807791D01*
X19544456Y-1789944D01*
X19580678Y-1778956D01*
X19620841Y-1775000D01*
X20179159Y-1775000D01*
X20219322Y-1778956D01*
G37*
G36*
X18419322Y-1778956D02*
G01*
X18455544Y-1789944D01*
X18488934Y-1807791D01*
X18518195Y-1831805D01*
X18542209Y-1861066D01*
X18560056Y-1894456D01*
X18571044Y-1930678D01*
X18575000Y-1970841D01*
X18575000Y-2454159D01*
X18571044Y-2494322D01*
X18560056Y-2530544D01*
X18542209Y-2563934D01*
X18518195Y-2593195D01*
X18488934Y-2617209D01*
X18455544Y-2635056D01*
X18419322Y-2646044D01*
X18379159Y-2650000D01*
X17820841Y-2650000D01*
X17780678Y-2646044D01*
X17744456Y-2635056D01*
X17711066Y-2617209D01*
X17681805Y-2593195D01*
X17657791Y-2563934D01*
X17639944Y-2530544D01*
X17628956Y-2494322D01*
X17625000Y-2454159D01*
X17625000Y-1970841D01*
X17628956Y-1930678D01*
X17639944Y-1894456D01*
X17657791Y-1861066D01*
X17681805Y-1831805D01*
X17711066Y-1807791D01*
X17744456Y-1789944D01*
X17780678Y-1778956D01*
X17820841Y-1775000D01*
X18379159Y-1775000D01*
X18419322Y-1778956D01*
G37*
G36*
X16619322Y-1778956D02*
G01*
X16655544Y-1789944D01*
X16688934Y-1807791D01*
X16718195Y-1831805D01*
X16742209Y-1861066D01*
X16760056Y-1894456D01*
X16771044Y-1930678D01*
X16775000Y-1970841D01*
X16775000Y-2454159D01*
X16771044Y-2494322D01*
X16760056Y-2530544D01*
X16742209Y-2563934D01*
X16718195Y-2593195D01*
X16688934Y-2617209D01*
X16655544Y-2635056D01*
X16619322Y-2646044D01*
X16579159Y-2650000D01*
X16020841Y-2650000D01*
X15980678Y-2646044D01*
X15944456Y-2635056D01*
X15911066Y-2617209D01*
X15881805Y-2593195D01*
X15857791Y-2563934D01*
X15839944Y-2530544D01*
X15828956Y-2494322D01*
X15825000Y-2454159D01*
X15825000Y-1970841D01*
X15828956Y-1930678D01*
X15839944Y-1894456D01*
X15857791Y-1861066D01*
X15881805Y-1831805D01*
X15911066Y-1807791D01*
X15944456Y-1789944D01*
X15980678Y-1778956D01*
X16020841Y-1775000D01*
X16579159Y-1775000D01*
X16619322Y-1778956D01*
G37*
M02*
