G04 #@! TF.GenerationSoftware,KiCad,Pcbnew,(5.1.6-0-10_14)*
G04 #@! TF.CreationDate,2020-11-21T00:06:08+00:00*
G04 #@! TF.ProjectId,usb3-ngff-carrier,75736233-2d6e-4676-9666-2d6361727269,1*
G04 #@! TF.SameCoordinates,Original*
G04 #@! TF.FileFunction,Paste,Top*
G04 #@! TF.FilePolarity,Positive*
%FSLAX46Y46*%
G04 Gerber Fmt 4.6, Leading zero omitted, Abs format (unit mm)*
G04 Created by KiCad (PCBNEW (5.1.6-0-10_14)) date 2020-11-21 00:06:08*
%MOMM*%
%LPD*%
G01*
G04 APERTURE LIST*
%ADD10C,0.100000*%
%ADD11R,1.550000X0.300000*%
%ADD12R,2.750000X1.200000*%
%ADD13R,1.000000X0.900000*%
%ADD14R,0.550000X1.700000*%
%ADD15R,1.800000X2.500000*%
G04 APERTURE END LIST*
D10*
G36*
X72750000Y-20304000D02*
G01*
X71988000Y-20304000D01*
X71988000Y-19542000D01*
X72750000Y-19542000D01*
X72750000Y-20304000D01*
G37*
X72750000Y-20304000D02*
X71988000Y-20304000D01*
X71988000Y-19542000D01*
X72750000Y-19542000D01*
X72750000Y-20304000D01*
G36*
X70604000Y-18362000D02*
G01*
X69842000Y-18362000D01*
X69842000Y-17600000D01*
X70604000Y-17600000D01*
X70604000Y-18362000D01*
G37*
X70604000Y-18362000D02*
X69842000Y-18362000D01*
X69842000Y-17600000D01*
X70604000Y-17600000D01*
X70604000Y-18362000D01*
G36*
X71550000Y-22012000D02*
G01*
X71550000Y-21250000D01*
X72312000Y-21250000D01*
X71550000Y-22012000D01*
G37*
X71550000Y-22012000D02*
X71550000Y-21250000D01*
X72312000Y-21250000D01*
X71550000Y-22012000D01*
G36*
X68900000Y-21962000D02*
G01*
X68138000Y-21200000D01*
X68900000Y-21200000D01*
X68900000Y-21962000D01*
G37*
X68900000Y-21962000D02*
X68138000Y-21200000D01*
X68900000Y-21200000D01*
X68900000Y-21962000D01*
G36*
X72312000Y-18862000D02*
G01*
X71550000Y-18862000D01*
X71550000Y-18100000D01*
X72312000Y-18862000D01*
G37*
X72312000Y-18862000D02*
X71550000Y-18862000D01*
X71550000Y-18100000D01*
X72312000Y-18862000D01*
G36*
X69050000Y-18762000D02*
G01*
X68288000Y-18762000D01*
X69050000Y-18000000D01*
X69050000Y-18762000D01*
G37*
X69050000Y-18762000D02*
X68288000Y-18762000D01*
X69050000Y-18000000D01*
X69050000Y-18762000D01*
G36*
X68550000Y-20304000D02*
G01*
X67788000Y-20304000D01*
X67788000Y-19542000D01*
X68550000Y-19542000D01*
X68550000Y-20304000D01*
G37*
X68550000Y-20304000D02*
X67788000Y-20304000D01*
X67788000Y-19542000D01*
X68550000Y-19542000D01*
X68550000Y-20304000D01*
G36*
X70604000Y-22400000D02*
G01*
X69842000Y-22400000D01*
X69842000Y-21638000D01*
X70604000Y-21638000D01*
X70604000Y-22400000D01*
G37*
X70604000Y-22400000D02*
X69842000Y-22400000D01*
X69842000Y-21638000D01*
X70604000Y-21638000D01*
X70604000Y-22400000D01*
G36*
X82750000Y-20304000D02*
G01*
X81988000Y-20304000D01*
X81988000Y-19542000D01*
X82750000Y-19542000D01*
X82750000Y-20304000D01*
G37*
X82750000Y-20304000D02*
X81988000Y-20304000D01*
X81988000Y-19542000D01*
X82750000Y-19542000D01*
X82750000Y-20304000D01*
G36*
X80604000Y-18362000D02*
G01*
X79842000Y-18362000D01*
X79842000Y-17600000D01*
X80604000Y-17600000D01*
X80604000Y-18362000D01*
G37*
X80604000Y-18362000D02*
X79842000Y-18362000D01*
X79842000Y-17600000D01*
X80604000Y-17600000D01*
X80604000Y-18362000D01*
G36*
X81550000Y-22012000D02*
G01*
X81550000Y-21250000D01*
X82312000Y-21250000D01*
X81550000Y-22012000D01*
G37*
X81550000Y-22012000D02*
X81550000Y-21250000D01*
X82312000Y-21250000D01*
X81550000Y-22012000D01*
G36*
X78900000Y-21962000D02*
G01*
X78138000Y-21200000D01*
X78900000Y-21200000D01*
X78900000Y-21962000D01*
G37*
X78900000Y-21962000D02*
X78138000Y-21200000D01*
X78900000Y-21200000D01*
X78900000Y-21962000D01*
G36*
X82312000Y-18862000D02*
G01*
X81550000Y-18862000D01*
X81550000Y-18100000D01*
X82312000Y-18862000D01*
G37*
X82312000Y-18862000D02*
X81550000Y-18862000D01*
X81550000Y-18100000D01*
X82312000Y-18862000D01*
G36*
X79050000Y-18762000D02*
G01*
X78288000Y-18762000D01*
X79050000Y-18000000D01*
X79050000Y-18762000D01*
G37*
X79050000Y-18762000D02*
X78288000Y-18762000D01*
X79050000Y-18000000D01*
X79050000Y-18762000D01*
G36*
X78550000Y-20304000D02*
G01*
X77788000Y-20304000D01*
X77788000Y-19542000D01*
X78550000Y-19542000D01*
X78550000Y-20304000D01*
G37*
X78550000Y-20304000D02*
X77788000Y-20304000D01*
X77788000Y-19542000D01*
X78550000Y-19542000D01*
X78550000Y-20304000D01*
G36*
X80604000Y-22400000D02*
G01*
X79842000Y-22400000D01*
X79842000Y-21638000D01*
X80604000Y-21638000D01*
X80604000Y-22400000D01*
G37*
X80604000Y-22400000D02*
X79842000Y-22400000D01*
X79842000Y-21638000D01*
X80604000Y-21638000D01*
X80604000Y-22400000D01*
G36*
G01*
X19425000Y-8625000D02*
X21575000Y-8625000D01*
G75*
G02*
X21825000Y-8875000I0J-250000D01*
G01*
X21825000Y-9625000D01*
G75*
G02*
X21575000Y-9875000I-250000J0D01*
G01*
X19425000Y-9875000D01*
G75*
G02*
X19175000Y-9625000I0J250000D01*
G01*
X19175000Y-8875000D01*
G75*
G02*
X19425000Y-8625000I250000J0D01*
G01*
G37*
G36*
G01*
X19425000Y-5825000D02*
X21575000Y-5825000D01*
G75*
G02*
X21825000Y-6075000I0J-250000D01*
G01*
X21825000Y-6825000D01*
G75*
G02*
X21575000Y-7075000I-250000J0D01*
G01*
X19425000Y-7075000D01*
G75*
G02*
X19175000Y-6825000I0J250000D01*
G01*
X19175000Y-6075000D01*
G75*
G02*
X19425000Y-5825000I250000J0D01*
G01*
G37*
G36*
G01*
X14375000Y-7699999D02*
X14175000Y-7699999D01*
G75*
G02*
X14075000Y-7599999I0J100000D01*
G01*
X14075000Y-7299999D01*
G75*
G02*
X14175000Y-7199999I100000J0D01*
G01*
X14375000Y-7199999D01*
G75*
G02*
X14475000Y-7299999I0J-100000D01*
G01*
X14475000Y-7599999D01*
G75*
G02*
X14375000Y-7699999I-100000J0D01*
G01*
G37*
G36*
G01*
X15025000Y-7699999D02*
X14825000Y-7699999D01*
G75*
G02*
X14725000Y-7599999I0J100000D01*
G01*
X14725000Y-7299999D01*
G75*
G02*
X14825000Y-7199999I100000J0D01*
G01*
X15025000Y-7199999D01*
G75*
G02*
X15125000Y-7299999I0J-100000D01*
G01*
X15125000Y-7599999D01*
G75*
G02*
X15025000Y-7699999I-100000J0D01*
G01*
G37*
G36*
G01*
X15675000Y-7699999D02*
X15475000Y-7699999D01*
G75*
G02*
X15375000Y-7599999I0J100000D01*
G01*
X15375000Y-7299999D01*
G75*
G02*
X15475000Y-7199999I100000J0D01*
G01*
X15675000Y-7199999D01*
G75*
G02*
X15775000Y-7299999I0J-100000D01*
G01*
X15775000Y-7599999D01*
G75*
G02*
X15675000Y-7699999I-100000J0D01*
G01*
G37*
G36*
G01*
X16325000Y-7699999D02*
X16125000Y-7699999D01*
G75*
G02*
X16025000Y-7599999I0J100000D01*
G01*
X16025000Y-7299999D01*
G75*
G02*
X16125000Y-7199999I100000J0D01*
G01*
X16325000Y-7199999D01*
G75*
G02*
X16425000Y-7299999I0J-100000D01*
G01*
X16425000Y-7599999D01*
G75*
G02*
X16325000Y-7699999I-100000J0D01*
G01*
G37*
G36*
G01*
X16325000Y-5600001D02*
X16125000Y-5600001D01*
G75*
G02*
X16025000Y-5500001I0J100000D01*
G01*
X16025000Y-5200001D01*
G75*
G02*
X16125000Y-5100001I100000J0D01*
G01*
X16325000Y-5100001D01*
G75*
G02*
X16425000Y-5200001I0J-100000D01*
G01*
X16425000Y-5500001D01*
G75*
G02*
X16325000Y-5600001I-100000J0D01*
G01*
G37*
G36*
G01*
X15675000Y-5600001D02*
X15475000Y-5600001D01*
G75*
G02*
X15375000Y-5500001I0J100000D01*
G01*
X15375000Y-5200001D01*
G75*
G02*
X15475000Y-5100001I100000J0D01*
G01*
X15675000Y-5100001D01*
G75*
G02*
X15775000Y-5200001I0J-100000D01*
G01*
X15775000Y-5500001D01*
G75*
G02*
X15675000Y-5600001I-100000J0D01*
G01*
G37*
G36*
G01*
X15025000Y-5600001D02*
X14825000Y-5600001D01*
G75*
G02*
X14725000Y-5500001I0J100000D01*
G01*
X14725000Y-5200001D01*
G75*
G02*
X14825000Y-5100001I100000J0D01*
G01*
X15025000Y-5100001D01*
G75*
G02*
X15125000Y-5200001I0J-100000D01*
G01*
X15125000Y-5500001D01*
G75*
G02*
X15025000Y-5600001I-100000J0D01*
G01*
G37*
G36*
G01*
X14375000Y-5600001D02*
X14175000Y-5600001D01*
G75*
G02*
X14075000Y-5500001I0J100000D01*
G01*
X14075000Y-5200001D01*
G75*
G02*
X14175000Y-5100001I100000J0D01*
G01*
X14375000Y-5100001D01*
G75*
G02*
X14475000Y-5200001I0J-100000D01*
G01*
X14475000Y-5500001D01*
G75*
G02*
X14375000Y-5600001I-100000J0D01*
G01*
G37*
G36*
G01*
X15050001Y-6920000D02*
X14399999Y-6920000D01*
G75*
G02*
X14300000Y-6820001I0J99999D01*
G01*
X14300000Y-5979999D01*
G75*
G02*
X14399999Y-5880000I99999J0D01*
G01*
X15050001Y-5880000D01*
G75*
G02*
X15150000Y-5979999I0J-99999D01*
G01*
X15150000Y-6820001D01*
G75*
G02*
X15050001Y-6920000I-99999J0D01*
G01*
G37*
G36*
G01*
X16100001Y-6920000D02*
X15449999Y-6920000D01*
G75*
G02*
X15350000Y-6820001I0J99999D01*
G01*
X15350000Y-5979999D01*
G75*
G02*
X15449999Y-5880000I99999J0D01*
G01*
X16100001Y-5880000D01*
G75*
G02*
X16200000Y-5979999I0J-99999D01*
G01*
X16200000Y-6820001D01*
G75*
G02*
X16100001Y-6920000I-99999J0D01*
G01*
G37*
G36*
G01*
X20410000Y-19827500D02*
X20410000Y-20172500D01*
G75*
G02*
X20262500Y-20320000I-147500J0D01*
G01*
X19967500Y-20320000D01*
G75*
G02*
X19820000Y-20172500I0J147500D01*
G01*
X19820000Y-19827500D01*
G75*
G02*
X19967500Y-19680000I147500J0D01*
G01*
X20262500Y-19680000D01*
G75*
G02*
X20410000Y-19827500I0J-147500D01*
G01*
G37*
G36*
G01*
X21380000Y-19827500D02*
X21380000Y-20172500D01*
G75*
G02*
X21232500Y-20320000I-147500J0D01*
G01*
X20937500Y-20320000D01*
G75*
G02*
X20790000Y-20172500I0J147500D01*
G01*
X20790000Y-19827500D01*
G75*
G02*
X20937500Y-19680000I147500J0D01*
G01*
X21232500Y-19680000D01*
G75*
G02*
X21380000Y-19827500I0J-147500D01*
G01*
G37*
D11*
X24725000Y-29250000D03*
X32275000Y-29000000D03*
X24725000Y-28750000D03*
X32275000Y-28500000D03*
X24725000Y-28250000D03*
X32275000Y-28000000D03*
X24725000Y-27750000D03*
X32275000Y-27500000D03*
X24725000Y-27250000D03*
X32275000Y-27000000D03*
X24725000Y-26750000D03*
X32275000Y-24500000D03*
X24725000Y-24250000D03*
X32275000Y-24000000D03*
X24725000Y-23750000D03*
X32275000Y-23500000D03*
X24725000Y-23250000D03*
X32275000Y-23000000D03*
X24725000Y-22750000D03*
X32275000Y-22500000D03*
X24725000Y-22250000D03*
X32275000Y-22000000D03*
X24725000Y-21750000D03*
X32275000Y-21500000D03*
X24725000Y-21250000D03*
X32275000Y-21000000D03*
X24725000Y-20750000D03*
X32275000Y-20500000D03*
X24725000Y-20250000D03*
X32275000Y-20000000D03*
X24725000Y-19750000D03*
X32275000Y-19500000D03*
X24725000Y-19250000D03*
X32275000Y-19000000D03*
X24725000Y-18750000D03*
X32275000Y-18500000D03*
X24725000Y-18250000D03*
X32275000Y-18000000D03*
X24725000Y-17750000D03*
X32275000Y-17500000D03*
X24725000Y-17250000D03*
X32275000Y-17000000D03*
X24725000Y-16750000D03*
X32275000Y-16500000D03*
X24725000Y-16250000D03*
X32275000Y-16000000D03*
X24725000Y-15750000D03*
X32275000Y-15500000D03*
X24725000Y-15250000D03*
X32275000Y-15000000D03*
X24725000Y-14750000D03*
X32275000Y-14500000D03*
X24725000Y-14250000D03*
X32275000Y-14000000D03*
X24725000Y-13750000D03*
X32275000Y-13500000D03*
X24725000Y-13250000D03*
X32275000Y-13000000D03*
X24725000Y-12750000D03*
X32275000Y-12500000D03*
X24725000Y-12250000D03*
X32275000Y-12000000D03*
X24725000Y-11750000D03*
X32275000Y-11500000D03*
X24725000Y-11250000D03*
X32275000Y-11000000D03*
X24725000Y-10750000D03*
D12*
X25500000Y-30350000D03*
X25500000Y-9650000D03*
G36*
G01*
X35850000Y-27406250D02*
X35850000Y-26893750D01*
G75*
G02*
X36068750Y-26675000I218750J0D01*
G01*
X36506250Y-26675000D01*
G75*
G02*
X36725000Y-26893750I0J-218750D01*
G01*
X36725000Y-27406250D01*
G75*
G02*
X36506250Y-27625000I-218750J0D01*
G01*
X36068750Y-27625000D01*
G75*
G02*
X35850000Y-27406250I0J218750D01*
G01*
G37*
G36*
G01*
X34275000Y-27406250D02*
X34275000Y-26893750D01*
G75*
G02*
X34493750Y-26675000I218750J0D01*
G01*
X34931250Y-26675000D01*
G75*
G02*
X35150000Y-26893750I0J-218750D01*
G01*
X35150000Y-27406250D01*
G75*
G02*
X34931250Y-27625000I-218750J0D01*
G01*
X34493750Y-27625000D01*
G75*
G02*
X34275000Y-27406250I0J218750D01*
G01*
G37*
G36*
G01*
X31677500Y-34615000D02*
X32022500Y-34615000D01*
G75*
G02*
X32170000Y-34762500I0J-147500D01*
G01*
X32170000Y-35057500D01*
G75*
G02*
X32022500Y-35205000I-147500J0D01*
G01*
X31677500Y-35205000D01*
G75*
G02*
X31530000Y-35057500I0J147500D01*
G01*
X31530000Y-34762500D01*
G75*
G02*
X31677500Y-34615000I147500J0D01*
G01*
G37*
G36*
G01*
X31677500Y-33645000D02*
X32022500Y-33645000D01*
G75*
G02*
X32170000Y-33792500I0J-147500D01*
G01*
X32170000Y-34087500D01*
G75*
G02*
X32022500Y-34235000I-147500J0D01*
G01*
X31677500Y-34235000D01*
G75*
G02*
X31530000Y-34087500I0J147500D01*
G01*
X31530000Y-33792500D01*
G75*
G02*
X31677500Y-33645000I147500J0D01*
G01*
G37*
G36*
G01*
X29343750Y-35000000D02*
X29856250Y-35000000D01*
G75*
G02*
X30075000Y-35218750I0J-218750D01*
G01*
X30075000Y-35656250D01*
G75*
G02*
X29856250Y-35875000I-218750J0D01*
G01*
X29343750Y-35875000D01*
G75*
G02*
X29125000Y-35656250I0J218750D01*
G01*
X29125000Y-35218750D01*
G75*
G02*
X29343750Y-35000000I218750J0D01*
G01*
G37*
G36*
G01*
X29343750Y-33425000D02*
X29856250Y-33425000D01*
G75*
G02*
X30075000Y-33643750I0J-218750D01*
G01*
X30075000Y-34081250D01*
G75*
G02*
X29856250Y-34300000I-218750J0D01*
G01*
X29343750Y-34300000D01*
G75*
G02*
X29125000Y-34081250I0J218750D01*
G01*
X29125000Y-33643750D01*
G75*
G02*
X29343750Y-33425000I218750J0D01*
G01*
G37*
G36*
G01*
X31822500Y-4860000D02*
X31477500Y-4860000D01*
G75*
G02*
X31330000Y-4712500I0J147500D01*
G01*
X31330000Y-4417500D01*
G75*
G02*
X31477500Y-4270000I147500J0D01*
G01*
X31822500Y-4270000D01*
G75*
G02*
X31970000Y-4417500I0J-147500D01*
G01*
X31970000Y-4712500D01*
G75*
G02*
X31822500Y-4860000I-147500J0D01*
G01*
G37*
G36*
G01*
X31822500Y-5830000D02*
X31477500Y-5830000D01*
G75*
G02*
X31330000Y-5682500I0J147500D01*
G01*
X31330000Y-5387500D01*
G75*
G02*
X31477500Y-5240000I147500J0D01*
G01*
X31822500Y-5240000D01*
G75*
G02*
X31970000Y-5387500I0J-147500D01*
G01*
X31970000Y-5682500D01*
G75*
G02*
X31822500Y-5830000I-147500J0D01*
G01*
G37*
G36*
G01*
X29706250Y-4500000D02*
X29193750Y-4500000D01*
G75*
G02*
X28975000Y-4281250I0J218750D01*
G01*
X28975000Y-3843750D01*
G75*
G02*
X29193750Y-3625000I218750J0D01*
G01*
X29706250Y-3625000D01*
G75*
G02*
X29925000Y-3843750I0J-218750D01*
G01*
X29925000Y-4281250D01*
G75*
G02*
X29706250Y-4500000I-218750J0D01*
G01*
G37*
G36*
G01*
X29706250Y-6075000D02*
X29193750Y-6075000D01*
G75*
G02*
X28975000Y-5856250I0J218750D01*
G01*
X28975000Y-5418750D01*
G75*
G02*
X29193750Y-5200000I218750J0D01*
G01*
X29706250Y-5200000D01*
G75*
G02*
X29925000Y-5418750I0J-218750D01*
G01*
X29925000Y-5856250D01*
G75*
G02*
X29706250Y-6075000I-218750J0D01*
G01*
G37*
G36*
G01*
X14327500Y-3190000D02*
X14672500Y-3190000D01*
G75*
G02*
X14820000Y-3337500I0J-147500D01*
G01*
X14820000Y-3632500D01*
G75*
G02*
X14672500Y-3780000I-147500J0D01*
G01*
X14327500Y-3780000D01*
G75*
G02*
X14180000Y-3632500I0J147500D01*
G01*
X14180000Y-3337500D01*
G75*
G02*
X14327500Y-3190000I147500J0D01*
G01*
G37*
G36*
G01*
X14327500Y-2220000D02*
X14672500Y-2220000D01*
G75*
G02*
X14820000Y-2367500I0J-147500D01*
G01*
X14820000Y-2662500D01*
G75*
G02*
X14672500Y-2810000I-147500J0D01*
G01*
X14327500Y-2810000D01*
G75*
G02*
X14180000Y-2662500I0J147500D01*
G01*
X14180000Y-2367500D01*
G75*
G02*
X14327500Y-2220000I147500J0D01*
G01*
G37*
D13*
X20100000Y-21550001D03*
X20100000Y-25649999D03*
X18500000Y-21550001D03*
X18500000Y-25649999D03*
D14*
X20725000Y-23600000D03*
G36*
G01*
X18143750Y-37650000D02*
X18656250Y-37650000D01*
G75*
G02*
X18875000Y-37868750I0J-218750D01*
G01*
X18875000Y-38306250D01*
G75*
G02*
X18656250Y-38525000I-218750J0D01*
G01*
X18143750Y-38525000D01*
G75*
G02*
X17925000Y-38306250I0J218750D01*
G01*
X17925000Y-37868750D01*
G75*
G02*
X18143750Y-37650000I218750J0D01*
G01*
G37*
G36*
G01*
X18143750Y-36075000D02*
X18656250Y-36075000D01*
G75*
G02*
X18875000Y-36293750I0J-218750D01*
G01*
X18875000Y-36731250D01*
G75*
G02*
X18656250Y-36950000I-218750J0D01*
G01*
X18143750Y-36950000D01*
G75*
G02*
X17925000Y-36731250I0J218750D01*
G01*
X17925000Y-36293750D01*
G75*
G02*
X18143750Y-36075000I218750J0D01*
G01*
G37*
G36*
G01*
X17943750Y-34250000D02*
X18856250Y-34250000D01*
G75*
G02*
X19100000Y-34493750I0J-243750D01*
G01*
X19100000Y-34981250D01*
G75*
G02*
X18856250Y-35225000I-243750J0D01*
G01*
X17943750Y-35225000D01*
G75*
G02*
X17700000Y-34981250I0J243750D01*
G01*
X17700000Y-34493750D01*
G75*
G02*
X17943750Y-34250000I243750J0D01*
G01*
G37*
G36*
G01*
X17943750Y-32375000D02*
X18856250Y-32375000D01*
G75*
G02*
X19100000Y-32618750I0J-243750D01*
G01*
X19100000Y-33106250D01*
G75*
G02*
X18856250Y-33350000I-243750J0D01*
G01*
X17943750Y-33350000D01*
G75*
G02*
X17700000Y-33106250I0J243750D01*
G01*
X17700000Y-32618750D01*
G75*
G02*
X17943750Y-32375000I243750J0D01*
G01*
G37*
G36*
G01*
X20443750Y-37650000D02*
X20956250Y-37650000D01*
G75*
G02*
X21175000Y-37868750I0J-218750D01*
G01*
X21175000Y-38306250D01*
G75*
G02*
X20956250Y-38525000I-218750J0D01*
G01*
X20443750Y-38525000D01*
G75*
G02*
X20225000Y-38306250I0J218750D01*
G01*
X20225000Y-37868750D01*
G75*
G02*
X20443750Y-37650000I218750J0D01*
G01*
G37*
G36*
G01*
X20443750Y-36075000D02*
X20956250Y-36075000D01*
G75*
G02*
X21175000Y-36293750I0J-218750D01*
G01*
X21175000Y-36731250D01*
G75*
G02*
X20956250Y-36950000I-218750J0D01*
G01*
X20443750Y-36950000D01*
G75*
G02*
X20225000Y-36731250I0J218750D01*
G01*
X20225000Y-36293750D01*
G75*
G02*
X20443750Y-36075000I218750J0D01*
G01*
G37*
G36*
G01*
X20243750Y-34250000D02*
X21156250Y-34250000D01*
G75*
G02*
X21400000Y-34493750I0J-243750D01*
G01*
X21400000Y-34981250D01*
G75*
G02*
X21156250Y-35225000I-243750J0D01*
G01*
X20243750Y-35225000D01*
G75*
G02*
X20000000Y-34981250I0J243750D01*
G01*
X20000000Y-34493750D01*
G75*
G02*
X20243750Y-34250000I243750J0D01*
G01*
G37*
G36*
G01*
X20243750Y-32375000D02*
X21156250Y-32375000D01*
G75*
G02*
X21400000Y-32618750I0J-243750D01*
G01*
X21400000Y-33106250D01*
G75*
G02*
X21156250Y-33350000I-243750J0D01*
G01*
X20243750Y-33350000D01*
G75*
G02*
X20000000Y-33106250I0J243750D01*
G01*
X20000000Y-32618750D01*
G75*
G02*
X20243750Y-32375000I243750J0D01*
G01*
G37*
G36*
G01*
X35090000Y-28922500D02*
X35090000Y-28577500D01*
G75*
G02*
X35237500Y-28430000I147500J0D01*
G01*
X35532500Y-28430000D01*
G75*
G02*
X35680000Y-28577500I0J-147500D01*
G01*
X35680000Y-28922500D01*
G75*
G02*
X35532500Y-29070000I-147500J0D01*
G01*
X35237500Y-29070000D01*
G75*
G02*
X35090000Y-28922500I0J147500D01*
G01*
G37*
G36*
G01*
X34120000Y-28922500D02*
X34120000Y-28577500D01*
G75*
G02*
X34267500Y-28430000I147500J0D01*
G01*
X34562500Y-28430000D01*
G75*
G02*
X34710000Y-28577500I0J-147500D01*
G01*
X34710000Y-28922500D01*
G75*
G02*
X34562500Y-29070000I-147500J0D01*
G01*
X34267500Y-29070000D01*
G75*
G02*
X34120000Y-28922500I0J147500D01*
G01*
G37*
G36*
G01*
X35090000Y-30272500D02*
X35090000Y-29927500D01*
G75*
G02*
X35237500Y-29780000I147500J0D01*
G01*
X35532500Y-29780000D01*
G75*
G02*
X35680000Y-29927500I0J-147500D01*
G01*
X35680000Y-30272500D01*
G75*
G02*
X35532500Y-30420000I-147500J0D01*
G01*
X35237500Y-30420000D01*
G75*
G02*
X35090000Y-30272500I0J147500D01*
G01*
G37*
G36*
G01*
X34120000Y-30272500D02*
X34120000Y-29927500D01*
G75*
G02*
X34267500Y-29780000I147500J0D01*
G01*
X34562500Y-29780000D01*
G75*
G02*
X34710000Y-29927500I0J-147500D01*
G01*
X34710000Y-30272500D01*
G75*
G02*
X34562500Y-30420000I-147500J0D01*
G01*
X34267500Y-30420000D01*
G75*
G02*
X34120000Y-30272500I0J147500D01*
G01*
G37*
G36*
G01*
X25524999Y-35425000D02*
X27375001Y-35425000D01*
G75*
G02*
X27625000Y-35674999I0J-249999D01*
G01*
X27625000Y-36500001D01*
G75*
G02*
X27375001Y-36750000I-249999J0D01*
G01*
X25524999Y-36750000D01*
G75*
G02*
X25275000Y-36500001I0J249999D01*
G01*
X25275000Y-35674999D01*
G75*
G02*
X25524999Y-35425000I249999J0D01*
G01*
G37*
G36*
G01*
X25524999Y-32350000D02*
X27375001Y-32350000D01*
G75*
G02*
X27625000Y-32599999I0J-249999D01*
G01*
X27625000Y-33425001D01*
G75*
G02*
X27375001Y-33675000I-249999J0D01*
G01*
X25524999Y-33675000D01*
G75*
G02*
X25275000Y-33425001I0J249999D01*
G01*
X25275000Y-32599999D01*
G75*
G02*
X25524999Y-32350000I249999J0D01*
G01*
G37*
G36*
G01*
X35205000Y-10722500D02*
X35205000Y-10377500D01*
G75*
G02*
X35352500Y-10230000I147500J0D01*
G01*
X35647500Y-10230000D01*
G75*
G02*
X35795000Y-10377500I0J-147500D01*
G01*
X35795000Y-10722500D01*
G75*
G02*
X35647500Y-10870000I-147500J0D01*
G01*
X35352500Y-10870000D01*
G75*
G02*
X35205000Y-10722500I0J147500D01*
G01*
G37*
G36*
G01*
X34235000Y-10722500D02*
X34235000Y-10377500D01*
G75*
G02*
X34382500Y-10230000I147500J0D01*
G01*
X34677500Y-10230000D01*
G75*
G02*
X34825000Y-10377500I0J-147500D01*
G01*
X34825000Y-10722500D01*
G75*
G02*
X34677500Y-10870000I-147500J0D01*
G01*
X34382500Y-10870000D01*
G75*
G02*
X34235000Y-10722500I0J147500D01*
G01*
G37*
G36*
G01*
X35215000Y-12072500D02*
X35215000Y-11727500D01*
G75*
G02*
X35362500Y-11580000I147500J0D01*
G01*
X35657500Y-11580000D01*
G75*
G02*
X35805000Y-11727500I0J-147500D01*
G01*
X35805000Y-12072500D01*
G75*
G02*
X35657500Y-12220000I-147500J0D01*
G01*
X35362500Y-12220000D01*
G75*
G02*
X35215000Y-12072500I0J147500D01*
G01*
G37*
G36*
G01*
X34245000Y-12072500D02*
X34245000Y-11727500D01*
G75*
G02*
X34392500Y-11580000I147500J0D01*
G01*
X34687500Y-11580000D01*
G75*
G02*
X34835000Y-11727500I0J-147500D01*
G01*
X34835000Y-12072500D01*
G75*
G02*
X34687500Y-12220000I-147500J0D01*
G01*
X34392500Y-12220000D01*
G75*
G02*
X34245000Y-12072500I0J147500D01*
G01*
G37*
G36*
G01*
X27175001Y-3925000D02*
X25324999Y-3925000D01*
G75*
G02*
X25075000Y-3675001I0J249999D01*
G01*
X25075000Y-2849999D01*
G75*
G02*
X25324999Y-2600000I249999J0D01*
G01*
X27175001Y-2600000D01*
G75*
G02*
X27425000Y-2849999I0J-249999D01*
G01*
X27425000Y-3675001D01*
G75*
G02*
X27175001Y-3925000I-249999J0D01*
G01*
G37*
G36*
G01*
X27175001Y-7000000D02*
X25324999Y-7000000D01*
G75*
G02*
X25075000Y-6750001I0J249999D01*
G01*
X25075000Y-5924999D01*
G75*
G02*
X25324999Y-5675000I249999J0D01*
G01*
X27175001Y-5675000D01*
G75*
G02*
X27425000Y-5924999I0J-249999D01*
G01*
X27425000Y-6750001D01*
G75*
G02*
X27175001Y-7000000I-249999J0D01*
G01*
G37*
G36*
G01*
X17843750Y-3350000D02*
X18356250Y-3350000D01*
G75*
G02*
X18575000Y-3568750I0J-218750D01*
G01*
X18575000Y-4006250D01*
G75*
G02*
X18356250Y-4225000I-218750J0D01*
G01*
X17843750Y-4225000D01*
G75*
G02*
X17625000Y-4006250I0J218750D01*
G01*
X17625000Y-3568750D01*
G75*
G02*
X17843750Y-3350000I218750J0D01*
G01*
G37*
G36*
G01*
X17843750Y-1775000D02*
X18356250Y-1775000D01*
G75*
G02*
X18575000Y-1993750I0J-218750D01*
G01*
X18575000Y-2431250D01*
G75*
G02*
X18356250Y-2650000I-218750J0D01*
G01*
X17843750Y-2650000D01*
G75*
G02*
X17625000Y-2431250I0J218750D01*
G01*
X17625000Y-1993750D01*
G75*
G02*
X17843750Y-1775000I218750J0D01*
G01*
G37*
G36*
G01*
X20156250Y-2650000D02*
X19643750Y-2650000D01*
G75*
G02*
X19425000Y-2431250I0J218750D01*
G01*
X19425000Y-1993750D01*
G75*
G02*
X19643750Y-1775000I218750J0D01*
G01*
X20156250Y-1775000D01*
G75*
G02*
X20375000Y-1993750I0J-218750D01*
G01*
X20375000Y-2431250D01*
G75*
G02*
X20156250Y-2650000I-218750J0D01*
G01*
G37*
G36*
G01*
X20156250Y-4225000D02*
X19643750Y-4225000D01*
G75*
G02*
X19425000Y-4006250I0J218750D01*
G01*
X19425000Y-3568750D01*
G75*
G02*
X19643750Y-3350000I218750J0D01*
G01*
X20156250Y-3350000D01*
G75*
G02*
X20375000Y-3568750I0J-218750D01*
G01*
X20375000Y-4006250D01*
G75*
G02*
X20156250Y-4225000I-218750J0D01*
G01*
G37*
G36*
G01*
X16043750Y-3350000D02*
X16556250Y-3350000D01*
G75*
G02*
X16775000Y-3568750I0J-218750D01*
G01*
X16775000Y-4006250D01*
G75*
G02*
X16556250Y-4225000I-218750J0D01*
G01*
X16043750Y-4225000D01*
G75*
G02*
X15825000Y-4006250I0J218750D01*
G01*
X15825000Y-3568750D01*
G75*
G02*
X16043750Y-3350000I218750J0D01*
G01*
G37*
G36*
G01*
X16043750Y-1775000D02*
X16556250Y-1775000D01*
G75*
G02*
X16775000Y-1993750I0J-218750D01*
G01*
X16775000Y-2431250D01*
G75*
G02*
X16556250Y-2650000I-218750J0D01*
G01*
X16043750Y-2650000D01*
G75*
G02*
X15825000Y-2431250I0J218750D01*
G01*
X15825000Y-1993750D01*
G75*
G02*
X16043750Y-1775000I218750J0D01*
G01*
G37*
G36*
G01*
X16050000Y-9756250D02*
X16050000Y-8843750D01*
G75*
G02*
X16293750Y-8600000I243750J0D01*
G01*
X16781250Y-8600000D01*
G75*
G02*
X17025000Y-8843750I0J-243750D01*
G01*
X17025000Y-9756250D01*
G75*
G02*
X16781250Y-10000000I-243750J0D01*
G01*
X16293750Y-10000000D01*
G75*
G02*
X16050000Y-9756250I0J243750D01*
G01*
G37*
G36*
G01*
X14175000Y-9756250D02*
X14175000Y-8843750D01*
G75*
G02*
X14418750Y-8600000I243750J0D01*
G01*
X14906250Y-8600000D01*
G75*
G02*
X15150000Y-8843750I0J-243750D01*
G01*
X15150000Y-9756250D01*
G75*
G02*
X14906250Y-10000000I-243750J0D01*
G01*
X14418750Y-10000000D01*
G75*
G02*
X14175000Y-9756250I0J243750D01*
G01*
G37*
D15*
X16000000Y-16250000D03*
X16000000Y-12250000D03*
X20000000Y-16250000D03*
X20000000Y-12250000D03*
M02*
