M48
; DRILL file {KiCad (5.1.6-0-10_14)} date Saturday, November 21, 2020 at 12:06:12 AM
; FORMAT={-:-/ absolute / inch / decimal}
; #@! TF.CreationDate,2020-11-21T00:06:12+00:00
; #@! TF.GenerationSoftware,Kicad,Pcbnew,(5.1.6-0-10_14)
; #@! TF.FileFunction,Plated,1,4,PTH
FMAT,2
INCH
T1C0.0079
T2C0.0098
T3C0.0130
T4C0.0150
T5C0.0276
T6C0.0315
T7C0.0362
T8C0.0394
T9C0.0906
T10C0.1063
%
G90
G05
T1
X0.5709Y-0.252
X0.6004Y-0.252
X0.6299Y-0.252
T2
X0.2441Y-1.0866
X0.2441Y-1.1339
X0.248Y-1.0394
X0.2677Y-1.1732
X0.2756Y-1.0079
X0.3071Y-0.9843
X0.4409Y-0.7559
X0.4409Y-0.7953
X0.4606Y-0.7362
X0.4606Y-0.7756
X0.4803Y-0.7559
X0.4803Y-0.7953
X0.4902Y-0.1339
X0.4921Y-1.3386
X0.5Y-0.7362
X0.5Y-0.7756
X0.5039Y-1.1693
X0.5039Y-1.2008
X0.5039Y-1.2323
X0.5276Y-1.185
X0.5276Y-1.2165
X0.5315Y-1.3386
X0.5709Y-0.0394
X0.5709Y-1.3386
X0.6083Y-0.1161
X0.6102Y-1.3386
X0.6417Y-0.0394
X0.6496Y-1.3386
X0.6594Y-0.935
X0.6594Y-1.0039
X0.6693Y-1.1614
X0.6772Y-1.499
X0.7031Y-0.3319
X0.7031Y-0.3713
X0.7087Y-1.122
X0.7126Y-0.0394
X0.7185Y-0.9449
X0.7228Y-0.3516
X0.7228Y-0.3909
X0.7402Y-1.252
X0.748Y-1.0827
X0.7579Y-0.8957
X0.7717Y-1.2205
X0.8031Y-1.189
X0.815Y-1.2441
X0.8346Y-1.1575
X0.8465Y-1.0138
X0.8583Y-0.7087
X0.8632Y-1.5039
X0.8701Y-0.4921
X0.8898Y-0.8425
X0.8898Y-0.8898
X0.8898Y-1.0138
X0.8898Y-1.0571
X0.8898Y-1.1024
X0.8898Y-1.1378
X0.8917Y-1.252
X0.8917Y-1.2913
X0.8917Y-1.3307
X0.8937Y-0.224
X0.8937Y-0.2634
X0.8949Y-0.3339
X0.8949Y-0.3732
X0.8957Y-0.5787
X0.8957Y-0.6201
X0.8957Y-0.6594
X0.8957Y-0.6988
X0.8957Y-0.7382
X0.8957Y-0.7776
X0.9035Y-0.4547
X0.9114Y-1.2717
X0.9114Y-1.311
X0.9134Y-0.2437
X0.9134Y-0.2831
X0.9146Y-0.3535
X0.9146Y-0.3929
X0.9154Y-0.502
X0.9173Y-1.1929
X0.9311Y-1.252
X0.9311Y-1.2913
X0.9311Y-1.3307
X0.9331Y-0.224
X0.9331Y-0.2634
X0.9528Y-0.2437
X0.9528Y-0.2831
X0.9528Y-1.2717
X0.9528Y-1.311
X0.9843Y-0.0591
X0.998Y-1.4843
X1.0138Y-0.0591
X1.0276Y-1.4843
X1.0335Y-0.4528
X1.0335Y-0.6004
X1.0335Y-0.6594
X1.0335Y-0.7185
X1.0394Y-0.8957
X1.0433Y-0.0591
X1.0433Y-1.0531
X1.0433Y-1.124
X1.0571Y-1.4843
X1.061Y-0.8366
X1.063Y-0.8031
X1.0728Y-0.0591
X1.0787Y-0.4252
X1.0787Y-0.4803
X1.0787Y-0.6299
X1.0787Y-0.685
X1.0866Y-1.4843
X1.1004Y-0.378
X1.1004Y-1.1949
X1.1181Y-0.9843
X1.122Y-0.1043
X1.126Y-0.8031
X1.1358Y-1.4469
X1.1516Y-0.1043
X1.1614Y-0.8661
X1.1614Y-0.9449
X1.1654Y-1.4469
X1.1811Y-0.1043
X1.1949Y-1.4469
X1.2087Y-1.063
X1.2185Y-0.1358
X1.2244Y-1.4154
X1.248Y-0.1358
X1.2539Y-1.4154
X1.2776Y-0.1358
X1.2835Y-1.4154
X1.3268Y-1.4016
X1.3307Y-0.1535
X1.3406Y-0.8091
X1.3583Y-0.8346
X1.376Y-0.8622
X1.3819Y-0.9843
X1.4469Y-0.4134
X1.4469Y-0.4724
X1.4469Y-1.1319
X1.4469Y-1.1831
X1.4783Y-0.4449
X1.4783Y-1.1122
X1.4783Y-1.1575
X1.4882Y-0.9094
X1.5748Y-0.3937
X1.5748Y-0.4921
X1.5748Y-0.5906
X1.5748Y-0.689
X1.5748Y-0.7874
X1.5748Y-1.1811
X1.6732Y-0.2953
X1.6732Y-0.3937
X1.6732Y-0.4921
X1.6732Y-0.5906
X1.6732Y-0.689
X1.6732Y-0.7874
X1.6732Y-1.1811
X1.6732Y-1.2795
X1.6772Y-0.8701
X1.6772Y-0.9055
X1.6772Y-0.9409
X1.7717Y-0.1969
X1.7717Y-0.2953
X1.7717Y-0.3937
X1.7717Y-0.4921
X1.7717Y-0.5906
X1.7717Y-0.689
X1.7717Y-0.689
X1.7717Y-0.7874
X1.7717Y-0.8858
X1.7717Y-0.9843
X1.7717Y-1.1811
X1.7717Y-1.2795
X1.7717Y-1.378
X1.8701Y-0.1969
X1.8701Y-0.2953
X1.8701Y-0.3937
X1.8701Y-0.4921
X1.8701Y-0.5906
X1.8701Y-0.689
X1.8701Y-0.7874
X1.8701Y-0.8858
X1.8701Y-0.9843
X1.8701Y-1.0827
X1.8701Y-1.1811
X1.8701Y-1.2795
X1.8701Y-1.378
X1.9685Y-0.1969
X1.9685Y-0.2953
X1.9685Y-0.3937
X1.9685Y-0.4921
X1.9685Y-0.5906
X1.9685Y-0.689
X1.9685Y-0.7874
X1.9685Y-0.8858
X1.9685Y-0.9843
X1.9685Y-1.0827
X1.9685Y-1.1811
X1.9685Y-1.2795
X1.9685Y-1.378
X2.0669Y-0.1969
X2.0669Y-0.2953
X2.0669Y-0.3937
X2.0669Y-0.4921
X2.0669Y-0.5906
X2.0669Y-0.689
X2.0669Y-0.7874
X2.0669Y-0.8858
X2.0669Y-0.9843
X2.0669Y-1.0827
X2.0669Y-1.1811
X2.0669Y-1.2795
X2.0669Y-1.378
X2.1654Y-0.1969
X2.1654Y-0.2953
X2.1654Y-0.3937
X2.1654Y-0.4921
X2.1654Y-0.5906
X2.1654Y-0.689
X2.1654Y-0.7874
X2.1654Y-0.8858
X2.1654Y-0.9843
X2.1654Y-1.0827
X2.1654Y-1.1811
X2.1654Y-1.2795
X2.1654Y-1.378
X2.2638Y-0.1969
X2.2638Y-0.2953
X2.2638Y-0.3937
X2.2638Y-0.4921
X2.2638Y-0.5906
X2.2638Y-0.689
X2.2638Y-0.7874
X2.2638Y-0.8858
X2.2638Y-0.9843
X2.2638Y-1.0827
X2.2638Y-1.1811
X2.2638Y-1.2795
X2.2638Y-1.378
X2.3622Y-0.1969
X2.3622Y-0.2953
X2.3622Y-0.3937
X2.3622Y-0.4921
X2.3622Y-0.5906
X2.3622Y-0.689
X2.3622Y-0.7874
X2.3622Y-0.8858
X2.3622Y-0.9843
X2.3622Y-1.0827
X2.3622Y-1.1811
X2.3622Y-1.1811
X2.3622Y-1.2795
X2.3622Y-1.378
X2.4606Y-0.1969
X2.4606Y-0.2953
X2.4606Y-0.3937
X2.4606Y-0.4921
X2.4606Y-0.5906
X2.4606Y-0.689
X2.4606Y-0.7874
X2.4606Y-0.8858
X2.4606Y-0.9843
X2.4606Y-1.0827
X2.4606Y-1.1811
X2.4606Y-1.2795
X2.4606Y-1.378
X2.5591Y-0.1969
X2.5591Y-0.2953
X2.5591Y-0.3937
X2.5591Y-0.4921
X2.5591Y-0.5906
X2.5591Y-0.689
X2.5591Y-0.7874
X2.5591Y-0.8858
X2.5591Y-0.9843
X2.5591Y-1.0827
X2.5591Y-1.1811
X2.5591Y-1.2795
X2.5591Y-1.378
X2.6575Y-0.1969
X2.6575Y-0.2953
X2.6575Y-0.3937
X2.6575Y-0.4921
X2.6575Y-0.5906
X2.6575Y-0.689
X2.6575Y-0.8858
X2.6575Y-0.9843
X2.6575Y-1.0827
X2.6575Y-1.1811
X2.6575Y-1.2795
X2.6575Y-1.378
X2.7559Y-0.1969
X2.7559Y-0.2953
X2.7559Y-0.3937
X2.7559Y-0.3937
X2.7559Y-0.4921
X2.7559Y-0.5906
X2.7559Y-0.9843
X2.7559Y-1.0827
X2.7559Y-1.1811
X2.7559Y-1.2795
X2.7559Y-1.378
X2.8543Y-0.1969
X2.8543Y-0.2953
X2.8543Y-0.3937
X2.8543Y-0.4921
X2.8543Y-0.5906
X2.8543Y-0.689
X2.8543Y-0.8858
X2.8543Y-0.9843
X2.8543Y-1.0827
X2.8543Y-1.1811
X2.8543Y-1.2795
X2.8543Y-1.378
X2.9528Y-0.1969
X2.9528Y-0.2953
X2.9528Y-0.3937
X2.9528Y-0.4921
X2.9528Y-0.5906
X2.9528Y-0.689
X2.9528Y-0.7874
X2.9528Y-0.8858
X2.9528Y-0.9843
X2.9528Y-1.0827
X2.9528Y-1.1811
X2.9528Y-1.2795
X2.9528Y-1.378
X3.0512Y-0.1969
X3.0512Y-0.2953
X3.0512Y-0.3937
X3.0512Y-0.4921
X3.0512Y-0.5906
X3.0512Y-0.689
X3.0512Y-0.8858
X3.0512Y-0.9843
X3.0512Y-1.0827
X3.0512Y-1.1811
X3.0512Y-1.2795
X3.0512Y-1.378
X3.1496Y-0.1969
X3.1496Y-0.2953
X3.1496Y-0.3937
X3.1496Y-0.4921
X3.1496Y-0.5906
X3.1496Y-0.9843
X3.1496Y-1.0827
X3.1496Y-1.1811
X3.1496Y-1.2795
X3.1496Y-1.378
X3.248Y-0.1969
X3.248Y-0.2953
X3.248Y-0.3937
X3.248Y-0.4921
X3.248Y-0.5906
X3.248Y-0.689
X3.248Y-0.8858
X3.248Y-0.9843
X3.248Y-1.0827
X3.248Y-1.1811
X3.248Y-1.2795
X3.248Y-1.378
X3.3465Y-0.2953
X3.3465Y-0.3937
X3.3465Y-0.4921
X3.3465Y-0.5906
X3.3465Y-0.689
X3.3465Y-0.7874
X3.3465Y-0.8858
X3.3465Y-0.9843
X3.3465Y-1.0827
X3.3465Y-1.1811
X3.3465Y-1.2795
X3.4449Y-0.2953
X3.4449Y-0.3937
X3.4449Y-0.4921
X3.4449Y-0.5906
X3.4449Y-0.689
X3.4449Y-0.7874
X3.4449Y-0.7874
X3.4449Y-0.8858
X3.4449Y-0.9843
X3.4449Y-1.0827
X3.4449Y-1.1811
X3.4449Y-1.2795
T3
X1.4173Y-0.9409
T4
X1.3445Y-0.7618
T5
X0.585Y-0.8858
X0.585Y-0.9547
X0.585Y-1.0531
X0.585Y-1.1516
X0.585Y-1.2205
T7
X0.4276Y-1.0039
X0.4276Y-1.1024
X0.5063Y-1.0039
X0.5063Y-1.1024
T8
X0.3689Y-1.4705
X0.4689Y-1.4705
X0.5689Y-1.4705
T9
X0.3209Y-0.8161
X0.3209Y-1.2902
T10
X0.1575Y-1.4173
X3.3858Y-1.4173
X3.3858Y-0.1575
X0.1575Y-0.1575
T6
G00X0.2283Y-0.4252
M15
G01X0.2283Y-0.5118
M16
G05
G00X0.2953Y-0.6575
M15
G01X0.3819Y-0.6575
M16
G05
G00X0.4567Y-0.4173
M15
G01X0.4567Y-0.5197
M16
G05
T0
M30
