G04 #@! TF.GenerationSoftware,KiCad,Pcbnew,(5.1.6-0-10_14)*
G04 #@! TF.CreationDate,2020-11-21T00:06:08+00:00*
G04 #@! TF.ProjectId,usb3-ngff-carrier,75736233-2d6e-4676-9666-2d6361727269,1*
G04 #@! TF.SameCoordinates,Original*
G04 #@! TF.FileFunction,Soldermask,Bot*
G04 #@! TF.FilePolarity,Negative*
%FSLAX46Y46*%
G04 Gerber Fmt 4.6, Leading zero omitted, Abs format (unit mm)*
G04 Created by KiCad (PCBNEW (5.1.6-0-10_14)) date 2020-11-21 00:06:08*
%MOMM*%
%LPD*%
G01*
G04 APERTURE LIST*
%ADD10C,0.152400*%
G04 APERTURE END LIST*
D10*
G36*
X44980000Y-39440000D02*
G01*
X43950000Y-39440000D01*
X43950000Y-38440000D01*
X44980000Y-38440000D01*
X44980000Y-39440000D01*
G37*
G36*
X36050000Y-39440000D02*
G01*
X35020000Y-39440000D01*
X35020000Y-38440000D01*
X36050000Y-38440000D01*
X36050000Y-39440000D01*
G37*
G36*
X86685470Y-33740309D02*
G01*
X87113143Y-33917457D01*
X87498038Y-34174636D01*
X87825364Y-34501962D01*
X88082543Y-34886857D01*
X88259691Y-35314530D01*
X88350000Y-35768545D01*
X88350000Y-36231455D01*
X88259691Y-36685470D01*
X88082543Y-37113143D01*
X87825364Y-37498038D01*
X87498038Y-37825364D01*
X87113143Y-38082543D01*
X86685470Y-38259691D01*
X86231455Y-38350000D01*
X85768545Y-38350000D01*
X85314530Y-38259691D01*
X84886857Y-38082543D01*
X84501962Y-37825364D01*
X84174636Y-37498038D01*
X83917457Y-37113143D01*
X83740309Y-36685470D01*
X83650000Y-36231455D01*
X83650000Y-35768545D01*
X83740309Y-35314530D01*
X83917457Y-34886857D01*
X84174636Y-34501962D01*
X84501962Y-34174636D01*
X84886857Y-33917457D01*
X85314530Y-33740309D01*
X85768545Y-33650000D01*
X86231455Y-33650000D01*
X86685470Y-33740309D01*
G37*
G36*
X4685470Y-33740309D02*
G01*
X5113143Y-33917457D01*
X5498038Y-34174636D01*
X5825364Y-34501962D01*
X6082543Y-34886857D01*
X6259691Y-35314530D01*
X6350000Y-35768545D01*
X6350000Y-36231455D01*
X6259691Y-36685470D01*
X6082543Y-37113143D01*
X5825364Y-37498038D01*
X5498038Y-37825364D01*
X5113143Y-38082543D01*
X4685470Y-38259691D01*
X4231455Y-38350000D01*
X3768545Y-38350000D01*
X3314530Y-38259691D01*
X2886857Y-38082543D01*
X2501962Y-37825364D01*
X2174636Y-37498038D01*
X1917457Y-37113143D01*
X1740309Y-36685470D01*
X1650000Y-36231455D01*
X1650000Y-35768545D01*
X1740309Y-35314530D01*
X1917457Y-34886857D01*
X2174636Y-34501962D01*
X2501962Y-34174636D01*
X2886857Y-33917457D01*
X3314530Y-33740309D01*
X3768545Y-33650000D01*
X4231455Y-33650000D01*
X4685470Y-33740309D01*
G37*
G36*
X12157936Y-36532665D02*
G01*
X12312627Y-36596739D01*
X12451845Y-36689762D01*
X12570238Y-36808155D01*
X12663261Y-36947373D01*
X12727335Y-37102064D01*
X12760000Y-37266282D01*
X12760000Y-37433718D01*
X12727335Y-37597936D01*
X12663261Y-37752627D01*
X12570238Y-37891845D01*
X12451845Y-38010238D01*
X12312627Y-38103261D01*
X12157936Y-38167335D01*
X11993718Y-38200000D01*
X11826282Y-38200000D01*
X11662064Y-38167335D01*
X11507373Y-38103261D01*
X11368155Y-38010238D01*
X11249762Y-37891845D01*
X11156739Y-37752627D01*
X11092665Y-37597936D01*
X11060000Y-37433718D01*
X11060000Y-37266282D01*
X11092665Y-37102064D01*
X11156739Y-36947373D01*
X11249762Y-36808155D01*
X11368155Y-36689762D01*
X11507373Y-36596739D01*
X11662064Y-36532665D01*
X11826282Y-36500000D01*
X11993718Y-36500000D01*
X12157936Y-36532665D01*
G37*
G36*
X15300000Y-38200000D02*
G01*
X13600000Y-38200000D01*
X13600000Y-36500000D01*
X15300000Y-36500000D01*
X15300000Y-38200000D01*
G37*
G36*
X9617936Y-36532665D02*
G01*
X9772627Y-36596739D01*
X9911845Y-36689762D01*
X10030238Y-36808155D01*
X10123261Y-36947373D01*
X10187335Y-37102064D01*
X10220000Y-37266282D01*
X10220000Y-37433718D01*
X10187335Y-37597936D01*
X10123261Y-37752627D01*
X10030238Y-37891845D01*
X9911845Y-38010238D01*
X9772627Y-38103261D01*
X9617936Y-38167335D01*
X9453718Y-38200000D01*
X9286282Y-38200000D01*
X9122064Y-38167335D01*
X8967373Y-38103261D01*
X8828155Y-38010238D01*
X8709762Y-37891845D01*
X8616739Y-37752627D01*
X8552665Y-37597936D01*
X8520000Y-37433718D01*
X8520000Y-37266282D01*
X8552665Y-37102064D01*
X8616739Y-36947373D01*
X8709762Y-36808155D01*
X8828155Y-36689762D01*
X8967373Y-36596739D01*
X9122064Y-36532665D01*
X9286282Y-36500000D01*
X9453718Y-36500000D01*
X9617936Y-36532665D01*
G37*
G36*
X35580000Y-34120000D02*
G01*
X35100000Y-34120000D01*
X35100000Y-32320000D01*
X35580000Y-32320000D01*
X35580000Y-34120000D01*
G37*
G36*
X44910000Y-34120000D02*
G01*
X44430000Y-34120000D01*
X44430000Y-32320000D01*
X44910000Y-32320000D01*
X44910000Y-34120000D01*
G37*
G36*
X30160430Y-29471136D02*
G01*
X30260522Y-29512596D01*
X30350606Y-29572788D01*
X30427212Y-29649394D01*
X30487404Y-29739478D01*
X30528864Y-29839570D01*
X30550000Y-29945829D01*
X30550000Y-30054171D01*
X30528864Y-30160430D01*
X30487404Y-30260522D01*
X30427212Y-30350606D01*
X30350606Y-30427212D01*
X30260522Y-30487404D01*
X30160430Y-30528864D01*
X30054171Y-30550000D01*
X29945829Y-30550000D01*
X29839570Y-30528864D01*
X29739478Y-30487404D01*
X29649394Y-30427212D01*
X29572788Y-30350606D01*
X29512596Y-30260522D01*
X29471136Y-30160430D01*
X29450000Y-30054171D01*
X29450000Y-29945829D01*
X29471136Y-29839570D01*
X29512596Y-29739478D01*
X29572788Y-29649394D01*
X29649394Y-29572788D01*
X29739478Y-29512596D01*
X29839570Y-29471136D01*
X29945829Y-29450000D01*
X30054171Y-29450000D01*
X30160430Y-29471136D01*
G37*
G36*
X44910000Y-28370000D02*
G01*
X44430000Y-28370000D01*
X44430000Y-26570000D01*
X44910000Y-26570000D01*
X44910000Y-28370000D01*
G37*
G36*
X35580000Y-28370000D02*
G01*
X35100000Y-28370000D01*
X35100000Y-26570000D01*
X35580000Y-26570000D01*
X35580000Y-28370000D01*
G37*
G36*
X43500000Y-27400000D02*
G01*
X42850000Y-27400000D01*
X42850000Y-26100000D01*
X43500000Y-26100000D01*
X43500000Y-27400000D01*
G37*
G36*
X42230000Y-27400000D02*
G01*
X41580000Y-27400000D01*
X41580000Y-26100000D01*
X42230000Y-26100000D01*
X42230000Y-27400000D01*
G37*
G36*
X40960000Y-27400000D02*
G01*
X40310000Y-27400000D01*
X40310000Y-26100000D01*
X40960000Y-26100000D01*
X40960000Y-27400000D01*
G37*
G36*
X39690000Y-27400000D02*
G01*
X39040000Y-27400000D01*
X39040000Y-26100000D01*
X39690000Y-26100000D01*
X39690000Y-27400000D01*
G37*
G36*
X38420000Y-27400000D02*
G01*
X37770000Y-27400000D01*
X37770000Y-26100000D01*
X38420000Y-26100000D01*
X38420000Y-27400000D01*
G37*
G36*
X37150000Y-27400000D02*
G01*
X36500000Y-27400000D01*
X36500000Y-26100000D01*
X37150000Y-26100000D01*
X37150000Y-27400000D01*
G37*
G36*
X31318768Y-24278822D02*
G01*
X31455258Y-24335358D01*
X31578099Y-24417438D01*
X31682562Y-24521901D01*
X31764642Y-24644742D01*
X31821178Y-24781232D01*
X31850000Y-24926131D01*
X31850000Y-25073869D01*
X31821178Y-25218768D01*
X31764642Y-25355258D01*
X31682562Y-25478099D01*
X31578099Y-25582562D01*
X31455258Y-25664642D01*
X31318768Y-25721178D01*
X31173869Y-25750000D01*
X31026131Y-25750000D01*
X30881232Y-25721178D01*
X30744742Y-25664642D01*
X30621901Y-25582562D01*
X30517438Y-25478099D01*
X30435358Y-25355258D01*
X30378822Y-25218768D01*
X30350000Y-25073869D01*
X30350000Y-24926131D01*
X30378822Y-24781232D01*
X30435358Y-24644742D01*
X30517438Y-24521901D01*
X30621901Y-24417438D01*
X30744742Y-24335358D01*
X30881232Y-24278822D01*
X31026131Y-24250000D01*
X31173869Y-24250000D01*
X31318768Y-24278822D01*
G37*
G36*
X42081669Y-24682586D02*
G01*
X42104535Y-24689523D01*
X42125596Y-24700780D01*
X42144064Y-24715936D01*
X42159220Y-24734404D01*
X42170477Y-24755465D01*
X42177414Y-24778331D01*
X42180000Y-24804591D01*
X42180000Y-25195409D01*
X42177414Y-25221669D01*
X42170477Y-25244535D01*
X42159220Y-25265596D01*
X42144064Y-25284064D01*
X42125596Y-25299220D01*
X42104535Y-25310477D01*
X42081669Y-25317414D01*
X42055409Y-25320000D01*
X41714591Y-25320000D01*
X41688331Y-25317414D01*
X41665465Y-25310477D01*
X41644404Y-25299220D01*
X41625936Y-25284064D01*
X41610780Y-25265596D01*
X41599523Y-25244535D01*
X41592586Y-25221669D01*
X41590000Y-25195409D01*
X41590000Y-24804591D01*
X41592586Y-24778331D01*
X41599523Y-24755465D01*
X41610780Y-24734404D01*
X41625936Y-24715936D01*
X41644404Y-24700780D01*
X41665465Y-24689523D01*
X41688331Y-24682586D01*
X41714591Y-24680000D01*
X42055409Y-24680000D01*
X42081669Y-24682586D01*
G37*
G36*
X41111669Y-24682586D02*
G01*
X41134535Y-24689523D01*
X41155596Y-24700780D01*
X41174064Y-24715936D01*
X41189220Y-24734404D01*
X41200477Y-24755465D01*
X41207414Y-24778331D01*
X41210000Y-24804591D01*
X41210000Y-25195409D01*
X41207414Y-25221669D01*
X41200477Y-25244535D01*
X41189220Y-25265596D01*
X41174064Y-25284064D01*
X41155596Y-25299220D01*
X41134535Y-25310477D01*
X41111669Y-25317414D01*
X41085409Y-25320000D01*
X40744591Y-25320000D01*
X40718331Y-25317414D01*
X40695465Y-25310477D01*
X40674404Y-25299220D01*
X40655936Y-25284064D01*
X40640780Y-25265596D01*
X40629523Y-25244535D01*
X40622586Y-25221669D01*
X40620000Y-25195409D01*
X40620000Y-24804591D01*
X40622586Y-24778331D01*
X40629523Y-24755465D01*
X40640780Y-24734404D01*
X40655936Y-24715936D01*
X40674404Y-24700780D01*
X40695465Y-24689523D01*
X40718331Y-24682586D01*
X40744591Y-24680000D01*
X41085409Y-24680000D01*
X41111669Y-24682586D01*
G37*
G36*
X43411669Y-24682586D02*
G01*
X43434535Y-24689523D01*
X43455596Y-24700780D01*
X43474064Y-24715936D01*
X43489220Y-24734404D01*
X43500477Y-24755465D01*
X43507414Y-24778331D01*
X43510000Y-24804591D01*
X43510000Y-25195409D01*
X43507414Y-25221669D01*
X43500477Y-25244535D01*
X43489220Y-25265596D01*
X43474064Y-25284064D01*
X43455596Y-25299220D01*
X43434535Y-25310477D01*
X43411669Y-25317414D01*
X43385409Y-25320000D01*
X43044591Y-25320000D01*
X43018331Y-25317414D01*
X42995465Y-25310477D01*
X42974404Y-25299220D01*
X42955936Y-25284064D01*
X42940780Y-25265596D01*
X42929523Y-25244535D01*
X42922586Y-25221669D01*
X42920000Y-25195409D01*
X42920000Y-24804591D01*
X42922586Y-24778331D01*
X42929523Y-24755465D01*
X42940780Y-24734404D01*
X42955936Y-24715936D01*
X42974404Y-24700780D01*
X42995465Y-24689523D01*
X43018331Y-24682586D01*
X43044591Y-24680000D01*
X43385409Y-24680000D01*
X43411669Y-24682586D01*
G37*
G36*
X44381669Y-24682586D02*
G01*
X44404535Y-24689523D01*
X44425596Y-24700780D01*
X44444064Y-24715936D01*
X44459220Y-24734404D01*
X44470477Y-24755465D01*
X44477414Y-24778331D01*
X44480000Y-24804591D01*
X44480000Y-25195409D01*
X44477414Y-25221669D01*
X44470477Y-25244535D01*
X44459220Y-25265596D01*
X44444064Y-25284064D01*
X44425596Y-25299220D01*
X44404535Y-25310477D01*
X44381669Y-25317414D01*
X44355409Y-25320000D01*
X44014591Y-25320000D01*
X43988331Y-25317414D01*
X43965465Y-25310477D01*
X43944404Y-25299220D01*
X43925936Y-25284064D01*
X43910780Y-25265596D01*
X43899523Y-25244535D01*
X43892586Y-25221669D01*
X43890000Y-25195409D01*
X43890000Y-24804591D01*
X43892586Y-24778331D01*
X43899523Y-24755465D01*
X43910780Y-24734404D01*
X43925936Y-24715936D01*
X43944404Y-24700780D01*
X43965465Y-24689523D01*
X43988331Y-24682586D01*
X44014591Y-24680000D01*
X44355409Y-24680000D01*
X44381669Y-24682586D01*
G37*
G36*
X36211669Y-24682586D02*
G01*
X36234535Y-24689523D01*
X36255596Y-24700780D01*
X36274064Y-24715936D01*
X36289220Y-24734404D01*
X36300477Y-24755465D01*
X36307414Y-24778331D01*
X36310000Y-24804591D01*
X36310000Y-25195409D01*
X36307414Y-25221669D01*
X36300477Y-25244535D01*
X36289220Y-25265596D01*
X36274064Y-25284064D01*
X36255596Y-25299220D01*
X36234535Y-25310477D01*
X36211669Y-25317414D01*
X36185409Y-25320000D01*
X35844591Y-25320000D01*
X35818331Y-25317414D01*
X35795465Y-25310477D01*
X35774404Y-25299220D01*
X35755936Y-25284064D01*
X35740780Y-25265596D01*
X35729523Y-25244535D01*
X35722586Y-25221669D01*
X35720000Y-25195409D01*
X35720000Y-24804591D01*
X35722586Y-24778331D01*
X35729523Y-24755465D01*
X35740780Y-24734404D01*
X35755936Y-24715936D01*
X35774404Y-24700780D01*
X35795465Y-24689523D01*
X35818331Y-24682586D01*
X35844591Y-24680000D01*
X36185409Y-24680000D01*
X36211669Y-24682586D01*
G37*
G36*
X37181669Y-24682586D02*
G01*
X37204535Y-24689523D01*
X37225596Y-24700780D01*
X37244064Y-24715936D01*
X37259220Y-24734404D01*
X37270477Y-24755465D01*
X37277414Y-24778331D01*
X37280000Y-24804591D01*
X37280000Y-25195409D01*
X37277414Y-25221669D01*
X37270477Y-25244535D01*
X37259220Y-25265596D01*
X37244064Y-25284064D01*
X37225596Y-25299220D01*
X37204535Y-25310477D01*
X37181669Y-25317414D01*
X37155409Y-25320000D01*
X36814591Y-25320000D01*
X36788331Y-25317414D01*
X36765465Y-25310477D01*
X36744404Y-25299220D01*
X36725936Y-25284064D01*
X36710780Y-25265596D01*
X36699523Y-25244535D01*
X36692586Y-25221669D01*
X36690000Y-25195409D01*
X36690000Y-24804591D01*
X36692586Y-24778331D01*
X36699523Y-24755465D01*
X36710780Y-24734404D01*
X36725936Y-24715936D01*
X36744404Y-24700780D01*
X36765465Y-24689523D01*
X36788331Y-24682586D01*
X36814591Y-24680000D01*
X37155409Y-24680000D01*
X37181669Y-24682586D01*
G37*
G36*
X38811669Y-24682586D02*
G01*
X38834535Y-24689523D01*
X38855596Y-24700780D01*
X38874064Y-24715936D01*
X38889220Y-24734404D01*
X38900477Y-24755465D01*
X38907414Y-24778331D01*
X38910000Y-24804591D01*
X38910000Y-25195409D01*
X38907414Y-25221669D01*
X38900477Y-25244535D01*
X38889220Y-25265596D01*
X38874064Y-25284064D01*
X38855596Y-25299220D01*
X38834535Y-25310477D01*
X38811669Y-25317414D01*
X38785409Y-25320000D01*
X38444591Y-25320000D01*
X38418331Y-25317414D01*
X38395465Y-25310477D01*
X38374404Y-25299220D01*
X38355936Y-25284064D01*
X38340780Y-25265596D01*
X38329523Y-25244535D01*
X38322586Y-25221669D01*
X38320000Y-25195409D01*
X38320000Y-24804591D01*
X38322586Y-24778331D01*
X38329523Y-24755465D01*
X38340780Y-24734404D01*
X38355936Y-24715936D01*
X38374404Y-24700780D01*
X38395465Y-24689523D01*
X38418331Y-24682586D01*
X38444591Y-24680000D01*
X38785409Y-24680000D01*
X38811669Y-24682586D01*
G37*
G36*
X39781669Y-24682586D02*
G01*
X39804535Y-24689523D01*
X39825596Y-24700780D01*
X39844064Y-24715936D01*
X39859220Y-24734404D01*
X39870477Y-24755465D01*
X39877414Y-24778331D01*
X39880000Y-24804591D01*
X39880000Y-25195409D01*
X39877414Y-25221669D01*
X39870477Y-25244535D01*
X39859220Y-25265596D01*
X39844064Y-25284064D01*
X39825596Y-25299220D01*
X39804535Y-25310477D01*
X39781669Y-25317414D01*
X39755409Y-25320000D01*
X39414591Y-25320000D01*
X39388331Y-25317414D01*
X39365465Y-25310477D01*
X39344404Y-25299220D01*
X39325936Y-25284064D01*
X39310780Y-25265596D01*
X39299523Y-25244535D01*
X39292586Y-25221669D01*
X39290000Y-25195409D01*
X39290000Y-24804591D01*
X39292586Y-24778331D01*
X39299523Y-24755465D01*
X39310780Y-24734404D01*
X39325936Y-24715936D01*
X39344404Y-24700780D01*
X39365465Y-24689523D01*
X39388331Y-24682586D01*
X39414591Y-24680000D01*
X39755409Y-24680000D01*
X39781669Y-24682586D01*
G37*
G36*
X41569322Y-23053956D02*
G01*
X41605544Y-23064944D01*
X41638934Y-23082791D01*
X41668195Y-23106805D01*
X41692209Y-23136066D01*
X41710056Y-23169456D01*
X41721044Y-23205678D01*
X41725000Y-23245841D01*
X41725000Y-23729159D01*
X41721044Y-23769322D01*
X41710056Y-23805544D01*
X41692209Y-23838934D01*
X41668195Y-23868195D01*
X41638934Y-23892209D01*
X41605544Y-23910056D01*
X41569322Y-23921044D01*
X41529159Y-23925000D01*
X40970841Y-23925000D01*
X40930678Y-23921044D01*
X40894456Y-23910056D01*
X40861066Y-23892209D01*
X40831805Y-23868195D01*
X40807791Y-23838934D01*
X40789944Y-23805544D01*
X40778956Y-23769322D01*
X40775000Y-23729159D01*
X40775000Y-23245841D01*
X40778956Y-23205678D01*
X40789944Y-23169456D01*
X40807791Y-23136066D01*
X40831805Y-23106805D01*
X40861066Y-23082791D01*
X40894456Y-23064944D01*
X40930678Y-23053956D01*
X40970841Y-23050000D01*
X41529159Y-23050000D01*
X41569322Y-23053956D01*
G37*
G36*
X44219322Y-23053956D02*
G01*
X44255544Y-23064944D01*
X44288934Y-23082791D01*
X44318195Y-23106805D01*
X44342209Y-23136066D01*
X44360056Y-23169456D01*
X44371044Y-23205678D01*
X44375000Y-23245841D01*
X44375000Y-23729159D01*
X44371044Y-23769322D01*
X44360056Y-23805544D01*
X44342209Y-23838934D01*
X44318195Y-23868195D01*
X44288934Y-23892209D01*
X44255544Y-23910056D01*
X44219322Y-23921044D01*
X44179159Y-23925000D01*
X43620841Y-23925000D01*
X43580678Y-23921044D01*
X43544456Y-23910056D01*
X43511066Y-23892209D01*
X43481805Y-23868195D01*
X43457791Y-23838934D01*
X43439944Y-23805544D01*
X43428956Y-23769322D01*
X43425000Y-23729159D01*
X43425000Y-23245841D01*
X43428956Y-23205678D01*
X43439944Y-23169456D01*
X43457791Y-23136066D01*
X43481805Y-23106805D01*
X43511066Y-23082791D01*
X43544456Y-23064944D01*
X43580678Y-23053956D01*
X43620841Y-23050000D01*
X44179159Y-23050000D01*
X44219322Y-23053956D01*
G37*
G36*
X39619322Y-23053956D02*
G01*
X39655544Y-23064944D01*
X39688934Y-23082791D01*
X39718195Y-23106805D01*
X39742209Y-23136066D01*
X39760056Y-23169456D01*
X39771044Y-23205678D01*
X39775000Y-23245841D01*
X39775000Y-23729159D01*
X39771044Y-23769322D01*
X39760056Y-23805544D01*
X39742209Y-23838934D01*
X39718195Y-23868195D01*
X39688934Y-23892209D01*
X39655544Y-23910056D01*
X39619322Y-23921044D01*
X39579159Y-23925000D01*
X39020841Y-23925000D01*
X38980678Y-23921044D01*
X38944456Y-23910056D01*
X38911066Y-23892209D01*
X38881805Y-23868195D01*
X38857791Y-23838934D01*
X38839944Y-23805544D01*
X38828956Y-23769322D01*
X38825000Y-23729159D01*
X38825000Y-23245841D01*
X38828956Y-23205678D01*
X38839944Y-23169456D01*
X38857791Y-23136066D01*
X38881805Y-23106805D01*
X38911066Y-23082791D01*
X38944456Y-23064944D01*
X38980678Y-23053956D01*
X39020841Y-23050000D01*
X39579159Y-23050000D01*
X39619322Y-23053956D01*
G37*
G36*
X41569322Y-21478956D02*
G01*
X41605544Y-21489944D01*
X41638934Y-21507791D01*
X41668195Y-21531805D01*
X41692209Y-21561066D01*
X41710056Y-21594456D01*
X41721044Y-21630678D01*
X41725000Y-21670841D01*
X41725000Y-22154159D01*
X41721044Y-22194322D01*
X41710056Y-22230544D01*
X41692209Y-22263934D01*
X41668195Y-22293195D01*
X41638934Y-22317209D01*
X41605544Y-22335056D01*
X41569322Y-22346044D01*
X41529159Y-22350000D01*
X40970841Y-22350000D01*
X40930678Y-22346044D01*
X40894456Y-22335056D01*
X40861066Y-22317209D01*
X40831805Y-22293195D01*
X40807791Y-22263934D01*
X40789944Y-22230544D01*
X40778956Y-22194322D01*
X40775000Y-22154159D01*
X40775000Y-21670841D01*
X40778956Y-21630678D01*
X40789944Y-21594456D01*
X40807791Y-21561066D01*
X40831805Y-21531805D01*
X40861066Y-21507791D01*
X40894456Y-21489944D01*
X40930678Y-21478956D01*
X40970841Y-21475000D01*
X41529159Y-21475000D01*
X41569322Y-21478956D01*
G37*
G36*
X44219322Y-21478956D02*
G01*
X44255544Y-21489944D01*
X44288934Y-21507791D01*
X44318195Y-21531805D01*
X44342209Y-21561066D01*
X44360056Y-21594456D01*
X44371044Y-21630678D01*
X44375000Y-21670841D01*
X44375000Y-22154159D01*
X44371044Y-22194322D01*
X44360056Y-22230544D01*
X44342209Y-22263934D01*
X44318195Y-22293195D01*
X44288934Y-22317209D01*
X44255544Y-22335056D01*
X44219322Y-22346044D01*
X44179159Y-22350000D01*
X43620841Y-22350000D01*
X43580678Y-22346044D01*
X43544456Y-22335056D01*
X43511066Y-22317209D01*
X43481805Y-22293195D01*
X43457791Y-22263934D01*
X43439944Y-22230544D01*
X43428956Y-22194322D01*
X43425000Y-22154159D01*
X43425000Y-21670841D01*
X43428956Y-21630678D01*
X43439944Y-21594456D01*
X43457791Y-21561066D01*
X43481805Y-21531805D01*
X43511066Y-21507791D01*
X43544456Y-21489944D01*
X43580678Y-21478956D01*
X43620841Y-21475000D01*
X44179159Y-21475000D01*
X44219322Y-21478956D01*
G37*
G36*
X39619322Y-21478956D02*
G01*
X39655544Y-21489944D01*
X39688934Y-21507791D01*
X39718195Y-21531805D01*
X39742209Y-21561066D01*
X39760056Y-21594456D01*
X39771044Y-21630678D01*
X39775000Y-21670841D01*
X39775000Y-22154159D01*
X39771044Y-22194322D01*
X39760056Y-22230544D01*
X39742209Y-22263934D01*
X39718195Y-22293195D01*
X39688934Y-22317209D01*
X39655544Y-22335056D01*
X39619322Y-22346044D01*
X39579159Y-22350000D01*
X39020841Y-22350000D01*
X38980678Y-22346044D01*
X38944456Y-22335056D01*
X38911066Y-22317209D01*
X38881805Y-22293195D01*
X38857791Y-22263934D01*
X38839944Y-22230544D01*
X38828956Y-22194322D01*
X38825000Y-22154159D01*
X38825000Y-21670841D01*
X38828956Y-21630678D01*
X38839944Y-21594456D01*
X38857791Y-21561066D01*
X38881805Y-21531805D01*
X38911066Y-21507791D01*
X38944456Y-21489944D01*
X38980678Y-21478956D01*
X39020841Y-21475000D01*
X39579159Y-21475000D01*
X39619322Y-21478956D01*
G37*
G36*
X70687534Y-18557644D02*
G01*
X70960517Y-18670716D01*
X71206196Y-18834874D01*
X71415126Y-19043804D01*
X71579284Y-19289483D01*
X71692356Y-19562466D01*
X71750000Y-19852263D01*
X71750000Y-20147737D01*
X71692356Y-20437534D01*
X71579284Y-20710517D01*
X71415126Y-20956196D01*
X71206196Y-21165126D01*
X70960517Y-21329284D01*
X70687534Y-21442356D01*
X70397737Y-21500000D01*
X70102263Y-21500000D01*
X69812466Y-21442356D01*
X69539483Y-21329284D01*
X69293804Y-21165126D01*
X69084874Y-20956196D01*
X68920716Y-20710517D01*
X68807644Y-20437534D01*
X68750000Y-20147737D01*
X68750000Y-19852263D01*
X68807644Y-19562466D01*
X68920716Y-19289483D01*
X69084874Y-19043804D01*
X69293804Y-18834874D01*
X69539483Y-18670716D01*
X69812466Y-18557644D01*
X70102263Y-18500000D01*
X70397737Y-18500000D01*
X70687534Y-18557644D01*
G37*
G36*
X80687534Y-18557644D02*
G01*
X80960517Y-18670716D01*
X81206196Y-18834874D01*
X81415126Y-19043804D01*
X81579284Y-19289483D01*
X81692356Y-19562466D01*
X81750000Y-19852263D01*
X81750000Y-20147737D01*
X81692356Y-20437534D01*
X81579284Y-20710517D01*
X81415126Y-20956196D01*
X81206196Y-21165126D01*
X80960517Y-21329284D01*
X80687534Y-21442356D01*
X80397737Y-21500000D01*
X80102263Y-21500000D01*
X79812466Y-21442356D01*
X79539483Y-21329284D01*
X79293804Y-21165126D01*
X79084874Y-20956196D01*
X78920716Y-20710517D01*
X78807644Y-20437534D01*
X78750000Y-20147737D01*
X78750000Y-19852263D01*
X78807644Y-19562466D01*
X78920716Y-19289483D01*
X79084874Y-19043804D01*
X79293804Y-18834874D01*
X79539483Y-18670716D01*
X79812466Y-18557644D01*
X80102263Y-18500000D01*
X80397737Y-18500000D01*
X80687534Y-18557644D01*
G37*
G36*
X9876427Y-15813022D02*
G01*
X9876430Y-15813023D01*
X9876431Y-15813023D01*
X9916208Y-15825089D01*
X10046080Y-15864485D01*
X10124257Y-15906272D01*
X10202432Y-15948057D01*
X10202434Y-15948058D01*
X10202433Y-15948058D01*
X10339475Y-16060525D01*
X10451942Y-16197567D01*
X10535515Y-16353920D01*
X10586978Y-16523573D01*
X10604355Y-16700000D01*
X10586978Y-16876427D01*
X10535515Y-17046080D01*
X10535514Y-17046081D01*
X10451943Y-17202432D01*
X10339475Y-17339475D01*
X10202432Y-17451943D01*
X10046080Y-17535515D01*
X9916208Y-17574911D01*
X9876431Y-17586977D01*
X9876430Y-17586977D01*
X9876427Y-17586978D01*
X9744212Y-17600000D01*
X7455788Y-17600000D01*
X7323573Y-17586978D01*
X7323570Y-17586977D01*
X7323569Y-17586977D01*
X7283792Y-17574911D01*
X7153920Y-17535515D01*
X6997568Y-17451943D01*
X6860525Y-17339475D01*
X6748057Y-17202432D01*
X6664486Y-17046081D01*
X6664485Y-17046080D01*
X6613022Y-16876427D01*
X6595645Y-16700000D01*
X6613022Y-16523573D01*
X6664485Y-16353920D01*
X6748058Y-16197567D01*
X6860525Y-16060525D01*
X6997567Y-15948058D01*
X6997566Y-15948058D01*
X6997568Y-15948057D01*
X7153920Y-15864485D01*
X7283792Y-15825089D01*
X7323569Y-15813023D01*
X7323570Y-15813023D01*
X7323573Y-15813022D01*
X7455788Y-15800000D01*
X9744212Y-15800000D01*
X9876427Y-15813022D01*
G37*
G36*
X12500000Y-14100000D02*
G01*
X10700000Y-14100000D01*
X10700000Y-9700000D01*
X12500000Y-9700000D01*
X12500000Y-14100000D01*
G37*
G36*
X5976427Y-9913022D02*
G01*
X5976430Y-9913023D01*
X5976431Y-9913023D01*
X6003410Y-9921207D01*
X6146080Y-9964485D01*
X6302432Y-10048057D01*
X6302434Y-10048058D01*
X6302433Y-10048058D01*
X6439475Y-10160525D01*
X6551942Y-10297567D01*
X6635515Y-10453920D01*
X6686978Y-10623573D01*
X6700000Y-10755788D01*
X6700000Y-13044212D01*
X6686978Y-13176427D01*
X6635515Y-13346080D01*
X6635514Y-13346081D01*
X6551944Y-13502431D01*
X6551942Y-13502433D01*
X6439475Y-13639475D01*
X6302431Y-13751943D01*
X6146081Y-13835514D01*
X6046486Y-13865726D01*
X5976430Y-13886977D01*
X5976429Y-13886977D01*
X5976426Y-13886978D01*
X5800000Y-13904355D01*
X5623573Y-13886978D01*
X5623570Y-13886977D01*
X5623569Y-13886977D01*
X5583792Y-13874911D01*
X5453920Y-13835515D01*
X5375743Y-13793728D01*
X5297568Y-13751943D01*
X5160525Y-13639475D01*
X5048057Y-13502431D01*
X4964486Y-13346081D01*
X4934274Y-13246486D01*
X4913023Y-13176430D01*
X4913023Y-13176429D01*
X4913022Y-13176426D01*
X4900000Y-13044211D01*
X4900001Y-10755788D01*
X4913023Y-10623573D01*
X4964486Y-10453920D01*
X5048059Y-10297567D01*
X5160526Y-10160525D01*
X5297568Y-10048058D01*
X5297567Y-10048058D01*
X5297569Y-10048057D01*
X5453921Y-9964485D01*
X5596591Y-9921207D01*
X5623570Y-9913023D01*
X5623571Y-9913023D01*
X5623574Y-9913022D01*
X5800000Y-9895645D01*
X5976427Y-9913022D01*
G37*
G36*
X30233352Y-9230743D02*
G01*
X30378940Y-9291047D01*
X30509974Y-9378602D01*
X30621398Y-9490026D01*
X30708953Y-9621060D01*
X30769257Y-9766648D01*
X30800000Y-9921207D01*
X30800000Y-10078793D01*
X30769257Y-10233352D01*
X30708953Y-10378940D01*
X30621398Y-10509974D01*
X30509974Y-10621398D01*
X30378940Y-10708953D01*
X30233352Y-10769257D01*
X30078793Y-10800000D01*
X29921207Y-10800000D01*
X29766648Y-10769257D01*
X29621060Y-10708953D01*
X29490026Y-10621398D01*
X29378602Y-10509974D01*
X29291047Y-10378940D01*
X29230743Y-10233352D01*
X29200000Y-10078793D01*
X29200000Y-9921207D01*
X29230743Y-9766648D01*
X29291047Y-9621060D01*
X29378602Y-9490026D01*
X29490026Y-9378602D01*
X29621060Y-9291047D01*
X29766648Y-9230743D01*
X29921207Y-9200000D01*
X30078793Y-9200000D01*
X30233352Y-9230743D01*
G37*
G36*
X4685470Y-1740309D02*
G01*
X5113143Y-1917457D01*
X5498038Y-2174636D01*
X5825364Y-2501962D01*
X6082543Y-2886857D01*
X6259691Y-3314530D01*
X6350000Y-3768545D01*
X6350000Y-4231455D01*
X6259691Y-4685470D01*
X6082543Y-5113143D01*
X5825364Y-5498038D01*
X5498038Y-5825364D01*
X5113143Y-6082543D01*
X4685470Y-6259691D01*
X4231455Y-6350000D01*
X3768545Y-6350000D01*
X3314530Y-6259691D01*
X2886857Y-6082543D01*
X2501962Y-5825364D01*
X2174636Y-5498038D01*
X1917457Y-5113143D01*
X1740309Y-4685470D01*
X1650000Y-4231455D01*
X1650000Y-3768545D01*
X1740309Y-3314530D01*
X1917457Y-2886857D01*
X2174636Y-2501962D01*
X2501962Y-2174636D01*
X2886857Y-1917457D01*
X3314530Y-1740309D01*
X3768545Y-1650000D01*
X4231455Y-1650000D01*
X4685470Y-1740309D01*
G37*
G36*
X86685470Y-1740309D02*
G01*
X87113143Y-1917457D01*
X87498038Y-2174636D01*
X87825364Y-2501962D01*
X88082543Y-2886857D01*
X88259691Y-3314530D01*
X88350000Y-3768545D01*
X88350000Y-4231455D01*
X88259691Y-4685470D01*
X88082543Y-5113143D01*
X87825364Y-5498038D01*
X87498038Y-5825364D01*
X87113143Y-6082543D01*
X86685470Y-6259691D01*
X86231455Y-6350000D01*
X85768545Y-6350000D01*
X85314530Y-6259691D01*
X84886857Y-6082543D01*
X84501962Y-5825364D01*
X84174636Y-5498038D01*
X83917457Y-5113143D01*
X83740309Y-4685470D01*
X83650000Y-4231455D01*
X83650000Y-3768545D01*
X83740309Y-3314530D01*
X83917457Y-2886857D01*
X84174636Y-2501962D01*
X84501962Y-2174636D01*
X84886857Y-1917457D01*
X85314530Y-1740309D01*
X85768545Y-1650000D01*
X86231455Y-1650000D01*
X86685470Y-1740309D01*
G37*
M02*
