G04 #@! TF.GenerationSoftware,KiCad,Pcbnew,(5.1.6-0-10_14)*
G04 #@! TF.CreationDate,2020-11-21T00:06:08+00:00*
G04 #@! TF.ProjectId,usb3-ngff-carrier,75736233-2d6e-4676-9666-2d6361727269,1*
G04 #@! TF.SameCoordinates,Original*
G04 #@! TF.FileFunction,Paste,Bot*
G04 #@! TF.FilePolarity,Positive*
%FSLAX46Y46*%
G04 Gerber Fmt 4.6, Leading zero omitted, Abs format (unit mm)*
G04 Created by KiCad (PCBNEW (5.1.6-0-10_14)) date 2020-11-21 00:06:08*
%MOMM*%
%LPD*%
G01*
G04 APERTURE LIST*
%ADD10R,0.650000X1.300000*%
%ADD11R,0.480000X1.800000*%
%ADD12R,1.030000X1.000000*%
G04 APERTURE END LIST*
D10*
X36825000Y-26750000D03*
X38095000Y-26750000D03*
X39365000Y-26750000D03*
X40635000Y-26750000D03*
X41905000Y-26750000D03*
X43175000Y-26750000D03*
D11*
X35340000Y-27470000D03*
X44670000Y-27470000D03*
X44670000Y-33220000D03*
X35340000Y-33220000D03*
D12*
X35535000Y-38940000D03*
X44465000Y-38940000D03*
G36*
G01*
X38910000Y-24827500D02*
X38910000Y-25172500D01*
G75*
G02*
X38762500Y-25320000I-147500J0D01*
G01*
X38467500Y-25320000D01*
G75*
G02*
X38320000Y-25172500I0J147500D01*
G01*
X38320000Y-24827500D01*
G75*
G02*
X38467500Y-24680000I147500J0D01*
G01*
X38762500Y-24680000D01*
G75*
G02*
X38910000Y-24827500I0J-147500D01*
G01*
G37*
G36*
G01*
X39880000Y-24827500D02*
X39880000Y-25172500D01*
G75*
G02*
X39732500Y-25320000I-147500J0D01*
G01*
X39437500Y-25320000D01*
G75*
G02*
X39290000Y-25172500I0J147500D01*
G01*
X39290000Y-24827500D01*
G75*
G02*
X39437500Y-24680000I147500J0D01*
G01*
X39732500Y-24680000D01*
G75*
G02*
X39880000Y-24827500I0J-147500D01*
G01*
G37*
G36*
G01*
X36310000Y-24827500D02*
X36310000Y-25172500D01*
G75*
G02*
X36162500Y-25320000I-147500J0D01*
G01*
X35867500Y-25320000D01*
G75*
G02*
X35720000Y-25172500I0J147500D01*
G01*
X35720000Y-24827500D01*
G75*
G02*
X35867500Y-24680000I147500J0D01*
G01*
X36162500Y-24680000D01*
G75*
G02*
X36310000Y-24827500I0J-147500D01*
G01*
G37*
G36*
G01*
X37280000Y-24827500D02*
X37280000Y-25172500D01*
G75*
G02*
X37132500Y-25320000I-147500J0D01*
G01*
X36837500Y-25320000D01*
G75*
G02*
X36690000Y-25172500I0J147500D01*
G01*
X36690000Y-24827500D01*
G75*
G02*
X36837500Y-24680000I147500J0D01*
G01*
X37132500Y-24680000D01*
G75*
G02*
X37280000Y-24827500I0J-147500D01*
G01*
G37*
G36*
G01*
X39556250Y-22350000D02*
X39043750Y-22350000D01*
G75*
G02*
X38825000Y-22131250I0J218750D01*
G01*
X38825000Y-21693750D01*
G75*
G02*
X39043750Y-21475000I218750J0D01*
G01*
X39556250Y-21475000D01*
G75*
G02*
X39775000Y-21693750I0J-218750D01*
G01*
X39775000Y-22131250D01*
G75*
G02*
X39556250Y-22350000I-218750J0D01*
G01*
G37*
G36*
G01*
X39556250Y-23925000D02*
X39043750Y-23925000D01*
G75*
G02*
X38825000Y-23706250I0J218750D01*
G01*
X38825000Y-23268750D01*
G75*
G02*
X39043750Y-23050000I218750J0D01*
G01*
X39556250Y-23050000D01*
G75*
G02*
X39775000Y-23268750I0J-218750D01*
G01*
X39775000Y-23706250D01*
G75*
G02*
X39556250Y-23925000I-218750J0D01*
G01*
G37*
G36*
G01*
X44156250Y-22350000D02*
X43643750Y-22350000D01*
G75*
G02*
X43425000Y-22131250I0J218750D01*
G01*
X43425000Y-21693750D01*
G75*
G02*
X43643750Y-21475000I218750J0D01*
G01*
X44156250Y-21475000D01*
G75*
G02*
X44375000Y-21693750I0J-218750D01*
G01*
X44375000Y-22131250D01*
G75*
G02*
X44156250Y-22350000I-218750J0D01*
G01*
G37*
G36*
G01*
X44156250Y-23925000D02*
X43643750Y-23925000D01*
G75*
G02*
X43425000Y-23706250I0J218750D01*
G01*
X43425000Y-23268750D01*
G75*
G02*
X43643750Y-23050000I218750J0D01*
G01*
X44156250Y-23050000D01*
G75*
G02*
X44375000Y-23268750I0J-218750D01*
G01*
X44375000Y-23706250D01*
G75*
G02*
X44156250Y-23925000I-218750J0D01*
G01*
G37*
G36*
G01*
X41506250Y-22350000D02*
X40993750Y-22350000D01*
G75*
G02*
X40775000Y-22131250I0J218750D01*
G01*
X40775000Y-21693750D01*
G75*
G02*
X40993750Y-21475000I218750J0D01*
G01*
X41506250Y-21475000D01*
G75*
G02*
X41725000Y-21693750I0J-218750D01*
G01*
X41725000Y-22131250D01*
G75*
G02*
X41506250Y-22350000I-218750J0D01*
G01*
G37*
G36*
G01*
X41506250Y-23925000D02*
X40993750Y-23925000D01*
G75*
G02*
X40775000Y-23706250I0J218750D01*
G01*
X40775000Y-23268750D01*
G75*
G02*
X40993750Y-23050000I218750J0D01*
G01*
X41506250Y-23050000D01*
G75*
G02*
X41725000Y-23268750I0J-218750D01*
G01*
X41725000Y-23706250D01*
G75*
G02*
X41506250Y-23925000I-218750J0D01*
G01*
G37*
G36*
G01*
X41590000Y-25172500D02*
X41590000Y-24827500D01*
G75*
G02*
X41737500Y-24680000I147500J0D01*
G01*
X42032500Y-24680000D01*
G75*
G02*
X42180000Y-24827500I0J-147500D01*
G01*
X42180000Y-25172500D01*
G75*
G02*
X42032500Y-25320000I-147500J0D01*
G01*
X41737500Y-25320000D01*
G75*
G02*
X41590000Y-25172500I0J147500D01*
G01*
G37*
G36*
G01*
X40620000Y-25172500D02*
X40620000Y-24827500D01*
G75*
G02*
X40767500Y-24680000I147500J0D01*
G01*
X41062500Y-24680000D01*
G75*
G02*
X41210000Y-24827500I0J-147500D01*
G01*
X41210000Y-25172500D01*
G75*
G02*
X41062500Y-25320000I-147500J0D01*
G01*
X40767500Y-25320000D01*
G75*
G02*
X40620000Y-25172500I0J147500D01*
G01*
G37*
G36*
G01*
X43510000Y-24827500D02*
X43510000Y-25172500D01*
G75*
G02*
X43362500Y-25320000I-147500J0D01*
G01*
X43067500Y-25320000D01*
G75*
G02*
X42920000Y-25172500I0J147500D01*
G01*
X42920000Y-24827500D01*
G75*
G02*
X43067500Y-24680000I147500J0D01*
G01*
X43362500Y-24680000D01*
G75*
G02*
X43510000Y-24827500I0J-147500D01*
G01*
G37*
G36*
G01*
X44480000Y-24827500D02*
X44480000Y-25172500D01*
G75*
G02*
X44332500Y-25320000I-147500J0D01*
G01*
X44037500Y-25320000D01*
G75*
G02*
X43890000Y-25172500I0J147500D01*
G01*
X43890000Y-24827500D01*
G75*
G02*
X44037500Y-24680000I147500J0D01*
G01*
X44332500Y-24680000D01*
G75*
G02*
X44480000Y-24827500I0J-147500D01*
G01*
G37*
M02*
