G04 #@! TF.GenerationSoftware,KiCad,Pcbnew,(5.1.6-0-10_14)*
G04 #@! TF.CreationDate,2020-11-21T00:06:08+00:00*
G04 #@! TF.ProjectId,usb3-ngff-carrier,75736233-2d6e-4676-9666-2d6361727269,1*
G04 #@! TF.SameCoordinates,Original*
G04 #@! TF.FileFunction,Copper,L3,Inr*
G04 #@! TF.FilePolarity,Positive*
%FSLAX46Y46*%
G04 Gerber Fmt 4.6, Leading zero omitted, Abs format (unit mm)*
G04 Created by KiCad (PCBNEW (5.1.6-0-10_14)) date 2020-11-21 00:06:08*
%MOMM*%
%LPD*%
G01*
G04 APERTURE LIST*
G04 #@! TA.AperFunction,ViaPad*
%ADD10C,0.500000*%
G04 #@! TD*
G04 #@! TA.AperFunction,ViaPad*
%ADD11O,1.700000X1.700000*%
G04 #@! TD*
G04 #@! TA.AperFunction,ViaPad*
%ADD12R,1.700000X1.700000*%
G04 #@! TD*
G04 #@! TA.AperFunction,ViaPad*
%ADD13C,3.500000*%
G04 #@! TD*
G04 #@! TA.AperFunction,ViaPad*
%ADD14C,1.420000*%
G04 #@! TD*
G04 #@! TA.AperFunction,ViaPad*
%ADD15R,1.420000X1.420000*%
G04 #@! TD*
G04 #@! TA.AperFunction,ViaPad*
%ADD16C,1.200000*%
G04 #@! TD*
G04 #@! TA.AperFunction,ViaPad*
%ADD17R,1.800000X4.400000*%
G04 #@! TD*
G04 #@! TA.AperFunction,ViaPad*
%ADD18O,1.800000X4.000000*%
G04 #@! TD*
G04 #@! TA.AperFunction,ViaPad*
%ADD19O,4.000000X1.800000*%
G04 #@! TD*
G04 #@! TA.AperFunction,ViaPad*
%ADD20C,4.700000*%
G04 #@! TD*
G04 #@! TA.AperFunction,ViaPad*
%ADD21C,0.550000*%
G04 #@! TD*
G04 #@! TA.AperFunction,ViaPad*
%ADD22C,0.889000*%
G04 #@! TD*
G04 #@! TA.AperFunction,ViaPad*
%ADD23C,0.685800*%
G04 #@! TD*
G04 #@! TA.AperFunction,Conductor*
%ADD24C,0.508000*%
G04 #@! TD*
G04 #@! TA.AperFunction,Conductor*
%ADD25C,0.254000*%
G04 #@! TD*
G04 APERTURE END LIST*
D10*
X14500000Y-6400000D03*
X15250000Y-6400000D03*
X16000000Y-6400000D03*
D11*
X9370000Y-37350000D03*
X11910000Y-37350000D03*
D12*
X14450000Y-37350000D03*
D13*
X8150000Y-20730000D03*
X8150000Y-32770000D03*
D14*
X10860000Y-25500000D03*
X10860000Y-28000000D03*
X12859999Y-25500000D03*
D15*
X12859999Y-28000000D03*
D16*
X14860000Y-22500000D03*
X14860000Y-24250000D03*
X14860000Y-31000000D03*
X14860000Y-29250000D03*
X14860000Y-26750000D03*
D17*
X11600000Y-11900000D03*
D18*
X5800000Y-11900000D03*
D19*
X8600000Y-16700000D03*
D20*
X4000000Y-36000000D03*
X86000000Y-36000000D03*
X86000000Y-4000000D03*
X4000000Y-4000000D03*
D21*
X22730000Y-8480000D03*
X23230000Y-8980000D03*
X22730000Y-9480000D03*
X23230000Y-9980000D03*
X17860000Y-8430000D03*
X18360000Y-9930000D03*
X18360000Y-8930000D03*
X17860000Y-9430000D03*
X45000000Y-22500000D03*
X45000000Y-30000000D03*
X45000000Y-25000000D03*
X42500000Y-30000000D03*
X47500000Y-7500000D03*
X50000000Y-7500000D03*
X52500000Y-7500000D03*
X55000000Y-7500000D03*
X57500000Y-7500000D03*
X60000000Y-7500000D03*
X62500000Y-7500000D03*
X65000000Y-7500000D03*
X67500000Y-7500000D03*
X70000000Y-7500000D03*
X72500000Y-7500000D03*
X75000000Y-7500000D03*
X77500000Y-7500000D03*
X80000000Y-7500000D03*
X82500000Y-7500000D03*
X85000000Y-7500000D03*
X87500000Y-7500000D03*
X87500000Y-10000000D03*
X85000000Y-10000000D03*
X87500000Y-32500000D03*
X87500000Y-30000000D03*
X87500000Y-27500000D03*
X87500000Y-25000000D03*
X87500000Y-22500000D03*
X87500000Y-20000000D03*
X87500000Y-20000000D03*
X87500000Y-15000000D03*
X87500000Y-17500000D03*
X87500000Y-12500000D03*
X85000000Y-12500000D03*
X82500000Y-10000000D03*
X82500000Y-12500000D03*
X80000000Y-10000000D03*
X80000000Y-12500000D03*
X77500000Y-10000000D03*
X77500000Y-12500000D03*
X75000000Y-10000000D03*
X75000000Y-12500000D03*
X72500000Y-10000000D03*
X72500000Y-12500000D03*
X70000000Y-10000000D03*
X70000000Y-10000000D03*
X67500000Y-10000000D03*
X67500000Y-12500000D03*
X70000000Y-12500000D03*
X65000000Y-12500000D03*
X65000000Y-10000000D03*
X62500000Y-10000000D03*
X62500000Y-12500000D03*
X60000000Y-12500000D03*
X57500000Y-10000000D03*
X60000000Y-10000000D03*
X57500000Y-12500000D03*
X55000000Y-12500000D03*
X55000000Y-10000000D03*
X52500000Y-10000000D03*
X52500000Y-12500000D03*
X50000000Y-12500000D03*
X50000000Y-10000000D03*
X47500000Y-10000000D03*
X47500000Y-12500000D03*
X45000000Y-12500000D03*
X45000000Y-10000000D03*
X45000000Y-15000000D03*
X45000000Y-17500000D03*
X45000000Y-17500000D03*
X45000000Y-20000000D03*
X47500000Y-32500000D03*
X47500000Y-30000000D03*
X47500000Y-27500000D03*
X47500000Y-25000000D03*
X47500000Y-22500000D03*
X47500000Y-20000000D03*
X47500000Y-17500000D03*
X47500000Y-15000000D03*
X50000000Y-15000000D03*
X50000000Y-17500000D03*
X50000000Y-20000000D03*
X50000000Y-22500000D03*
X52500000Y-17500000D03*
X52500000Y-15000000D03*
X52500000Y-20000000D03*
X52500000Y-22500000D03*
X55000000Y-15000000D03*
X55000000Y-17500000D03*
X55000000Y-20000000D03*
X55000000Y-22500000D03*
X57500000Y-15000000D03*
X57500000Y-17500000D03*
X57500000Y-20000000D03*
X60000000Y-15000000D03*
X60000000Y-17500000D03*
X62500000Y-15000000D03*
X62500000Y-17500000D03*
X65000000Y-15000000D03*
X65000000Y-17500000D03*
X67500000Y-15000000D03*
X70000000Y-15000000D03*
X72500000Y-15000000D03*
X75000000Y-15000000D03*
X77500000Y-15000000D03*
X80000000Y-15000000D03*
X82500000Y-15000000D03*
X85000000Y-15000000D03*
X85000000Y-17500000D03*
X75000000Y-17500000D03*
X75000000Y-20000000D03*
X75000000Y-22500000D03*
X77500000Y-25000000D03*
X75000000Y-25000000D03*
X80000000Y-25000000D03*
X82500000Y-25000000D03*
X85000000Y-25000000D03*
X85000000Y-22500000D03*
X85000000Y-20000000D03*
X72500000Y-25000000D03*
X70000000Y-25000000D03*
X67500000Y-25000000D03*
X65000000Y-25000000D03*
X65000000Y-22500000D03*
X65000000Y-20000000D03*
X85000000Y-27500000D03*
X82500000Y-27500000D03*
X85000000Y-30000000D03*
X82500000Y-30000000D03*
X85000000Y-32500000D03*
X82500000Y-32500000D03*
X82500000Y-35000000D03*
X82500000Y-5000000D03*
X80000000Y-5000000D03*
X77500000Y-5000000D03*
X75000000Y-5000000D03*
X72500000Y-5000000D03*
X70000000Y-5000000D03*
X67500000Y-5000000D03*
X65000000Y-5000000D03*
X62500000Y-5000000D03*
X60000000Y-5000000D03*
X57500000Y-5000000D03*
X55000000Y-5000000D03*
X52500000Y-5000000D03*
X50000000Y-5000000D03*
X50000000Y-35000000D03*
X50000000Y-32500000D03*
X50000000Y-30000000D03*
X50000000Y-27500000D03*
X50000000Y-25000000D03*
X52500000Y-25000000D03*
X55000000Y-25000000D03*
X57500000Y-25000000D03*
X57500000Y-22500000D03*
X60000000Y-22500000D03*
X60000000Y-20000000D03*
X62500000Y-20000000D03*
X62500000Y-22500000D03*
X60000000Y-25000000D03*
X62500000Y-25000000D03*
X52500000Y-27500000D03*
X55000000Y-27500000D03*
X57500000Y-27500000D03*
X47500000Y-5000000D03*
X45000000Y-7500000D03*
X42500000Y-10000000D03*
X42500000Y-12500000D03*
X42500000Y-15000000D03*
X42500000Y-17500000D03*
X47500000Y-35000000D03*
X52500000Y-35000000D03*
X52500000Y-32500000D03*
X52500000Y-30000000D03*
X55000000Y-30000000D03*
X55000000Y-32500000D03*
X55000000Y-35000000D03*
X57500000Y-35000000D03*
X57500000Y-32500000D03*
X57500000Y-30000000D03*
X60000000Y-30000000D03*
X60000000Y-30000000D03*
X60000000Y-32500000D03*
X60000000Y-35000000D03*
X62500000Y-35000000D03*
X62500000Y-32500000D03*
X62500000Y-30000000D03*
X60000000Y-27500000D03*
X62500000Y-27500000D03*
X65000000Y-27500000D03*
X67500000Y-27500000D03*
X70000000Y-27500000D03*
X65000000Y-30000000D03*
X67500000Y-30000000D03*
X70000000Y-30000000D03*
X65000000Y-32500000D03*
X67500000Y-32500000D03*
X70000000Y-32500000D03*
X70000000Y-35000000D03*
X67500000Y-35000000D03*
X65000000Y-35000000D03*
X72500000Y-27500000D03*
X80000000Y-27500000D03*
X77500000Y-27500000D03*
X75000000Y-27500000D03*
X72500000Y-30000000D03*
X75000000Y-30000000D03*
X77500000Y-30000000D03*
X80000000Y-30000000D03*
X80000000Y-32500000D03*
X77500000Y-32500000D03*
X72500000Y-32500000D03*
X75000000Y-32500000D03*
X72500000Y-35000000D03*
X75000000Y-35000000D03*
X77500000Y-35000000D03*
X80000000Y-35000000D03*
X12500000Y-34000000D03*
X13500000Y-34000000D03*
X14500000Y-34000000D03*
X15500000Y-34000000D03*
X16500000Y-34000000D03*
X25000000Y-1500000D03*
X27250000Y-1500000D03*
X25750000Y-1500000D03*
X26500000Y-1500000D03*
X28500000Y-2650000D03*
X31700000Y-3450000D03*
X32450000Y-3450000D03*
X29250000Y-2650000D03*
X30000000Y-2650000D03*
X30950000Y-3450000D03*
X26850000Y-37700000D03*
X27600000Y-37700000D03*
X25350000Y-37700000D03*
X26100000Y-37700000D03*
X28850000Y-36750000D03*
X29600000Y-36750000D03*
X30350000Y-36750000D03*
X31100000Y-35950000D03*
X31850000Y-35950000D03*
X32600000Y-35950000D03*
X23300000Y-30300000D03*
X22600000Y-28900000D03*
X26500000Y-28550000D03*
X26250000Y-15250000D03*
X26250000Y-16750000D03*
X26250000Y-18250000D03*
X22750000Y-19750000D03*
X36750000Y-10500000D03*
X36750000Y-12000000D03*
X36750000Y-28750000D03*
X36750000Y-30050000D03*
X33800000Y-3900000D03*
X33700000Y-35600000D03*
X18100000Y-1000000D03*
X14500000Y-1000000D03*
X26500000Y-26750000D03*
X13400000Y-30100000D03*
X13400000Y-30900000D03*
X12800000Y-31300000D03*
X12800000Y-30500000D03*
X12800000Y-29700000D03*
X26400000Y-22750000D03*
X37550000Y-29400000D03*
X37550000Y-11300000D03*
X27950000Y-9600000D03*
X27950000Y-30350000D03*
X17000000Y-29500000D03*
X18000000Y-28500000D03*
X19000000Y-27500000D03*
X22750000Y-18750000D03*
X22750000Y-17750000D03*
X22750000Y-16750000D03*
X22750000Y-15750000D03*
X22750000Y-14700000D03*
X22100000Y-12500000D03*
X22950000Y-11550000D03*
X21500000Y-25750000D03*
X22600000Y-25750000D03*
X28600000Y-20400000D03*
X7800000Y-25000000D03*
X7000000Y-25600000D03*
X6300000Y-26400000D03*
X6200000Y-27600000D03*
X6200000Y-28800000D03*
X6800000Y-29800000D03*
X18800000Y-31800000D03*
X19600000Y-31000000D03*
X20400000Y-30200000D03*
X21200000Y-29400000D03*
X29500000Y-22000000D03*
X29500000Y-24000000D03*
X16750000Y-23750000D03*
X16750000Y-25500000D03*
X19250000Y-22750000D03*
X18250000Y-24000000D03*
X27400000Y-16000000D03*
X27400000Y-17400000D03*
X27400000Y-12200000D03*
X27400000Y-10800000D03*
X26250000Y-11500000D03*
X35100000Y-25000000D03*
X42600000Y-22100000D03*
X42600000Y-23900000D03*
X42600000Y-23000000D03*
X37800000Y-23100000D03*
X40000000Y-17500000D03*
X40000000Y-15000000D03*
X40000000Y-12500000D03*
X40000000Y-10000000D03*
X42500000Y-7500000D03*
X45000000Y-5000000D03*
X40000000Y-20000000D03*
X42500000Y-20000000D03*
X40000000Y-30000000D03*
X42500000Y-32500000D03*
X45000000Y-32500000D03*
X45000000Y-35000000D03*
X67500000Y-17500000D03*
X72500000Y-17500000D03*
X72500000Y-22500000D03*
X67500000Y-22500000D03*
X77500000Y-17500000D03*
X82500000Y-17500000D03*
X82500000Y-22500000D03*
X77500000Y-22500000D03*
X12700000Y-18700000D03*
X11200000Y-19200000D03*
X11700000Y-18700000D03*
X12200000Y-20200000D03*
X11200000Y-20200000D03*
X12200000Y-19200000D03*
X11700000Y-19700000D03*
X12700000Y-19700000D03*
X22600000Y-28000000D03*
X20700000Y-31600000D03*
X30700000Y-27000000D03*
X34950000Y-21900000D03*
X34500000Y-21200000D03*
X34050000Y-20550000D03*
D22*
X34150000Y-19350000D03*
D23*
X36000000Y-23900000D03*
D21*
X22600000Y-26850000D03*
X28400000Y-25000000D03*
X22600000Y-22600000D03*
X22600000Y-21400000D03*
X26950000Y-21250000D03*
X27000000Y-20400000D03*
X23250000Y-12750000D03*
X21800000Y-18000000D03*
X22700000Y-5690000D03*
X23700000Y-6690000D03*
X23200000Y-7190000D03*
X23200000Y-6190000D03*
X22700000Y-6690000D03*
X24200000Y-6190000D03*
X23700000Y-5690000D03*
X24200000Y-7190000D03*
X24200000Y-32300000D03*
X24200000Y-33300000D03*
X22650000Y-33800000D03*
X22650000Y-32800000D03*
X22650000Y-31800000D03*
X23150000Y-32300000D03*
X23150000Y-33300000D03*
X23650000Y-33800000D03*
X23650000Y-32800000D03*
X23650000Y-31800000D03*
X16300000Y-1000000D03*
X17200000Y-38075000D03*
X21925000Y-38200000D03*
X37550000Y-28250000D03*
X15450000Y-2950000D03*
X12450000Y-3400000D03*
D24*
X15250000Y-6400000D02*
X15250000Y-5525000D01*
X15250000Y-6400000D02*
X15250000Y-7425000D01*
D25*
G36*
X15424971Y-734563D02*
G01*
X15390000Y-910373D01*
X15390000Y-1089627D01*
X15424971Y-1265437D01*
X15493569Y-1431047D01*
X15593157Y-1580091D01*
X15719909Y-1706843D01*
X15868953Y-1806431D01*
X16034563Y-1875029D01*
X16210373Y-1910000D01*
X16389627Y-1910000D01*
X16565437Y-1875029D01*
X16731047Y-1806431D01*
X16880091Y-1706843D01*
X17006843Y-1580091D01*
X17106431Y-1431047D01*
X17175029Y-1265437D01*
X17210000Y-1089627D01*
X17210000Y-910373D01*
X17175029Y-734563D01*
X17141679Y-654050D01*
X86968015Y-654050D01*
X87455052Y-701805D01*
X87892779Y-833962D01*
X88296493Y-1048620D01*
X88650827Y-1337608D01*
X88942279Y-1689913D01*
X89159752Y-2092122D01*
X89294962Y-2528910D01*
X89345950Y-3014027D01*
X89345951Y-36968006D01*
X89298195Y-37455052D01*
X89166039Y-37892777D01*
X88951380Y-38296494D01*
X88662392Y-38650827D01*
X88310084Y-38942282D01*
X87907877Y-39159753D01*
X87471085Y-39294963D01*
X86985972Y-39345950D01*
X3031984Y-39345950D01*
X2544948Y-39298195D01*
X2107223Y-39166039D01*
X1703506Y-38951380D01*
X1349173Y-38662392D01*
X1057718Y-38310084D01*
X840247Y-37907877D01*
X705037Y-37471085D01*
X654050Y-36985972D01*
X654050Y-35706003D01*
X1015000Y-35706003D01*
X1015000Y-36293997D01*
X1129712Y-36870692D01*
X1354727Y-37413928D01*
X1681399Y-37902826D01*
X2097174Y-38318601D01*
X2586072Y-38645273D01*
X3129308Y-38870288D01*
X3706003Y-38985000D01*
X4293997Y-38985000D01*
X4870692Y-38870288D01*
X5413928Y-38645273D01*
X5902826Y-38318601D01*
X6318601Y-37902826D01*
X6449520Y-37706891D01*
X7928519Y-37706891D01*
X8025843Y-37981252D01*
X8174822Y-38231355D01*
X8369731Y-38447588D01*
X8603080Y-38621641D01*
X8865901Y-38746825D01*
X9013110Y-38791476D01*
X9243000Y-38670155D01*
X9243000Y-37477000D01*
X8049186Y-37477000D01*
X7928519Y-37706891D01*
X6449520Y-37706891D01*
X6645273Y-37413928D01*
X6819581Y-36993109D01*
X7928519Y-36993109D01*
X8049186Y-37223000D01*
X9243000Y-37223000D01*
X9243000Y-36029845D01*
X9497000Y-36029845D01*
X9497000Y-37223000D01*
X9517000Y-37223000D01*
X9517000Y-37477000D01*
X9497000Y-37477000D01*
X9497000Y-38670155D01*
X9726890Y-38791476D01*
X9874099Y-38746825D01*
X10136920Y-38621641D01*
X10370269Y-38447588D01*
X10565178Y-38231355D01*
X10634805Y-38114466D01*
X10756525Y-38296632D01*
X10963368Y-38503475D01*
X11206589Y-38665990D01*
X11476842Y-38777932D01*
X11763740Y-38835000D01*
X12056260Y-38835000D01*
X12343158Y-38777932D01*
X12613411Y-38665990D01*
X12856632Y-38503475D01*
X12988487Y-38371620D01*
X13010498Y-38444180D01*
X13069463Y-38554494D01*
X13148815Y-38651185D01*
X13245506Y-38730537D01*
X13355820Y-38789502D01*
X13475518Y-38825812D01*
X13600000Y-38838072D01*
X15300000Y-38838072D01*
X15424482Y-38825812D01*
X15544180Y-38789502D01*
X15654494Y-38730537D01*
X15751185Y-38651185D01*
X15830537Y-38554494D01*
X15889502Y-38444180D01*
X15925812Y-38324482D01*
X15938072Y-38200000D01*
X15938072Y-37985373D01*
X16290000Y-37985373D01*
X16290000Y-38164627D01*
X16324971Y-38340437D01*
X16393569Y-38506047D01*
X16493157Y-38655091D01*
X16619909Y-38781843D01*
X16768953Y-38881431D01*
X16934563Y-38950029D01*
X17110373Y-38985000D01*
X17289627Y-38985000D01*
X17465437Y-38950029D01*
X17631047Y-38881431D01*
X17780091Y-38781843D01*
X17906843Y-38655091D01*
X18006431Y-38506047D01*
X18075029Y-38340437D01*
X18110000Y-38164627D01*
X18110000Y-38110373D01*
X21015000Y-38110373D01*
X21015000Y-38289627D01*
X21049971Y-38465437D01*
X21118569Y-38631047D01*
X21218157Y-38780091D01*
X21344909Y-38906843D01*
X21493953Y-39006431D01*
X21659563Y-39075029D01*
X21835373Y-39110000D01*
X22014627Y-39110000D01*
X22190437Y-39075029D01*
X22356047Y-39006431D01*
X22505091Y-38906843D01*
X22631843Y-38780091D01*
X22731431Y-38631047D01*
X22800029Y-38465437D01*
X22835000Y-38289627D01*
X22835000Y-38110373D01*
X22800029Y-37934563D01*
X22731431Y-37768953D01*
X22631843Y-37619909D01*
X22505091Y-37493157D01*
X22356047Y-37393569D01*
X22190437Y-37324971D01*
X22014627Y-37290000D01*
X21835373Y-37290000D01*
X21659563Y-37324971D01*
X21493953Y-37393569D01*
X21344909Y-37493157D01*
X21218157Y-37619909D01*
X21118569Y-37768953D01*
X21049971Y-37934563D01*
X21015000Y-38110373D01*
X18110000Y-38110373D01*
X18110000Y-37985373D01*
X18075029Y-37809563D01*
X18006431Y-37643953D01*
X17906843Y-37494909D01*
X17780091Y-37368157D01*
X17631047Y-37268569D01*
X17465437Y-37199971D01*
X17289627Y-37165000D01*
X17110373Y-37165000D01*
X16934563Y-37199971D01*
X16768953Y-37268569D01*
X16619909Y-37368157D01*
X16493157Y-37494909D01*
X16393569Y-37643953D01*
X16324971Y-37809563D01*
X16290000Y-37985373D01*
X15938072Y-37985373D01*
X15938072Y-36500000D01*
X15925812Y-36375518D01*
X15889502Y-36255820D01*
X15830537Y-36145506D01*
X15751185Y-36048815D01*
X15654494Y-35969463D01*
X15544180Y-35910498D01*
X15424482Y-35874188D01*
X15300000Y-35861928D01*
X13600000Y-35861928D01*
X13475518Y-35874188D01*
X13355820Y-35910498D01*
X13245506Y-35969463D01*
X13148815Y-36048815D01*
X13069463Y-36145506D01*
X13010498Y-36255820D01*
X12988487Y-36328380D01*
X12856632Y-36196525D01*
X12613411Y-36034010D01*
X12343158Y-35922068D01*
X12056260Y-35865000D01*
X11763740Y-35865000D01*
X11476842Y-35922068D01*
X11206589Y-36034010D01*
X10963368Y-36196525D01*
X10756525Y-36403368D01*
X10634805Y-36585534D01*
X10565178Y-36468645D01*
X10370269Y-36252412D01*
X10136920Y-36078359D01*
X9874099Y-35953175D01*
X9726890Y-35908524D01*
X9497000Y-36029845D01*
X9243000Y-36029845D01*
X9013110Y-35908524D01*
X8865901Y-35953175D01*
X8603080Y-36078359D01*
X8369731Y-36252412D01*
X8174822Y-36468645D01*
X8025843Y-36718748D01*
X7928519Y-36993109D01*
X6819581Y-36993109D01*
X6870288Y-36870692D01*
X6985000Y-36293997D01*
X6985000Y-35706003D01*
X83015000Y-35706003D01*
X83015000Y-36293997D01*
X83129712Y-36870692D01*
X83354727Y-37413928D01*
X83681399Y-37902826D01*
X84097174Y-38318601D01*
X84586072Y-38645273D01*
X85129308Y-38870288D01*
X85706003Y-38985000D01*
X86293997Y-38985000D01*
X86870692Y-38870288D01*
X87413928Y-38645273D01*
X87902826Y-38318601D01*
X88318601Y-37902826D01*
X88645273Y-37413928D01*
X88870288Y-36870692D01*
X88985000Y-36293997D01*
X88985000Y-35706003D01*
X88870288Y-35129308D01*
X88645273Y-34586072D01*
X88318601Y-34097174D01*
X87902826Y-33681399D01*
X87413928Y-33354727D01*
X86870692Y-33129712D01*
X86293997Y-33015000D01*
X85706003Y-33015000D01*
X85129308Y-33129712D01*
X84586072Y-33354727D01*
X84097174Y-33681399D01*
X83681399Y-34097174D01*
X83354727Y-34586072D01*
X83129712Y-35129308D01*
X83015000Y-35706003D01*
X6985000Y-35706003D01*
X6870288Y-35129308D01*
X6645273Y-34586072D01*
X6592506Y-34507102D01*
X6659998Y-34439610D01*
X6846073Y-34780766D01*
X7263409Y-34996513D01*
X7714815Y-35126696D01*
X8182946Y-35166313D01*
X8649811Y-35113842D01*
X9097468Y-34971297D01*
X9453927Y-34780766D01*
X9640003Y-34439609D01*
X8150000Y-32949605D01*
X8135858Y-32963748D01*
X7956252Y-32784142D01*
X7970395Y-32770000D01*
X8329605Y-32770000D01*
X9819609Y-34260003D01*
X10160766Y-34073927D01*
X10376513Y-33656591D01*
X10506696Y-33205185D01*
X10546313Y-32737054D01*
X10493842Y-32270189D01*
X10351297Y-31822532D01*
X10160766Y-31466073D01*
X9819609Y-31279997D01*
X8329605Y-32770000D01*
X7970395Y-32770000D01*
X6480391Y-31279997D01*
X6139234Y-31466073D01*
X5923487Y-31883409D01*
X5793304Y-32334815D01*
X5753687Y-32802946D01*
X5806158Y-33269811D01*
X5948703Y-33717468D01*
X5959965Y-33738538D01*
X5902826Y-33681399D01*
X5413928Y-33354727D01*
X4870692Y-33129712D01*
X4293997Y-33015000D01*
X3706003Y-33015000D01*
X3129308Y-33129712D01*
X2586072Y-33354727D01*
X2097174Y-33681399D01*
X1681399Y-34097174D01*
X1354727Y-34586072D01*
X1129712Y-35129308D01*
X1015000Y-35706003D01*
X654050Y-35706003D01*
X654050Y-31100391D01*
X6659997Y-31100391D01*
X8150000Y-32590395D01*
X9640003Y-31100391D01*
X9453927Y-30759234D01*
X9036591Y-30543487D01*
X8585185Y-30413304D01*
X8117054Y-30373687D01*
X7650189Y-30426158D01*
X7202532Y-30568703D01*
X6846073Y-30759234D01*
X6659997Y-31100391D01*
X654050Y-31100391D01*
X654050Y-28074077D01*
X9510523Y-28074077D01*
X9550905Y-28335922D01*
X9641594Y-28584859D01*
X9696797Y-28688137D01*
X9931584Y-28748811D01*
X10680395Y-28000000D01*
X9931584Y-27251189D01*
X9696797Y-27311863D01*
X9584898Y-27552015D01*
X9522002Y-27809383D01*
X9510523Y-28074077D01*
X654050Y-28074077D01*
X654050Y-25367529D01*
X9515000Y-25367529D01*
X9515000Y-25632471D01*
X9566687Y-25892322D01*
X9668076Y-26137096D01*
X9815270Y-26357388D01*
X10002612Y-26544730D01*
X10222904Y-26691924D01*
X10362528Y-26749758D01*
X10275141Y-26781594D01*
X10171863Y-26836797D01*
X10111189Y-27071584D01*
X10860000Y-27820395D01*
X10874143Y-27806253D01*
X11053748Y-27985858D01*
X11039605Y-28000000D01*
X11053748Y-28014143D01*
X10874143Y-28193748D01*
X10860000Y-28179605D01*
X10111189Y-28928416D01*
X10171863Y-29163203D01*
X10412015Y-29275102D01*
X10669383Y-29337998D01*
X10934077Y-29349477D01*
X11195922Y-29309095D01*
X11444859Y-29218406D01*
X11548137Y-29163203D01*
X11588577Y-29006714D01*
X11619462Y-29064494D01*
X11698814Y-29161185D01*
X11795505Y-29240537D01*
X11905819Y-29299502D01*
X12025517Y-29335812D01*
X12149999Y-29348072D01*
X13569999Y-29348072D01*
X13625000Y-29342655D01*
X13625000Y-29371637D01*
X13672460Y-29610236D01*
X13765557Y-29834992D01*
X13900713Y-30037267D01*
X13988446Y-30125000D01*
X13900713Y-30212733D01*
X13765557Y-30415008D01*
X13672460Y-30639764D01*
X13625000Y-30878363D01*
X13625000Y-31121637D01*
X13672460Y-31360236D01*
X13765557Y-31584992D01*
X13900713Y-31787267D01*
X14072733Y-31959287D01*
X14275008Y-32094443D01*
X14499764Y-32187540D01*
X14738363Y-32235000D01*
X14981637Y-32235000D01*
X15220236Y-32187540D01*
X15444992Y-32094443D01*
X15647267Y-31959287D01*
X15819287Y-31787267D01*
X15954443Y-31584992D01*
X15985351Y-31510373D01*
X19790000Y-31510373D01*
X19790000Y-31689627D01*
X19824971Y-31865437D01*
X19893569Y-32031047D01*
X19993157Y-32180091D01*
X20119909Y-32306843D01*
X20268953Y-32406431D01*
X20434563Y-32475029D01*
X20610373Y-32510000D01*
X20789627Y-32510000D01*
X20965437Y-32475029D01*
X21131047Y-32406431D01*
X21280091Y-32306843D01*
X21406843Y-32180091D01*
X21506431Y-32031047D01*
X21575029Y-31865437D01*
X21605873Y-31710373D01*
X21740000Y-31710373D01*
X21740000Y-31889627D01*
X21774971Y-32065437D01*
X21843569Y-32231047D01*
X21889642Y-32300000D01*
X21843569Y-32368953D01*
X21774971Y-32534563D01*
X21740000Y-32710373D01*
X21740000Y-32889627D01*
X21774971Y-33065437D01*
X21843569Y-33231047D01*
X21889642Y-33300000D01*
X21843569Y-33368953D01*
X21774971Y-33534563D01*
X21740000Y-33710373D01*
X21740000Y-33889627D01*
X21774971Y-34065437D01*
X21843569Y-34231047D01*
X21943157Y-34380091D01*
X22069909Y-34506843D01*
X22218953Y-34606431D01*
X22384563Y-34675029D01*
X22560373Y-34710000D01*
X22739627Y-34710000D01*
X22915437Y-34675029D01*
X23081047Y-34606431D01*
X23150000Y-34560358D01*
X23218953Y-34606431D01*
X23384563Y-34675029D01*
X23560373Y-34710000D01*
X23739627Y-34710000D01*
X23915437Y-34675029D01*
X24081047Y-34606431D01*
X24230091Y-34506843D01*
X24356843Y-34380091D01*
X24456431Y-34231047D01*
X24482575Y-34167930D01*
X24631047Y-34106431D01*
X24780091Y-34006843D01*
X24906843Y-33880091D01*
X25006431Y-33731047D01*
X25075029Y-33565437D01*
X25110000Y-33389627D01*
X25110000Y-33210373D01*
X25075029Y-33034563D01*
X25006431Y-32868953D01*
X24960358Y-32800000D01*
X25006431Y-32731047D01*
X25075029Y-32565437D01*
X25110000Y-32389627D01*
X25110000Y-32210373D01*
X25075029Y-32034563D01*
X25006431Y-31868953D01*
X24906843Y-31719909D01*
X24780091Y-31593157D01*
X24631047Y-31493569D01*
X24482575Y-31432070D01*
X24456431Y-31368953D01*
X24356843Y-31219909D01*
X24230091Y-31093157D01*
X24081047Y-30993569D01*
X23915437Y-30924971D01*
X23739627Y-30890000D01*
X23560373Y-30890000D01*
X23384563Y-30924971D01*
X23218953Y-30993569D01*
X23150000Y-31039642D01*
X23081047Y-30993569D01*
X22915437Y-30924971D01*
X22739627Y-30890000D01*
X22560373Y-30890000D01*
X22384563Y-30924971D01*
X22218953Y-30993569D01*
X22069909Y-31093157D01*
X21943157Y-31219909D01*
X21843569Y-31368953D01*
X21774971Y-31534563D01*
X21740000Y-31710373D01*
X21605873Y-31710373D01*
X21610000Y-31689627D01*
X21610000Y-31510373D01*
X21575029Y-31334563D01*
X21506431Y-31168953D01*
X21406843Y-31019909D01*
X21280091Y-30893157D01*
X21131047Y-30793569D01*
X20965437Y-30724971D01*
X20789627Y-30690000D01*
X20610373Y-30690000D01*
X20434563Y-30724971D01*
X20268953Y-30793569D01*
X20119909Y-30893157D01*
X19993157Y-31019909D01*
X19893569Y-31168953D01*
X19824971Y-31334563D01*
X19790000Y-31510373D01*
X15985351Y-31510373D01*
X16047540Y-31360236D01*
X16095000Y-31121637D01*
X16095000Y-30878363D01*
X16047540Y-30639764D01*
X15954443Y-30415008D01*
X15819287Y-30212733D01*
X15731554Y-30125000D01*
X15819287Y-30037267D01*
X15922172Y-29883288D01*
X28815000Y-29883288D01*
X28815000Y-30116712D01*
X28860539Y-30345652D01*
X28949866Y-30561308D01*
X29079550Y-30755394D01*
X29244606Y-30920450D01*
X29438692Y-31050134D01*
X29654348Y-31139461D01*
X29883288Y-31185000D01*
X30116712Y-31185000D01*
X30345652Y-31139461D01*
X30561308Y-31050134D01*
X30755394Y-30920450D01*
X30920450Y-30755394D01*
X31050134Y-30561308D01*
X31139461Y-30345652D01*
X31185000Y-30116712D01*
X31185000Y-29883288D01*
X31139461Y-29654348D01*
X31050134Y-29438692D01*
X30920450Y-29244606D01*
X30755394Y-29079550D01*
X30561308Y-28949866D01*
X30345652Y-28860539D01*
X30116712Y-28815000D01*
X29883288Y-28815000D01*
X29654348Y-28860539D01*
X29438692Y-28949866D01*
X29244606Y-29079550D01*
X29079550Y-29244606D01*
X28949866Y-29438692D01*
X28860539Y-29654348D01*
X28815000Y-29883288D01*
X15922172Y-29883288D01*
X15954443Y-29834992D01*
X16047540Y-29610236D01*
X16095000Y-29371637D01*
X16095000Y-29128363D01*
X16047540Y-28889764D01*
X15954443Y-28665008D01*
X15819287Y-28462733D01*
X15647267Y-28290713D01*
X15444992Y-28155557D01*
X15220236Y-28062460D01*
X14981637Y-28015000D01*
X14738363Y-28015000D01*
X14499764Y-28062460D01*
X14275008Y-28155557D01*
X14208071Y-28200283D01*
X14208071Y-27685923D01*
X14237148Y-27823348D01*
X14458516Y-27924237D01*
X14695313Y-27980000D01*
X14938438Y-27988495D01*
X15178549Y-27949395D01*
X15406418Y-27864202D01*
X15482852Y-27823348D01*
X15530159Y-27599764D01*
X14860000Y-26929605D01*
X14845858Y-26943748D01*
X14666253Y-26764143D01*
X14680395Y-26750000D01*
X15039605Y-26750000D01*
X15709764Y-27420159D01*
X15933348Y-27372852D01*
X16034237Y-27151484D01*
X16090000Y-26914687D01*
X16095391Y-26760373D01*
X21690000Y-26760373D01*
X21690000Y-26939627D01*
X21724971Y-27115437D01*
X21793569Y-27281047D01*
X21889755Y-27425000D01*
X21793569Y-27568953D01*
X21724971Y-27734563D01*
X21690000Y-27910373D01*
X21690000Y-28089627D01*
X21724971Y-28265437D01*
X21793569Y-28431047D01*
X21893157Y-28580091D01*
X22019909Y-28706843D01*
X22168953Y-28806431D01*
X22334563Y-28875029D01*
X22510373Y-28910000D01*
X22689627Y-28910000D01*
X22865437Y-28875029D01*
X23031047Y-28806431D01*
X23180091Y-28706843D01*
X23306843Y-28580091D01*
X23406431Y-28431047D01*
X23475029Y-28265437D01*
X23495927Y-28160373D01*
X36640000Y-28160373D01*
X36640000Y-28339627D01*
X36674971Y-28515437D01*
X36743569Y-28681047D01*
X36843157Y-28830091D01*
X36969909Y-28956843D01*
X37118953Y-29056431D01*
X37284563Y-29125029D01*
X37460373Y-29160000D01*
X37639627Y-29160000D01*
X37815437Y-29125029D01*
X37981047Y-29056431D01*
X38130091Y-28956843D01*
X38256843Y-28830091D01*
X38356431Y-28681047D01*
X38425029Y-28515437D01*
X38460000Y-28339627D01*
X38460000Y-28160373D01*
X38425029Y-27984563D01*
X38356431Y-27818953D01*
X38256843Y-27669909D01*
X38130091Y-27543157D01*
X37981047Y-27443569D01*
X37815437Y-27374971D01*
X37639627Y-27340000D01*
X37460373Y-27340000D01*
X37284563Y-27374971D01*
X37118953Y-27443569D01*
X36969909Y-27543157D01*
X36843157Y-27669909D01*
X36743569Y-27818953D01*
X36674971Y-27984563D01*
X36640000Y-28160373D01*
X23495927Y-28160373D01*
X23510000Y-28089627D01*
X23510000Y-27910373D01*
X23475029Y-27734563D01*
X23406431Y-27568953D01*
X23310245Y-27425000D01*
X23406431Y-27281047D01*
X23475029Y-27115437D01*
X23510000Y-26939627D01*
X23510000Y-26910373D01*
X29790000Y-26910373D01*
X29790000Y-27089627D01*
X29824971Y-27265437D01*
X29893569Y-27431047D01*
X29993157Y-27580091D01*
X30119909Y-27706843D01*
X30268953Y-27806431D01*
X30434563Y-27875029D01*
X30610373Y-27910000D01*
X30789627Y-27910000D01*
X30965437Y-27875029D01*
X31131047Y-27806431D01*
X31280091Y-27706843D01*
X31406843Y-27580091D01*
X31506431Y-27431047D01*
X31575029Y-27265437D01*
X31610000Y-27089627D01*
X31610000Y-26910373D01*
X31575029Y-26734563D01*
X31506431Y-26568953D01*
X31406843Y-26419909D01*
X31280091Y-26293157D01*
X31131047Y-26193569D01*
X30965437Y-26124971D01*
X30789627Y-26090000D01*
X30610373Y-26090000D01*
X30434563Y-26124971D01*
X30268953Y-26193569D01*
X30119909Y-26293157D01*
X29993157Y-26419909D01*
X29893569Y-26568953D01*
X29824971Y-26734563D01*
X29790000Y-26910373D01*
X23510000Y-26910373D01*
X23510000Y-26760373D01*
X23475029Y-26584563D01*
X23406431Y-26418953D01*
X23306843Y-26269909D01*
X23180091Y-26143157D01*
X23031047Y-26043569D01*
X22865437Y-25974971D01*
X22689627Y-25940000D01*
X22510373Y-25940000D01*
X22334563Y-25974971D01*
X22168953Y-26043569D01*
X22019909Y-26143157D01*
X21893157Y-26269909D01*
X21793569Y-26418953D01*
X21724971Y-26584563D01*
X21690000Y-26760373D01*
X16095391Y-26760373D01*
X16098495Y-26671562D01*
X16059395Y-26431451D01*
X15974202Y-26203582D01*
X15933348Y-26127148D01*
X15709764Y-26079841D01*
X15039605Y-26750000D01*
X14680395Y-26750000D01*
X14666253Y-26735858D01*
X14845858Y-26556253D01*
X14860000Y-26570395D01*
X15530159Y-25900236D01*
X15482852Y-25676652D01*
X15261484Y-25575763D01*
X15024687Y-25520000D01*
X14781562Y-25511505D01*
X14541451Y-25550605D01*
X14313582Y-25635798D01*
X14237148Y-25676652D01*
X14189842Y-25900234D01*
X14158060Y-25868452D01*
X14204999Y-25632471D01*
X14204999Y-25367529D01*
X14188972Y-25286956D01*
X14275008Y-25344443D01*
X14499764Y-25437540D01*
X14738363Y-25485000D01*
X14981637Y-25485000D01*
X15220236Y-25437540D01*
X15444992Y-25344443D01*
X15647267Y-25209287D01*
X15819287Y-25037267D01*
X15904074Y-24910373D01*
X27490000Y-24910373D01*
X27490000Y-25089627D01*
X27524971Y-25265437D01*
X27593569Y-25431047D01*
X27693157Y-25580091D01*
X27819909Y-25706843D01*
X27968953Y-25806431D01*
X28134563Y-25875029D01*
X28310373Y-25910000D01*
X28489627Y-25910000D01*
X28665437Y-25875029D01*
X28831047Y-25806431D01*
X28980091Y-25706843D01*
X29106843Y-25580091D01*
X29206431Y-25431047D01*
X29275029Y-25265437D01*
X29310000Y-25089627D01*
X29310000Y-24910373D01*
X29275029Y-24734563D01*
X29206431Y-24568953D01*
X29106843Y-24419909D01*
X28980091Y-24293157D01*
X28831047Y-24193569D01*
X28665437Y-24124971D01*
X28489627Y-24090000D01*
X28310373Y-24090000D01*
X28134563Y-24124971D01*
X27968953Y-24193569D01*
X27819909Y-24293157D01*
X27693157Y-24419909D01*
X27593569Y-24568953D01*
X27524971Y-24734563D01*
X27490000Y-24910373D01*
X15904074Y-24910373D01*
X15954443Y-24834992D01*
X16047540Y-24610236D01*
X16095000Y-24371637D01*
X16095000Y-24128363D01*
X16047540Y-23889764D01*
X16011885Y-23803685D01*
X35022100Y-23803685D01*
X35022100Y-23996315D01*
X35059680Y-24185243D01*
X35133396Y-24363210D01*
X35240415Y-24523375D01*
X35376625Y-24659585D01*
X35536790Y-24766604D01*
X35714757Y-24840320D01*
X35903685Y-24877900D01*
X36096315Y-24877900D01*
X36285243Y-24840320D01*
X36463210Y-24766604D01*
X36623375Y-24659585D01*
X36759585Y-24523375D01*
X36866604Y-24363210D01*
X36940320Y-24185243D01*
X36977900Y-23996315D01*
X36977900Y-23803685D01*
X36940320Y-23614757D01*
X36866604Y-23436790D01*
X36759585Y-23276625D01*
X36623375Y-23140415D01*
X36463210Y-23033396D01*
X36285243Y-22959680D01*
X36096315Y-22922100D01*
X35903685Y-22922100D01*
X35714757Y-22959680D01*
X35536790Y-23033396D01*
X35376625Y-23140415D01*
X35240415Y-23276625D01*
X35133396Y-23436790D01*
X35059680Y-23614757D01*
X35022100Y-23803685D01*
X16011885Y-23803685D01*
X15954443Y-23665008D01*
X15819287Y-23462733D01*
X15731554Y-23375000D01*
X15819287Y-23287267D01*
X15954443Y-23084992D01*
X16047540Y-22860236D01*
X16095000Y-22621637D01*
X16095000Y-22378363D01*
X16047540Y-22139764D01*
X15954443Y-21915008D01*
X15819287Y-21712733D01*
X15647267Y-21540713D01*
X15444992Y-21405557D01*
X15220236Y-21312460D01*
X15209744Y-21310373D01*
X21690000Y-21310373D01*
X21690000Y-21489627D01*
X21724971Y-21665437D01*
X21793569Y-21831047D01*
X21893157Y-21980091D01*
X21913066Y-22000000D01*
X21893157Y-22019909D01*
X21793569Y-22168953D01*
X21724971Y-22334563D01*
X21690000Y-22510373D01*
X21690000Y-22689627D01*
X21724971Y-22865437D01*
X21793569Y-23031047D01*
X21893157Y-23180091D01*
X22019909Y-23306843D01*
X22168953Y-23406431D01*
X22334563Y-23475029D01*
X22510373Y-23510000D01*
X22689627Y-23510000D01*
X22865437Y-23475029D01*
X23031047Y-23406431D01*
X23180091Y-23306843D01*
X23306843Y-23180091D01*
X23406431Y-23031047D01*
X23475029Y-22865437D01*
X23510000Y-22689627D01*
X23510000Y-22510373D01*
X23475029Y-22334563D01*
X23406431Y-22168953D01*
X23306843Y-22019909D01*
X23286934Y-22000000D01*
X23306843Y-21980091D01*
X23406431Y-21831047D01*
X23475029Y-21665437D01*
X23510000Y-21489627D01*
X23510000Y-21310373D01*
X23480163Y-21160373D01*
X26040000Y-21160373D01*
X26040000Y-21339627D01*
X26074971Y-21515437D01*
X26143569Y-21681047D01*
X26243157Y-21830091D01*
X26369909Y-21956843D01*
X26518953Y-22056431D01*
X26684563Y-22125029D01*
X26860373Y-22160000D01*
X27039627Y-22160000D01*
X27215437Y-22125029D01*
X27381047Y-22056431D01*
X27530091Y-21956843D01*
X27656843Y-21830091D01*
X27756431Y-21681047D01*
X27825029Y-21515437D01*
X27860000Y-21339627D01*
X27860000Y-21160373D01*
X27825029Y-20984563D01*
X27778658Y-20872613D01*
X27806431Y-20831047D01*
X27875029Y-20665437D01*
X27910000Y-20489627D01*
X27910000Y-20310373D01*
X27875029Y-20134563D01*
X27806431Y-19968953D01*
X27706843Y-19819909D01*
X27580091Y-19693157D01*
X27431047Y-19593569D01*
X27265437Y-19524971D01*
X27089627Y-19490000D01*
X26910373Y-19490000D01*
X26734563Y-19524971D01*
X26568953Y-19593569D01*
X26419909Y-19693157D01*
X26293157Y-19819909D01*
X26193569Y-19968953D01*
X26124971Y-20134563D01*
X26090000Y-20310373D01*
X26090000Y-20489627D01*
X26124971Y-20665437D01*
X26171342Y-20777387D01*
X26143569Y-20818953D01*
X26074971Y-20984563D01*
X26040000Y-21160373D01*
X23480163Y-21160373D01*
X23475029Y-21134563D01*
X23406431Y-20968953D01*
X23306843Y-20819909D01*
X23180091Y-20693157D01*
X23031047Y-20593569D01*
X22865437Y-20524971D01*
X22689627Y-20490000D01*
X22510373Y-20490000D01*
X22334563Y-20524971D01*
X22168953Y-20593569D01*
X22019909Y-20693157D01*
X21893157Y-20819909D01*
X21793569Y-20968953D01*
X21724971Y-21134563D01*
X21690000Y-21310373D01*
X15209744Y-21310373D01*
X14981637Y-21265000D01*
X14738363Y-21265000D01*
X14499764Y-21312460D01*
X14275008Y-21405557D01*
X14072733Y-21540713D01*
X13900713Y-21712733D01*
X13765557Y-21915008D01*
X13672460Y-22139764D01*
X13625000Y-22378363D01*
X13625000Y-22621637D01*
X13672460Y-22860236D01*
X13765557Y-23084992D01*
X13900713Y-23287267D01*
X13988446Y-23375000D01*
X13900713Y-23462733D01*
X13765557Y-23665008D01*
X13672460Y-23889764D01*
X13625000Y-24128363D01*
X13625000Y-24371637D01*
X13630024Y-24396896D01*
X13497095Y-24308076D01*
X13252321Y-24206687D01*
X12992470Y-24155000D01*
X12727528Y-24155000D01*
X12467677Y-24206687D01*
X12222903Y-24308076D01*
X12002611Y-24455270D01*
X11860000Y-24597882D01*
X11717388Y-24455270D01*
X11497096Y-24308076D01*
X11252322Y-24206687D01*
X10992471Y-24155000D01*
X10727529Y-24155000D01*
X10467678Y-24206687D01*
X10222904Y-24308076D01*
X10002612Y-24455270D01*
X9815270Y-24642612D01*
X9668076Y-24862904D01*
X9566687Y-25107678D01*
X9515000Y-25367529D01*
X654050Y-25367529D01*
X654050Y-22399609D01*
X6659997Y-22399609D01*
X6846073Y-22740766D01*
X7263409Y-22956513D01*
X7714815Y-23086696D01*
X8182946Y-23126313D01*
X8649811Y-23073842D01*
X9097468Y-22931297D01*
X9453927Y-22740766D01*
X9640003Y-22399609D01*
X8150000Y-20909605D01*
X6659997Y-22399609D01*
X654050Y-22399609D01*
X654050Y-20762946D01*
X5753687Y-20762946D01*
X5806158Y-21229811D01*
X5948703Y-21677468D01*
X6139234Y-22033927D01*
X6480391Y-22220003D01*
X7970395Y-20730000D01*
X8329605Y-20730000D01*
X9819609Y-22220003D01*
X10160766Y-22033927D01*
X10376513Y-21616591D01*
X10506696Y-21165185D01*
X10535687Y-20822621D01*
X10619909Y-20906843D01*
X10768953Y-21006431D01*
X10934563Y-21075029D01*
X11110373Y-21110000D01*
X11289627Y-21110000D01*
X11465437Y-21075029D01*
X11631047Y-21006431D01*
X11700000Y-20960358D01*
X11768953Y-21006431D01*
X11934563Y-21075029D01*
X12110373Y-21110000D01*
X12289627Y-21110000D01*
X12465437Y-21075029D01*
X12631047Y-21006431D01*
X12780091Y-20906843D01*
X12906843Y-20780091D01*
X13006431Y-20631047D01*
X13042930Y-20542930D01*
X13131047Y-20506431D01*
X13280091Y-20406843D01*
X13406843Y-20280091D01*
X13506431Y-20131047D01*
X13575029Y-19965437D01*
X13610000Y-19789627D01*
X13610000Y-19610373D01*
X13575029Y-19434563D01*
X13506431Y-19268953D01*
X13489544Y-19243679D01*
X33070500Y-19243679D01*
X33070500Y-19456321D01*
X33111985Y-19664878D01*
X33193360Y-19861335D01*
X33304532Y-20027716D01*
X33243569Y-20118953D01*
X33174971Y-20284563D01*
X33140000Y-20460373D01*
X33140000Y-20639627D01*
X33174971Y-20815437D01*
X33243569Y-20981047D01*
X33343157Y-21130091D01*
X33469909Y-21256843D01*
X33600887Y-21344360D01*
X33624971Y-21465437D01*
X33693569Y-21631047D01*
X33793157Y-21780091D01*
X33919909Y-21906843D01*
X34040000Y-21987085D01*
X34040000Y-21989627D01*
X34074971Y-22165437D01*
X34143569Y-22331047D01*
X34243157Y-22480091D01*
X34369909Y-22606843D01*
X34518953Y-22706431D01*
X34684563Y-22775029D01*
X34860373Y-22810000D01*
X35039627Y-22810000D01*
X35215437Y-22775029D01*
X35381047Y-22706431D01*
X35530091Y-22606843D01*
X35656843Y-22480091D01*
X35756431Y-22331047D01*
X35825029Y-22165437D01*
X35860000Y-21989627D01*
X35860000Y-21810373D01*
X35825029Y-21634563D01*
X35756431Y-21468953D01*
X35656843Y-21319909D01*
X35530091Y-21193157D01*
X35410000Y-21112915D01*
X35410000Y-21110373D01*
X35375029Y-20934563D01*
X35306431Y-20768953D01*
X35206843Y-20619909D01*
X35080091Y-20493157D01*
X34949113Y-20405640D01*
X34925029Y-20284563D01*
X34871444Y-20155199D01*
X34988502Y-20038141D01*
X35106640Y-19861335D01*
X35136303Y-19789721D01*
X68115000Y-19789721D01*
X68115000Y-20210279D01*
X68197047Y-20622756D01*
X68357988Y-21011302D01*
X68591637Y-21360983D01*
X68889017Y-21658363D01*
X69238698Y-21892012D01*
X69627244Y-22052953D01*
X70039721Y-22135000D01*
X70460279Y-22135000D01*
X70872756Y-22052953D01*
X71261302Y-21892012D01*
X71610983Y-21658363D01*
X71908363Y-21360983D01*
X72142012Y-21011302D01*
X72302953Y-20622756D01*
X72385000Y-20210279D01*
X72385000Y-19789721D01*
X78115000Y-19789721D01*
X78115000Y-20210279D01*
X78197047Y-20622756D01*
X78357988Y-21011302D01*
X78591637Y-21360983D01*
X78889017Y-21658363D01*
X79238698Y-21892012D01*
X79627244Y-22052953D01*
X80039721Y-22135000D01*
X80460279Y-22135000D01*
X80872756Y-22052953D01*
X81261302Y-21892012D01*
X81610983Y-21658363D01*
X81908363Y-21360983D01*
X82142012Y-21011302D01*
X82302953Y-20622756D01*
X82385000Y-20210279D01*
X82385000Y-19789721D01*
X82302953Y-19377244D01*
X82142012Y-18988698D01*
X81908363Y-18639017D01*
X81610983Y-18341637D01*
X81261302Y-18107988D01*
X80872756Y-17947047D01*
X80460279Y-17865000D01*
X80039721Y-17865000D01*
X79627244Y-17947047D01*
X79238698Y-18107988D01*
X78889017Y-18341637D01*
X78591637Y-18639017D01*
X78357988Y-18988698D01*
X78197047Y-19377244D01*
X78115000Y-19789721D01*
X72385000Y-19789721D01*
X72302953Y-19377244D01*
X72142012Y-18988698D01*
X71908363Y-18639017D01*
X71610983Y-18341637D01*
X71261302Y-18107988D01*
X70872756Y-17947047D01*
X70460279Y-17865000D01*
X70039721Y-17865000D01*
X69627244Y-17947047D01*
X69238698Y-18107988D01*
X68889017Y-18341637D01*
X68591637Y-18639017D01*
X68357988Y-18988698D01*
X68197047Y-19377244D01*
X68115000Y-19789721D01*
X35136303Y-19789721D01*
X35188015Y-19664878D01*
X35229500Y-19456321D01*
X35229500Y-19243679D01*
X35188015Y-19035122D01*
X35106640Y-18838665D01*
X34988502Y-18661859D01*
X34838141Y-18511498D01*
X34661335Y-18393360D01*
X34464878Y-18311985D01*
X34256321Y-18270500D01*
X34043679Y-18270500D01*
X33835122Y-18311985D01*
X33638665Y-18393360D01*
X33461859Y-18511498D01*
X33311498Y-18661859D01*
X33193360Y-18838665D01*
X33111985Y-19035122D01*
X33070500Y-19243679D01*
X13489544Y-19243679D01*
X13460358Y-19200000D01*
X13506431Y-19131047D01*
X13575029Y-18965437D01*
X13610000Y-18789627D01*
X13610000Y-18610373D01*
X13575029Y-18434563D01*
X13506431Y-18268953D01*
X13406843Y-18119909D01*
X13280091Y-17993157D01*
X13156196Y-17910373D01*
X20890000Y-17910373D01*
X20890000Y-18089627D01*
X20924971Y-18265437D01*
X20993569Y-18431047D01*
X21093157Y-18580091D01*
X21219909Y-18706843D01*
X21368953Y-18806431D01*
X21534563Y-18875029D01*
X21710373Y-18910000D01*
X21889627Y-18910000D01*
X22065437Y-18875029D01*
X22231047Y-18806431D01*
X22380091Y-18706843D01*
X22506843Y-18580091D01*
X22606431Y-18431047D01*
X22675029Y-18265437D01*
X22710000Y-18089627D01*
X22710000Y-17910373D01*
X22675029Y-17734563D01*
X22606431Y-17568953D01*
X22506843Y-17419909D01*
X22380091Y-17293157D01*
X22231047Y-17193569D01*
X22065437Y-17124971D01*
X21889627Y-17090000D01*
X21710373Y-17090000D01*
X21534563Y-17124971D01*
X21368953Y-17193569D01*
X21219909Y-17293157D01*
X21093157Y-17419909D01*
X20993569Y-17568953D01*
X20924971Y-17734563D01*
X20890000Y-17910373D01*
X13156196Y-17910373D01*
X13131047Y-17893569D01*
X12965437Y-17824971D01*
X12789627Y-17790000D01*
X12610373Y-17790000D01*
X12434563Y-17824971D01*
X12268953Y-17893569D01*
X12200000Y-17939642D01*
X12131047Y-17893569D01*
X11965437Y-17824971D01*
X11789627Y-17790000D01*
X11610373Y-17790000D01*
X11434563Y-17824971D01*
X11268953Y-17893569D01*
X11119909Y-17993157D01*
X10993157Y-18119909D01*
X10893569Y-18268953D01*
X10857070Y-18357070D01*
X10768953Y-18393569D01*
X10619909Y-18493157D01*
X10493157Y-18619909D01*
X10393569Y-18768953D01*
X10324971Y-18934563D01*
X10290000Y-19110373D01*
X10290000Y-19289627D01*
X10324971Y-19465437D01*
X10393569Y-19631047D01*
X10439642Y-19700000D01*
X10393569Y-19768953D01*
X10367225Y-19832553D01*
X10351297Y-19782532D01*
X10160766Y-19426073D01*
X9819609Y-19239997D01*
X8329605Y-20730000D01*
X7970395Y-20730000D01*
X6480391Y-19239997D01*
X6139234Y-19426073D01*
X5923487Y-19843409D01*
X5793304Y-20294815D01*
X5753687Y-20762946D01*
X654050Y-20762946D01*
X654050Y-19060391D01*
X6659997Y-19060391D01*
X8150000Y-20550395D01*
X9640003Y-19060391D01*
X9453927Y-18719234D01*
X9036591Y-18503487D01*
X8585185Y-18373304D01*
X8117054Y-18333687D01*
X7650189Y-18386158D01*
X7202532Y-18528703D01*
X6846073Y-18719234D01*
X6659997Y-19060391D01*
X654050Y-19060391D01*
X654050Y-16700000D01*
X5957573Y-16700000D01*
X5987210Y-17000913D01*
X6074983Y-17290261D01*
X6217519Y-17556927D01*
X6409339Y-17790661D01*
X6643073Y-17982481D01*
X6909739Y-18125017D01*
X7199087Y-18212790D01*
X7424592Y-18235000D01*
X9775408Y-18235000D01*
X10000913Y-18212790D01*
X10290261Y-18125017D01*
X10556927Y-17982481D01*
X10790661Y-17790661D01*
X10982481Y-17556927D01*
X11125017Y-17290261D01*
X11212790Y-17000913D01*
X11242427Y-16700000D01*
X11212790Y-16399087D01*
X11125017Y-16109739D01*
X10982481Y-15843073D01*
X10790661Y-15609339D01*
X10556927Y-15417519D01*
X10290261Y-15274983D01*
X10000913Y-15187210D01*
X9775408Y-15165000D01*
X7424592Y-15165000D01*
X7199087Y-15187210D01*
X6909739Y-15274983D01*
X6643073Y-15417519D01*
X6409339Y-15609339D01*
X6217519Y-15843073D01*
X6074983Y-16109739D01*
X5987210Y-16399087D01*
X5957573Y-16700000D01*
X654050Y-16700000D01*
X654050Y-12027000D01*
X4265000Y-12027000D01*
X4265000Y-13127000D01*
X4319271Y-13424023D01*
X4430446Y-13704751D01*
X4594252Y-13958396D01*
X4804394Y-14175210D01*
X5052796Y-14346862D01*
X5329913Y-14466755D01*
X5435260Y-14491036D01*
X5673000Y-14370378D01*
X5673000Y-12027000D01*
X5927000Y-12027000D01*
X5927000Y-14370378D01*
X6164740Y-14491036D01*
X6270087Y-14466755D01*
X6547204Y-14346862D01*
X6795606Y-14175210D01*
X7005748Y-13958396D01*
X7169554Y-13704751D01*
X7280729Y-13424023D01*
X7335000Y-13127000D01*
X7335000Y-12027000D01*
X5927000Y-12027000D01*
X5673000Y-12027000D01*
X4265000Y-12027000D01*
X654050Y-12027000D01*
X654050Y-10673000D01*
X4265000Y-10673000D01*
X4265000Y-11773000D01*
X5673000Y-11773000D01*
X5673000Y-9429622D01*
X5927000Y-9429622D01*
X5927000Y-11773000D01*
X7335000Y-11773000D01*
X7335000Y-10673000D01*
X7280729Y-10375977D01*
X7169554Y-10095249D01*
X7005748Y-9841604D01*
X6868502Y-9700000D01*
X10061928Y-9700000D01*
X10061928Y-14100000D01*
X10074188Y-14224482D01*
X10110498Y-14344180D01*
X10169463Y-14454494D01*
X10248815Y-14551185D01*
X10345506Y-14630537D01*
X10455820Y-14689502D01*
X10575518Y-14725812D01*
X10700000Y-14738072D01*
X12500000Y-14738072D01*
X12624482Y-14725812D01*
X12744180Y-14689502D01*
X12854494Y-14630537D01*
X12951185Y-14551185D01*
X13030537Y-14454494D01*
X13089502Y-14344180D01*
X13125812Y-14224482D01*
X13138072Y-14100000D01*
X13138072Y-12660373D01*
X22340000Y-12660373D01*
X22340000Y-12839627D01*
X22374971Y-13015437D01*
X22443569Y-13181047D01*
X22543157Y-13330091D01*
X22669909Y-13456843D01*
X22818953Y-13556431D01*
X22984563Y-13625029D01*
X23160373Y-13660000D01*
X23339627Y-13660000D01*
X23515437Y-13625029D01*
X23681047Y-13556431D01*
X23830091Y-13456843D01*
X23956843Y-13330091D01*
X24056431Y-13181047D01*
X24125029Y-13015437D01*
X24160000Y-12839627D01*
X24160000Y-12660373D01*
X24125029Y-12484563D01*
X24056431Y-12318953D01*
X23956843Y-12169909D01*
X23830091Y-12043157D01*
X23681047Y-11943569D01*
X23515437Y-11874971D01*
X23339627Y-11840000D01*
X23160373Y-11840000D01*
X22984563Y-11874971D01*
X22818953Y-11943569D01*
X22669909Y-12043157D01*
X22543157Y-12169909D01*
X22443569Y-12318953D01*
X22374971Y-12484563D01*
X22340000Y-12660373D01*
X13138072Y-12660373D01*
X13138072Y-9858665D01*
X28565000Y-9858665D01*
X28565000Y-10141335D01*
X28620147Y-10418574D01*
X28728320Y-10679727D01*
X28885363Y-10914759D01*
X29085241Y-11114637D01*
X29320273Y-11271680D01*
X29581426Y-11379853D01*
X29858665Y-11435000D01*
X30141335Y-11435000D01*
X30418574Y-11379853D01*
X30679727Y-11271680D01*
X30914759Y-11114637D01*
X31114637Y-10914759D01*
X31271680Y-10679727D01*
X31379853Y-10418574D01*
X31435000Y-10141335D01*
X31435000Y-9858665D01*
X31379853Y-9581426D01*
X31271680Y-9320273D01*
X31114637Y-9085241D01*
X30914759Y-8885363D01*
X30679727Y-8728320D01*
X30418574Y-8620147D01*
X30141335Y-8565000D01*
X29858665Y-8565000D01*
X29581426Y-8620147D01*
X29320273Y-8728320D01*
X29085241Y-8885363D01*
X28885363Y-9085241D01*
X28728320Y-9320273D01*
X28620147Y-9581426D01*
X28565000Y-9858665D01*
X13138072Y-9858665D01*
X13138072Y-9700000D01*
X13125812Y-9575518D01*
X13089502Y-9455820D01*
X13030537Y-9345506D01*
X12951185Y-9248815D01*
X12854494Y-9169463D01*
X12744180Y-9110498D01*
X12624482Y-9074188D01*
X12500000Y-9061928D01*
X10700000Y-9061928D01*
X10575518Y-9074188D01*
X10455820Y-9110498D01*
X10345506Y-9169463D01*
X10248815Y-9248815D01*
X10169463Y-9345506D01*
X10110498Y-9455820D01*
X10074188Y-9575518D01*
X10061928Y-9700000D01*
X6868502Y-9700000D01*
X6795606Y-9624790D01*
X6547204Y-9453138D01*
X6270087Y-9333245D01*
X6164740Y-9308964D01*
X5927000Y-9429622D01*
X5673000Y-9429622D01*
X5435260Y-9308964D01*
X5329913Y-9333245D01*
X5052796Y-9453138D01*
X4804394Y-9624790D01*
X4594252Y-9841604D01*
X4430446Y-10095249D01*
X4319271Y-10375977D01*
X4265000Y-10673000D01*
X654050Y-10673000D01*
X654050Y-3706003D01*
X1015000Y-3706003D01*
X1015000Y-4293997D01*
X1129712Y-4870692D01*
X1354727Y-5413928D01*
X1681399Y-5902826D01*
X2097174Y-6318601D01*
X2586072Y-6645273D01*
X3129308Y-6870288D01*
X3706003Y-6985000D01*
X4293997Y-6985000D01*
X4870692Y-6870288D01*
X5413928Y-6645273D01*
X5902826Y-6318601D01*
X5907429Y-6313998D01*
X13614887Y-6313998D01*
X13615116Y-6488328D01*
X13649351Y-6659264D01*
X13715173Y-6818174D01*
X13903836Y-6822216D01*
X14326052Y-6400000D01*
X13903836Y-5977784D01*
X13715173Y-5981826D01*
X13648672Y-6142974D01*
X13614887Y-6313998D01*
X5907429Y-6313998D01*
X6318601Y-5902826D01*
X6384744Y-5803836D01*
X14077784Y-5803836D01*
X14404003Y-6130055D01*
X14398672Y-6142974D01*
X14364887Y-6313998D01*
X14365116Y-6488328D01*
X14399351Y-6659264D01*
X14403842Y-6670106D01*
X14077784Y-6996164D01*
X14081826Y-7184827D01*
X14242974Y-7251328D01*
X14413998Y-7285113D01*
X14588328Y-7284884D01*
X14759264Y-7250649D01*
X14875080Y-7202677D01*
X14992974Y-7251328D01*
X15163998Y-7285113D01*
X15338328Y-7284884D01*
X15509264Y-7250649D01*
X15625080Y-7202677D01*
X15742974Y-7251328D01*
X15913998Y-7285113D01*
X16088328Y-7284884D01*
X16259264Y-7250649D01*
X16418174Y-7184827D01*
X16422216Y-6996164D01*
X16095997Y-6669945D01*
X16101328Y-6657026D01*
X16135113Y-6486002D01*
X16135001Y-6400000D01*
X16173948Y-6400000D01*
X16596164Y-6822216D01*
X16784827Y-6818174D01*
X16851328Y-6657026D01*
X16885113Y-6486002D01*
X16884884Y-6311672D01*
X16850649Y-6140736D01*
X16784827Y-5981826D01*
X16596164Y-5977784D01*
X16173948Y-6400000D01*
X16135001Y-6400000D01*
X16134884Y-6311672D01*
X16100649Y-6140736D01*
X16096158Y-6129894D01*
X16422216Y-5803836D01*
X16418174Y-5615173D01*
X16382311Y-5600373D01*
X21790000Y-5600373D01*
X21790000Y-5779627D01*
X21824971Y-5955437D01*
X21893569Y-6121047D01*
X21939642Y-6190000D01*
X21893569Y-6258953D01*
X21824971Y-6424563D01*
X21790000Y-6600373D01*
X21790000Y-6779627D01*
X21824971Y-6955437D01*
X21893569Y-7121047D01*
X21993157Y-7270091D01*
X22119909Y-7396843D01*
X22268953Y-7496431D01*
X22357070Y-7532930D01*
X22393569Y-7621047D01*
X22493157Y-7770091D01*
X22619909Y-7896843D01*
X22768953Y-7996431D01*
X22934563Y-8065029D01*
X23110373Y-8100000D01*
X23289627Y-8100000D01*
X23465437Y-8065029D01*
X23631047Y-7996431D01*
X23700000Y-7950358D01*
X23768953Y-7996431D01*
X23934563Y-8065029D01*
X24110373Y-8100000D01*
X24289627Y-8100000D01*
X24465437Y-8065029D01*
X24631047Y-7996431D01*
X24780091Y-7896843D01*
X24906843Y-7770091D01*
X25006431Y-7621047D01*
X25075029Y-7455437D01*
X25110000Y-7279627D01*
X25110000Y-7100373D01*
X25075029Y-6924563D01*
X25006431Y-6758953D01*
X24960358Y-6690000D01*
X25006431Y-6621047D01*
X25075029Y-6455437D01*
X25110000Y-6279627D01*
X25110000Y-6100373D01*
X25075029Y-5924563D01*
X25006431Y-5758953D01*
X24906843Y-5609909D01*
X24780091Y-5483157D01*
X24631047Y-5383569D01*
X24542930Y-5347070D01*
X24506431Y-5258953D01*
X24406843Y-5109909D01*
X24280091Y-4983157D01*
X24131047Y-4883569D01*
X23965437Y-4814971D01*
X23789627Y-4780000D01*
X23610373Y-4780000D01*
X23434563Y-4814971D01*
X23268953Y-4883569D01*
X23200000Y-4929642D01*
X23131047Y-4883569D01*
X22965437Y-4814971D01*
X22789627Y-4780000D01*
X22610373Y-4780000D01*
X22434563Y-4814971D01*
X22268953Y-4883569D01*
X22119909Y-4983157D01*
X21993157Y-5109909D01*
X21893569Y-5258953D01*
X21824971Y-5424563D01*
X21790000Y-5600373D01*
X16382311Y-5600373D01*
X16257026Y-5548672D01*
X16086002Y-5514887D01*
X15911672Y-5515116D01*
X15740736Y-5549351D01*
X15624920Y-5597323D01*
X15507026Y-5548672D01*
X15336002Y-5514887D01*
X15161672Y-5515116D01*
X14990736Y-5549351D01*
X14874920Y-5597323D01*
X14757026Y-5548672D01*
X14586002Y-5514887D01*
X14411672Y-5515116D01*
X14240736Y-5549351D01*
X14081826Y-5615173D01*
X14077784Y-5803836D01*
X6384744Y-5803836D01*
X6645273Y-5413928D01*
X6870288Y-4870692D01*
X6985000Y-4293997D01*
X6985000Y-3706003D01*
X6906305Y-3310373D01*
X11540000Y-3310373D01*
X11540000Y-3489627D01*
X11574971Y-3665437D01*
X11643569Y-3831047D01*
X11743157Y-3980091D01*
X11869909Y-4106843D01*
X12018953Y-4206431D01*
X12184563Y-4275029D01*
X12360373Y-4310000D01*
X12539627Y-4310000D01*
X12715437Y-4275029D01*
X12881047Y-4206431D01*
X13030091Y-4106843D01*
X13156843Y-3980091D01*
X13256431Y-3831047D01*
X13325029Y-3665437D01*
X13360000Y-3489627D01*
X13360000Y-3310373D01*
X13325029Y-3134563D01*
X13256431Y-2968953D01*
X13183881Y-2860373D01*
X14540000Y-2860373D01*
X14540000Y-3039627D01*
X14574971Y-3215437D01*
X14643569Y-3381047D01*
X14743157Y-3530091D01*
X14869909Y-3656843D01*
X15018953Y-3756431D01*
X15184563Y-3825029D01*
X15360373Y-3860000D01*
X15539627Y-3860000D01*
X15715437Y-3825029D01*
X15881047Y-3756431D01*
X15956517Y-3706003D01*
X83015000Y-3706003D01*
X83015000Y-4293997D01*
X83129712Y-4870692D01*
X83354727Y-5413928D01*
X83681399Y-5902826D01*
X84097174Y-6318601D01*
X84586072Y-6645273D01*
X85129308Y-6870288D01*
X85706003Y-6985000D01*
X86293997Y-6985000D01*
X86870692Y-6870288D01*
X87413928Y-6645273D01*
X87902826Y-6318601D01*
X88318601Y-5902826D01*
X88645273Y-5413928D01*
X88870288Y-4870692D01*
X88985000Y-4293997D01*
X88985000Y-3706003D01*
X88870288Y-3129308D01*
X88645273Y-2586072D01*
X88318601Y-2097174D01*
X87902826Y-1681399D01*
X87413928Y-1354727D01*
X86870692Y-1129712D01*
X86293997Y-1015000D01*
X85706003Y-1015000D01*
X85129308Y-1129712D01*
X84586072Y-1354727D01*
X84097174Y-1681399D01*
X83681399Y-2097174D01*
X83354727Y-2586072D01*
X83129712Y-3129308D01*
X83015000Y-3706003D01*
X15956517Y-3706003D01*
X16030091Y-3656843D01*
X16156843Y-3530091D01*
X16256431Y-3381047D01*
X16325029Y-3215437D01*
X16360000Y-3039627D01*
X16360000Y-2860373D01*
X16325029Y-2684563D01*
X16256431Y-2518953D01*
X16156843Y-2369909D01*
X16030091Y-2243157D01*
X15881047Y-2143569D01*
X15715437Y-2074971D01*
X15539627Y-2040000D01*
X15360373Y-2040000D01*
X15184563Y-2074971D01*
X15018953Y-2143569D01*
X14869909Y-2243157D01*
X14743157Y-2369909D01*
X14643569Y-2518953D01*
X14574971Y-2684563D01*
X14540000Y-2860373D01*
X13183881Y-2860373D01*
X13156843Y-2819909D01*
X13030091Y-2693157D01*
X12881047Y-2593569D01*
X12715437Y-2524971D01*
X12539627Y-2490000D01*
X12360373Y-2490000D01*
X12184563Y-2524971D01*
X12018953Y-2593569D01*
X11869909Y-2693157D01*
X11743157Y-2819909D01*
X11643569Y-2968953D01*
X11574971Y-3134563D01*
X11540000Y-3310373D01*
X6906305Y-3310373D01*
X6870288Y-3129308D01*
X6645273Y-2586072D01*
X6318601Y-2097174D01*
X5902826Y-1681399D01*
X5413928Y-1354727D01*
X4870692Y-1129712D01*
X4293997Y-1015000D01*
X3706003Y-1015000D01*
X3129308Y-1129712D01*
X2586072Y-1354727D01*
X2097174Y-1681399D01*
X1681399Y-2097174D01*
X1354727Y-2586072D01*
X1129712Y-3129308D01*
X1015000Y-3706003D01*
X654050Y-3706003D01*
X654050Y-3031985D01*
X701805Y-2544948D01*
X833962Y-2107221D01*
X1048620Y-1703507D01*
X1337608Y-1349173D01*
X1689913Y-1057721D01*
X2092122Y-840248D01*
X2528910Y-705038D01*
X3014027Y-654050D01*
X15458321Y-654050D01*
X15424971Y-734563D01*
G37*
X15424971Y-734563D02*
X15390000Y-910373D01*
X15390000Y-1089627D01*
X15424971Y-1265437D01*
X15493569Y-1431047D01*
X15593157Y-1580091D01*
X15719909Y-1706843D01*
X15868953Y-1806431D01*
X16034563Y-1875029D01*
X16210373Y-1910000D01*
X16389627Y-1910000D01*
X16565437Y-1875029D01*
X16731047Y-1806431D01*
X16880091Y-1706843D01*
X17006843Y-1580091D01*
X17106431Y-1431047D01*
X17175029Y-1265437D01*
X17210000Y-1089627D01*
X17210000Y-910373D01*
X17175029Y-734563D01*
X17141679Y-654050D01*
X86968015Y-654050D01*
X87455052Y-701805D01*
X87892779Y-833962D01*
X88296493Y-1048620D01*
X88650827Y-1337608D01*
X88942279Y-1689913D01*
X89159752Y-2092122D01*
X89294962Y-2528910D01*
X89345950Y-3014027D01*
X89345951Y-36968006D01*
X89298195Y-37455052D01*
X89166039Y-37892777D01*
X88951380Y-38296494D01*
X88662392Y-38650827D01*
X88310084Y-38942282D01*
X87907877Y-39159753D01*
X87471085Y-39294963D01*
X86985972Y-39345950D01*
X3031984Y-39345950D01*
X2544948Y-39298195D01*
X2107223Y-39166039D01*
X1703506Y-38951380D01*
X1349173Y-38662392D01*
X1057718Y-38310084D01*
X840247Y-37907877D01*
X705037Y-37471085D01*
X654050Y-36985972D01*
X654050Y-35706003D01*
X1015000Y-35706003D01*
X1015000Y-36293997D01*
X1129712Y-36870692D01*
X1354727Y-37413928D01*
X1681399Y-37902826D01*
X2097174Y-38318601D01*
X2586072Y-38645273D01*
X3129308Y-38870288D01*
X3706003Y-38985000D01*
X4293997Y-38985000D01*
X4870692Y-38870288D01*
X5413928Y-38645273D01*
X5902826Y-38318601D01*
X6318601Y-37902826D01*
X6449520Y-37706891D01*
X7928519Y-37706891D01*
X8025843Y-37981252D01*
X8174822Y-38231355D01*
X8369731Y-38447588D01*
X8603080Y-38621641D01*
X8865901Y-38746825D01*
X9013110Y-38791476D01*
X9243000Y-38670155D01*
X9243000Y-37477000D01*
X8049186Y-37477000D01*
X7928519Y-37706891D01*
X6449520Y-37706891D01*
X6645273Y-37413928D01*
X6819581Y-36993109D01*
X7928519Y-36993109D01*
X8049186Y-37223000D01*
X9243000Y-37223000D01*
X9243000Y-36029845D01*
X9497000Y-36029845D01*
X9497000Y-37223000D01*
X9517000Y-37223000D01*
X9517000Y-37477000D01*
X9497000Y-37477000D01*
X9497000Y-38670155D01*
X9726890Y-38791476D01*
X9874099Y-38746825D01*
X10136920Y-38621641D01*
X10370269Y-38447588D01*
X10565178Y-38231355D01*
X10634805Y-38114466D01*
X10756525Y-38296632D01*
X10963368Y-38503475D01*
X11206589Y-38665990D01*
X11476842Y-38777932D01*
X11763740Y-38835000D01*
X12056260Y-38835000D01*
X12343158Y-38777932D01*
X12613411Y-38665990D01*
X12856632Y-38503475D01*
X12988487Y-38371620D01*
X13010498Y-38444180D01*
X13069463Y-38554494D01*
X13148815Y-38651185D01*
X13245506Y-38730537D01*
X13355820Y-38789502D01*
X13475518Y-38825812D01*
X13600000Y-38838072D01*
X15300000Y-38838072D01*
X15424482Y-38825812D01*
X15544180Y-38789502D01*
X15654494Y-38730537D01*
X15751185Y-38651185D01*
X15830537Y-38554494D01*
X15889502Y-38444180D01*
X15925812Y-38324482D01*
X15938072Y-38200000D01*
X15938072Y-37985373D01*
X16290000Y-37985373D01*
X16290000Y-38164627D01*
X16324971Y-38340437D01*
X16393569Y-38506047D01*
X16493157Y-38655091D01*
X16619909Y-38781843D01*
X16768953Y-38881431D01*
X16934563Y-38950029D01*
X17110373Y-38985000D01*
X17289627Y-38985000D01*
X17465437Y-38950029D01*
X17631047Y-38881431D01*
X17780091Y-38781843D01*
X17906843Y-38655091D01*
X18006431Y-38506047D01*
X18075029Y-38340437D01*
X18110000Y-38164627D01*
X18110000Y-38110373D01*
X21015000Y-38110373D01*
X21015000Y-38289627D01*
X21049971Y-38465437D01*
X21118569Y-38631047D01*
X21218157Y-38780091D01*
X21344909Y-38906843D01*
X21493953Y-39006431D01*
X21659563Y-39075029D01*
X21835373Y-39110000D01*
X22014627Y-39110000D01*
X22190437Y-39075029D01*
X22356047Y-39006431D01*
X22505091Y-38906843D01*
X22631843Y-38780091D01*
X22731431Y-38631047D01*
X22800029Y-38465437D01*
X22835000Y-38289627D01*
X22835000Y-38110373D01*
X22800029Y-37934563D01*
X22731431Y-37768953D01*
X22631843Y-37619909D01*
X22505091Y-37493157D01*
X22356047Y-37393569D01*
X22190437Y-37324971D01*
X22014627Y-37290000D01*
X21835373Y-37290000D01*
X21659563Y-37324971D01*
X21493953Y-37393569D01*
X21344909Y-37493157D01*
X21218157Y-37619909D01*
X21118569Y-37768953D01*
X21049971Y-37934563D01*
X21015000Y-38110373D01*
X18110000Y-38110373D01*
X18110000Y-37985373D01*
X18075029Y-37809563D01*
X18006431Y-37643953D01*
X17906843Y-37494909D01*
X17780091Y-37368157D01*
X17631047Y-37268569D01*
X17465437Y-37199971D01*
X17289627Y-37165000D01*
X17110373Y-37165000D01*
X16934563Y-37199971D01*
X16768953Y-37268569D01*
X16619909Y-37368157D01*
X16493157Y-37494909D01*
X16393569Y-37643953D01*
X16324971Y-37809563D01*
X16290000Y-37985373D01*
X15938072Y-37985373D01*
X15938072Y-36500000D01*
X15925812Y-36375518D01*
X15889502Y-36255820D01*
X15830537Y-36145506D01*
X15751185Y-36048815D01*
X15654494Y-35969463D01*
X15544180Y-35910498D01*
X15424482Y-35874188D01*
X15300000Y-35861928D01*
X13600000Y-35861928D01*
X13475518Y-35874188D01*
X13355820Y-35910498D01*
X13245506Y-35969463D01*
X13148815Y-36048815D01*
X13069463Y-36145506D01*
X13010498Y-36255820D01*
X12988487Y-36328380D01*
X12856632Y-36196525D01*
X12613411Y-36034010D01*
X12343158Y-35922068D01*
X12056260Y-35865000D01*
X11763740Y-35865000D01*
X11476842Y-35922068D01*
X11206589Y-36034010D01*
X10963368Y-36196525D01*
X10756525Y-36403368D01*
X10634805Y-36585534D01*
X10565178Y-36468645D01*
X10370269Y-36252412D01*
X10136920Y-36078359D01*
X9874099Y-35953175D01*
X9726890Y-35908524D01*
X9497000Y-36029845D01*
X9243000Y-36029845D01*
X9013110Y-35908524D01*
X8865901Y-35953175D01*
X8603080Y-36078359D01*
X8369731Y-36252412D01*
X8174822Y-36468645D01*
X8025843Y-36718748D01*
X7928519Y-36993109D01*
X6819581Y-36993109D01*
X6870288Y-36870692D01*
X6985000Y-36293997D01*
X6985000Y-35706003D01*
X83015000Y-35706003D01*
X83015000Y-36293997D01*
X83129712Y-36870692D01*
X83354727Y-37413928D01*
X83681399Y-37902826D01*
X84097174Y-38318601D01*
X84586072Y-38645273D01*
X85129308Y-38870288D01*
X85706003Y-38985000D01*
X86293997Y-38985000D01*
X86870692Y-38870288D01*
X87413928Y-38645273D01*
X87902826Y-38318601D01*
X88318601Y-37902826D01*
X88645273Y-37413928D01*
X88870288Y-36870692D01*
X88985000Y-36293997D01*
X88985000Y-35706003D01*
X88870288Y-35129308D01*
X88645273Y-34586072D01*
X88318601Y-34097174D01*
X87902826Y-33681399D01*
X87413928Y-33354727D01*
X86870692Y-33129712D01*
X86293997Y-33015000D01*
X85706003Y-33015000D01*
X85129308Y-33129712D01*
X84586072Y-33354727D01*
X84097174Y-33681399D01*
X83681399Y-34097174D01*
X83354727Y-34586072D01*
X83129712Y-35129308D01*
X83015000Y-35706003D01*
X6985000Y-35706003D01*
X6870288Y-35129308D01*
X6645273Y-34586072D01*
X6592506Y-34507102D01*
X6659998Y-34439610D01*
X6846073Y-34780766D01*
X7263409Y-34996513D01*
X7714815Y-35126696D01*
X8182946Y-35166313D01*
X8649811Y-35113842D01*
X9097468Y-34971297D01*
X9453927Y-34780766D01*
X9640003Y-34439609D01*
X8150000Y-32949605D01*
X8135858Y-32963748D01*
X7956252Y-32784142D01*
X7970395Y-32770000D01*
X8329605Y-32770000D01*
X9819609Y-34260003D01*
X10160766Y-34073927D01*
X10376513Y-33656591D01*
X10506696Y-33205185D01*
X10546313Y-32737054D01*
X10493842Y-32270189D01*
X10351297Y-31822532D01*
X10160766Y-31466073D01*
X9819609Y-31279997D01*
X8329605Y-32770000D01*
X7970395Y-32770000D01*
X6480391Y-31279997D01*
X6139234Y-31466073D01*
X5923487Y-31883409D01*
X5793304Y-32334815D01*
X5753687Y-32802946D01*
X5806158Y-33269811D01*
X5948703Y-33717468D01*
X5959965Y-33738538D01*
X5902826Y-33681399D01*
X5413928Y-33354727D01*
X4870692Y-33129712D01*
X4293997Y-33015000D01*
X3706003Y-33015000D01*
X3129308Y-33129712D01*
X2586072Y-33354727D01*
X2097174Y-33681399D01*
X1681399Y-34097174D01*
X1354727Y-34586072D01*
X1129712Y-35129308D01*
X1015000Y-35706003D01*
X654050Y-35706003D01*
X654050Y-31100391D01*
X6659997Y-31100391D01*
X8150000Y-32590395D01*
X9640003Y-31100391D01*
X9453927Y-30759234D01*
X9036591Y-30543487D01*
X8585185Y-30413304D01*
X8117054Y-30373687D01*
X7650189Y-30426158D01*
X7202532Y-30568703D01*
X6846073Y-30759234D01*
X6659997Y-31100391D01*
X654050Y-31100391D01*
X654050Y-28074077D01*
X9510523Y-28074077D01*
X9550905Y-28335922D01*
X9641594Y-28584859D01*
X9696797Y-28688137D01*
X9931584Y-28748811D01*
X10680395Y-28000000D01*
X9931584Y-27251189D01*
X9696797Y-27311863D01*
X9584898Y-27552015D01*
X9522002Y-27809383D01*
X9510523Y-28074077D01*
X654050Y-28074077D01*
X654050Y-25367529D01*
X9515000Y-25367529D01*
X9515000Y-25632471D01*
X9566687Y-25892322D01*
X9668076Y-26137096D01*
X9815270Y-26357388D01*
X10002612Y-26544730D01*
X10222904Y-26691924D01*
X10362528Y-26749758D01*
X10275141Y-26781594D01*
X10171863Y-26836797D01*
X10111189Y-27071584D01*
X10860000Y-27820395D01*
X10874143Y-27806253D01*
X11053748Y-27985858D01*
X11039605Y-28000000D01*
X11053748Y-28014143D01*
X10874143Y-28193748D01*
X10860000Y-28179605D01*
X10111189Y-28928416D01*
X10171863Y-29163203D01*
X10412015Y-29275102D01*
X10669383Y-29337998D01*
X10934077Y-29349477D01*
X11195922Y-29309095D01*
X11444859Y-29218406D01*
X11548137Y-29163203D01*
X11588577Y-29006714D01*
X11619462Y-29064494D01*
X11698814Y-29161185D01*
X11795505Y-29240537D01*
X11905819Y-29299502D01*
X12025517Y-29335812D01*
X12149999Y-29348072D01*
X13569999Y-29348072D01*
X13625000Y-29342655D01*
X13625000Y-29371637D01*
X13672460Y-29610236D01*
X13765557Y-29834992D01*
X13900713Y-30037267D01*
X13988446Y-30125000D01*
X13900713Y-30212733D01*
X13765557Y-30415008D01*
X13672460Y-30639764D01*
X13625000Y-30878363D01*
X13625000Y-31121637D01*
X13672460Y-31360236D01*
X13765557Y-31584992D01*
X13900713Y-31787267D01*
X14072733Y-31959287D01*
X14275008Y-32094443D01*
X14499764Y-32187540D01*
X14738363Y-32235000D01*
X14981637Y-32235000D01*
X15220236Y-32187540D01*
X15444992Y-32094443D01*
X15647267Y-31959287D01*
X15819287Y-31787267D01*
X15954443Y-31584992D01*
X15985351Y-31510373D01*
X19790000Y-31510373D01*
X19790000Y-31689627D01*
X19824971Y-31865437D01*
X19893569Y-32031047D01*
X19993157Y-32180091D01*
X20119909Y-32306843D01*
X20268953Y-32406431D01*
X20434563Y-32475029D01*
X20610373Y-32510000D01*
X20789627Y-32510000D01*
X20965437Y-32475029D01*
X21131047Y-32406431D01*
X21280091Y-32306843D01*
X21406843Y-32180091D01*
X21506431Y-32031047D01*
X21575029Y-31865437D01*
X21605873Y-31710373D01*
X21740000Y-31710373D01*
X21740000Y-31889627D01*
X21774971Y-32065437D01*
X21843569Y-32231047D01*
X21889642Y-32300000D01*
X21843569Y-32368953D01*
X21774971Y-32534563D01*
X21740000Y-32710373D01*
X21740000Y-32889627D01*
X21774971Y-33065437D01*
X21843569Y-33231047D01*
X21889642Y-33300000D01*
X21843569Y-33368953D01*
X21774971Y-33534563D01*
X21740000Y-33710373D01*
X21740000Y-33889627D01*
X21774971Y-34065437D01*
X21843569Y-34231047D01*
X21943157Y-34380091D01*
X22069909Y-34506843D01*
X22218953Y-34606431D01*
X22384563Y-34675029D01*
X22560373Y-34710000D01*
X22739627Y-34710000D01*
X22915437Y-34675029D01*
X23081047Y-34606431D01*
X23150000Y-34560358D01*
X23218953Y-34606431D01*
X23384563Y-34675029D01*
X23560373Y-34710000D01*
X23739627Y-34710000D01*
X23915437Y-34675029D01*
X24081047Y-34606431D01*
X24230091Y-34506843D01*
X24356843Y-34380091D01*
X24456431Y-34231047D01*
X24482575Y-34167930D01*
X24631047Y-34106431D01*
X24780091Y-34006843D01*
X24906843Y-33880091D01*
X25006431Y-33731047D01*
X25075029Y-33565437D01*
X25110000Y-33389627D01*
X25110000Y-33210373D01*
X25075029Y-33034563D01*
X25006431Y-32868953D01*
X24960358Y-32800000D01*
X25006431Y-32731047D01*
X25075029Y-32565437D01*
X25110000Y-32389627D01*
X25110000Y-32210373D01*
X25075029Y-32034563D01*
X25006431Y-31868953D01*
X24906843Y-31719909D01*
X24780091Y-31593157D01*
X24631047Y-31493569D01*
X24482575Y-31432070D01*
X24456431Y-31368953D01*
X24356843Y-31219909D01*
X24230091Y-31093157D01*
X24081047Y-30993569D01*
X23915437Y-30924971D01*
X23739627Y-30890000D01*
X23560373Y-30890000D01*
X23384563Y-30924971D01*
X23218953Y-30993569D01*
X23150000Y-31039642D01*
X23081047Y-30993569D01*
X22915437Y-30924971D01*
X22739627Y-30890000D01*
X22560373Y-30890000D01*
X22384563Y-30924971D01*
X22218953Y-30993569D01*
X22069909Y-31093157D01*
X21943157Y-31219909D01*
X21843569Y-31368953D01*
X21774971Y-31534563D01*
X21740000Y-31710373D01*
X21605873Y-31710373D01*
X21610000Y-31689627D01*
X21610000Y-31510373D01*
X21575029Y-31334563D01*
X21506431Y-31168953D01*
X21406843Y-31019909D01*
X21280091Y-30893157D01*
X21131047Y-30793569D01*
X20965437Y-30724971D01*
X20789627Y-30690000D01*
X20610373Y-30690000D01*
X20434563Y-30724971D01*
X20268953Y-30793569D01*
X20119909Y-30893157D01*
X19993157Y-31019909D01*
X19893569Y-31168953D01*
X19824971Y-31334563D01*
X19790000Y-31510373D01*
X15985351Y-31510373D01*
X16047540Y-31360236D01*
X16095000Y-31121637D01*
X16095000Y-30878363D01*
X16047540Y-30639764D01*
X15954443Y-30415008D01*
X15819287Y-30212733D01*
X15731554Y-30125000D01*
X15819287Y-30037267D01*
X15922172Y-29883288D01*
X28815000Y-29883288D01*
X28815000Y-30116712D01*
X28860539Y-30345652D01*
X28949866Y-30561308D01*
X29079550Y-30755394D01*
X29244606Y-30920450D01*
X29438692Y-31050134D01*
X29654348Y-31139461D01*
X29883288Y-31185000D01*
X30116712Y-31185000D01*
X30345652Y-31139461D01*
X30561308Y-31050134D01*
X30755394Y-30920450D01*
X30920450Y-30755394D01*
X31050134Y-30561308D01*
X31139461Y-30345652D01*
X31185000Y-30116712D01*
X31185000Y-29883288D01*
X31139461Y-29654348D01*
X31050134Y-29438692D01*
X30920450Y-29244606D01*
X30755394Y-29079550D01*
X30561308Y-28949866D01*
X30345652Y-28860539D01*
X30116712Y-28815000D01*
X29883288Y-28815000D01*
X29654348Y-28860539D01*
X29438692Y-28949866D01*
X29244606Y-29079550D01*
X29079550Y-29244606D01*
X28949866Y-29438692D01*
X28860539Y-29654348D01*
X28815000Y-29883288D01*
X15922172Y-29883288D01*
X15954443Y-29834992D01*
X16047540Y-29610236D01*
X16095000Y-29371637D01*
X16095000Y-29128363D01*
X16047540Y-28889764D01*
X15954443Y-28665008D01*
X15819287Y-28462733D01*
X15647267Y-28290713D01*
X15444992Y-28155557D01*
X15220236Y-28062460D01*
X14981637Y-28015000D01*
X14738363Y-28015000D01*
X14499764Y-28062460D01*
X14275008Y-28155557D01*
X14208071Y-28200283D01*
X14208071Y-27685923D01*
X14237148Y-27823348D01*
X14458516Y-27924237D01*
X14695313Y-27980000D01*
X14938438Y-27988495D01*
X15178549Y-27949395D01*
X15406418Y-27864202D01*
X15482852Y-27823348D01*
X15530159Y-27599764D01*
X14860000Y-26929605D01*
X14845858Y-26943748D01*
X14666253Y-26764143D01*
X14680395Y-26750000D01*
X15039605Y-26750000D01*
X15709764Y-27420159D01*
X15933348Y-27372852D01*
X16034237Y-27151484D01*
X16090000Y-26914687D01*
X16095391Y-26760373D01*
X21690000Y-26760373D01*
X21690000Y-26939627D01*
X21724971Y-27115437D01*
X21793569Y-27281047D01*
X21889755Y-27425000D01*
X21793569Y-27568953D01*
X21724971Y-27734563D01*
X21690000Y-27910373D01*
X21690000Y-28089627D01*
X21724971Y-28265437D01*
X21793569Y-28431047D01*
X21893157Y-28580091D01*
X22019909Y-28706843D01*
X22168953Y-28806431D01*
X22334563Y-28875029D01*
X22510373Y-28910000D01*
X22689627Y-28910000D01*
X22865437Y-28875029D01*
X23031047Y-28806431D01*
X23180091Y-28706843D01*
X23306843Y-28580091D01*
X23406431Y-28431047D01*
X23475029Y-28265437D01*
X23495927Y-28160373D01*
X36640000Y-28160373D01*
X36640000Y-28339627D01*
X36674971Y-28515437D01*
X36743569Y-28681047D01*
X36843157Y-28830091D01*
X36969909Y-28956843D01*
X37118953Y-29056431D01*
X37284563Y-29125029D01*
X37460373Y-29160000D01*
X37639627Y-29160000D01*
X37815437Y-29125029D01*
X37981047Y-29056431D01*
X38130091Y-28956843D01*
X38256843Y-28830091D01*
X38356431Y-28681047D01*
X38425029Y-28515437D01*
X38460000Y-28339627D01*
X38460000Y-28160373D01*
X38425029Y-27984563D01*
X38356431Y-27818953D01*
X38256843Y-27669909D01*
X38130091Y-27543157D01*
X37981047Y-27443569D01*
X37815437Y-27374971D01*
X37639627Y-27340000D01*
X37460373Y-27340000D01*
X37284563Y-27374971D01*
X37118953Y-27443569D01*
X36969909Y-27543157D01*
X36843157Y-27669909D01*
X36743569Y-27818953D01*
X36674971Y-27984563D01*
X36640000Y-28160373D01*
X23495927Y-28160373D01*
X23510000Y-28089627D01*
X23510000Y-27910373D01*
X23475029Y-27734563D01*
X23406431Y-27568953D01*
X23310245Y-27425000D01*
X23406431Y-27281047D01*
X23475029Y-27115437D01*
X23510000Y-26939627D01*
X23510000Y-26910373D01*
X29790000Y-26910373D01*
X29790000Y-27089627D01*
X29824971Y-27265437D01*
X29893569Y-27431047D01*
X29993157Y-27580091D01*
X30119909Y-27706843D01*
X30268953Y-27806431D01*
X30434563Y-27875029D01*
X30610373Y-27910000D01*
X30789627Y-27910000D01*
X30965437Y-27875029D01*
X31131047Y-27806431D01*
X31280091Y-27706843D01*
X31406843Y-27580091D01*
X31506431Y-27431047D01*
X31575029Y-27265437D01*
X31610000Y-27089627D01*
X31610000Y-26910373D01*
X31575029Y-26734563D01*
X31506431Y-26568953D01*
X31406843Y-26419909D01*
X31280091Y-26293157D01*
X31131047Y-26193569D01*
X30965437Y-26124971D01*
X30789627Y-26090000D01*
X30610373Y-26090000D01*
X30434563Y-26124971D01*
X30268953Y-26193569D01*
X30119909Y-26293157D01*
X29993157Y-26419909D01*
X29893569Y-26568953D01*
X29824971Y-26734563D01*
X29790000Y-26910373D01*
X23510000Y-26910373D01*
X23510000Y-26760373D01*
X23475029Y-26584563D01*
X23406431Y-26418953D01*
X23306843Y-26269909D01*
X23180091Y-26143157D01*
X23031047Y-26043569D01*
X22865437Y-25974971D01*
X22689627Y-25940000D01*
X22510373Y-25940000D01*
X22334563Y-25974971D01*
X22168953Y-26043569D01*
X22019909Y-26143157D01*
X21893157Y-26269909D01*
X21793569Y-26418953D01*
X21724971Y-26584563D01*
X21690000Y-26760373D01*
X16095391Y-26760373D01*
X16098495Y-26671562D01*
X16059395Y-26431451D01*
X15974202Y-26203582D01*
X15933348Y-26127148D01*
X15709764Y-26079841D01*
X15039605Y-26750000D01*
X14680395Y-26750000D01*
X14666253Y-26735858D01*
X14845858Y-26556253D01*
X14860000Y-26570395D01*
X15530159Y-25900236D01*
X15482852Y-25676652D01*
X15261484Y-25575763D01*
X15024687Y-25520000D01*
X14781562Y-25511505D01*
X14541451Y-25550605D01*
X14313582Y-25635798D01*
X14237148Y-25676652D01*
X14189842Y-25900234D01*
X14158060Y-25868452D01*
X14204999Y-25632471D01*
X14204999Y-25367529D01*
X14188972Y-25286956D01*
X14275008Y-25344443D01*
X14499764Y-25437540D01*
X14738363Y-25485000D01*
X14981637Y-25485000D01*
X15220236Y-25437540D01*
X15444992Y-25344443D01*
X15647267Y-25209287D01*
X15819287Y-25037267D01*
X15904074Y-24910373D01*
X27490000Y-24910373D01*
X27490000Y-25089627D01*
X27524971Y-25265437D01*
X27593569Y-25431047D01*
X27693157Y-25580091D01*
X27819909Y-25706843D01*
X27968953Y-25806431D01*
X28134563Y-25875029D01*
X28310373Y-25910000D01*
X28489627Y-25910000D01*
X28665437Y-25875029D01*
X28831047Y-25806431D01*
X28980091Y-25706843D01*
X29106843Y-25580091D01*
X29206431Y-25431047D01*
X29275029Y-25265437D01*
X29310000Y-25089627D01*
X29310000Y-24910373D01*
X29275029Y-24734563D01*
X29206431Y-24568953D01*
X29106843Y-24419909D01*
X28980091Y-24293157D01*
X28831047Y-24193569D01*
X28665437Y-24124971D01*
X28489627Y-24090000D01*
X28310373Y-24090000D01*
X28134563Y-24124971D01*
X27968953Y-24193569D01*
X27819909Y-24293157D01*
X27693157Y-24419909D01*
X27593569Y-24568953D01*
X27524971Y-24734563D01*
X27490000Y-24910373D01*
X15904074Y-24910373D01*
X15954443Y-24834992D01*
X16047540Y-24610236D01*
X16095000Y-24371637D01*
X16095000Y-24128363D01*
X16047540Y-23889764D01*
X16011885Y-23803685D01*
X35022100Y-23803685D01*
X35022100Y-23996315D01*
X35059680Y-24185243D01*
X35133396Y-24363210D01*
X35240415Y-24523375D01*
X35376625Y-24659585D01*
X35536790Y-24766604D01*
X35714757Y-24840320D01*
X35903685Y-24877900D01*
X36096315Y-24877900D01*
X36285243Y-24840320D01*
X36463210Y-24766604D01*
X36623375Y-24659585D01*
X36759585Y-24523375D01*
X36866604Y-24363210D01*
X36940320Y-24185243D01*
X36977900Y-23996315D01*
X36977900Y-23803685D01*
X36940320Y-23614757D01*
X36866604Y-23436790D01*
X36759585Y-23276625D01*
X36623375Y-23140415D01*
X36463210Y-23033396D01*
X36285243Y-22959680D01*
X36096315Y-22922100D01*
X35903685Y-22922100D01*
X35714757Y-22959680D01*
X35536790Y-23033396D01*
X35376625Y-23140415D01*
X35240415Y-23276625D01*
X35133396Y-23436790D01*
X35059680Y-23614757D01*
X35022100Y-23803685D01*
X16011885Y-23803685D01*
X15954443Y-23665008D01*
X15819287Y-23462733D01*
X15731554Y-23375000D01*
X15819287Y-23287267D01*
X15954443Y-23084992D01*
X16047540Y-22860236D01*
X16095000Y-22621637D01*
X16095000Y-22378363D01*
X16047540Y-22139764D01*
X15954443Y-21915008D01*
X15819287Y-21712733D01*
X15647267Y-21540713D01*
X15444992Y-21405557D01*
X15220236Y-21312460D01*
X15209744Y-21310373D01*
X21690000Y-21310373D01*
X21690000Y-21489627D01*
X21724971Y-21665437D01*
X21793569Y-21831047D01*
X21893157Y-21980091D01*
X21913066Y-22000000D01*
X21893157Y-22019909D01*
X21793569Y-22168953D01*
X21724971Y-22334563D01*
X21690000Y-22510373D01*
X21690000Y-22689627D01*
X21724971Y-22865437D01*
X21793569Y-23031047D01*
X21893157Y-23180091D01*
X22019909Y-23306843D01*
X22168953Y-23406431D01*
X22334563Y-23475029D01*
X22510373Y-23510000D01*
X22689627Y-23510000D01*
X22865437Y-23475029D01*
X23031047Y-23406431D01*
X23180091Y-23306843D01*
X23306843Y-23180091D01*
X23406431Y-23031047D01*
X23475029Y-22865437D01*
X23510000Y-22689627D01*
X23510000Y-22510373D01*
X23475029Y-22334563D01*
X23406431Y-22168953D01*
X23306843Y-22019909D01*
X23286934Y-22000000D01*
X23306843Y-21980091D01*
X23406431Y-21831047D01*
X23475029Y-21665437D01*
X23510000Y-21489627D01*
X23510000Y-21310373D01*
X23480163Y-21160373D01*
X26040000Y-21160373D01*
X26040000Y-21339627D01*
X26074971Y-21515437D01*
X26143569Y-21681047D01*
X26243157Y-21830091D01*
X26369909Y-21956843D01*
X26518953Y-22056431D01*
X26684563Y-22125029D01*
X26860373Y-22160000D01*
X27039627Y-22160000D01*
X27215437Y-22125029D01*
X27381047Y-22056431D01*
X27530091Y-21956843D01*
X27656843Y-21830091D01*
X27756431Y-21681047D01*
X27825029Y-21515437D01*
X27860000Y-21339627D01*
X27860000Y-21160373D01*
X27825029Y-20984563D01*
X27778658Y-20872613D01*
X27806431Y-20831047D01*
X27875029Y-20665437D01*
X27910000Y-20489627D01*
X27910000Y-20310373D01*
X27875029Y-20134563D01*
X27806431Y-19968953D01*
X27706843Y-19819909D01*
X27580091Y-19693157D01*
X27431047Y-19593569D01*
X27265437Y-19524971D01*
X27089627Y-19490000D01*
X26910373Y-19490000D01*
X26734563Y-19524971D01*
X26568953Y-19593569D01*
X26419909Y-19693157D01*
X26293157Y-19819909D01*
X26193569Y-19968953D01*
X26124971Y-20134563D01*
X26090000Y-20310373D01*
X26090000Y-20489627D01*
X26124971Y-20665437D01*
X26171342Y-20777387D01*
X26143569Y-20818953D01*
X26074971Y-20984563D01*
X26040000Y-21160373D01*
X23480163Y-21160373D01*
X23475029Y-21134563D01*
X23406431Y-20968953D01*
X23306843Y-20819909D01*
X23180091Y-20693157D01*
X23031047Y-20593569D01*
X22865437Y-20524971D01*
X22689627Y-20490000D01*
X22510373Y-20490000D01*
X22334563Y-20524971D01*
X22168953Y-20593569D01*
X22019909Y-20693157D01*
X21893157Y-20819909D01*
X21793569Y-20968953D01*
X21724971Y-21134563D01*
X21690000Y-21310373D01*
X15209744Y-21310373D01*
X14981637Y-21265000D01*
X14738363Y-21265000D01*
X14499764Y-21312460D01*
X14275008Y-21405557D01*
X14072733Y-21540713D01*
X13900713Y-21712733D01*
X13765557Y-21915008D01*
X13672460Y-22139764D01*
X13625000Y-22378363D01*
X13625000Y-22621637D01*
X13672460Y-22860236D01*
X13765557Y-23084992D01*
X13900713Y-23287267D01*
X13988446Y-23375000D01*
X13900713Y-23462733D01*
X13765557Y-23665008D01*
X13672460Y-23889764D01*
X13625000Y-24128363D01*
X13625000Y-24371637D01*
X13630024Y-24396896D01*
X13497095Y-24308076D01*
X13252321Y-24206687D01*
X12992470Y-24155000D01*
X12727528Y-24155000D01*
X12467677Y-24206687D01*
X12222903Y-24308076D01*
X12002611Y-24455270D01*
X11860000Y-24597882D01*
X11717388Y-24455270D01*
X11497096Y-24308076D01*
X11252322Y-24206687D01*
X10992471Y-24155000D01*
X10727529Y-24155000D01*
X10467678Y-24206687D01*
X10222904Y-24308076D01*
X10002612Y-24455270D01*
X9815270Y-24642612D01*
X9668076Y-24862904D01*
X9566687Y-25107678D01*
X9515000Y-25367529D01*
X654050Y-25367529D01*
X654050Y-22399609D01*
X6659997Y-22399609D01*
X6846073Y-22740766D01*
X7263409Y-22956513D01*
X7714815Y-23086696D01*
X8182946Y-23126313D01*
X8649811Y-23073842D01*
X9097468Y-22931297D01*
X9453927Y-22740766D01*
X9640003Y-22399609D01*
X8150000Y-20909605D01*
X6659997Y-22399609D01*
X654050Y-22399609D01*
X654050Y-20762946D01*
X5753687Y-20762946D01*
X5806158Y-21229811D01*
X5948703Y-21677468D01*
X6139234Y-22033927D01*
X6480391Y-22220003D01*
X7970395Y-20730000D01*
X8329605Y-20730000D01*
X9819609Y-22220003D01*
X10160766Y-22033927D01*
X10376513Y-21616591D01*
X10506696Y-21165185D01*
X10535687Y-20822621D01*
X10619909Y-20906843D01*
X10768953Y-21006431D01*
X10934563Y-21075029D01*
X11110373Y-21110000D01*
X11289627Y-21110000D01*
X11465437Y-21075029D01*
X11631047Y-21006431D01*
X11700000Y-20960358D01*
X11768953Y-21006431D01*
X11934563Y-21075029D01*
X12110373Y-21110000D01*
X12289627Y-21110000D01*
X12465437Y-21075029D01*
X12631047Y-21006431D01*
X12780091Y-20906843D01*
X12906843Y-20780091D01*
X13006431Y-20631047D01*
X13042930Y-20542930D01*
X13131047Y-20506431D01*
X13280091Y-20406843D01*
X13406843Y-20280091D01*
X13506431Y-20131047D01*
X13575029Y-19965437D01*
X13610000Y-19789627D01*
X13610000Y-19610373D01*
X13575029Y-19434563D01*
X13506431Y-19268953D01*
X13489544Y-19243679D01*
X33070500Y-19243679D01*
X33070500Y-19456321D01*
X33111985Y-19664878D01*
X33193360Y-19861335D01*
X33304532Y-20027716D01*
X33243569Y-20118953D01*
X33174971Y-20284563D01*
X33140000Y-20460373D01*
X33140000Y-20639627D01*
X33174971Y-20815437D01*
X33243569Y-20981047D01*
X33343157Y-21130091D01*
X33469909Y-21256843D01*
X33600887Y-21344360D01*
X33624971Y-21465437D01*
X33693569Y-21631047D01*
X33793157Y-21780091D01*
X33919909Y-21906843D01*
X34040000Y-21987085D01*
X34040000Y-21989627D01*
X34074971Y-22165437D01*
X34143569Y-22331047D01*
X34243157Y-22480091D01*
X34369909Y-22606843D01*
X34518953Y-22706431D01*
X34684563Y-22775029D01*
X34860373Y-22810000D01*
X35039627Y-22810000D01*
X35215437Y-22775029D01*
X35381047Y-22706431D01*
X35530091Y-22606843D01*
X35656843Y-22480091D01*
X35756431Y-22331047D01*
X35825029Y-22165437D01*
X35860000Y-21989627D01*
X35860000Y-21810373D01*
X35825029Y-21634563D01*
X35756431Y-21468953D01*
X35656843Y-21319909D01*
X35530091Y-21193157D01*
X35410000Y-21112915D01*
X35410000Y-21110373D01*
X35375029Y-20934563D01*
X35306431Y-20768953D01*
X35206843Y-20619909D01*
X35080091Y-20493157D01*
X34949113Y-20405640D01*
X34925029Y-20284563D01*
X34871444Y-20155199D01*
X34988502Y-20038141D01*
X35106640Y-19861335D01*
X35136303Y-19789721D01*
X68115000Y-19789721D01*
X68115000Y-20210279D01*
X68197047Y-20622756D01*
X68357988Y-21011302D01*
X68591637Y-21360983D01*
X68889017Y-21658363D01*
X69238698Y-21892012D01*
X69627244Y-22052953D01*
X70039721Y-22135000D01*
X70460279Y-22135000D01*
X70872756Y-22052953D01*
X71261302Y-21892012D01*
X71610983Y-21658363D01*
X71908363Y-21360983D01*
X72142012Y-21011302D01*
X72302953Y-20622756D01*
X72385000Y-20210279D01*
X72385000Y-19789721D01*
X78115000Y-19789721D01*
X78115000Y-20210279D01*
X78197047Y-20622756D01*
X78357988Y-21011302D01*
X78591637Y-21360983D01*
X78889017Y-21658363D01*
X79238698Y-21892012D01*
X79627244Y-22052953D01*
X80039721Y-22135000D01*
X80460279Y-22135000D01*
X80872756Y-22052953D01*
X81261302Y-21892012D01*
X81610983Y-21658363D01*
X81908363Y-21360983D01*
X82142012Y-21011302D01*
X82302953Y-20622756D01*
X82385000Y-20210279D01*
X82385000Y-19789721D01*
X82302953Y-19377244D01*
X82142012Y-18988698D01*
X81908363Y-18639017D01*
X81610983Y-18341637D01*
X81261302Y-18107988D01*
X80872756Y-17947047D01*
X80460279Y-17865000D01*
X80039721Y-17865000D01*
X79627244Y-17947047D01*
X79238698Y-18107988D01*
X78889017Y-18341637D01*
X78591637Y-18639017D01*
X78357988Y-18988698D01*
X78197047Y-19377244D01*
X78115000Y-19789721D01*
X72385000Y-19789721D01*
X72302953Y-19377244D01*
X72142012Y-18988698D01*
X71908363Y-18639017D01*
X71610983Y-18341637D01*
X71261302Y-18107988D01*
X70872756Y-17947047D01*
X70460279Y-17865000D01*
X70039721Y-17865000D01*
X69627244Y-17947047D01*
X69238698Y-18107988D01*
X68889017Y-18341637D01*
X68591637Y-18639017D01*
X68357988Y-18988698D01*
X68197047Y-19377244D01*
X68115000Y-19789721D01*
X35136303Y-19789721D01*
X35188015Y-19664878D01*
X35229500Y-19456321D01*
X35229500Y-19243679D01*
X35188015Y-19035122D01*
X35106640Y-18838665D01*
X34988502Y-18661859D01*
X34838141Y-18511498D01*
X34661335Y-18393360D01*
X34464878Y-18311985D01*
X34256321Y-18270500D01*
X34043679Y-18270500D01*
X33835122Y-18311985D01*
X33638665Y-18393360D01*
X33461859Y-18511498D01*
X33311498Y-18661859D01*
X33193360Y-18838665D01*
X33111985Y-19035122D01*
X33070500Y-19243679D01*
X13489544Y-19243679D01*
X13460358Y-19200000D01*
X13506431Y-19131047D01*
X13575029Y-18965437D01*
X13610000Y-18789627D01*
X13610000Y-18610373D01*
X13575029Y-18434563D01*
X13506431Y-18268953D01*
X13406843Y-18119909D01*
X13280091Y-17993157D01*
X13156196Y-17910373D01*
X20890000Y-17910373D01*
X20890000Y-18089627D01*
X20924971Y-18265437D01*
X20993569Y-18431047D01*
X21093157Y-18580091D01*
X21219909Y-18706843D01*
X21368953Y-18806431D01*
X21534563Y-18875029D01*
X21710373Y-18910000D01*
X21889627Y-18910000D01*
X22065437Y-18875029D01*
X22231047Y-18806431D01*
X22380091Y-18706843D01*
X22506843Y-18580091D01*
X22606431Y-18431047D01*
X22675029Y-18265437D01*
X22710000Y-18089627D01*
X22710000Y-17910373D01*
X22675029Y-17734563D01*
X22606431Y-17568953D01*
X22506843Y-17419909D01*
X22380091Y-17293157D01*
X22231047Y-17193569D01*
X22065437Y-17124971D01*
X21889627Y-17090000D01*
X21710373Y-17090000D01*
X21534563Y-17124971D01*
X21368953Y-17193569D01*
X21219909Y-17293157D01*
X21093157Y-17419909D01*
X20993569Y-17568953D01*
X20924971Y-17734563D01*
X20890000Y-17910373D01*
X13156196Y-17910373D01*
X13131047Y-17893569D01*
X12965437Y-17824971D01*
X12789627Y-17790000D01*
X12610373Y-17790000D01*
X12434563Y-17824971D01*
X12268953Y-17893569D01*
X12200000Y-17939642D01*
X12131047Y-17893569D01*
X11965437Y-17824971D01*
X11789627Y-17790000D01*
X11610373Y-17790000D01*
X11434563Y-17824971D01*
X11268953Y-17893569D01*
X11119909Y-17993157D01*
X10993157Y-18119909D01*
X10893569Y-18268953D01*
X10857070Y-18357070D01*
X10768953Y-18393569D01*
X10619909Y-18493157D01*
X10493157Y-18619909D01*
X10393569Y-18768953D01*
X10324971Y-18934563D01*
X10290000Y-19110373D01*
X10290000Y-19289627D01*
X10324971Y-19465437D01*
X10393569Y-19631047D01*
X10439642Y-19700000D01*
X10393569Y-19768953D01*
X10367225Y-19832553D01*
X10351297Y-19782532D01*
X10160766Y-19426073D01*
X9819609Y-19239997D01*
X8329605Y-20730000D01*
X7970395Y-20730000D01*
X6480391Y-19239997D01*
X6139234Y-19426073D01*
X5923487Y-19843409D01*
X5793304Y-20294815D01*
X5753687Y-20762946D01*
X654050Y-20762946D01*
X654050Y-19060391D01*
X6659997Y-19060391D01*
X8150000Y-20550395D01*
X9640003Y-19060391D01*
X9453927Y-18719234D01*
X9036591Y-18503487D01*
X8585185Y-18373304D01*
X8117054Y-18333687D01*
X7650189Y-18386158D01*
X7202532Y-18528703D01*
X6846073Y-18719234D01*
X6659997Y-19060391D01*
X654050Y-19060391D01*
X654050Y-16700000D01*
X5957573Y-16700000D01*
X5987210Y-17000913D01*
X6074983Y-17290261D01*
X6217519Y-17556927D01*
X6409339Y-17790661D01*
X6643073Y-17982481D01*
X6909739Y-18125017D01*
X7199087Y-18212790D01*
X7424592Y-18235000D01*
X9775408Y-18235000D01*
X10000913Y-18212790D01*
X10290261Y-18125017D01*
X10556927Y-17982481D01*
X10790661Y-17790661D01*
X10982481Y-17556927D01*
X11125017Y-17290261D01*
X11212790Y-17000913D01*
X11242427Y-16700000D01*
X11212790Y-16399087D01*
X11125017Y-16109739D01*
X10982481Y-15843073D01*
X10790661Y-15609339D01*
X10556927Y-15417519D01*
X10290261Y-15274983D01*
X10000913Y-15187210D01*
X9775408Y-15165000D01*
X7424592Y-15165000D01*
X7199087Y-15187210D01*
X6909739Y-15274983D01*
X6643073Y-15417519D01*
X6409339Y-15609339D01*
X6217519Y-15843073D01*
X6074983Y-16109739D01*
X5987210Y-16399087D01*
X5957573Y-16700000D01*
X654050Y-16700000D01*
X654050Y-12027000D01*
X4265000Y-12027000D01*
X4265000Y-13127000D01*
X4319271Y-13424023D01*
X4430446Y-13704751D01*
X4594252Y-13958396D01*
X4804394Y-14175210D01*
X5052796Y-14346862D01*
X5329913Y-14466755D01*
X5435260Y-14491036D01*
X5673000Y-14370378D01*
X5673000Y-12027000D01*
X5927000Y-12027000D01*
X5927000Y-14370378D01*
X6164740Y-14491036D01*
X6270087Y-14466755D01*
X6547204Y-14346862D01*
X6795606Y-14175210D01*
X7005748Y-13958396D01*
X7169554Y-13704751D01*
X7280729Y-13424023D01*
X7335000Y-13127000D01*
X7335000Y-12027000D01*
X5927000Y-12027000D01*
X5673000Y-12027000D01*
X4265000Y-12027000D01*
X654050Y-12027000D01*
X654050Y-10673000D01*
X4265000Y-10673000D01*
X4265000Y-11773000D01*
X5673000Y-11773000D01*
X5673000Y-9429622D01*
X5927000Y-9429622D01*
X5927000Y-11773000D01*
X7335000Y-11773000D01*
X7335000Y-10673000D01*
X7280729Y-10375977D01*
X7169554Y-10095249D01*
X7005748Y-9841604D01*
X6868502Y-9700000D01*
X10061928Y-9700000D01*
X10061928Y-14100000D01*
X10074188Y-14224482D01*
X10110498Y-14344180D01*
X10169463Y-14454494D01*
X10248815Y-14551185D01*
X10345506Y-14630537D01*
X10455820Y-14689502D01*
X10575518Y-14725812D01*
X10700000Y-14738072D01*
X12500000Y-14738072D01*
X12624482Y-14725812D01*
X12744180Y-14689502D01*
X12854494Y-14630537D01*
X12951185Y-14551185D01*
X13030537Y-14454494D01*
X13089502Y-14344180D01*
X13125812Y-14224482D01*
X13138072Y-14100000D01*
X13138072Y-12660373D01*
X22340000Y-12660373D01*
X22340000Y-12839627D01*
X22374971Y-13015437D01*
X22443569Y-13181047D01*
X22543157Y-13330091D01*
X22669909Y-13456843D01*
X22818953Y-13556431D01*
X22984563Y-13625029D01*
X23160373Y-13660000D01*
X23339627Y-13660000D01*
X23515437Y-13625029D01*
X23681047Y-13556431D01*
X23830091Y-13456843D01*
X23956843Y-13330091D01*
X24056431Y-13181047D01*
X24125029Y-13015437D01*
X24160000Y-12839627D01*
X24160000Y-12660373D01*
X24125029Y-12484563D01*
X24056431Y-12318953D01*
X23956843Y-12169909D01*
X23830091Y-12043157D01*
X23681047Y-11943569D01*
X23515437Y-11874971D01*
X23339627Y-11840000D01*
X23160373Y-11840000D01*
X22984563Y-11874971D01*
X22818953Y-11943569D01*
X22669909Y-12043157D01*
X22543157Y-12169909D01*
X22443569Y-12318953D01*
X22374971Y-12484563D01*
X22340000Y-12660373D01*
X13138072Y-12660373D01*
X13138072Y-9858665D01*
X28565000Y-9858665D01*
X28565000Y-10141335D01*
X28620147Y-10418574D01*
X28728320Y-10679727D01*
X28885363Y-10914759D01*
X29085241Y-11114637D01*
X29320273Y-11271680D01*
X29581426Y-11379853D01*
X29858665Y-11435000D01*
X30141335Y-11435000D01*
X30418574Y-11379853D01*
X30679727Y-11271680D01*
X30914759Y-11114637D01*
X31114637Y-10914759D01*
X31271680Y-10679727D01*
X31379853Y-10418574D01*
X31435000Y-10141335D01*
X31435000Y-9858665D01*
X31379853Y-9581426D01*
X31271680Y-9320273D01*
X31114637Y-9085241D01*
X30914759Y-8885363D01*
X30679727Y-8728320D01*
X30418574Y-8620147D01*
X30141335Y-8565000D01*
X29858665Y-8565000D01*
X29581426Y-8620147D01*
X29320273Y-8728320D01*
X29085241Y-8885363D01*
X28885363Y-9085241D01*
X28728320Y-9320273D01*
X28620147Y-9581426D01*
X28565000Y-9858665D01*
X13138072Y-9858665D01*
X13138072Y-9700000D01*
X13125812Y-9575518D01*
X13089502Y-9455820D01*
X13030537Y-9345506D01*
X12951185Y-9248815D01*
X12854494Y-9169463D01*
X12744180Y-9110498D01*
X12624482Y-9074188D01*
X12500000Y-9061928D01*
X10700000Y-9061928D01*
X10575518Y-9074188D01*
X10455820Y-9110498D01*
X10345506Y-9169463D01*
X10248815Y-9248815D01*
X10169463Y-9345506D01*
X10110498Y-9455820D01*
X10074188Y-9575518D01*
X10061928Y-9700000D01*
X6868502Y-9700000D01*
X6795606Y-9624790D01*
X6547204Y-9453138D01*
X6270087Y-9333245D01*
X6164740Y-9308964D01*
X5927000Y-9429622D01*
X5673000Y-9429622D01*
X5435260Y-9308964D01*
X5329913Y-9333245D01*
X5052796Y-9453138D01*
X4804394Y-9624790D01*
X4594252Y-9841604D01*
X4430446Y-10095249D01*
X4319271Y-10375977D01*
X4265000Y-10673000D01*
X654050Y-10673000D01*
X654050Y-3706003D01*
X1015000Y-3706003D01*
X1015000Y-4293997D01*
X1129712Y-4870692D01*
X1354727Y-5413928D01*
X1681399Y-5902826D01*
X2097174Y-6318601D01*
X2586072Y-6645273D01*
X3129308Y-6870288D01*
X3706003Y-6985000D01*
X4293997Y-6985000D01*
X4870692Y-6870288D01*
X5413928Y-6645273D01*
X5902826Y-6318601D01*
X5907429Y-6313998D01*
X13614887Y-6313998D01*
X13615116Y-6488328D01*
X13649351Y-6659264D01*
X13715173Y-6818174D01*
X13903836Y-6822216D01*
X14326052Y-6400000D01*
X13903836Y-5977784D01*
X13715173Y-5981826D01*
X13648672Y-6142974D01*
X13614887Y-6313998D01*
X5907429Y-6313998D01*
X6318601Y-5902826D01*
X6384744Y-5803836D01*
X14077784Y-5803836D01*
X14404003Y-6130055D01*
X14398672Y-6142974D01*
X14364887Y-6313998D01*
X14365116Y-6488328D01*
X14399351Y-6659264D01*
X14403842Y-6670106D01*
X14077784Y-6996164D01*
X14081826Y-7184827D01*
X14242974Y-7251328D01*
X14413998Y-7285113D01*
X14588328Y-7284884D01*
X14759264Y-7250649D01*
X14875080Y-7202677D01*
X14992974Y-7251328D01*
X15163998Y-7285113D01*
X15338328Y-7284884D01*
X15509264Y-7250649D01*
X15625080Y-7202677D01*
X15742974Y-7251328D01*
X15913998Y-7285113D01*
X16088328Y-7284884D01*
X16259264Y-7250649D01*
X16418174Y-7184827D01*
X16422216Y-6996164D01*
X16095997Y-6669945D01*
X16101328Y-6657026D01*
X16135113Y-6486002D01*
X16135001Y-6400000D01*
X16173948Y-6400000D01*
X16596164Y-6822216D01*
X16784827Y-6818174D01*
X16851328Y-6657026D01*
X16885113Y-6486002D01*
X16884884Y-6311672D01*
X16850649Y-6140736D01*
X16784827Y-5981826D01*
X16596164Y-5977784D01*
X16173948Y-6400000D01*
X16135001Y-6400000D01*
X16134884Y-6311672D01*
X16100649Y-6140736D01*
X16096158Y-6129894D01*
X16422216Y-5803836D01*
X16418174Y-5615173D01*
X16382311Y-5600373D01*
X21790000Y-5600373D01*
X21790000Y-5779627D01*
X21824971Y-5955437D01*
X21893569Y-6121047D01*
X21939642Y-6190000D01*
X21893569Y-6258953D01*
X21824971Y-6424563D01*
X21790000Y-6600373D01*
X21790000Y-6779627D01*
X21824971Y-6955437D01*
X21893569Y-7121047D01*
X21993157Y-7270091D01*
X22119909Y-7396843D01*
X22268953Y-7496431D01*
X22357070Y-7532930D01*
X22393569Y-7621047D01*
X22493157Y-7770091D01*
X22619909Y-7896843D01*
X22768953Y-7996431D01*
X22934563Y-8065029D01*
X23110373Y-8100000D01*
X23289627Y-8100000D01*
X23465437Y-8065029D01*
X23631047Y-7996431D01*
X23700000Y-7950358D01*
X23768953Y-7996431D01*
X23934563Y-8065029D01*
X24110373Y-8100000D01*
X24289627Y-8100000D01*
X24465437Y-8065029D01*
X24631047Y-7996431D01*
X24780091Y-7896843D01*
X24906843Y-7770091D01*
X25006431Y-7621047D01*
X25075029Y-7455437D01*
X25110000Y-7279627D01*
X25110000Y-7100373D01*
X25075029Y-6924563D01*
X25006431Y-6758953D01*
X24960358Y-6690000D01*
X25006431Y-6621047D01*
X25075029Y-6455437D01*
X25110000Y-6279627D01*
X25110000Y-6100373D01*
X25075029Y-5924563D01*
X25006431Y-5758953D01*
X24906843Y-5609909D01*
X24780091Y-5483157D01*
X24631047Y-5383569D01*
X24542930Y-5347070D01*
X24506431Y-5258953D01*
X24406843Y-5109909D01*
X24280091Y-4983157D01*
X24131047Y-4883569D01*
X23965437Y-4814971D01*
X23789627Y-4780000D01*
X23610373Y-4780000D01*
X23434563Y-4814971D01*
X23268953Y-4883569D01*
X23200000Y-4929642D01*
X23131047Y-4883569D01*
X22965437Y-4814971D01*
X22789627Y-4780000D01*
X22610373Y-4780000D01*
X22434563Y-4814971D01*
X22268953Y-4883569D01*
X22119909Y-4983157D01*
X21993157Y-5109909D01*
X21893569Y-5258953D01*
X21824971Y-5424563D01*
X21790000Y-5600373D01*
X16382311Y-5600373D01*
X16257026Y-5548672D01*
X16086002Y-5514887D01*
X15911672Y-5515116D01*
X15740736Y-5549351D01*
X15624920Y-5597323D01*
X15507026Y-5548672D01*
X15336002Y-5514887D01*
X15161672Y-5515116D01*
X14990736Y-5549351D01*
X14874920Y-5597323D01*
X14757026Y-5548672D01*
X14586002Y-5514887D01*
X14411672Y-5515116D01*
X14240736Y-5549351D01*
X14081826Y-5615173D01*
X14077784Y-5803836D01*
X6384744Y-5803836D01*
X6645273Y-5413928D01*
X6870288Y-4870692D01*
X6985000Y-4293997D01*
X6985000Y-3706003D01*
X6906305Y-3310373D01*
X11540000Y-3310373D01*
X11540000Y-3489627D01*
X11574971Y-3665437D01*
X11643569Y-3831047D01*
X11743157Y-3980091D01*
X11869909Y-4106843D01*
X12018953Y-4206431D01*
X12184563Y-4275029D01*
X12360373Y-4310000D01*
X12539627Y-4310000D01*
X12715437Y-4275029D01*
X12881047Y-4206431D01*
X13030091Y-4106843D01*
X13156843Y-3980091D01*
X13256431Y-3831047D01*
X13325029Y-3665437D01*
X13360000Y-3489627D01*
X13360000Y-3310373D01*
X13325029Y-3134563D01*
X13256431Y-2968953D01*
X13183881Y-2860373D01*
X14540000Y-2860373D01*
X14540000Y-3039627D01*
X14574971Y-3215437D01*
X14643569Y-3381047D01*
X14743157Y-3530091D01*
X14869909Y-3656843D01*
X15018953Y-3756431D01*
X15184563Y-3825029D01*
X15360373Y-3860000D01*
X15539627Y-3860000D01*
X15715437Y-3825029D01*
X15881047Y-3756431D01*
X15956517Y-3706003D01*
X83015000Y-3706003D01*
X83015000Y-4293997D01*
X83129712Y-4870692D01*
X83354727Y-5413928D01*
X83681399Y-5902826D01*
X84097174Y-6318601D01*
X84586072Y-6645273D01*
X85129308Y-6870288D01*
X85706003Y-6985000D01*
X86293997Y-6985000D01*
X86870692Y-6870288D01*
X87413928Y-6645273D01*
X87902826Y-6318601D01*
X88318601Y-5902826D01*
X88645273Y-5413928D01*
X88870288Y-4870692D01*
X88985000Y-4293997D01*
X88985000Y-3706003D01*
X88870288Y-3129308D01*
X88645273Y-2586072D01*
X88318601Y-2097174D01*
X87902826Y-1681399D01*
X87413928Y-1354727D01*
X86870692Y-1129712D01*
X86293997Y-1015000D01*
X85706003Y-1015000D01*
X85129308Y-1129712D01*
X84586072Y-1354727D01*
X84097174Y-1681399D01*
X83681399Y-2097174D01*
X83354727Y-2586072D01*
X83129712Y-3129308D01*
X83015000Y-3706003D01*
X15956517Y-3706003D01*
X16030091Y-3656843D01*
X16156843Y-3530091D01*
X16256431Y-3381047D01*
X16325029Y-3215437D01*
X16360000Y-3039627D01*
X16360000Y-2860373D01*
X16325029Y-2684563D01*
X16256431Y-2518953D01*
X16156843Y-2369909D01*
X16030091Y-2243157D01*
X15881047Y-2143569D01*
X15715437Y-2074971D01*
X15539627Y-2040000D01*
X15360373Y-2040000D01*
X15184563Y-2074971D01*
X15018953Y-2143569D01*
X14869909Y-2243157D01*
X14743157Y-2369909D01*
X14643569Y-2518953D01*
X14574971Y-2684563D01*
X14540000Y-2860373D01*
X13183881Y-2860373D01*
X13156843Y-2819909D01*
X13030091Y-2693157D01*
X12881047Y-2593569D01*
X12715437Y-2524971D01*
X12539627Y-2490000D01*
X12360373Y-2490000D01*
X12184563Y-2524971D01*
X12018953Y-2593569D01*
X11869909Y-2693157D01*
X11743157Y-2819909D01*
X11643569Y-2968953D01*
X11574971Y-3134563D01*
X11540000Y-3310373D01*
X6906305Y-3310373D01*
X6870288Y-3129308D01*
X6645273Y-2586072D01*
X6318601Y-2097174D01*
X5902826Y-1681399D01*
X5413928Y-1354727D01*
X4870692Y-1129712D01*
X4293997Y-1015000D01*
X3706003Y-1015000D01*
X3129308Y-1129712D01*
X2586072Y-1354727D01*
X2097174Y-1681399D01*
X1681399Y-2097174D01*
X1354727Y-2586072D01*
X1129712Y-3129308D01*
X1015000Y-3706003D01*
X654050Y-3706003D01*
X654050Y-3031985D01*
X701805Y-2544948D01*
X833962Y-2107221D01*
X1048620Y-1703507D01*
X1337608Y-1349173D01*
X1689913Y-1057721D01*
X2092122Y-840248D01*
X2528910Y-705038D01*
X3014027Y-654050D01*
X15458321Y-654050D01*
X15424971Y-734563D01*
M02*
