G04 #@! TF.GenerationSoftware,KiCad,Pcbnew,(5.1.6-0-10_14)*
G04 #@! TF.CreationDate,2020-11-21T00:06:08+00:00*
G04 #@! TF.ProjectId,usb3-ngff-carrier,75736233-2d6e-4676-9666-2d6361727269,1*
G04 #@! TF.SameCoordinates,Original*
G04 #@! TF.FileFunction,Legend,Bot*
G04 #@! TF.FilePolarity,Positive*
%FSLAX46Y46*%
G04 Gerber Fmt 4.6, Leading zero omitted, Abs format (unit mm)*
G04 Created by KiCad (PCBNEW (5.1.6-0-10_14)) date 2020-11-21 00:06:08*
%MOMM*%
%LPD*%
G01*
G04 APERTURE LIST*
%ADD10C,0.152400*%
%ADD11C,0.150000*%
%ADD12C,0.120000*%
%ADD13C,0.250000*%
%ADD14C,0.475000*%
%ADD15C,0.010000*%
%ADD16C,0.500000*%
%ADD17C,3.000000*%
%ADD18R,0.650000X1.300000*%
%ADD19R,0.480000X1.800000*%
%ADD20R,1.030000X1.000000*%
%ADD21C,1.500000*%
%ADD22O,1.700000X1.700000*%
%ADD23R,1.700000X1.700000*%
%ADD24C,1.100000*%
%ADD25C,1.600000*%
%ADD26R,1.800000X4.400000*%
%ADD27O,1.800000X4.000000*%
%ADD28O,4.000000X1.800000*%
%ADD29C,4.700000*%
G04 APERTURE END LIST*
D10*
X28250000Y-10000000D02*
X28250000Y-30000000D01*
D11*
X43233333Y-35916666D02*
X43233333Y-36416666D01*
X43266666Y-36516666D01*
X43333333Y-36583333D01*
X43433333Y-36616666D01*
X43500000Y-36616666D01*
X42566666Y-36616666D02*
X42900000Y-36616666D01*
X42900000Y-35916666D01*
X41933333Y-36550000D02*
X41966666Y-36583333D01*
X42066666Y-36616666D01*
X42133333Y-36616666D01*
X42233333Y-36583333D01*
X42300000Y-36516666D01*
X42333333Y-36450000D01*
X42366666Y-36316666D01*
X42366666Y-36216666D01*
X42333333Y-36083333D01*
X42300000Y-36016666D01*
X42233333Y-35950000D01*
X42133333Y-35916666D01*
X42066666Y-35916666D01*
X41966666Y-35950000D01*
X41933333Y-35983333D01*
X41433333Y-35916666D02*
X41433333Y-36416666D01*
X41466666Y-36516666D01*
X41533333Y-36583333D01*
X41633333Y-36616666D01*
X41700000Y-36616666D01*
X40766666Y-36616666D02*
X41100000Y-36616666D01*
X41100000Y-35916666D01*
X40133333Y-36550000D02*
X40166666Y-36583333D01*
X40266666Y-36616666D01*
X40333333Y-36616666D01*
X40433333Y-36583333D01*
X40500000Y-36516666D01*
X40533333Y-36450000D01*
X40566666Y-36316666D01*
X40566666Y-36216666D01*
X40533333Y-36083333D01*
X40500000Y-36016666D01*
X40433333Y-35950000D01*
X40333333Y-35916666D01*
X40266666Y-35916666D01*
X40166666Y-35950000D01*
X40133333Y-35983333D01*
X39633333Y-35916666D02*
X39633333Y-36416666D01*
X39666666Y-36516666D01*
X39733333Y-36583333D01*
X39833333Y-36616666D01*
X39900000Y-36616666D01*
X38966666Y-36616666D02*
X39300000Y-36616666D01*
X39300000Y-35916666D01*
X38333333Y-36550000D02*
X38366666Y-36583333D01*
X38466666Y-36616666D01*
X38533333Y-36616666D01*
X38633333Y-36583333D01*
X38700000Y-36516666D01*
X38733333Y-36450000D01*
X38766666Y-36316666D01*
X38766666Y-36216666D01*
X38733333Y-36083333D01*
X38700000Y-36016666D01*
X38633333Y-35950000D01*
X38533333Y-35916666D01*
X38466666Y-35916666D01*
X38366666Y-35950000D01*
X38333333Y-35983333D01*
X37833333Y-35916666D02*
X37833333Y-36416666D01*
X37866666Y-36516666D01*
X37933333Y-36583333D01*
X38033333Y-36616666D01*
X38100000Y-36616666D01*
X37166666Y-36616666D02*
X37500000Y-36616666D01*
X37500000Y-35916666D01*
X36533333Y-36550000D02*
X36566666Y-36583333D01*
X36666666Y-36616666D01*
X36733333Y-36616666D01*
X36833333Y-36583333D01*
X36900000Y-36516666D01*
X36933333Y-36450000D01*
X36966666Y-36316666D01*
X36966666Y-36216666D01*
X36933333Y-36083333D01*
X36900000Y-36016666D01*
X36833333Y-35950000D01*
X36733333Y-35916666D01*
X36666666Y-35916666D01*
X36566666Y-35950000D01*
X36533333Y-35983333D01*
D12*
X1425000Y-8950000D02*
X2525000Y-8950000D01*
X1975000Y-9500000D02*
X1975000Y-8400000D01*
X1975000Y-15500000D02*
X1975000Y-14400000D01*
D11*
X80309642Y-2871428D02*
X80309642Y-2271428D01*
X80052500Y-2842857D02*
X79966785Y-2871428D01*
X79823928Y-2871428D01*
X79766785Y-2842857D01*
X79738214Y-2814285D01*
X79709642Y-2757142D01*
X79709642Y-2700000D01*
X79738214Y-2642857D01*
X79766785Y-2614285D01*
X79823928Y-2585714D01*
X79938214Y-2557142D01*
X79995357Y-2528571D01*
X80023928Y-2500000D01*
X80052500Y-2442857D01*
X80052500Y-2385714D01*
X80023928Y-2328571D01*
X79995357Y-2300000D01*
X79938214Y-2271428D01*
X79795357Y-2271428D01*
X79709642Y-2300000D01*
X79481071Y-2842857D02*
X79395357Y-2871428D01*
X79252500Y-2871428D01*
X79195357Y-2842857D01*
X79166785Y-2814285D01*
X79138214Y-2757142D01*
X79138214Y-2700000D01*
X79166785Y-2642857D01*
X79195357Y-2614285D01*
X79252500Y-2585714D01*
X79366785Y-2557142D01*
X79423928Y-2528571D01*
X79452500Y-2500000D01*
X79481071Y-2442857D01*
X79481071Y-2385714D01*
X79452500Y-2328571D01*
X79423928Y-2300000D01*
X79366785Y-2271428D01*
X79223928Y-2271428D01*
X79138214Y-2300000D01*
X78881071Y-2814285D02*
X78852500Y-2842857D01*
X78881071Y-2871428D01*
X78909642Y-2842857D01*
X78881071Y-2814285D01*
X78881071Y-2871428D01*
X78166785Y-2700000D02*
X77881071Y-2700000D01*
X78223928Y-2871428D02*
X78023928Y-2271428D01*
X77823928Y-2871428D01*
X1671428Y-17942857D02*
X1671428Y-17828571D01*
X1700000Y-17771428D01*
X1728571Y-17742857D01*
X1814285Y-17685714D01*
X1928571Y-17657142D01*
X2157142Y-17657142D01*
X2214285Y-17685714D01*
X2242857Y-17714285D01*
X2271428Y-17771428D01*
X2271428Y-17885714D01*
X2242857Y-17942857D01*
X2214285Y-17971428D01*
X2157142Y-18000000D01*
X2014285Y-18000000D01*
X1957142Y-17971428D01*
X1928571Y-17942857D01*
X1900000Y-17885714D01*
X1900000Y-17771428D01*
X1928571Y-17714285D01*
X1957142Y-17685714D01*
X2014285Y-17657142D01*
X1671428Y-18171428D02*
X2271428Y-18371428D01*
X1671428Y-18571428D01*
X2271428Y-18771428D02*
X1671428Y-18771428D01*
X1671428Y-18914285D01*
X1700000Y-19000000D01*
X1757142Y-19057142D01*
X1814285Y-19085714D01*
X1928571Y-19114285D01*
X2014285Y-19114285D01*
X2128571Y-19085714D01*
X2185714Y-19057142D01*
X2242857Y-19000000D01*
X2271428Y-18914285D01*
X2271428Y-18771428D01*
X2214285Y-19714285D02*
X2242857Y-19685714D01*
X2271428Y-19600000D01*
X2271428Y-19542857D01*
X2242857Y-19457142D01*
X2185714Y-19400000D01*
X2128571Y-19371428D01*
X2014285Y-19342857D01*
X1928571Y-19342857D01*
X1814285Y-19371428D01*
X1757142Y-19400000D01*
X1700000Y-19457142D01*
X1671428Y-19542857D01*
X1671428Y-19600000D01*
X1700000Y-19685714D01*
X1728571Y-19714285D01*
X1642857Y-20857142D02*
X2414285Y-20342857D01*
X1671428Y-21457142D02*
X1671428Y-21828571D01*
X1900000Y-21628571D01*
X1900000Y-21714285D01*
X1928571Y-21771428D01*
X1957142Y-21800000D01*
X2014285Y-21828571D01*
X2157142Y-21828571D01*
X2214285Y-21800000D01*
X2242857Y-21771428D01*
X2271428Y-21714285D01*
X2271428Y-21542857D01*
X2242857Y-21485714D01*
X2214285Y-21457142D01*
X2100000Y-22057142D02*
X2100000Y-22342857D01*
X2271428Y-22000000D02*
X1671428Y-22200000D01*
X2271428Y-22400000D01*
X81192857Y-22671428D02*
X81478571Y-22671428D01*
X81507142Y-22957142D01*
X81478571Y-22928571D01*
X81421428Y-22900000D01*
X81278571Y-22900000D01*
X81221428Y-22928571D01*
X81192857Y-22957142D01*
X81164285Y-23014285D01*
X81164285Y-23157142D01*
X81192857Y-23214285D01*
X81221428Y-23242857D01*
X81278571Y-23271428D01*
X81421428Y-23271428D01*
X81478571Y-23242857D01*
X81507142Y-23214285D01*
X80935714Y-22728571D02*
X80907142Y-22700000D01*
X80850000Y-22671428D01*
X80707142Y-22671428D01*
X80650000Y-22700000D01*
X80621428Y-22728571D01*
X80592857Y-22785714D01*
X80592857Y-22842857D01*
X80621428Y-22928571D01*
X80964285Y-23271428D01*
X80592857Y-23271428D01*
X80335714Y-23271428D02*
X80335714Y-22871428D01*
X80335714Y-22928571D02*
X80307142Y-22900000D01*
X80250000Y-22871428D01*
X80164285Y-22871428D01*
X80107142Y-22900000D01*
X80078571Y-22957142D01*
X80078571Y-23271428D01*
X80078571Y-22957142D02*
X80050000Y-22900000D01*
X79992857Y-22871428D01*
X79907142Y-22871428D01*
X79850000Y-22900000D01*
X79821428Y-22957142D01*
X79821428Y-23271428D01*
X79535714Y-23271428D02*
X79535714Y-22871428D01*
X79535714Y-22928571D02*
X79507142Y-22900000D01*
X79450000Y-22871428D01*
X79364285Y-22871428D01*
X79307142Y-22900000D01*
X79278571Y-22957142D01*
X79278571Y-23271428D01*
X79278571Y-22957142D02*
X79250000Y-22900000D01*
X79192857Y-22871428D01*
X79107142Y-22871428D01*
X79050000Y-22900000D01*
X79021428Y-22957142D01*
X79021428Y-23271428D01*
X71221428Y-22871428D02*
X71221428Y-23271428D01*
X71364285Y-22642857D02*
X71507142Y-23071428D01*
X71135714Y-23071428D01*
X70935714Y-22728571D02*
X70907142Y-22700000D01*
X70850000Y-22671428D01*
X70707142Y-22671428D01*
X70650000Y-22700000D01*
X70621428Y-22728571D01*
X70592857Y-22785714D01*
X70592857Y-22842857D01*
X70621428Y-22928571D01*
X70964285Y-23271428D01*
X70592857Y-23271428D01*
X70335714Y-23271428D02*
X70335714Y-22871428D01*
X70335714Y-22928571D02*
X70307142Y-22900000D01*
X70250000Y-22871428D01*
X70164285Y-22871428D01*
X70107142Y-22900000D01*
X70078571Y-22957142D01*
X70078571Y-23271428D01*
X70078571Y-22957142D02*
X70050000Y-22900000D01*
X69992857Y-22871428D01*
X69907142Y-22871428D01*
X69850000Y-22900000D01*
X69821428Y-22957142D01*
X69821428Y-23271428D01*
X69535714Y-23271428D02*
X69535714Y-22871428D01*
X69535714Y-22928571D02*
X69507142Y-22900000D01*
X69450000Y-22871428D01*
X69364285Y-22871428D01*
X69307142Y-22900000D01*
X69278571Y-22957142D01*
X69278571Y-23271428D01*
X69278571Y-22957142D02*
X69250000Y-22900000D01*
X69192857Y-22871428D01*
X69107142Y-22871428D01*
X69050000Y-22900000D01*
X69021428Y-22957142D01*
X69021428Y-23271428D01*
D13*
X46560714Y-33017857D02*
X47227380Y-33017857D01*
X46179761Y-32779761D02*
X46894047Y-32541666D01*
X46894047Y-33160714D01*
X46703571Y-33875000D02*
X46703571Y-33541666D01*
X47227380Y-33541666D02*
X46227380Y-33541666D01*
X46227380Y-34017857D01*
X46703571Y-34732142D02*
X46703571Y-34398809D01*
X47227380Y-34398809D02*
X46227380Y-34398809D01*
X46227380Y-34875000D01*
X46227380Y-36017857D02*
X47036904Y-36017857D01*
X47132142Y-36065476D01*
X47179761Y-36113095D01*
X47227380Y-36208333D01*
X47227380Y-36398809D01*
X47179761Y-36494047D01*
X47132142Y-36541666D01*
X47036904Y-36589285D01*
X46227380Y-36589285D01*
X47179761Y-37017857D02*
X47227380Y-37160714D01*
X47227380Y-37398809D01*
X47179761Y-37494047D01*
X47132142Y-37541666D01*
X47036904Y-37589285D01*
X46941666Y-37589285D01*
X46846428Y-37541666D01*
X46798809Y-37494047D01*
X46751190Y-37398809D01*
X46703571Y-37208333D01*
X46655952Y-37113095D01*
X46608333Y-37065476D01*
X46513095Y-37017857D01*
X46417857Y-37017857D01*
X46322619Y-37065476D01*
X46275000Y-37113095D01*
X46227380Y-37208333D01*
X46227380Y-37446428D01*
X46275000Y-37589285D01*
X47227380Y-38017857D02*
X46227380Y-38017857D01*
X47227380Y-38494047D02*
X46227380Y-38494047D01*
X46941666Y-38827380D01*
X46227380Y-39160714D01*
X47227380Y-39160714D01*
X79570833Y-13952380D02*
X79570833Y-12952380D01*
X79570833Y-13904761D02*
X79666071Y-13952380D01*
X79856547Y-13952380D01*
X79951785Y-13904761D01*
X79999404Y-13857142D01*
X80047023Y-13761904D01*
X80047023Y-13476190D01*
X79999404Y-13380952D01*
X79951785Y-13333333D01*
X79856547Y-13285714D01*
X79666071Y-13285714D01*
X79570833Y-13333333D01*
X78666071Y-13952380D02*
X78666071Y-13428571D01*
X78713690Y-13333333D01*
X78808928Y-13285714D01*
X78999404Y-13285714D01*
X79094642Y-13333333D01*
X78666071Y-13904761D02*
X78761309Y-13952380D01*
X78999404Y-13952380D01*
X79094642Y-13904761D01*
X79142261Y-13809523D01*
X79142261Y-13714285D01*
X79094642Y-13619047D01*
X78999404Y-13571428D01*
X78761309Y-13571428D01*
X78666071Y-13523809D01*
X78189880Y-13952380D02*
X78189880Y-13285714D01*
X78189880Y-13380952D02*
X78142261Y-13333333D01*
X78047023Y-13285714D01*
X77904166Y-13285714D01*
X77808928Y-13333333D01*
X77761309Y-13428571D01*
X77761309Y-13952380D01*
X77761309Y-13428571D02*
X77713690Y-13333333D01*
X77618452Y-13285714D01*
X77475595Y-13285714D01*
X77380357Y-13333333D01*
X77332738Y-13428571D01*
X77332738Y-13952380D01*
X76713690Y-13952380D02*
X76808928Y-13904761D01*
X76856547Y-13857142D01*
X76904166Y-13761904D01*
X76904166Y-13476190D01*
X76856547Y-13380952D01*
X76808928Y-13333333D01*
X76713690Y-13285714D01*
X76570833Y-13285714D01*
X76475595Y-13333333D01*
X76427976Y-13380952D01*
X76380357Y-13476190D01*
X76380357Y-13761904D01*
X76427976Y-13857142D01*
X76475595Y-13904761D01*
X76570833Y-13952380D01*
X76713690Y-13952380D01*
X76047023Y-13285714D02*
X75856547Y-13952380D01*
X75666071Y-13476190D01*
X75475595Y-13952380D01*
X75285119Y-13285714D01*
X74904166Y-13857142D02*
X74856547Y-13904761D01*
X74904166Y-13952380D01*
X74951785Y-13904761D01*
X74904166Y-13857142D01*
X74904166Y-13952380D01*
X74427976Y-13285714D02*
X74427976Y-13952380D01*
X74427976Y-13380952D02*
X74380357Y-13333333D01*
X74285119Y-13285714D01*
X74142261Y-13285714D01*
X74047023Y-13333333D01*
X73999404Y-13428571D01*
X73999404Y-13952380D01*
X73142261Y-13904761D02*
X73237500Y-13952380D01*
X73427976Y-13952380D01*
X73523214Y-13904761D01*
X73570833Y-13809523D01*
X73570833Y-13428571D01*
X73523214Y-13333333D01*
X73427976Y-13285714D01*
X73237500Y-13285714D01*
X73142261Y-13333333D01*
X73094642Y-13428571D01*
X73094642Y-13523809D01*
X73570833Y-13619047D01*
X72808928Y-13285714D02*
X72427976Y-13285714D01*
X72666071Y-12952380D02*
X72666071Y-13809523D01*
X72618452Y-13904761D01*
X72523214Y-13952380D01*
X72427976Y-13952380D01*
D14*
X69034107Y-5397023D02*
X69938869Y-5397023D01*
X70029345Y-6301785D01*
X69938869Y-6211309D01*
X69757916Y-6120833D01*
X69305535Y-6120833D01*
X69124583Y-6211309D01*
X69034107Y-6301785D01*
X68943630Y-6482738D01*
X68943630Y-6935119D01*
X69034107Y-7116071D01*
X69124583Y-7206547D01*
X69305535Y-7297023D01*
X69757916Y-7297023D01*
X69938869Y-7206547D01*
X70029345Y-7116071D01*
X67134107Y-5487500D02*
X67315059Y-5397023D01*
X67586488Y-5397023D01*
X67857916Y-5487500D01*
X68038869Y-5668452D01*
X68129345Y-5849404D01*
X68219821Y-6211309D01*
X68219821Y-6482738D01*
X68129345Y-6844642D01*
X68038869Y-7025595D01*
X67857916Y-7206547D01*
X67586488Y-7297023D01*
X67405535Y-7297023D01*
X67134107Y-7206547D01*
X67043630Y-7116071D01*
X67043630Y-6482738D01*
X67405535Y-6482738D01*
X64781726Y-7297023D02*
X64781726Y-5397023D01*
X64148392Y-6754166D01*
X63515059Y-5397023D01*
X63515059Y-7297023D01*
X62610297Y-7116071D02*
X62519821Y-7206547D01*
X62610297Y-7297023D01*
X62700773Y-7206547D01*
X62610297Y-7116071D01*
X62610297Y-7297023D01*
X61796011Y-5577976D02*
X61705535Y-5487500D01*
X61524583Y-5397023D01*
X61072202Y-5397023D01*
X60891250Y-5487500D01*
X60800773Y-5577976D01*
X60710297Y-5758928D01*
X60710297Y-5939880D01*
X60800773Y-6211309D01*
X61886488Y-7297023D01*
X60710297Y-7297023D01*
X58448392Y-5397023D02*
X58448392Y-6935119D01*
X58357916Y-7116071D01*
X58267440Y-7206547D01*
X58086488Y-7297023D01*
X57724583Y-7297023D01*
X57543630Y-7206547D01*
X57453154Y-7116071D01*
X57362678Y-6935119D01*
X57362678Y-5397023D01*
X56548392Y-7206547D02*
X56276964Y-7297023D01*
X55824583Y-7297023D01*
X55643630Y-7206547D01*
X55553154Y-7116071D01*
X55462678Y-6935119D01*
X55462678Y-6754166D01*
X55553154Y-6573214D01*
X55643630Y-6482738D01*
X55824583Y-6392261D01*
X56186488Y-6301785D01*
X56367440Y-6211309D01*
X56457916Y-6120833D01*
X56548392Y-5939880D01*
X56548392Y-5758928D01*
X56457916Y-5577976D01*
X56367440Y-5487500D01*
X56186488Y-5397023D01*
X55734107Y-5397023D01*
X55462678Y-5487500D01*
X54015059Y-6301785D02*
X53743630Y-6392261D01*
X53653154Y-6482738D01*
X53562678Y-6663690D01*
X53562678Y-6935119D01*
X53653154Y-7116071D01*
X53743630Y-7206547D01*
X53924583Y-7297023D01*
X54648392Y-7297023D01*
X54648392Y-5397023D01*
X54015059Y-5397023D01*
X53834107Y-5487500D01*
X53743630Y-5577976D01*
X53653154Y-5758928D01*
X53653154Y-5939880D01*
X53743630Y-6120833D01*
X53834107Y-6211309D01*
X54015059Y-6301785D01*
X54648392Y-6301785D01*
X52929345Y-5397023D02*
X51753154Y-5397023D01*
X52386488Y-6120833D01*
X52115059Y-6120833D01*
X51934107Y-6211309D01*
X51843630Y-6301785D01*
X51753154Y-6482738D01*
X51753154Y-6935119D01*
X51843630Y-7116071D01*
X51934107Y-7206547D01*
X52115059Y-7297023D01*
X52657916Y-7297023D01*
X52838869Y-7206547D01*
X52929345Y-7116071D01*
X69938869Y-10622023D02*
X69938869Y-8722023D01*
X69034107Y-9355357D02*
X69034107Y-10622023D01*
X69034107Y-9536309D02*
X68943630Y-9445833D01*
X68762678Y-9355357D01*
X68491250Y-9355357D01*
X68310297Y-9445833D01*
X68219821Y-9626785D01*
X68219821Y-10622023D01*
X67586488Y-9355357D02*
X66862678Y-9355357D01*
X67315059Y-8722023D02*
X67315059Y-10350595D01*
X67224583Y-10531547D01*
X67043630Y-10622023D01*
X66862678Y-10622023D01*
X65505535Y-10531547D02*
X65686488Y-10622023D01*
X66048392Y-10622023D01*
X66229345Y-10531547D01*
X66319821Y-10350595D01*
X66319821Y-9626785D01*
X66229345Y-9445833D01*
X66048392Y-9355357D01*
X65686488Y-9355357D01*
X65505535Y-9445833D01*
X65415059Y-9626785D01*
X65415059Y-9807738D01*
X66319821Y-9988690D01*
X64600773Y-10622023D02*
X64600773Y-9355357D01*
X64600773Y-9717261D02*
X64510297Y-9536309D01*
X64419821Y-9445833D01*
X64238869Y-9355357D01*
X64057916Y-9355357D01*
X63696011Y-9355357D02*
X62972202Y-9355357D01*
X63424583Y-10622023D02*
X63424583Y-8993452D01*
X63334107Y-8812500D01*
X63153154Y-8722023D01*
X62972202Y-8722023D01*
X61524583Y-10622023D02*
X61524583Y-9626785D01*
X61615059Y-9445833D01*
X61796011Y-9355357D01*
X62157916Y-9355357D01*
X62338869Y-9445833D01*
X61524583Y-10531547D02*
X61705535Y-10622023D01*
X62157916Y-10622023D01*
X62338869Y-10531547D01*
X62429345Y-10350595D01*
X62429345Y-10169642D01*
X62338869Y-9988690D01*
X62157916Y-9898214D01*
X61705535Y-9898214D01*
X61524583Y-9807738D01*
X59805535Y-10531547D02*
X59986488Y-10622023D01*
X60348392Y-10622023D01*
X60529345Y-10531547D01*
X60619821Y-10441071D01*
X60710297Y-10260119D01*
X60710297Y-9717261D01*
X60619821Y-9536309D01*
X60529345Y-9445833D01*
X60348392Y-9355357D01*
X59986488Y-9355357D01*
X59805535Y-9445833D01*
X58267440Y-10531547D02*
X58448392Y-10622023D01*
X58810297Y-10622023D01*
X58991250Y-10531547D01*
X59081726Y-10350595D01*
X59081726Y-9626785D01*
X58991250Y-9445833D01*
X58810297Y-9355357D01*
X58448392Y-9355357D01*
X58267440Y-9445833D01*
X58176964Y-9626785D01*
X58176964Y-9807738D01*
X59081726Y-9988690D01*
X55281726Y-9626785D02*
X55010297Y-9717261D01*
X54919821Y-9807738D01*
X54829345Y-9988690D01*
X54829345Y-10260119D01*
X54919821Y-10441071D01*
X55010297Y-10531547D01*
X55191250Y-10622023D01*
X55915059Y-10622023D01*
X55915059Y-8722023D01*
X55281726Y-8722023D01*
X55100773Y-8812500D01*
X55010297Y-8902976D01*
X54919821Y-9083928D01*
X54919821Y-9264880D01*
X55010297Y-9445833D01*
X55100773Y-9536309D01*
X55281726Y-9626785D01*
X55915059Y-9626785D01*
X53743630Y-10622023D02*
X53924583Y-10531547D01*
X54015059Y-10441071D01*
X54105535Y-10260119D01*
X54105535Y-9717261D01*
X54015059Y-9536309D01*
X53924583Y-9445833D01*
X53743630Y-9355357D01*
X53472202Y-9355357D01*
X53291250Y-9445833D01*
X53200773Y-9536309D01*
X53110297Y-9717261D01*
X53110297Y-10260119D01*
X53200773Y-10441071D01*
X53291250Y-10531547D01*
X53472202Y-10622023D01*
X53743630Y-10622023D01*
X51481726Y-10622023D02*
X51481726Y-9626785D01*
X51572202Y-9445833D01*
X51753154Y-9355357D01*
X52115059Y-9355357D01*
X52296011Y-9445833D01*
X51481726Y-10531547D02*
X51662678Y-10622023D01*
X52115059Y-10622023D01*
X52296011Y-10531547D01*
X52386488Y-10350595D01*
X52386488Y-10169642D01*
X52296011Y-9988690D01*
X52115059Y-9898214D01*
X51662678Y-9898214D01*
X51481726Y-9807738D01*
X50576964Y-10622023D02*
X50576964Y-9355357D01*
X50576964Y-9717261D02*
X50486488Y-9536309D01*
X50396011Y-9445833D01*
X50215059Y-9355357D01*
X50034107Y-9355357D01*
X48586488Y-10622023D02*
X48586488Y-8722023D01*
X48586488Y-10531547D02*
X48767440Y-10622023D01*
X49129345Y-10622023D01*
X49310297Y-10531547D01*
X49400773Y-10441071D01*
X49491250Y-10260119D01*
X49491250Y-9717261D01*
X49400773Y-9536309D01*
X49310297Y-9445833D01*
X49129345Y-9355357D01*
X48767440Y-9355357D01*
X48586488Y-9445833D01*
D15*
G36*
X79558759Y-35419184D02*
G01*
X79532247Y-35432282D01*
X79499553Y-35455106D01*
X79475725Y-35479996D01*
X79459406Y-35511249D01*
X79449240Y-35553166D01*
X79443872Y-35610044D01*
X79441944Y-35686184D01*
X79441831Y-35718917D01*
X79442161Y-35790656D01*
X79443527Y-35841927D01*
X79446500Y-35877404D01*
X79451649Y-35901763D01*
X79459543Y-35919680D01*
X79467757Y-35931902D01*
X79520187Y-35983905D01*
X79581930Y-36015184D01*
X79648536Y-36024592D01*
X79715558Y-36010980D01*
X79736792Y-36001354D01*
X79787624Y-35974859D01*
X79787624Y-36390052D01*
X79750525Y-36370868D01*
X79701643Y-36356025D01*
X79641561Y-36352222D01*
X79581564Y-36359243D01*
X79536256Y-36375013D01*
X79498675Y-36405047D01*
X79466564Y-36448024D01*
X79464150Y-36452436D01*
X79453967Y-36473221D01*
X79446530Y-36494170D01*
X79441411Y-36519548D01*
X79438181Y-36553618D01*
X79436413Y-36600641D01*
X79435677Y-36664882D01*
X79435544Y-36737176D01*
X79435544Y-36967822D01*
X79573861Y-36967822D01*
X79573861Y-36542533D01*
X79612549Y-36509979D01*
X79652738Y-36483940D01*
X79690797Y-36479205D01*
X79729066Y-36491389D01*
X79749462Y-36503320D01*
X79764642Y-36520313D01*
X79775438Y-36545995D01*
X79782683Y-36583991D01*
X79787208Y-36637926D01*
X79789844Y-36711425D01*
X79790772Y-36760347D01*
X79793911Y-36961535D01*
X79859926Y-36965336D01*
X79925940Y-36969136D01*
X79925940Y-35720650D01*
X79787624Y-35720650D01*
X79784097Y-35790254D01*
X79772215Y-35838569D01*
X79750020Y-35868631D01*
X79715559Y-35883471D01*
X79680742Y-35886436D01*
X79641329Y-35883028D01*
X79615171Y-35869617D01*
X79598814Y-35851896D01*
X79585937Y-35832835D01*
X79578272Y-35811601D01*
X79574861Y-35781849D01*
X79574749Y-35737236D01*
X79575897Y-35699880D01*
X79578532Y-35643604D01*
X79582456Y-35606658D01*
X79589063Y-35583223D01*
X79599749Y-35567480D01*
X79609833Y-35558380D01*
X79651970Y-35538537D01*
X79701840Y-35535332D01*
X79730476Y-35542168D01*
X79758828Y-35566464D01*
X79777609Y-35613728D01*
X79786712Y-35683624D01*
X79787624Y-35720650D01*
X79925940Y-35720650D01*
X79925940Y-35408614D01*
X79856782Y-35408614D01*
X79815260Y-35410256D01*
X79793838Y-35416087D01*
X79787626Y-35427461D01*
X79787624Y-35427798D01*
X79784742Y-35438938D01*
X79772030Y-35437673D01*
X79746757Y-35425433D01*
X79687869Y-35406707D01*
X79621615Y-35404739D01*
X79558759Y-35419184D01*
G37*
X79558759Y-35419184D02*
X79532247Y-35432282D01*
X79499553Y-35455106D01*
X79475725Y-35479996D01*
X79459406Y-35511249D01*
X79449240Y-35553166D01*
X79443872Y-35610044D01*
X79441944Y-35686184D01*
X79441831Y-35718917D01*
X79442161Y-35790656D01*
X79443527Y-35841927D01*
X79446500Y-35877404D01*
X79451649Y-35901763D01*
X79459543Y-35919680D01*
X79467757Y-35931902D01*
X79520187Y-35983905D01*
X79581930Y-36015184D01*
X79648536Y-36024592D01*
X79715558Y-36010980D01*
X79736792Y-36001354D01*
X79787624Y-35974859D01*
X79787624Y-36390052D01*
X79750525Y-36370868D01*
X79701643Y-36356025D01*
X79641561Y-36352222D01*
X79581564Y-36359243D01*
X79536256Y-36375013D01*
X79498675Y-36405047D01*
X79466564Y-36448024D01*
X79464150Y-36452436D01*
X79453967Y-36473221D01*
X79446530Y-36494170D01*
X79441411Y-36519548D01*
X79438181Y-36553618D01*
X79436413Y-36600641D01*
X79435677Y-36664882D01*
X79435544Y-36737176D01*
X79435544Y-36967822D01*
X79573861Y-36967822D01*
X79573861Y-36542533D01*
X79612549Y-36509979D01*
X79652738Y-36483940D01*
X79690797Y-36479205D01*
X79729066Y-36491389D01*
X79749462Y-36503320D01*
X79764642Y-36520313D01*
X79775438Y-36545995D01*
X79782683Y-36583991D01*
X79787208Y-36637926D01*
X79789844Y-36711425D01*
X79790772Y-36760347D01*
X79793911Y-36961535D01*
X79859926Y-36965336D01*
X79925940Y-36969136D01*
X79925940Y-35720650D01*
X79787624Y-35720650D01*
X79784097Y-35790254D01*
X79772215Y-35838569D01*
X79750020Y-35868631D01*
X79715559Y-35883471D01*
X79680742Y-35886436D01*
X79641329Y-35883028D01*
X79615171Y-35869617D01*
X79598814Y-35851896D01*
X79585937Y-35832835D01*
X79578272Y-35811601D01*
X79574861Y-35781849D01*
X79574749Y-35737236D01*
X79575897Y-35699880D01*
X79578532Y-35643604D01*
X79582456Y-35606658D01*
X79589063Y-35583223D01*
X79599749Y-35567480D01*
X79609833Y-35558380D01*
X79651970Y-35538537D01*
X79701840Y-35535332D01*
X79730476Y-35542168D01*
X79758828Y-35566464D01*
X79777609Y-35613728D01*
X79786712Y-35683624D01*
X79787624Y-35720650D01*
X79925940Y-35720650D01*
X79925940Y-35408614D01*
X79856782Y-35408614D01*
X79815260Y-35410256D01*
X79793838Y-35416087D01*
X79787626Y-35427461D01*
X79787624Y-35427798D01*
X79784742Y-35438938D01*
X79772030Y-35437673D01*
X79746757Y-35425433D01*
X79687869Y-35406707D01*
X79621615Y-35404739D01*
X79558759Y-35419184D01*
G36*
X79034210Y-36356555D02*
G01*
X78975055Y-36372339D01*
X78930023Y-36400948D01*
X78898246Y-36438419D01*
X78888366Y-36454411D01*
X78881073Y-36471163D01*
X78875974Y-36492592D01*
X78872679Y-36522616D01*
X78870797Y-36565154D01*
X78869937Y-36624122D01*
X78869707Y-36703440D01*
X78869703Y-36724484D01*
X78869703Y-36967822D01*
X78930059Y-36967822D01*
X78968557Y-36965126D01*
X78997023Y-36958295D01*
X79004155Y-36954083D01*
X79023652Y-36946813D01*
X79043566Y-36954083D01*
X79076353Y-36963160D01*
X79123978Y-36966813D01*
X79176764Y-36965228D01*
X79225036Y-36958589D01*
X79253218Y-36950072D01*
X79307753Y-36915063D01*
X79341835Y-36866479D01*
X79357157Y-36801882D01*
X79357299Y-36800223D01*
X79355955Y-36771566D01*
X79234356Y-36771566D01*
X79223726Y-36804161D01*
X79206410Y-36822505D01*
X79171652Y-36836379D01*
X79125773Y-36841917D01*
X79078988Y-36839191D01*
X79041514Y-36828274D01*
X79031015Y-36821269D01*
X79012668Y-36788904D01*
X79008020Y-36752111D01*
X79008020Y-36703763D01*
X79077582Y-36703763D01*
X79143667Y-36708850D01*
X79193764Y-36723263D01*
X79224929Y-36745729D01*
X79234356Y-36771566D01*
X79355955Y-36771566D01*
X79353987Y-36729647D01*
X79330710Y-36673845D01*
X79286948Y-36631647D01*
X79280899Y-36627808D01*
X79254907Y-36615309D01*
X79222735Y-36607740D01*
X79177760Y-36604061D01*
X79124331Y-36603216D01*
X79008020Y-36603169D01*
X79008020Y-36554411D01*
X79012953Y-36516581D01*
X79025543Y-36491236D01*
X79027017Y-36489887D01*
X79055034Y-36478800D01*
X79097326Y-36474503D01*
X79144064Y-36476615D01*
X79185418Y-36484756D01*
X79209957Y-36496965D01*
X79223253Y-36506746D01*
X79237294Y-36508613D01*
X79256671Y-36500600D01*
X79285976Y-36480739D01*
X79329803Y-36447063D01*
X79333825Y-36443909D01*
X79331764Y-36432236D01*
X79314568Y-36412822D01*
X79288433Y-36391248D01*
X79259552Y-36373096D01*
X79250478Y-36368809D01*
X79217380Y-36360256D01*
X79168880Y-36354155D01*
X79114695Y-36351708D01*
X79112161Y-36351703D01*
X79034210Y-36356555D01*
G37*
X79034210Y-36356555D02*
X78975055Y-36372339D01*
X78930023Y-36400948D01*
X78898246Y-36438419D01*
X78888366Y-36454411D01*
X78881073Y-36471163D01*
X78875974Y-36492592D01*
X78872679Y-36522616D01*
X78870797Y-36565154D01*
X78869937Y-36624122D01*
X78869707Y-36703440D01*
X78869703Y-36724484D01*
X78869703Y-36967822D01*
X78930059Y-36967822D01*
X78968557Y-36965126D01*
X78997023Y-36958295D01*
X79004155Y-36954083D01*
X79023652Y-36946813D01*
X79043566Y-36954083D01*
X79076353Y-36963160D01*
X79123978Y-36966813D01*
X79176764Y-36965228D01*
X79225036Y-36958589D01*
X79253218Y-36950072D01*
X79307753Y-36915063D01*
X79341835Y-36866479D01*
X79357157Y-36801882D01*
X79357299Y-36800223D01*
X79355955Y-36771566D01*
X79234356Y-36771566D01*
X79223726Y-36804161D01*
X79206410Y-36822505D01*
X79171652Y-36836379D01*
X79125773Y-36841917D01*
X79078988Y-36839191D01*
X79041514Y-36828274D01*
X79031015Y-36821269D01*
X79012668Y-36788904D01*
X79008020Y-36752111D01*
X79008020Y-36703763D01*
X79077582Y-36703763D01*
X79143667Y-36708850D01*
X79193764Y-36723263D01*
X79224929Y-36745729D01*
X79234356Y-36771566D01*
X79355955Y-36771566D01*
X79353987Y-36729647D01*
X79330710Y-36673845D01*
X79286948Y-36631647D01*
X79280899Y-36627808D01*
X79254907Y-36615309D01*
X79222735Y-36607740D01*
X79177760Y-36604061D01*
X79124331Y-36603216D01*
X79008020Y-36603169D01*
X79008020Y-36554411D01*
X79012953Y-36516581D01*
X79025543Y-36491236D01*
X79027017Y-36489887D01*
X79055034Y-36478800D01*
X79097326Y-36474503D01*
X79144064Y-36476615D01*
X79185418Y-36484756D01*
X79209957Y-36496965D01*
X79223253Y-36506746D01*
X79237294Y-36508613D01*
X79256671Y-36500600D01*
X79285976Y-36480739D01*
X79329803Y-36447063D01*
X79333825Y-36443909D01*
X79331764Y-36432236D01*
X79314568Y-36412822D01*
X79288433Y-36391248D01*
X79259552Y-36373096D01*
X79250478Y-36368809D01*
X79217380Y-36360256D01*
X79168880Y-36354155D01*
X79114695Y-36351708D01*
X79112161Y-36351703D01*
X79034210Y-36356555D01*
G36*
X78643356Y-36353020D02*
G01*
X78624539Y-36358660D01*
X78618473Y-36371053D01*
X78618218Y-36376647D01*
X78617129Y-36392230D01*
X78609632Y-36394676D01*
X78589381Y-36383993D01*
X78577351Y-36376694D01*
X78539400Y-36361063D01*
X78494072Y-36353334D01*
X78446544Y-36352740D01*
X78401995Y-36358513D01*
X78365602Y-36369884D01*
X78342543Y-36386088D01*
X78337996Y-36406355D01*
X78340291Y-36411843D01*
X78357020Y-36434626D01*
X78382963Y-36462647D01*
X78387655Y-36467177D01*
X78412383Y-36488005D01*
X78433718Y-36494735D01*
X78463555Y-36490038D01*
X78475508Y-36486917D01*
X78512705Y-36479421D01*
X78538859Y-36482792D01*
X78560946Y-36494681D01*
X78581178Y-36510635D01*
X78596079Y-36530700D01*
X78606434Y-36558702D01*
X78613029Y-36598467D01*
X78616649Y-36653823D01*
X78618078Y-36728594D01*
X78618218Y-36773740D01*
X78618218Y-36967822D01*
X78743960Y-36967822D01*
X78743960Y-36351683D01*
X78681089Y-36351683D01*
X78643356Y-36353020D01*
G37*
X78643356Y-36353020D02*
X78624539Y-36358660D01*
X78618473Y-36371053D01*
X78618218Y-36376647D01*
X78617129Y-36392230D01*
X78609632Y-36394676D01*
X78589381Y-36383993D01*
X78577351Y-36376694D01*
X78539400Y-36361063D01*
X78494072Y-36353334D01*
X78446544Y-36352740D01*
X78401995Y-36358513D01*
X78365602Y-36369884D01*
X78342543Y-36386088D01*
X78337996Y-36406355D01*
X78340291Y-36411843D01*
X78357020Y-36434626D01*
X78382963Y-36462647D01*
X78387655Y-36467177D01*
X78412383Y-36488005D01*
X78433718Y-36494735D01*
X78463555Y-36490038D01*
X78475508Y-36486917D01*
X78512705Y-36479421D01*
X78538859Y-36482792D01*
X78560946Y-36494681D01*
X78581178Y-36510635D01*
X78596079Y-36530700D01*
X78606434Y-36558702D01*
X78613029Y-36598467D01*
X78616649Y-36653823D01*
X78618078Y-36728594D01*
X78618218Y-36773740D01*
X78618218Y-36967822D01*
X78743960Y-36967822D01*
X78743960Y-36351683D01*
X78681089Y-36351683D01*
X78643356Y-36353020D01*
G36*
X77851188Y-36967822D02*
G01*
X77920346Y-36967822D01*
X77960488Y-36966645D01*
X77981394Y-36961772D01*
X77988922Y-36951186D01*
X77989505Y-36944029D01*
X77990774Y-36929676D01*
X77998779Y-36926923D01*
X78019815Y-36935771D01*
X78036173Y-36944029D01*
X78098977Y-36963597D01*
X78167248Y-36964729D01*
X78222752Y-36950135D01*
X78274438Y-36914877D01*
X78313838Y-36862835D01*
X78335413Y-36801450D01*
X78335962Y-36798018D01*
X78339167Y-36760571D01*
X78340761Y-36706813D01*
X78340633Y-36666155D01*
X78203279Y-36666155D01*
X78200097Y-36720194D01*
X78192859Y-36764735D01*
X78183060Y-36789888D01*
X78145989Y-36824260D01*
X78101974Y-36836582D01*
X78056584Y-36826618D01*
X78017797Y-36796895D01*
X78003108Y-36776905D01*
X77994519Y-36753050D01*
X77990496Y-36718230D01*
X77989505Y-36665930D01*
X77991278Y-36614139D01*
X77995963Y-36568634D01*
X78002603Y-36538181D01*
X78003710Y-36535452D01*
X78030491Y-36503000D01*
X78069579Y-36485183D01*
X78113315Y-36482306D01*
X78154038Y-36494674D01*
X78184087Y-36522593D01*
X78187204Y-36528148D01*
X78196961Y-36562022D01*
X78202277Y-36610728D01*
X78203279Y-36666155D01*
X78340633Y-36666155D01*
X78340568Y-36645540D01*
X78339664Y-36612563D01*
X78333514Y-36530981D01*
X78320733Y-36469730D01*
X78299471Y-36424449D01*
X78267878Y-36390779D01*
X78237207Y-36371014D01*
X78194354Y-36357120D01*
X78141056Y-36352354D01*
X78086480Y-36356236D01*
X78039792Y-36368282D01*
X78015124Y-36382693D01*
X77989505Y-36405878D01*
X77989505Y-36112773D01*
X77851188Y-36112773D01*
X77851188Y-36967822D01*
G37*
X77851188Y-36967822D02*
X77920346Y-36967822D01*
X77960488Y-36966645D01*
X77981394Y-36961772D01*
X77988922Y-36951186D01*
X77989505Y-36944029D01*
X77990774Y-36929676D01*
X77998779Y-36926923D01*
X78019815Y-36935771D01*
X78036173Y-36944029D01*
X78098977Y-36963597D01*
X78167248Y-36964729D01*
X78222752Y-36950135D01*
X78274438Y-36914877D01*
X78313838Y-36862835D01*
X78335413Y-36801450D01*
X78335962Y-36798018D01*
X78339167Y-36760571D01*
X78340761Y-36706813D01*
X78340633Y-36666155D01*
X78203279Y-36666155D01*
X78200097Y-36720194D01*
X78192859Y-36764735D01*
X78183060Y-36789888D01*
X78145989Y-36824260D01*
X78101974Y-36836582D01*
X78056584Y-36826618D01*
X78017797Y-36796895D01*
X78003108Y-36776905D01*
X77994519Y-36753050D01*
X77990496Y-36718230D01*
X77989505Y-36665930D01*
X77991278Y-36614139D01*
X77995963Y-36568634D01*
X78002603Y-36538181D01*
X78003710Y-36535452D01*
X78030491Y-36503000D01*
X78069579Y-36485183D01*
X78113315Y-36482306D01*
X78154038Y-36494674D01*
X78184087Y-36522593D01*
X78187204Y-36528148D01*
X78196961Y-36562022D01*
X78202277Y-36610728D01*
X78203279Y-36666155D01*
X78340633Y-36666155D01*
X78340568Y-36645540D01*
X78339664Y-36612563D01*
X78333514Y-36530981D01*
X78320733Y-36469730D01*
X78299471Y-36424449D01*
X78267878Y-36390779D01*
X78237207Y-36371014D01*
X78194354Y-36357120D01*
X78141056Y-36352354D01*
X78086480Y-36356236D01*
X78039792Y-36368282D01*
X78015124Y-36382693D01*
X77989505Y-36405878D01*
X77989505Y-36112773D01*
X77851188Y-36112773D01*
X77851188Y-36967822D01*
G36*
X77368476Y-36354237D02*
G01*
X77318745Y-36357971D01*
X77188709Y-36747773D01*
X77168322Y-36678614D01*
X77156054Y-36635874D01*
X77139915Y-36578115D01*
X77122488Y-36514625D01*
X77113274Y-36480570D01*
X77078612Y-36351683D01*
X76935609Y-36351683D01*
X76978354Y-36486857D01*
X76999404Y-36553342D01*
X77024833Y-36633539D01*
X77051390Y-36717193D01*
X77075098Y-36791782D01*
X77129098Y-36961535D01*
X77187402Y-36965328D01*
X77245705Y-36969122D01*
X77277321Y-36864734D01*
X77296818Y-36799889D01*
X77318096Y-36728400D01*
X77336692Y-36665263D01*
X77337426Y-36662750D01*
X77351316Y-36619969D01*
X77363571Y-36590779D01*
X77372154Y-36579741D01*
X77373918Y-36581018D01*
X77380109Y-36598130D01*
X77391872Y-36634787D01*
X77407775Y-36686378D01*
X77426386Y-36748294D01*
X77436457Y-36782352D01*
X77490993Y-36967822D01*
X77606736Y-36967822D01*
X77699263Y-36675471D01*
X77725256Y-36593462D01*
X77748934Y-36518987D01*
X77769180Y-36455544D01*
X77784874Y-36406632D01*
X77794898Y-36375749D01*
X77797945Y-36366726D01*
X77795533Y-36357487D01*
X77776592Y-36353441D01*
X77737177Y-36353846D01*
X77731007Y-36354152D01*
X77657914Y-36357971D01*
X77610043Y-36534010D01*
X77592447Y-36598211D01*
X77576723Y-36654649D01*
X77564254Y-36698422D01*
X77556426Y-36724630D01*
X77554980Y-36728903D01*
X77548986Y-36723990D01*
X77536899Y-36698532D01*
X77520107Y-36655997D01*
X77499997Y-36599850D01*
X77482997Y-36549130D01*
X77418206Y-36350504D01*
X77368476Y-36354237D01*
G37*
X77368476Y-36354237D02*
X77318745Y-36357971D01*
X77188709Y-36747773D01*
X77168322Y-36678614D01*
X77156054Y-36635874D01*
X77139915Y-36578115D01*
X77122488Y-36514625D01*
X77113274Y-36480570D01*
X77078612Y-36351683D01*
X76935609Y-36351683D01*
X76978354Y-36486857D01*
X76999404Y-36553342D01*
X77024833Y-36633539D01*
X77051390Y-36717193D01*
X77075098Y-36791782D01*
X77129098Y-36961535D01*
X77187402Y-36965328D01*
X77245705Y-36969122D01*
X77277321Y-36864734D01*
X77296818Y-36799889D01*
X77318096Y-36728400D01*
X77336692Y-36665263D01*
X77337426Y-36662750D01*
X77351316Y-36619969D01*
X77363571Y-36590779D01*
X77372154Y-36579741D01*
X77373918Y-36581018D01*
X77380109Y-36598130D01*
X77391872Y-36634787D01*
X77407775Y-36686378D01*
X77426386Y-36748294D01*
X77436457Y-36782352D01*
X77490993Y-36967822D01*
X77606736Y-36967822D01*
X77699263Y-36675471D01*
X77725256Y-36593462D01*
X77748934Y-36518987D01*
X77769180Y-36455544D01*
X77784874Y-36406632D01*
X77794898Y-36375749D01*
X77797945Y-36366726D01*
X77795533Y-36357487D01*
X77776592Y-36353441D01*
X77737177Y-36353846D01*
X77731007Y-36354152D01*
X77657914Y-36357971D01*
X77610043Y-36534010D01*
X77592447Y-36598211D01*
X77576723Y-36654649D01*
X77564254Y-36698422D01*
X77556426Y-36724630D01*
X77554980Y-36728903D01*
X77548986Y-36723990D01*
X77536899Y-36698532D01*
X77520107Y-36655997D01*
X77499997Y-36599850D01*
X77482997Y-36549130D01*
X77418206Y-36350504D01*
X77368476Y-36354237D01*
G36*
X76611589Y-36355417D02*
G01*
X76558589Y-36368290D01*
X76543269Y-36375110D01*
X76513572Y-36392974D01*
X76490780Y-36413093D01*
X76473917Y-36438962D01*
X76462002Y-36474073D01*
X76454058Y-36521920D01*
X76449106Y-36585996D01*
X76446169Y-36669794D01*
X76445053Y-36725768D01*
X76440948Y-36967822D01*
X76511068Y-36967822D01*
X76553607Y-36966038D01*
X76575524Y-36959942D01*
X76581188Y-36949706D01*
X76584179Y-36938637D01*
X76597549Y-36940754D01*
X76615767Y-36949629D01*
X76661376Y-36963233D01*
X76719993Y-36966899D01*
X76781646Y-36960903D01*
X76836362Y-36945521D01*
X76841270Y-36943386D01*
X76891277Y-36908255D01*
X76924244Y-36859419D01*
X76939413Y-36802333D01*
X76938254Y-36781824D01*
X76814492Y-36781824D01*
X76803587Y-36809425D01*
X76771255Y-36829204D01*
X76719090Y-36839819D01*
X76691213Y-36841228D01*
X76644753Y-36837620D01*
X76613871Y-36823597D01*
X76606336Y-36816931D01*
X76585924Y-36780666D01*
X76581188Y-36747773D01*
X76581188Y-36703763D01*
X76642487Y-36703763D01*
X76713744Y-36707395D01*
X76763724Y-36718818D01*
X76795304Y-36738824D01*
X76802374Y-36747743D01*
X76814492Y-36781824D01*
X76938254Y-36781824D01*
X76936029Y-36742456D01*
X76913337Y-36685244D01*
X76882376Y-36646580D01*
X76863624Y-36629864D01*
X76845267Y-36618878D01*
X76821381Y-36612180D01*
X76786043Y-36608326D01*
X76733331Y-36605873D01*
X76712423Y-36605168D01*
X76581188Y-36600879D01*
X76581380Y-36561158D01*
X76586463Y-36519405D01*
X76604838Y-36494158D01*
X76641961Y-36478030D01*
X76642957Y-36477742D01*
X76695590Y-36471400D01*
X76747094Y-36479684D01*
X76785370Y-36499827D01*
X76800728Y-36509773D01*
X76817270Y-36508397D01*
X76842725Y-36493987D01*
X76857672Y-36483817D01*
X76886909Y-36462088D01*
X76905020Y-36445800D01*
X76907926Y-36441137D01*
X76895960Y-36417005D01*
X76860604Y-36388185D01*
X76845247Y-36378461D01*
X76801099Y-36361714D01*
X76741602Y-36352227D01*
X76675513Y-36350095D01*
X76611589Y-36355417D01*
G37*
X76611589Y-36355417D02*
X76558589Y-36368290D01*
X76543269Y-36375110D01*
X76513572Y-36392974D01*
X76490780Y-36413093D01*
X76473917Y-36438962D01*
X76462002Y-36474073D01*
X76454058Y-36521920D01*
X76449106Y-36585996D01*
X76446169Y-36669794D01*
X76445053Y-36725768D01*
X76440948Y-36967822D01*
X76511068Y-36967822D01*
X76553607Y-36966038D01*
X76575524Y-36959942D01*
X76581188Y-36949706D01*
X76584179Y-36938637D01*
X76597549Y-36940754D01*
X76615767Y-36949629D01*
X76661376Y-36963233D01*
X76719993Y-36966899D01*
X76781646Y-36960903D01*
X76836362Y-36945521D01*
X76841270Y-36943386D01*
X76891277Y-36908255D01*
X76924244Y-36859419D01*
X76939413Y-36802333D01*
X76938254Y-36781824D01*
X76814492Y-36781824D01*
X76803587Y-36809425D01*
X76771255Y-36829204D01*
X76719090Y-36839819D01*
X76691213Y-36841228D01*
X76644753Y-36837620D01*
X76613871Y-36823597D01*
X76606336Y-36816931D01*
X76585924Y-36780666D01*
X76581188Y-36747773D01*
X76581188Y-36703763D01*
X76642487Y-36703763D01*
X76713744Y-36707395D01*
X76763724Y-36718818D01*
X76795304Y-36738824D01*
X76802374Y-36747743D01*
X76814492Y-36781824D01*
X76938254Y-36781824D01*
X76936029Y-36742456D01*
X76913337Y-36685244D01*
X76882376Y-36646580D01*
X76863624Y-36629864D01*
X76845267Y-36618878D01*
X76821381Y-36612180D01*
X76786043Y-36608326D01*
X76733331Y-36605873D01*
X76712423Y-36605168D01*
X76581188Y-36600879D01*
X76581380Y-36561158D01*
X76586463Y-36519405D01*
X76604838Y-36494158D01*
X76641961Y-36478030D01*
X76642957Y-36477742D01*
X76695590Y-36471400D01*
X76747094Y-36479684D01*
X76785370Y-36499827D01*
X76800728Y-36509773D01*
X76817270Y-36508397D01*
X76842725Y-36493987D01*
X76857672Y-36483817D01*
X76886909Y-36462088D01*
X76905020Y-36445800D01*
X76907926Y-36441137D01*
X76895960Y-36417005D01*
X76860604Y-36388185D01*
X76845247Y-36378461D01*
X76801099Y-36361714D01*
X76741602Y-36352227D01*
X76675513Y-36350095D01*
X76611589Y-36355417D01*
G36*
X76014745Y-36351486D02*
G01*
X75966405Y-36361015D01*
X75938886Y-36375125D01*
X75909936Y-36398568D01*
X75951124Y-36450571D01*
X75976518Y-36482064D01*
X75993762Y-36497428D01*
X76010898Y-36499776D01*
X76035973Y-36492217D01*
X76047743Y-36487941D01*
X76095730Y-36481631D01*
X76139676Y-36495156D01*
X76171940Y-36525710D01*
X76177181Y-36535452D01*
X76182888Y-36561258D01*
X76187294Y-36608817D01*
X76190189Y-36674758D01*
X76191369Y-36755710D01*
X76191386Y-36767226D01*
X76191386Y-36967822D01*
X76329703Y-36967822D01*
X76329703Y-36351683D01*
X76260544Y-36351683D01*
X76220667Y-36352725D01*
X76199893Y-36357358D01*
X76192211Y-36367849D01*
X76191386Y-36377745D01*
X76191386Y-36403806D01*
X76158255Y-36377745D01*
X76120265Y-36359965D01*
X76069230Y-36351174D01*
X76014745Y-36351486D01*
G37*
X76014745Y-36351486D02*
X75966405Y-36361015D01*
X75938886Y-36375125D01*
X75909936Y-36398568D01*
X75951124Y-36450571D01*
X75976518Y-36482064D01*
X75993762Y-36497428D01*
X76010898Y-36499776D01*
X76035973Y-36492217D01*
X76047743Y-36487941D01*
X76095730Y-36481631D01*
X76139676Y-36495156D01*
X76171940Y-36525710D01*
X76177181Y-36535452D01*
X76182888Y-36561258D01*
X76187294Y-36608817D01*
X76190189Y-36674758D01*
X76191369Y-36755710D01*
X76191386Y-36767226D01*
X76191386Y-36967822D01*
X76329703Y-36967822D01*
X76329703Y-36351683D01*
X76260544Y-36351683D01*
X76220667Y-36352725D01*
X76199893Y-36357358D01*
X76192211Y-36367849D01*
X76191386Y-36377745D01*
X76191386Y-36403806D01*
X76158255Y-36377745D01*
X76120265Y-36359965D01*
X76069230Y-36351174D01*
X76014745Y-36351486D01*
G36*
X75617419Y-36354970D02*
G01*
X75557315Y-36370597D01*
X75506979Y-36402848D01*
X75482607Y-36426940D01*
X75442655Y-36483895D01*
X75419758Y-36549965D01*
X75411892Y-36631182D01*
X75411852Y-36637748D01*
X75411782Y-36703763D01*
X75791736Y-36703763D01*
X75783637Y-36738342D01*
X75769013Y-36769659D01*
X75743419Y-36802291D01*
X75738065Y-36807500D01*
X75692057Y-36835694D01*
X75639590Y-36840475D01*
X75579197Y-36821926D01*
X75568960Y-36816931D01*
X75537561Y-36801745D01*
X75516530Y-36793094D01*
X75512861Y-36792293D01*
X75500052Y-36800063D01*
X75475622Y-36819072D01*
X75463221Y-36829460D01*
X75437524Y-36853321D01*
X75429085Y-36869077D01*
X75434942Y-36883571D01*
X75438072Y-36887534D01*
X75459275Y-36904879D01*
X75494262Y-36925959D01*
X75518663Y-36938265D01*
X75587928Y-36959946D01*
X75664612Y-36966971D01*
X75737235Y-36958647D01*
X75757574Y-36952686D01*
X75820524Y-36918952D01*
X75867185Y-36867045D01*
X75897827Y-36796459D01*
X75912718Y-36706692D01*
X75914353Y-36659753D01*
X75909579Y-36591413D01*
X75789010Y-36591413D01*
X75777348Y-36596465D01*
X75746002Y-36600429D01*
X75700429Y-36602768D01*
X75669554Y-36603169D01*
X75614019Y-36602783D01*
X75578967Y-36600975D01*
X75559738Y-36596773D01*
X75551670Y-36589203D01*
X75550099Y-36578218D01*
X75560879Y-36544381D01*
X75588020Y-36510940D01*
X75623723Y-36485272D01*
X75659440Y-36474772D01*
X75707952Y-36484086D01*
X75749947Y-36511013D01*
X75779064Y-36549827D01*
X75789010Y-36591413D01*
X75909579Y-36591413D01*
X75907401Y-36560236D01*
X75885945Y-36480949D01*
X75849530Y-36421263D01*
X75797703Y-36380549D01*
X75730010Y-36358179D01*
X75693338Y-36353871D01*
X75617419Y-36354970D01*
G37*
X75617419Y-36354970D02*
X75557315Y-36370597D01*
X75506979Y-36402848D01*
X75482607Y-36426940D01*
X75442655Y-36483895D01*
X75419758Y-36549965D01*
X75411892Y-36631182D01*
X75411852Y-36637748D01*
X75411782Y-36703763D01*
X75791736Y-36703763D01*
X75783637Y-36738342D01*
X75769013Y-36769659D01*
X75743419Y-36802291D01*
X75738065Y-36807500D01*
X75692057Y-36835694D01*
X75639590Y-36840475D01*
X75579197Y-36821926D01*
X75568960Y-36816931D01*
X75537561Y-36801745D01*
X75516530Y-36793094D01*
X75512861Y-36792293D01*
X75500052Y-36800063D01*
X75475622Y-36819072D01*
X75463221Y-36829460D01*
X75437524Y-36853321D01*
X75429085Y-36869077D01*
X75434942Y-36883571D01*
X75438072Y-36887534D01*
X75459275Y-36904879D01*
X75494262Y-36925959D01*
X75518663Y-36938265D01*
X75587928Y-36959946D01*
X75664612Y-36966971D01*
X75737235Y-36958647D01*
X75757574Y-36952686D01*
X75820524Y-36918952D01*
X75867185Y-36867045D01*
X75897827Y-36796459D01*
X75912718Y-36706692D01*
X75914353Y-36659753D01*
X75909579Y-36591413D01*
X75789010Y-36591413D01*
X75777348Y-36596465D01*
X75746002Y-36600429D01*
X75700429Y-36602768D01*
X75669554Y-36603169D01*
X75614019Y-36602783D01*
X75578967Y-36600975D01*
X75559738Y-36596773D01*
X75551670Y-36589203D01*
X75550099Y-36578218D01*
X75560879Y-36544381D01*
X75588020Y-36510940D01*
X75623723Y-36485272D01*
X75659440Y-36474772D01*
X75707952Y-36484086D01*
X75749947Y-36511013D01*
X75779064Y-36549827D01*
X75789010Y-36591413D01*
X75909579Y-36591413D01*
X75907401Y-36560236D01*
X75885945Y-36480949D01*
X75849530Y-36421263D01*
X75797703Y-36380549D01*
X75730010Y-36358179D01*
X75693338Y-36353871D01*
X75617419Y-36354970D01*
G36*
X80188261Y-35415148D02*
G01*
X80122479Y-35444231D01*
X80072540Y-35492793D01*
X80038374Y-35560908D01*
X80019907Y-35648651D01*
X80018583Y-35662351D01*
X80017546Y-35758939D01*
X80030993Y-35843602D01*
X80058108Y-35912221D01*
X80072627Y-35934294D01*
X80123201Y-35981011D01*
X80187609Y-36011268D01*
X80259666Y-36023824D01*
X80333185Y-36017439D01*
X80389072Y-35997772D01*
X80437132Y-35964629D01*
X80476412Y-35921175D01*
X80477092Y-35920158D01*
X80493044Y-35893338D01*
X80503410Y-35866368D01*
X80509688Y-35832332D01*
X80513373Y-35784310D01*
X80514997Y-35744931D01*
X80515672Y-35709219D01*
X80389955Y-35709219D01*
X80388726Y-35744770D01*
X80384266Y-35792094D01*
X80376397Y-35822465D01*
X80362207Y-35844072D01*
X80348917Y-35856694D01*
X80301802Y-35883122D01*
X80252505Y-35886653D01*
X80206593Y-35867639D01*
X80183638Y-35846331D01*
X80167096Y-35824859D01*
X80157421Y-35804313D01*
X80153174Y-35777574D01*
X80152920Y-35737523D01*
X80154228Y-35700638D01*
X80157043Y-35647947D01*
X80161505Y-35613772D01*
X80169548Y-35591480D01*
X80183103Y-35574442D01*
X80193845Y-35564703D01*
X80238777Y-35539123D01*
X80287249Y-35537847D01*
X80327894Y-35552999D01*
X80362567Y-35584642D01*
X80383224Y-35636620D01*
X80389955Y-35709219D01*
X80515672Y-35709219D01*
X80516479Y-35666621D01*
X80513948Y-35608056D01*
X80506362Y-35564007D01*
X80492681Y-35529248D01*
X80471865Y-35498551D01*
X80464147Y-35489436D01*
X80415889Y-35444021D01*
X80364128Y-35417493D01*
X80300828Y-35406379D01*
X80269961Y-35405471D01*
X80188261Y-35415148D01*
G37*
X80188261Y-35415148D02*
X80122479Y-35444231D01*
X80072540Y-35492793D01*
X80038374Y-35560908D01*
X80019907Y-35648651D01*
X80018583Y-35662351D01*
X80017546Y-35758939D01*
X80030993Y-35843602D01*
X80058108Y-35912221D01*
X80072627Y-35934294D01*
X80123201Y-35981011D01*
X80187609Y-36011268D01*
X80259666Y-36023824D01*
X80333185Y-36017439D01*
X80389072Y-35997772D01*
X80437132Y-35964629D01*
X80476412Y-35921175D01*
X80477092Y-35920158D01*
X80493044Y-35893338D01*
X80503410Y-35866368D01*
X80509688Y-35832332D01*
X80513373Y-35784310D01*
X80514997Y-35744931D01*
X80515672Y-35709219D01*
X80389955Y-35709219D01*
X80388726Y-35744770D01*
X80384266Y-35792094D01*
X80376397Y-35822465D01*
X80362207Y-35844072D01*
X80348917Y-35856694D01*
X80301802Y-35883122D01*
X80252505Y-35886653D01*
X80206593Y-35867639D01*
X80183638Y-35846331D01*
X80167096Y-35824859D01*
X80157421Y-35804313D01*
X80153174Y-35777574D01*
X80152920Y-35737523D01*
X80154228Y-35700638D01*
X80157043Y-35647947D01*
X80161505Y-35613772D01*
X80169548Y-35591480D01*
X80183103Y-35574442D01*
X80193845Y-35564703D01*
X80238777Y-35539123D01*
X80287249Y-35537847D01*
X80327894Y-35552999D01*
X80362567Y-35584642D01*
X80383224Y-35636620D01*
X80389955Y-35709219D01*
X80515672Y-35709219D01*
X80516479Y-35666621D01*
X80513948Y-35608056D01*
X80506362Y-35564007D01*
X80492681Y-35529248D01*
X80471865Y-35498551D01*
X80464147Y-35489436D01*
X80415889Y-35444021D01*
X80364128Y-35417493D01*
X80300828Y-35406379D01*
X80269961Y-35405471D01*
X80188261Y-35415148D01*
G36*
X79006699Y-35422614D02*
G01*
X78994168Y-35428514D01*
X78950799Y-35460283D01*
X78909790Y-35506646D01*
X78879168Y-35557696D01*
X78870459Y-35581166D01*
X78862512Y-35623091D01*
X78857774Y-35673757D01*
X78857199Y-35694679D01*
X78857129Y-35760693D01*
X79237083Y-35760693D01*
X79228983Y-35795273D01*
X79209104Y-35836170D01*
X79174347Y-35871514D01*
X79132998Y-35894282D01*
X79106649Y-35899010D01*
X79070916Y-35893273D01*
X79028282Y-35878882D01*
X79013799Y-35872262D01*
X78960240Y-35845513D01*
X78914533Y-35880376D01*
X78888158Y-35903955D01*
X78874124Y-35923417D01*
X78873414Y-35929129D01*
X78885951Y-35942973D01*
X78913428Y-35964012D01*
X78938366Y-35980425D01*
X79005664Y-36009930D01*
X79081110Y-36023284D01*
X79155888Y-36019812D01*
X79215495Y-36001663D01*
X79276941Y-35962784D01*
X79320608Y-35911595D01*
X79347926Y-35845367D01*
X79360322Y-35761371D01*
X79361421Y-35722936D01*
X79357022Y-35634861D01*
X79356482Y-35632299D01*
X79230582Y-35632299D01*
X79227115Y-35640558D01*
X79212863Y-35645113D01*
X79183470Y-35647065D01*
X79134575Y-35647517D01*
X79115748Y-35647525D01*
X79058467Y-35646843D01*
X79022141Y-35644364D01*
X79002604Y-35639443D01*
X78995690Y-35631434D01*
X78995445Y-35628862D01*
X79003336Y-35608423D01*
X79023085Y-35579789D01*
X79031575Y-35569763D01*
X79063094Y-35541408D01*
X79095949Y-35530259D01*
X79113651Y-35529327D01*
X79161539Y-35540981D01*
X79201699Y-35572285D01*
X79227173Y-35617752D01*
X79227625Y-35619233D01*
X79230582Y-35632299D01*
X79356482Y-35632299D01*
X79342392Y-35565510D01*
X79316038Y-35510025D01*
X79283807Y-35470639D01*
X79224217Y-35427931D01*
X79154168Y-35405109D01*
X79079661Y-35403046D01*
X79006699Y-35422614D01*
G37*
X79006699Y-35422614D02*
X78994168Y-35428514D01*
X78950799Y-35460283D01*
X78909790Y-35506646D01*
X78879168Y-35557696D01*
X78870459Y-35581166D01*
X78862512Y-35623091D01*
X78857774Y-35673757D01*
X78857199Y-35694679D01*
X78857129Y-35760693D01*
X79237083Y-35760693D01*
X79228983Y-35795273D01*
X79209104Y-35836170D01*
X79174347Y-35871514D01*
X79132998Y-35894282D01*
X79106649Y-35899010D01*
X79070916Y-35893273D01*
X79028282Y-35878882D01*
X79013799Y-35872262D01*
X78960240Y-35845513D01*
X78914533Y-35880376D01*
X78888158Y-35903955D01*
X78874124Y-35923417D01*
X78873414Y-35929129D01*
X78885951Y-35942973D01*
X78913428Y-35964012D01*
X78938366Y-35980425D01*
X79005664Y-36009930D01*
X79081110Y-36023284D01*
X79155888Y-36019812D01*
X79215495Y-36001663D01*
X79276941Y-35962784D01*
X79320608Y-35911595D01*
X79347926Y-35845367D01*
X79360322Y-35761371D01*
X79361421Y-35722936D01*
X79357022Y-35634861D01*
X79356482Y-35632299D01*
X79230582Y-35632299D01*
X79227115Y-35640558D01*
X79212863Y-35645113D01*
X79183470Y-35647065D01*
X79134575Y-35647517D01*
X79115748Y-35647525D01*
X79058467Y-35646843D01*
X79022141Y-35644364D01*
X79002604Y-35639443D01*
X78995690Y-35631434D01*
X78995445Y-35628862D01*
X79003336Y-35608423D01*
X79023085Y-35579789D01*
X79031575Y-35569763D01*
X79063094Y-35541408D01*
X79095949Y-35530259D01*
X79113651Y-35529327D01*
X79161539Y-35540981D01*
X79201699Y-35572285D01*
X79227173Y-35617752D01*
X79227625Y-35619233D01*
X79230582Y-35632299D01*
X79356482Y-35632299D01*
X79342392Y-35565510D01*
X79316038Y-35510025D01*
X79283807Y-35470639D01*
X79224217Y-35427931D01*
X79154168Y-35405109D01*
X79079661Y-35403046D01*
X79006699Y-35422614D01*
G36*
X77635983Y-35406452D02*
G01*
X77588366Y-35415482D01*
X77538966Y-35434370D01*
X77533688Y-35436777D01*
X77496226Y-35456476D01*
X77470283Y-35474781D01*
X77461897Y-35486508D01*
X77469883Y-35505632D01*
X77489280Y-35533850D01*
X77497890Y-35544384D01*
X77533372Y-35585847D01*
X77579115Y-35558858D01*
X77622650Y-35540878D01*
X77672950Y-35531267D01*
X77721188Y-35530660D01*
X77758533Y-35539691D01*
X77767495Y-35545327D01*
X77784563Y-35571171D01*
X77786637Y-35600941D01*
X77773866Y-35624197D01*
X77766312Y-35628708D01*
X77743675Y-35634309D01*
X77703885Y-35640892D01*
X77654834Y-35647183D01*
X77645785Y-35648170D01*
X77567004Y-35661798D01*
X77509864Y-35684946D01*
X77471970Y-35719752D01*
X77450921Y-35768354D01*
X77444365Y-35827718D01*
X77453423Y-35895198D01*
X77482836Y-35948188D01*
X77532722Y-35986783D01*
X77603200Y-36011081D01*
X77681435Y-36020667D01*
X77745234Y-36020552D01*
X77796984Y-36011845D01*
X77832327Y-35999825D01*
X77876983Y-35978880D01*
X77918253Y-35954574D01*
X77932921Y-35943876D01*
X77970643Y-35913084D01*
X77925148Y-35867049D01*
X77879653Y-35821013D01*
X77827928Y-35855243D01*
X77776048Y-35880952D01*
X77720649Y-35894399D01*
X77667395Y-35895818D01*
X77621951Y-35885443D01*
X77589984Y-35863507D01*
X77579662Y-35844998D01*
X77581211Y-35815314D01*
X77606860Y-35792615D01*
X77656540Y-35776940D01*
X77710969Y-35769695D01*
X77794736Y-35755873D01*
X77856967Y-35729796D01*
X77898493Y-35690699D01*
X77920147Y-35637820D01*
X77923147Y-35575126D01*
X77908329Y-35509642D01*
X77874546Y-35460144D01*
X77821495Y-35426408D01*
X77748874Y-35408207D01*
X77695072Y-35404639D01*
X77635983Y-35406452D01*
G37*
X77635983Y-35406452D02*
X77588366Y-35415482D01*
X77538966Y-35434370D01*
X77533688Y-35436777D01*
X77496226Y-35456476D01*
X77470283Y-35474781D01*
X77461897Y-35486508D01*
X77469883Y-35505632D01*
X77489280Y-35533850D01*
X77497890Y-35544384D01*
X77533372Y-35585847D01*
X77579115Y-35558858D01*
X77622650Y-35540878D01*
X77672950Y-35531267D01*
X77721188Y-35530660D01*
X77758533Y-35539691D01*
X77767495Y-35545327D01*
X77784563Y-35571171D01*
X77786637Y-35600941D01*
X77773866Y-35624197D01*
X77766312Y-35628708D01*
X77743675Y-35634309D01*
X77703885Y-35640892D01*
X77654834Y-35647183D01*
X77645785Y-35648170D01*
X77567004Y-35661798D01*
X77509864Y-35684946D01*
X77471970Y-35719752D01*
X77450921Y-35768354D01*
X77444365Y-35827718D01*
X77453423Y-35895198D01*
X77482836Y-35948188D01*
X77532722Y-35986783D01*
X77603200Y-36011081D01*
X77681435Y-36020667D01*
X77745234Y-36020552D01*
X77796984Y-36011845D01*
X77832327Y-35999825D01*
X77876983Y-35978880D01*
X77918253Y-35954574D01*
X77932921Y-35943876D01*
X77970643Y-35913084D01*
X77925148Y-35867049D01*
X77879653Y-35821013D01*
X77827928Y-35855243D01*
X77776048Y-35880952D01*
X77720649Y-35894399D01*
X77667395Y-35895818D01*
X77621951Y-35885443D01*
X77589984Y-35863507D01*
X77579662Y-35844998D01*
X77581211Y-35815314D01*
X77606860Y-35792615D01*
X77656540Y-35776940D01*
X77710969Y-35769695D01*
X77794736Y-35755873D01*
X77856967Y-35729796D01*
X77898493Y-35690699D01*
X77920147Y-35637820D01*
X77923147Y-35575126D01*
X77908329Y-35509642D01*
X77874546Y-35460144D01*
X77821495Y-35426408D01*
X77748874Y-35408207D01*
X77695072Y-35404639D01*
X77635983Y-35406452D01*
G36*
X77039238Y-35416055D02*
G01*
X76975637Y-35450692D01*
X76925877Y-35505372D01*
X76902432Y-35549842D01*
X76892366Y-35589121D01*
X76885844Y-35645116D01*
X76883049Y-35709621D01*
X76884164Y-35774429D01*
X76889374Y-35831334D01*
X76895459Y-35861727D01*
X76915986Y-35903306D01*
X76951537Y-35947468D01*
X76994381Y-35986087D01*
X77036789Y-36011034D01*
X77037823Y-36011430D01*
X77090447Y-36022331D01*
X77152812Y-36022601D01*
X77212076Y-36012676D01*
X77234960Y-36004722D01*
X77293898Y-35971300D01*
X77336110Y-35927511D01*
X77363844Y-35869538D01*
X77379349Y-35793565D01*
X77382857Y-35753771D01*
X77382410Y-35703766D01*
X77247624Y-35703766D01*
X77243083Y-35776732D01*
X77230014Y-35832334D01*
X77209244Y-35867861D01*
X77194448Y-35878020D01*
X77156536Y-35885104D01*
X77111473Y-35883007D01*
X77072513Y-35872812D01*
X77062296Y-35867204D01*
X77035341Y-35834538D01*
X77017549Y-35784545D01*
X77009976Y-35723705D01*
X77013675Y-35658497D01*
X77021943Y-35619253D01*
X77045680Y-35573805D01*
X77083151Y-35545396D01*
X77128280Y-35535573D01*
X77174989Y-35545887D01*
X77210868Y-35571112D01*
X77229723Y-35591925D01*
X77240728Y-35612439D01*
X77245974Y-35640203D01*
X77247551Y-35682762D01*
X77247624Y-35703766D01*
X77382410Y-35703766D01*
X77381906Y-35647580D01*
X77364612Y-35560501D01*
X77330971Y-35492530D01*
X77280982Y-35443664D01*
X77214644Y-35413899D01*
X77200399Y-35410448D01*
X77114790Y-35402345D01*
X77039238Y-35416055D01*
G37*
X77039238Y-35416055D02*
X76975637Y-35450692D01*
X76925877Y-35505372D01*
X76902432Y-35549842D01*
X76892366Y-35589121D01*
X76885844Y-35645116D01*
X76883049Y-35709621D01*
X76884164Y-35774429D01*
X76889374Y-35831334D01*
X76895459Y-35861727D01*
X76915986Y-35903306D01*
X76951537Y-35947468D01*
X76994381Y-35986087D01*
X77036789Y-36011034D01*
X77037823Y-36011430D01*
X77090447Y-36022331D01*
X77152812Y-36022601D01*
X77212076Y-36012676D01*
X77234960Y-36004722D01*
X77293898Y-35971300D01*
X77336110Y-35927511D01*
X77363844Y-35869538D01*
X77379349Y-35793565D01*
X77382857Y-35753771D01*
X77382410Y-35703766D01*
X77247624Y-35703766D01*
X77243083Y-35776732D01*
X77230014Y-35832334D01*
X77209244Y-35867861D01*
X77194448Y-35878020D01*
X77156536Y-35885104D01*
X77111473Y-35883007D01*
X77072513Y-35872812D01*
X77062296Y-35867204D01*
X77035341Y-35834538D01*
X77017549Y-35784545D01*
X77009976Y-35723705D01*
X77013675Y-35658497D01*
X77021943Y-35619253D01*
X77045680Y-35573805D01*
X77083151Y-35545396D01*
X77128280Y-35535573D01*
X77174989Y-35545887D01*
X77210868Y-35571112D01*
X77229723Y-35591925D01*
X77240728Y-35612439D01*
X77245974Y-35640203D01*
X77247551Y-35682762D01*
X77247624Y-35703766D01*
X77382410Y-35703766D01*
X77381906Y-35647580D01*
X77364612Y-35560501D01*
X77330971Y-35492530D01*
X77280982Y-35443664D01*
X77214644Y-35413899D01*
X77200399Y-35410448D01*
X77114790Y-35402345D01*
X77039238Y-35416055D01*
G36*
X76656633Y-35604342D02*
G01*
X76655445Y-35696563D01*
X76651103Y-35766610D01*
X76642442Y-35817381D01*
X76628296Y-35851772D01*
X76607500Y-35872679D01*
X76578890Y-35883000D01*
X76543465Y-35885636D01*
X76506364Y-35882682D01*
X76478182Y-35871889D01*
X76457757Y-35850360D01*
X76443921Y-35815199D01*
X76435509Y-35763510D01*
X76431357Y-35692394D01*
X76430297Y-35604342D01*
X76430297Y-35408614D01*
X76291980Y-35408614D01*
X76291980Y-36012179D01*
X76361138Y-36012179D01*
X76402830Y-36010489D01*
X76424299Y-36004556D01*
X76430297Y-35993293D01*
X76433909Y-35983261D01*
X76448286Y-35985383D01*
X76477264Y-35999580D01*
X76543681Y-36021480D01*
X76614125Y-36019928D01*
X76681623Y-35996147D01*
X76713767Y-35977362D01*
X76738285Y-35957022D01*
X76756196Y-35931573D01*
X76768521Y-35897458D01*
X76776277Y-35851121D01*
X76780484Y-35789007D01*
X76782160Y-35707561D01*
X76782376Y-35644578D01*
X76782376Y-35408614D01*
X76656633Y-35408614D01*
X76656633Y-35604342D01*
G37*
X76656633Y-35604342D02*
X76655445Y-35696563D01*
X76651103Y-35766610D01*
X76642442Y-35817381D01*
X76628296Y-35851772D01*
X76607500Y-35872679D01*
X76578890Y-35883000D01*
X76543465Y-35885636D01*
X76506364Y-35882682D01*
X76478182Y-35871889D01*
X76457757Y-35850360D01*
X76443921Y-35815199D01*
X76435509Y-35763510D01*
X76431357Y-35692394D01*
X76430297Y-35604342D01*
X76430297Y-35408614D01*
X76291980Y-35408614D01*
X76291980Y-36012179D01*
X76361138Y-36012179D01*
X76402830Y-36010489D01*
X76424299Y-36004556D01*
X76430297Y-35993293D01*
X76433909Y-35983261D01*
X76448286Y-35985383D01*
X76477264Y-35999580D01*
X76543681Y-36021480D01*
X76614125Y-36019928D01*
X76681623Y-35996147D01*
X76713767Y-35977362D01*
X76738285Y-35957022D01*
X76756196Y-35931573D01*
X76768521Y-35897458D01*
X76776277Y-35851121D01*
X76780484Y-35789007D01*
X76782160Y-35707561D01*
X76782376Y-35644578D01*
X76782376Y-35408614D01*
X76656633Y-35408614D01*
X76656633Y-35604342D01*
G36*
X75432774Y-35413880D02*
G01*
X75359920Y-35444830D01*
X75336973Y-35459895D01*
X75307646Y-35483048D01*
X75289236Y-35501253D01*
X75286039Y-35507183D01*
X75295065Y-35520340D01*
X75318163Y-35542667D01*
X75336656Y-35558250D01*
X75387272Y-35598926D01*
X75427240Y-35565295D01*
X75458126Y-35543584D01*
X75488241Y-35536090D01*
X75522708Y-35537920D01*
X75577439Y-35551528D01*
X75615114Y-35579772D01*
X75638009Y-35625433D01*
X75648403Y-35691289D01*
X75648405Y-35691331D01*
X75647506Y-35764939D01*
X75633537Y-35818946D01*
X75605672Y-35855716D01*
X75586675Y-35868168D01*
X75536224Y-35883673D01*
X75482337Y-35883683D01*
X75435454Y-35868638D01*
X75424356Y-35861287D01*
X75396524Y-35842511D01*
X75374764Y-35839434D01*
X75351296Y-35853409D01*
X75325351Y-35878510D01*
X75284284Y-35920880D01*
X75329879Y-35958464D01*
X75400326Y-36000882D01*
X75479767Y-36021785D01*
X75562785Y-36020272D01*
X75617306Y-36006411D01*
X75681030Y-35972135D01*
X75731995Y-35918212D01*
X75755149Y-35880149D01*
X75773901Y-35825536D01*
X75783285Y-35756369D01*
X75783357Y-35681407D01*
X75774176Y-35609409D01*
X75755801Y-35549137D01*
X75752907Y-35542958D01*
X75710048Y-35482351D01*
X75652021Y-35438224D01*
X75583409Y-35411493D01*
X75508799Y-35403073D01*
X75432774Y-35413880D01*
G37*
X75432774Y-35413880D02*
X75359920Y-35444830D01*
X75336973Y-35459895D01*
X75307646Y-35483048D01*
X75289236Y-35501253D01*
X75286039Y-35507183D01*
X75295065Y-35520340D01*
X75318163Y-35542667D01*
X75336656Y-35558250D01*
X75387272Y-35598926D01*
X75427240Y-35565295D01*
X75458126Y-35543584D01*
X75488241Y-35536090D01*
X75522708Y-35537920D01*
X75577439Y-35551528D01*
X75615114Y-35579772D01*
X75638009Y-35625433D01*
X75648403Y-35691289D01*
X75648405Y-35691331D01*
X75647506Y-35764939D01*
X75633537Y-35818946D01*
X75605672Y-35855716D01*
X75586675Y-35868168D01*
X75536224Y-35883673D01*
X75482337Y-35883683D01*
X75435454Y-35868638D01*
X75424356Y-35861287D01*
X75396524Y-35842511D01*
X75374764Y-35839434D01*
X75351296Y-35853409D01*
X75325351Y-35878510D01*
X75284284Y-35920880D01*
X75329879Y-35958464D01*
X75400326Y-36000882D01*
X75479767Y-36021785D01*
X75562785Y-36020272D01*
X75617306Y-36006411D01*
X75681030Y-35972135D01*
X75731995Y-35918212D01*
X75755149Y-35880149D01*
X75773901Y-35825536D01*
X75783285Y-35756369D01*
X75783357Y-35681407D01*
X75774176Y-35609409D01*
X75755801Y-35549137D01*
X75752907Y-35542958D01*
X75710048Y-35482351D01*
X75652021Y-35438224D01*
X75583409Y-35411493D01*
X75508799Y-35403073D01*
X75432774Y-35413880D01*
G36*
X74972102Y-35406457D02*
G01*
X74939904Y-35414279D01*
X74878175Y-35442921D01*
X74825390Y-35486667D01*
X74788859Y-35539117D01*
X74783840Y-35550893D01*
X74776955Y-35581740D01*
X74772136Y-35627371D01*
X74770495Y-35673492D01*
X74770495Y-35760693D01*
X74952822Y-35760693D01*
X75028021Y-35760978D01*
X75080997Y-35762704D01*
X75114675Y-35767181D01*
X75131980Y-35775720D01*
X75135837Y-35789630D01*
X75129171Y-35810222D01*
X75117230Y-35834315D01*
X75083920Y-35874525D01*
X75037632Y-35894558D01*
X74981056Y-35893905D01*
X74916969Y-35872101D01*
X74861583Y-35845193D01*
X74815625Y-35881532D01*
X74769667Y-35917872D01*
X74812904Y-35957819D01*
X74870626Y-35995563D01*
X74941614Y-36018320D01*
X75017971Y-36024688D01*
X75091801Y-36013268D01*
X75103713Y-36009393D01*
X75168601Y-35975506D01*
X75216870Y-35924986D01*
X75249535Y-35856325D01*
X75267615Y-35768014D01*
X75267825Y-35766121D01*
X75269444Y-35669878D01*
X75262900Y-35635542D01*
X75135148Y-35635542D01*
X75123416Y-35640822D01*
X75091562Y-35644867D01*
X75044603Y-35647176D01*
X75014846Y-35647525D01*
X74959352Y-35647306D01*
X74924654Y-35645916D01*
X74906399Y-35642251D01*
X74900234Y-35635210D01*
X74901805Y-35623690D01*
X74903122Y-35619233D01*
X74925618Y-35577355D01*
X74960997Y-35543604D01*
X74992220Y-35528773D01*
X75033699Y-35529668D01*
X75075731Y-35548164D01*
X75110988Y-35578786D01*
X75132146Y-35616062D01*
X75135148Y-35635542D01*
X75262900Y-35635542D01*
X75253310Y-35585229D01*
X75221302Y-35514191D01*
X75175299Y-35458779D01*
X75117179Y-35421009D01*
X75048820Y-35402896D01*
X74972102Y-35406457D01*
G37*
X74972102Y-35406457D02*
X74939904Y-35414279D01*
X74878175Y-35442921D01*
X74825390Y-35486667D01*
X74788859Y-35539117D01*
X74783840Y-35550893D01*
X74776955Y-35581740D01*
X74772136Y-35627371D01*
X74770495Y-35673492D01*
X74770495Y-35760693D01*
X74952822Y-35760693D01*
X75028021Y-35760978D01*
X75080997Y-35762704D01*
X75114675Y-35767181D01*
X75131980Y-35775720D01*
X75135837Y-35789630D01*
X75129171Y-35810222D01*
X75117230Y-35834315D01*
X75083920Y-35874525D01*
X75037632Y-35894558D01*
X74981056Y-35893905D01*
X74916969Y-35872101D01*
X74861583Y-35845193D01*
X74815625Y-35881532D01*
X74769667Y-35917872D01*
X74812904Y-35957819D01*
X74870626Y-35995563D01*
X74941614Y-36018320D01*
X75017971Y-36024688D01*
X75091801Y-36013268D01*
X75103713Y-36009393D01*
X75168601Y-35975506D01*
X75216870Y-35924986D01*
X75249535Y-35856325D01*
X75267615Y-35768014D01*
X75267825Y-35766121D01*
X75269444Y-35669878D01*
X75262900Y-35635542D01*
X75135148Y-35635542D01*
X75123416Y-35640822D01*
X75091562Y-35644867D01*
X75044603Y-35647176D01*
X75014846Y-35647525D01*
X74959352Y-35647306D01*
X74924654Y-35645916D01*
X74906399Y-35642251D01*
X74900234Y-35635210D01*
X74901805Y-35623690D01*
X74903122Y-35619233D01*
X74925618Y-35577355D01*
X74960997Y-35543604D01*
X74992220Y-35528773D01*
X75033699Y-35529668D01*
X75075731Y-35548164D01*
X75110988Y-35578786D01*
X75132146Y-35616062D01*
X75135148Y-35635542D01*
X75262900Y-35635542D01*
X75253310Y-35585229D01*
X75221302Y-35514191D01*
X75175299Y-35458779D01*
X75117179Y-35421009D01*
X75048820Y-35402896D01*
X74972102Y-35406457D01*
G36*
X78404012Y-35419002D02*
G01*
X78372717Y-35433950D01*
X78342409Y-35455541D01*
X78319318Y-35480391D01*
X78302500Y-35512087D01*
X78291006Y-35554214D01*
X78283891Y-35610358D01*
X78280207Y-35684106D01*
X78279008Y-35779044D01*
X78278989Y-35788985D01*
X78278713Y-36012179D01*
X78417030Y-36012179D01*
X78417030Y-35806418D01*
X78417128Y-35730189D01*
X78417809Y-35674939D01*
X78419651Y-35636501D01*
X78423233Y-35610706D01*
X78429132Y-35593384D01*
X78437927Y-35580368D01*
X78450180Y-35567507D01*
X78493047Y-35539873D01*
X78539843Y-35534745D01*
X78584424Y-35552217D01*
X78599928Y-35565221D01*
X78611310Y-35577447D01*
X78619481Y-35590540D01*
X78624974Y-35608615D01*
X78628320Y-35635787D01*
X78630051Y-35676170D01*
X78630697Y-35733879D01*
X78630792Y-35804132D01*
X78630792Y-36012179D01*
X78769109Y-36012179D01*
X78769109Y-35408614D01*
X78699950Y-35408614D01*
X78658428Y-35410256D01*
X78637006Y-35416087D01*
X78630795Y-35427461D01*
X78630792Y-35427798D01*
X78627910Y-35438938D01*
X78615199Y-35437674D01*
X78589926Y-35425434D01*
X78532605Y-35407424D01*
X78467037Y-35405421D01*
X78404012Y-35419002D01*
G37*
X78404012Y-35419002D02*
X78372717Y-35433950D01*
X78342409Y-35455541D01*
X78319318Y-35480391D01*
X78302500Y-35512087D01*
X78291006Y-35554214D01*
X78283891Y-35610358D01*
X78280207Y-35684106D01*
X78279008Y-35779044D01*
X78278989Y-35788985D01*
X78278713Y-36012179D01*
X78417030Y-36012179D01*
X78417030Y-35806418D01*
X78417128Y-35730189D01*
X78417809Y-35674939D01*
X78419651Y-35636501D01*
X78423233Y-35610706D01*
X78429132Y-35593384D01*
X78437927Y-35580368D01*
X78450180Y-35567507D01*
X78493047Y-35539873D01*
X78539843Y-35534745D01*
X78584424Y-35552217D01*
X78599928Y-35565221D01*
X78611310Y-35577447D01*
X78619481Y-35590540D01*
X78624974Y-35608615D01*
X78628320Y-35635787D01*
X78630051Y-35676170D01*
X78630697Y-35733879D01*
X78630792Y-35804132D01*
X78630792Y-36012179D01*
X78769109Y-36012179D01*
X78769109Y-35408614D01*
X78699950Y-35408614D01*
X78658428Y-35410256D01*
X78637006Y-35416087D01*
X78630795Y-35427461D01*
X78630792Y-35427798D01*
X78627910Y-35438938D01*
X78615199Y-35437674D01*
X78589926Y-35425434D01*
X78532605Y-35407424D01*
X78467037Y-35405421D01*
X78404012Y-35419002D01*
G36*
X75850540Y-35408030D02*
G01*
X75807289Y-35421245D01*
X75779442Y-35437941D01*
X75770371Y-35451145D01*
X75772868Y-35466797D01*
X75789069Y-35491385D01*
X75802768Y-35508800D01*
X75831008Y-35540283D01*
X75852225Y-35553529D01*
X75870312Y-35552664D01*
X75923965Y-35539010D01*
X75963370Y-35539630D01*
X75995368Y-35555104D01*
X76006110Y-35564161D01*
X76040495Y-35596027D01*
X76040495Y-36012179D01*
X76178812Y-36012179D01*
X76178812Y-35408614D01*
X76109653Y-35408614D01*
X76068131Y-35410256D01*
X76046709Y-35416087D01*
X76040498Y-35427461D01*
X76040495Y-35427798D01*
X76037561Y-35439713D01*
X76024296Y-35438159D01*
X76005916Y-35429563D01*
X75967954Y-35413568D01*
X75937128Y-35403945D01*
X75897464Y-35401478D01*
X75850540Y-35408030D01*
G37*
X75850540Y-35408030D02*
X75807289Y-35421245D01*
X75779442Y-35437941D01*
X75770371Y-35451145D01*
X75772868Y-35466797D01*
X75789069Y-35491385D01*
X75802768Y-35508800D01*
X75831008Y-35540283D01*
X75852225Y-35553529D01*
X75870312Y-35552664D01*
X75923965Y-35539010D01*
X75963370Y-35539630D01*
X75995368Y-35555104D01*
X76006110Y-35564161D01*
X76040495Y-35596027D01*
X76040495Y-36012179D01*
X76178812Y-36012179D01*
X76178812Y-35408614D01*
X76109653Y-35408614D01*
X76068131Y-35410256D01*
X76046709Y-35416087D01*
X76040498Y-35427461D01*
X76040495Y-35427798D01*
X76037561Y-35439713D01*
X76024296Y-35438159D01*
X76005916Y-35429563D01*
X75967954Y-35413568D01*
X75937128Y-35403945D01*
X75897464Y-35401478D01*
X75850540Y-35408030D01*
G36*
X77273036Y-31240018D02*
G01*
X77216188Y-31541570D01*
X76796662Y-31714512D01*
X76545016Y-31543395D01*
X76474542Y-31495750D01*
X76410837Y-31453210D01*
X76356874Y-31417715D01*
X76315627Y-31391210D01*
X76290066Y-31375636D01*
X76283105Y-31372278D01*
X76270565Y-31380914D01*
X76243769Y-31404792D01*
X76205720Y-31440859D01*
X76159421Y-31486067D01*
X76107877Y-31537364D01*
X76054091Y-31591701D01*
X76001065Y-31646028D01*
X75951805Y-31697295D01*
X75909313Y-31742451D01*
X75876593Y-31778446D01*
X75856649Y-31802230D01*
X75851881Y-31810190D01*
X75858743Y-31824865D01*
X75877980Y-31857014D01*
X75907570Y-31903492D01*
X75945490Y-31961156D01*
X75989718Y-32026860D01*
X76015346Y-32064336D01*
X76062059Y-32132768D01*
X76103568Y-32194520D01*
X76137860Y-32246519D01*
X76162920Y-32285692D01*
X76176736Y-32308965D01*
X76178812Y-32313855D01*
X76174105Y-32327755D01*
X76161277Y-32360150D01*
X76142262Y-32406485D01*
X76118997Y-32462206D01*
X76093416Y-32522758D01*
X76067455Y-32583586D01*
X76043050Y-32640136D01*
X76022137Y-32687852D01*
X76006651Y-32722181D01*
X75998528Y-32738568D01*
X75998048Y-32739212D01*
X75985293Y-32742341D01*
X75951323Y-32749321D01*
X75899660Y-32759467D01*
X75833824Y-32772092D01*
X75757336Y-32786509D01*
X75712710Y-32794823D01*
X75630979Y-32810384D01*
X75557157Y-32825192D01*
X75494979Y-32838436D01*
X75448178Y-32849305D01*
X75420491Y-32856989D01*
X75414926Y-32859427D01*
X75409474Y-32875930D01*
X75405076Y-32913200D01*
X75401728Y-32966880D01*
X75399426Y-33032612D01*
X75398168Y-33106037D01*
X75397952Y-33182796D01*
X75398773Y-33258532D01*
X75400629Y-33328886D01*
X75403518Y-33389500D01*
X75407435Y-33436016D01*
X75412378Y-33464075D01*
X75415343Y-33469916D01*
X75433066Y-33476917D01*
X75470619Y-33486927D01*
X75523036Y-33498769D01*
X75585348Y-33511267D01*
X75607100Y-33515310D01*
X75711976Y-33534520D01*
X75794820Y-33549991D01*
X75858370Y-33562337D01*
X75905363Y-33572173D01*
X75938537Y-33580114D01*
X75960629Y-33586776D01*
X75974376Y-33592773D01*
X75982516Y-33598719D01*
X75983655Y-33599894D01*
X75995023Y-33618826D01*
X76012365Y-33655669D01*
X76033950Y-33705913D01*
X76058046Y-33765046D01*
X76082921Y-33828556D01*
X76106843Y-33891932D01*
X76128081Y-33950662D01*
X76144903Y-34000235D01*
X76155578Y-34036139D01*
X76158373Y-34053862D01*
X76158140Y-34054483D01*
X76148669Y-34068970D01*
X76127182Y-34100844D01*
X76095937Y-34146789D01*
X76057193Y-34203485D01*
X76013207Y-34267617D01*
X76000681Y-34285842D01*
X75956016Y-34351914D01*
X75916712Y-34412200D01*
X75884912Y-34463235D01*
X75862755Y-34501560D01*
X75852383Y-34523711D01*
X75851881Y-34526432D01*
X75860595Y-34540736D01*
X75884675Y-34569072D01*
X75921024Y-34608396D01*
X75966547Y-34655661D01*
X76018148Y-34707823D01*
X76072733Y-34761835D01*
X76127206Y-34814653D01*
X76178471Y-34863231D01*
X76223433Y-34904523D01*
X76258996Y-34935485D01*
X76282065Y-34953070D01*
X76288446Y-34955941D01*
X76303301Y-34949178D01*
X76333714Y-34930939D01*
X76374732Y-34904297D01*
X76406291Y-34882852D01*
X76463475Y-34843503D01*
X76531194Y-34797171D01*
X76599120Y-34750913D01*
X76635639Y-34726155D01*
X76759248Y-34642547D01*
X76863009Y-34698650D01*
X76910280Y-34723228D01*
X76950477Y-34742331D01*
X76977674Y-34753227D01*
X76984598Y-34754743D01*
X76992923Y-34743549D01*
X77009346Y-34711917D01*
X77032643Y-34662765D01*
X77061586Y-34599010D01*
X77094950Y-34523571D01*
X77131509Y-34439364D01*
X77170036Y-34349308D01*
X77209306Y-34256321D01*
X77248092Y-34163320D01*
X77285170Y-34073223D01*
X77319311Y-33988948D01*
X77349292Y-33913413D01*
X77373884Y-33849534D01*
X77391864Y-33800231D01*
X77402003Y-33768421D01*
X77403634Y-33757496D01*
X77390709Y-33743561D01*
X77362411Y-33720940D01*
X77324654Y-33694333D01*
X77321485Y-33692228D01*
X77223900Y-33614114D01*
X77145214Y-33522982D01*
X77086109Y-33421745D01*
X77047268Y-33313318D01*
X77029372Y-33200614D01*
X77033103Y-33086548D01*
X77059143Y-32974034D01*
X77108175Y-32865985D01*
X77122600Y-32842345D01*
X77197631Y-32746887D01*
X77286270Y-32670232D01*
X77385451Y-32612780D01*
X77492105Y-32574929D01*
X77603164Y-32557078D01*
X77715561Y-32559625D01*
X77826227Y-32582970D01*
X77932094Y-32627510D01*
X78030095Y-32693645D01*
X78060410Y-32720487D01*
X78137562Y-32804512D01*
X78193782Y-32892966D01*
X78232347Y-32992115D01*
X78253826Y-33090303D01*
X78259128Y-33200697D01*
X78241448Y-33311640D01*
X78202581Y-33419381D01*
X78144323Y-33520169D01*
X78068469Y-33610256D01*
X77976817Y-33685892D01*
X77964772Y-33693864D01*
X77926611Y-33719974D01*
X77897601Y-33742595D01*
X77883732Y-33757039D01*
X77883531Y-33757496D01*
X77886508Y-33773121D01*
X77898311Y-33808582D01*
X77917714Y-33860962D01*
X77943488Y-33927345D01*
X77974409Y-34004814D01*
X78009249Y-34090450D01*
X78046783Y-34181337D01*
X78085783Y-34274559D01*
X78125023Y-34367197D01*
X78163276Y-34456335D01*
X78199317Y-34539055D01*
X78231917Y-34612441D01*
X78259852Y-34673575D01*
X78281895Y-34719541D01*
X78296818Y-34747421D01*
X78302828Y-34754743D01*
X78321191Y-34749041D01*
X78355552Y-34733749D01*
X78399984Y-34711599D01*
X78424417Y-34698650D01*
X78528178Y-34642547D01*
X78651787Y-34726155D01*
X78714886Y-34768987D01*
X78783970Y-34816122D01*
X78848707Y-34860503D01*
X78881134Y-34882852D01*
X78926741Y-34913477D01*
X78965360Y-34937747D01*
X78991952Y-34952587D01*
X79000590Y-34955724D01*
X79013161Y-34947261D01*
X79040984Y-34923636D01*
X79081361Y-34887302D01*
X79131595Y-34840711D01*
X79188988Y-34786317D01*
X79225286Y-34751392D01*
X79288790Y-34688996D01*
X79343673Y-34633188D01*
X79387714Y-34586354D01*
X79418695Y-34550882D01*
X79434398Y-34529161D01*
X79435905Y-34524752D01*
X79428914Y-34507985D01*
X79409594Y-34474082D01*
X79380091Y-34426476D01*
X79342545Y-34368599D01*
X79299100Y-34303884D01*
X79286745Y-34285842D01*
X79241727Y-34220267D01*
X79201340Y-34161228D01*
X79167840Y-34112042D01*
X79143486Y-34076028D01*
X79130536Y-34056502D01*
X79129285Y-34054483D01*
X79131156Y-34038922D01*
X79141087Y-34004709D01*
X79157347Y-33956355D01*
X79178205Y-33898371D01*
X79201927Y-33835270D01*
X79226784Y-33771563D01*
X79251042Y-33711761D01*
X79272971Y-33660376D01*
X79290838Y-33621919D01*
X79302913Y-33600902D01*
X79303771Y-33599894D01*
X79311154Y-33593888D01*
X79323625Y-33587948D01*
X79343920Y-33581460D01*
X79374778Y-33573809D01*
X79418934Y-33564380D01*
X79479126Y-33552559D01*
X79558093Y-33537729D01*
X79658570Y-33519277D01*
X79680325Y-33515310D01*
X79744802Y-33502853D01*
X79801011Y-33490666D01*
X79843987Y-33479926D01*
X79868760Y-33471809D01*
X79872082Y-33469916D01*
X79877556Y-33453138D01*
X79882006Y-33415645D01*
X79885428Y-33361794D01*
X79887819Y-33295944D01*
X79889177Y-33222453D01*
X79889499Y-33145680D01*
X79888781Y-33069983D01*
X79887021Y-32999720D01*
X79884216Y-32939250D01*
X79880362Y-32892930D01*
X79875457Y-32865119D01*
X79872500Y-32859427D01*
X79856037Y-32853686D01*
X79818551Y-32844345D01*
X79763775Y-32832215D01*
X79695445Y-32818107D01*
X79617294Y-32802830D01*
X79574716Y-32794823D01*
X79493929Y-32779721D01*
X79421887Y-32766040D01*
X79362111Y-32754467D01*
X79318121Y-32745687D01*
X79293439Y-32740387D01*
X79289377Y-32739212D01*
X79282511Y-32725965D01*
X79267998Y-32694057D01*
X79247771Y-32648047D01*
X79223766Y-32592492D01*
X79197918Y-32531953D01*
X79172160Y-32470986D01*
X79148427Y-32414151D01*
X79128654Y-32366006D01*
X79114776Y-32331110D01*
X79108726Y-32314021D01*
X79108614Y-32313274D01*
X79115472Y-32299793D01*
X79134698Y-32268770D01*
X79164272Y-32223289D01*
X79202173Y-32166432D01*
X79246380Y-32101283D01*
X79272079Y-32063862D01*
X79318907Y-31995247D01*
X79360499Y-31932952D01*
X79394825Y-31880129D01*
X79419857Y-31839927D01*
X79433565Y-31815500D01*
X79435544Y-31810024D01*
X79427034Y-31797278D01*
X79403507Y-31770063D01*
X79367968Y-31731428D01*
X79323423Y-31684423D01*
X79272877Y-31632095D01*
X79219336Y-31577495D01*
X79165805Y-31523670D01*
X79115289Y-31473670D01*
X79070794Y-31430543D01*
X79035325Y-31397339D01*
X79011887Y-31377106D01*
X79004046Y-31372278D01*
X78991280Y-31379067D01*
X78960744Y-31398142D01*
X78915410Y-31427561D01*
X78858244Y-31465381D01*
X78792216Y-31509661D01*
X78742410Y-31543395D01*
X78490764Y-31714512D01*
X78281001Y-31628041D01*
X78071237Y-31541570D01*
X78014389Y-31240018D01*
X77957540Y-30938466D01*
X77329885Y-30938466D01*
X77273036Y-31240018D01*
G37*
X77273036Y-31240018D02*
X77216188Y-31541570D01*
X76796662Y-31714512D01*
X76545016Y-31543395D01*
X76474542Y-31495750D01*
X76410837Y-31453210D01*
X76356874Y-31417715D01*
X76315627Y-31391210D01*
X76290066Y-31375636D01*
X76283105Y-31372278D01*
X76270565Y-31380914D01*
X76243769Y-31404792D01*
X76205720Y-31440859D01*
X76159421Y-31486067D01*
X76107877Y-31537364D01*
X76054091Y-31591701D01*
X76001065Y-31646028D01*
X75951805Y-31697295D01*
X75909313Y-31742451D01*
X75876593Y-31778446D01*
X75856649Y-31802230D01*
X75851881Y-31810190D01*
X75858743Y-31824865D01*
X75877980Y-31857014D01*
X75907570Y-31903492D01*
X75945490Y-31961156D01*
X75989718Y-32026860D01*
X76015346Y-32064336D01*
X76062059Y-32132768D01*
X76103568Y-32194520D01*
X76137860Y-32246519D01*
X76162920Y-32285692D01*
X76176736Y-32308965D01*
X76178812Y-32313855D01*
X76174105Y-32327755D01*
X76161277Y-32360150D01*
X76142262Y-32406485D01*
X76118997Y-32462206D01*
X76093416Y-32522758D01*
X76067455Y-32583586D01*
X76043050Y-32640136D01*
X76022137Y-32687852D01*
X76006651Y-32722181D01*
X75998528Y-32738568D01*
X75998048Y-32739212D01*
X75985293Y-32742341D01*
X75951323Y-32749321D01*
X75899660Y-32759467D01*
X75833824Y-32772092D01*
X75757336Y-32786509D01*
X75712710Y-32794823D01*
X75630979Y-32810384D01*
X75557157Y-32825192D01*
X75494979Y-32838436D01*
X75448178Y-32849305D01*
X75420491Y-32856989D01*
X75414926Y-32859427D01*
X75409474Y-32875930D01*
X75405076Y-32913200D01*
X75401728Y-32966880D01*
X75399426Y-33032612D01*
X75398168Y-33106037D01*
X75397952Y-33182796D01*
X75398773Y-33258532D01*
X75400629Y-33328886D01*
X75403518Y-33389500D01*
X75407435Y-33436016D01*
X75412378Y-33464075D01*
X75415343Y-33469916D01*
X75433066Y-33476917D01*
X75470619Y-33486927D01*
X75523036Y-33498769D01*
X75585348Y-33511267D01*
X75607100Y-33515310D01*
X75711976Y-33534520D01*
X75794820Y-33549991D01*
X75858370Y-33562337D01*
X75905363Y-33572173D01*
X75938537Y-33580114D01*
X75960629Y-33586776D01*
X75974376Y-33592773D01*
X75982516Y-33598719D01*
X75983655Y-33599894D01*
X75995023Y-33618826D01*
X76012365Y-33655669D01*
X76033950Y-33705913D01*
X76058046Y-33765046D01*
X76082921Y-33828556D01*
X76106843Y-33891932D01*
X76128081Y-33950662D01*
X76144903Y-34000235D01*
X76155578Y-34036139D01*
X76158373Y-34053862D01*
X76158140Y-34054483D01*
X76148669Y-34068970D01*
X76127182Y-34100844D01*
X76095937Y-34146789D01*
X76057193Y-34203485D01*
X76013207Y-34267617D01*
X76000681Y-34285842D01*
X75956016Y-34351914D01*
X75916712Y-34412200D01*
X75884912Y-34463235D01*
X75862755Y-34501560D01*
X75852383Y-34523711D01*
X75851881Y-34526432D01*
X75860595Y-34540736D01*
X75884675Y-34569072D01*
X75921024Y-34608396D01*
X75966547Y-34655661D01*
X76018148Y-34707823D01*
X76072733Y-34761835D01*
X76127206Y-34814653D01*
X76178471Y-34863231D01*
X76223433Y-34904523D01*
X76258996Y-34935485D01*
X76282065Y-34953070D01*
X76288446Y-34955941D01*
X76303301Y-34949178D01*
X76333714Y-34930939D01*
X76374732Y-34904297D01*
X76406291Y-34882852D01*
X76463475Y-34843503D01*
X76531194Y-34797171D01*
X76599120Y-34750913D01*
X76635639Y-34726155D01*
X76759248Y-34642547D01*
X76863009Y-34698650D01*
X76910280Y-34723228D01*
X76950477Y-34742331D01*
X76977674Y-34753227D01*
X76984598Y-34754743D01*
X76992923Y-34743549D01*
X77009346Y-34711917D01*
X77032643Y-34662765D01*
X77061586Y-34599010D01*
X77094950Y-34523571D01*
X77131509Y-34439364D01*
X77170036Y-34349308D01*
X77209306Y-34256321D01*
X77248092Y-34163320D01*
X77285170Y-34073223D01*
X77319311Y-33988948D01*
X77349292Y-33913413D01*
X77373884Y-33849534D01*
X77391864Y-33800231D01*
X77402003Y-33768421D01*
X77403634Y-33757496D01*
X77390709Y-33743561D01*
X77362411Y-33720940D01*
X77324654Y-33694333D01*
X77321485Y-33692228D01*
X77223900Y-33614114D01*
X77145214Y-33522982D01*
X77086109Y-33421745D01*
X77047268Y-33313318D01*
X77029372Y-33200614D01*
X77033103Y-33086548D01*
X77059143Y-32974034D01*
X77108175Y-32865985D01*
X77122600Y-32842345D01*
X77197631Y-32746887D01*
X77286270Y-32670232D01*
X77385451Y-32612780D01*
X77492105Y-32574929D01*
X77603164Y-32557078D01*
X77715561Y-32559625D01*
X77826227Y-32582970D01*
X77932094Y-32627510D01*
X78030095Y-32693645D01*
X78060410Y-32720487D01*
X78137562Y-32804512D01*
X78193782Y-32892966D01*
X78232347Y-32992115D01*
X78253826Y-33090303D01*
X78259128Y-33200697D01*
X78241448Y-33311640D01*
X78202581Y-33419381D01*
X78144323Y-33520169D01*
X78068469Y-33610256D01*
X77976817Y-33685892D01*
X77964772Y-33693864D01*
X77926611Y-33719974D01*
X77897601Y-33742595D01*
X77883732Y-33757039D01*
X77883531Y-33757496D01*
X77886508Y-33773121D01*
X77898311Y-33808582D01*
X77917714Y-33860962D01*
X77943488Y-33927345D01*
X77974409Y-34004814D01*
X78009249Y-34090450D01*
X78046783Y-34181337D01*
X78085783Y-34274559D01*
X78125023Y-34367197D01*
X78163276Y-34456335D01*
X78199317Y-34539055D01*
X78231917Y-34612441D01*
X78259852Y-34673575D01*
X78281895Y-34719541D01*
X78296818Y-34747421D01*
X78302828Y-34754743D01*
X78321191Y-34749041D01*
X78355552Y-34733749D01*
X78399984Y-34711599D01*
X78424417Y-34698650D01*
X78528178Y-34642547D01*
X78651787Y-34726155D01*
X78714886Y-34768987D01*
X78783970Y-34816122D01*
X78848707Y-34860503D01*
X78881134Y-34882852D01*
X78926741Y-34913477D01*
X78965360Y-34937747D01*
X78991952Y-34952587D01*
X79000590Y-34955724D01*
X79013161Y-34947261D01*
X79040984Y-34923636D01*
X79081361Y-34887302D01*
X79131595Y-34840711D01*
X79188988Y-34786317D01*
X79225286Y-34751392D01*
X79288790Y-34688996D01*
X79343673Y-34633188D01*
X79387714Y-34586354D01*
X79418695Y-34550882D01*
X79434398Y-34529161D01*
X79435905Y-34524752D01*
X79428914Y-34507985D01*
X79409594Y-34474082D01*
X79380091Y-34426476D01*
X79342545Y-34368599D01*
X79299100Y-34303884D01*
X79286745Y-34285842D01*
X79241727Y-34220267D01*
X79201340Y-34161228D01*
X79167840Y-34112042D01*
X79143486Y-34076028D01*
X79130536Y-34056502D01*
X79129285Y-34054483D01*
X79131156Y-34038922D01*
X79141087Y-34004709D01*
X79157347Y-33956355D01*
X79178205Y-33898371D01*
X79201927Y-33835270D01*
X79226784Y-33771563D01*
X79251042Y-33711761D01*
X79272971Y-33660376D01*
X79290838Y-33621919D01*
X79302913Y-33600902D01*
X79303771Y-33599894D01*
X79311154Y-33593888D01*
X79323625Y-33587948D01*
X79343920Y-33581460D01*
X79374778Y-33573809D01*
X79418934Y-33564380D01*
X79479126Y-33552559D01*
X79558093Y-33537729D01*
X79658570Y-33519277D01*
X79680325Y-33515310D01*
X79744802Y-33502853D01*
X79801011Y-33490666D01*
X79843987Y-33479926D01*
X79868760Y-33471809D01*
X79872082Y-33469916D01*
X79877556Y-33453138D01*
X79882006Y-33415645D01*
X79885428Y-33361794D01*
X79887819Y-33295944D01*
X79889177Y-33222453D01*
X79889499Y-33145680D01*
X79888781Y-33069983D01*
X79887021Y-32999720D01*
X79884216Y-32939250D01*
X79880362Y-32892930D01*
X79875457Y-32865119D01*
X79872500Y-32859427D01*
X79856037Y-32853686D01*
X79818551Y-32844345D01*
X79763775Y-32832215D01*
X79695445Y-32818107D01*
X79617294Y-32802830D01*
X79574716Y-32794823D01*
X79493929Y-32779721D01*
X79421887Y-32766040D01*
X79362111Y-32754467D01*
X79318121Y-32745687D01*
X79293439Y-32740387D01*
X79289377Y-32739212D01*
X79282511Y-32725965D01*
X79267998Y-32694057D01*
X79247771Y-32648047D01*
X79223766Y-32592492D01*
X79197918Y-32531953D01*
X79172160Y-32470986D01*
X79148427Y-32414151D01*
X79128654Y-32366006D01*
X79114776Y-32331110D01*
X79108726Y-32314021D01*
X79108614Y-32313274D01*
X79115472Y-32299793D01*
X79134698Y-32268770D01*
X79164272Y-32223289D01*
X79202173Y-32166432D01*
X79246380Y-32101283D01*
X79272079Y-32063862D01*
X79318907Y-31995247D01*
X79360499Y-31932952D01*
X79394825Y-31880129D01*
X79419857Y-31839927D01*
X79433565Y-31815500D01*
X79435544Y-31810024D01*
X79427034Y-31797278D01*
X79403507Y-31770063D01*
X79367968Y-31731428D01*
X79323423Y-31684423D01*
X79272877Y-31632095D01*
X79219336Y-31577495D01*
X79165805Y-31523670D01*
X79115289Y-31473670D01*
X79070794Y-31430543D01*
X79035325Y-31397339D01*
X79011887Y-31377106D01*
X79004046Y-31372278D01*
X78991280Y-31379067D01*
X78960744Y-31398142D01*
X78915410Y-31427561D01*
X78858244Y-31465381D01*
X78792216Y-31509661D01*
X78742410Y-31543395D01*
X78490764Y-31714512D01*
X78281001Y-31628041D01*
X78071237Y-31541570D01*
X78014389Y-31240018D01*
X77957540Y-30938466D01*
X77329885Y-30938466D01*
X77273036Y-31240018D01*
D11*
X44055000Y-26700000D02*
X43875000Y-26700000D01*
X36125000Y-26700000D02*
X35955000Y-26700000D01*
X34970000Y-38065000D02*
X34970000Y-34495000D01*
X34970000Y-31945000D02*
X34970000Y-28745000D01*
X43575000Y-39400000D02*
X36425000Y-39400000D01*
X45030000Y-38065000D02*
X45030000Y-34495000D01*
X45030000Y-31945000D02*
X45030000Y-28745000D01*
D13*
X38230000Y-25520000D02*
G75*
G03*
X38230000Y-25520000I-125000J0D01*
G01*
D11*
X2000000Y-11950000D02*
X2000000Y-9950000D01*
X2000000Y-13950000D02*
X2000000Y-13050000D01*
X2925000Y-14950000D02*
G75*
G03*
X2925000Y-14950000I-925000J0D01*
G01*
X2925000Y-8950000D02*
G75*
G03*
X2925000Y-8950000I-925000J0D01*
G01*
D16*
X2175000Y-11950000D02*
G75*
G03*
X2175000Y-11950000I-175000J0D01*
G01*
D11*
X2750000Y-11275000D02*
G75*
G02*
X1325000Y-11200000I-750000J-675000D01*
G01*
D12*
X32050000Y-25000000D02*
G75*
G03*
X32050000Y-25000000I-950000J0D01*
G01*
D15*
G36*
X78350441Y-5064281D02*
G01*
X78128449Y-5087885D01*
X77957856Y-5136852D01*
X77830646Y-5217702D01*
X77738803Y-5336958D01*
X77674312Y-5501139D01*
X77642250Y-5640384D01*
X77626279Y-5777477D01*
X77621480Y-5943133D01*
X77626872Y-6118280D01*
X77641473Y-6283847D01*
X77664300Y-6420762D01*
X77686167Y-6493028D01*
X77763414Y-6627162D01*
X77870353Y-6724859D01*
X78014264Y-6789554D01*
X78202425Y-6824682D01*
X78408402Y-6833865D01*
X78643926Y-6833865D01*
X78643926Y-5048930D01*
X78350441Y-5064281D01*
G37*
X78350441Y-5064281D02*
X78128449Y-5087885D01*
X77957856Y-5136852D01*
X77830646Y-5217702D01*
X77738803Y-5336958D01*
X77674312Y-5501139D01*
X77642250Y-5640384D01*
X77626279Y-5777477D01*
X77621480Y-5943133D01*
X77626872Y-6118280D01*
X77641473Y-6283847D01*
X77664300Y-6420762D01*
X77686167Y-6493028D01*
X77763414Y-6627162D01*
X77870353Y-6724859D01*
X78014264Y-6789554D01*
X78202425Y-6824682D01*
X78408402Y-6833865D01*
X78643926Y-6833865D01*
X78643926Y-5048930D01*
X78350441Y-5064281D01*
G36*
X74724653Y-5257596D02*
G01*
X74713267Y-5288426D01*
X74687268Y-5367544D01*
X74650178Y-5483600D01*
X74605524Y-5625250D01*
X74556828Y-5781144D01*
X74507616Y-5939937D01*
X74461411Y-6090281D01*
X74421737Y-6220829D01*
X74392119Y-6320233D01*
X74376081Y-6377147D01*
X74374233Y-6385879D01*
X74403336Y-6390497D01*
X74482394Y-6394251D01*
X74599034Y-6396734D01*
X74728575Y-6397546D01*
X75082917Y-6397546D01*
X74908895Y-5822461D01*
X74854639Y-5645323D01*
X74806229Y-5491366D01*
X74766570Y-5369491D01*
X74738564Y-5288598D01*
X74725113Y-5257586D01*
X74724653Y-5257596D01*
G37*
X74724653Y-5257596D02*
X74713267Y-5288426D01*
X74687268Y-5367544D01*
X74650178Y-5483600D01*
X74605524Y-5625250D01*
X74556828Y-5781144D01*
X74507616Y-5939937D01*
X74461411Y-6090281D01*
X74421737Y-6220829D01*
X74392119Y-6320233D01*
X74376081Y-6377147D01*
X74374233Y-6385879D01*
X74403336Y-6390497D01*
X74482394Y-6394251D01*
X74599034Y-6396734D01*
X74728575Y-6397546D01*
X75082917Y-6397546D01*
X74908895Y-5822461D01*
X74854639Y-5645323D01*
X74806229Y-5491366D01*
X74766570Y-5369491D01*
X74738564Y-5288598D01*
X74725113Y-5257586D01*
X74724653Y-5257596D01*
G36*
X74264779Y-8834299D02*
G01*
X74100254Y-8920046D01*
X73964944Y-9052878D01*
X73867250Y-9227756D01*
X73840560Y-9308449D01*
X73819924Y-9428912D01*
X73808825Y-9590492D01*
X73807205Y-9772718D01*
X73815007Y-9955120D01*
X73832174Y-10117226D01*
X73842973Y-10178256D01*
X73910650Y-10363027D01*
X74023371Y-10512887D01*
X74171175Y-10622242D01*
X74344099Y-10685498D01*
X74532182Y-10697061D01*
X74701472Y-10660335D01*
X74845199Y-10589808D01*
X74955907Y-10485885D01*
X75048795Y-10334231D01*
X75050162Y-10331457D01*
X75086409Y-10253746D01*
X75111006Y-10185049D01*
X75126197Y-10110423D01*
X75134226Y-10014926D01*
X75137337Y-9883617D01*
X75137791Y-9747853D01*
X75136903Y-9578095D01*
X75132786Y-9455818D01*
X75123262Y-9366182D01*
X75106154Y-9294344D01*
X75079282Y-9225465D01*
X75052987Y-9170024D01*
X74952496Y-9009616D01*
X74828601Y-8899869D01*
X74668747Y-8830067D01*
X74647873Y-8824218D01*
X74450119Y-8800677D01*
X74264779Y-8834299D01*
G37*
X74264779Y-8834299D02*
X74100254Y-8920046D01*
X73964944Y-9052878D01*
X73867250Y-9227756D01*
X73840560Y-9308449D01*
X73819924Y-9428912D01*
X73808825Y-9590492D01*
X73807205Y-9772718D01*
X73815007Y-9955120D01*
X73832174Y-10117226D01*
X73842973Y-10178256D01*
X73910650Y-10363027D01*
X74023371Y-10512887D01*
X74171175Y-10622242D01*
X74344099Y-10685498D01*
X74532182Y-10697061D01*
X74701472Y-10660335D01*
X74845199Y-10589808D01*
X74955907Y-10485885D01*
X75048795Y-10334231D01*
X75050162Y-10331457D01*
X75086409Y-10253746D01*
X75111006Y-10185049D01*
X75126197Y-10110423D01*
X75134226Y-10014926D01*
X75137337Y-9883617D01*
X75137791Y-9747853D01*
X75136903Y-9578095D01*
X75132786Y-9455818D01*
X75123262Y-9366182D01*
X75106154Y-9294344D01*
X75079282Y-9225465D01*
X75052987Y-9170024D01*
X74952496Y-9009616D01*
X74828601Y-8899869D01*
X74668747Y-8830067D01*
X74647873Y-8824218D01*
X74450119Y-8800677D01*
X74264779Y-8834299D01*
G36*
X72410798Y-11789202D02*
G01*
X80389202Y-11789202D01*
X80389202Y-8111656D01*
X79797055Y-8111656D01*
X79797055Y-11384049D01*
X79018664Y-11384049D01*
X79010498Y-10208246D01*
X79002331Y-9032443D01*
X78758309Y-10091375D01*
X78699910Y-10344435D01*
X78644792Y-10582592D01*
X78594804Y-10797908D01*
X78551795Y-10982446D01*
X78517614Y-11128268D01*
X78494109Y-11227438D01*
X78484408Y-11267178D01*
X78454530Y-11384049D01*
X78112909Y-11384049D01*
X77975331Y-11383386D01*
X77864133Y-11381588D01*
X77791946Y-11378944D01*
X77770696Y-11376258D01*
X77763694Y-11345238D01*
X77743980Y-11260094D01*
X77713085Y-11127387D01*
X77672539Y-10953675D01*
X77623875Y-10745516D01*
X77568623Y-10509471D01*
X77508315Y-10252097D01*
X77492389Y-10184172D01*
X77214674Y-8999877D01*
X77212490Y-10191963D01*
X77210307Y-11384049D01*
X76431166Y-11384049D01*
X76431166Y-9744505D01*
X76149758Y-9744505D01*
X76146238Y-9946620D01*
X76132784Y-10127135D01*
X76115735Y-10237178D01*
X76026321Y-10522029D01*
X75887425Y-10779848D01*
X75705248Y-11003317D01*
X75485988Y-11185118D01*
X75235847Y-11317930D01*
X75183519Y-11337667D01*
X74953371Y-11397921D01*
X74687691Y-11433238D01*
X74408554Y-11442482D01*
X74138035Y-11424518D01*
X73984663Y-11399291D01*
X73693313Y-11311662D01*
X73443426Y-11179431D01*
X73230612Y-11000222D01*
X73212392Y-10980914D01*
X73063555Y-10798389D01*
X72952279Y-10607745D01*
X72873666Y-10395950D01*
X72822815Y-10149969D01*
X72795746Y-9872515D01*
X72796874Y-9515488D01*
X72845965Y-9196810D01*
X72943769Y-8914137D01*
X73091034Y-8665124D01*
X73234449Y-8498989D01*
X73457802Y-8316161D01*
X73715093Y-8181603D01*
X74009015Y-8094355D01*
X74342261Y-8053456D01*
X74493846Y-8049866D01*
X74837653Y-8076193D01*
X75147501Y-8152396D01*
X75421021Y-8276759D01*
X75655843Y-8447562D01*
X75849599Y-8663088D01*
X75999918Y-8921619D01*
X76103253Y-9216793D01*
X76128010Y-9358770D01*
X76143597Y-9541615D01*
X76149758Y-9744505D01*
X76431166Y-9744505D01*
X76431166Y-8110339D01*
X77657136Y-8127239D01*
X77877137Y-9085583D01*
X77931448Y-9320001D01*
X77981903Y-9533650D01*
X78026715Y-9719283D01*
X78064096Y-9869652D01*
X78092260Y-9977511D01*
X78109420Y-10035612D01*
X78113416Y-10043754D01*
X78124319Y-10014585D01*
X78147090Y-9932257D01*
X78179825Y-9804401D01*
X78220621Y-9638650D01*
X78267572Y-9442634D01*
X78318775Y-9223986D01*
X78329198Y-9178908D01*
X78382064Y-8950458D01*
X78431660Y-8737422D01*
X78475901Y-8548658D01*
X78512699Y-8393024D01*
X78539971Y-8279381D01*
X78555630Y-8216585D01*
X78556614Y-8212945D01*
X78584525Y-8111656D01*
X79797055Y-8111656D01*
X80389202Y-8111656D01*
X80389202Y-7644172D01*
X76494333Y-7644172D01*
X75978704Y-7644172D01*
X75773834Y-7642864D01*
X75624866Y-7638628D01*
X75525420Y-7630993D01*
X75469114Y-7619489D01*
X75449974Y-7605215D01*
X75435183Y-7557813D01*
X75408257Y-7468717D01*
X75374659Y-7356028D01*
X75370002Y-7340307D01*
X75303131Y-7114356D01*
X74159846Y-7114356D01*
X73998242Y-7644172D01*
X72941149Y-7644172D01*
X73014354Y-7449386D01*
X73039883Y-7381329D01*
X73084775Y-7261500D01*
X73146559Y-7096506D01*
X73222761Y-6892958D01*
X73310906Y-6657462D01*
X73408521Y-6396627D01*
X73513133Y-6117062D01*
X73622268Y-5825374D01*
X73626826Y-5813190D01*
X74166092Y-4371779D01*
X75266696Y-4371779D01*
X75838801Y-5906687D01*
X75949689Y-6203992D01*
X76055072Y-6486154D01*
X76152745Y-6747296D01*
X76240501Y-6981538D01*
X76316135Y-7183000D01*
X76377443Y-7345803D01*
X76422217Y-7464069D01*
X76448253Y-7531917D01*
X76452620Y-7542883D01*
X76494333Y-7644172D01*
X80389202Y-7644172D01*
X80389202Y-7587123D01*
X79703558Y-7587123D01*
X78714049Y-7573597D01*
X78413309Y-7568785D01*
X78168535Y-7563170D01*
X77973363Y-7556418D01*
X77821428Y-7548191D01*
X77706368Y-7538155D01*
X77621818Y-7525974D01*
X77567368Y-7513146D01*
X77373228Y-7445502D01*
X77217512Y-7365465D01*
X77076328Y-7259149D01*
X76988246Y-7176563D01*
X76840528Y-7009786D01*
X76729468Y-6834400D01*
X76651330Y-6639409D01*
X76602380Y-6413814D01*
X76578882Y-6146620D01*
X76575447Y-5961227D01*
X76597524Y-5596436D01*
X76662817Y-5276123D01*
X76771244Y-5000461D01*
X76922725Y-4769619D01*
X77117179Y-4583769D01*
X77270941Y-4484791D01*
X77363321Y-4438555D01*
X77458445Y-4401086D01*
X77563935Y-4371501D01*
X77687410Y-4348914D01*
X77836491Y-4332440D01*
X78018798Y-4321195D01*
X78241950Y-4314293D01*
X78513569Y-4310851D01*
X78776380Y-4309989D01*
X79703558Y-4309448D01*
X79703558Y-7587123D01*
X80389202Y-7587123D01*
X80389202Y-3810798D01*
X72410798Y-3810798D01*
X72410798Y-11789202D01*
G37*
X72410798Y-11789202D02*
X80389202Y-11789202D01*
X80389202Y-8111656D01*
X79797055Y-8111656D01*
X79797055Y-11384049D01*
X79018664Y-11384049D01*
X79010498Y-10208246D01*
X79002331Y-9032443D01*
X78758309Y-10091375D01*
X78699910Y-10344435D01*
X78644792Y-10582592D01*
X78594804Y-10797908D01*
X78551795Y-10982446D01*
X78517614Y-11128268D01*
X78494109Y-11227438D01*
X78484408Y-11267178D01*
X78454530Y-11384049D01*
X78112909Y-11384049D01*
X77975331Y-11383386D01*
X77864133Y-11381588D01*
X77791946Y-11378944D01*
X77770696Y-11376258D01*
X77763694Y-11345238D01*
X77743980Y-11260094D01*
X77713085Y-11127387D01*
X77672539Y-10953675D01*
X77623875Y-10745516D01*
X77568623Y-10509471D01*
X77508315Y-10252097D01*
X77492389Y-10184172D01*
X77214674Y-8999877D01*
X77212490Y-10191963D01*
X77210307Y-11384049D01*
X76431166Y-11384049D01*
X76431166Y-9744505D01*
X76149758Y-9744505D01*
X76146238Y-9946620D01*
X76132784Y-10127135D01*
X76115735Y-10237178D01*
X76026321Y-10522029D01*
X75887425Y-10779848D01*
X75705248Y-11003317D01*
X75485988Y-11185118D01*
X75235847Y-11317930D01*
X75183519Y-11337667D01*
X74953371Y-11397921D01*
X74687691Y-11433238D01*
X74408554Y-11442482D01*
X74138035Y-11424518D01*
X73984663Y-11399291D01*
X73693313Y-11311662D01*
X73443426Y-11179431D01*
X73230612Y-11000222D01*
X73212392Y-10980914D01*
X73063555Y-10798389D01*
X72952279Y-10607745D01*
X72873666Y-10395950D01*
X72822815Y-10149969D01*
X72795746Y-9872515D01*
X72796874Y-9515488D01*
X72845965Y-9196810D01*
X72943769Y-8914137D01*
X73091034Y-8665124D01*
X73234449Y-8498989D01*
X73457802Y-8316161D01*
X73715093Y-8181603D01*
X74009015Y-8094355D01*
X74342261Y-8053456D01*
X74493846Y-8049866D01*
X74837653Y-8076193D01*
X75147501Y-8152396D01*
X75421021Y-8276759D01*
X75655843Y-8447562D01*
X75849599Y-8663088D01*
X75999918Y-8921619D01*
X76103253Y-9216793D01*
X76128010Y-9358770D01*
X76143597Y-9541615D01*
X76149758Y-9744505D01*
X76431166Y-9744505D01*
X76431166Y-8110339D01*
X77657136Y-8127239D01*
X77877137Y-9085583D01*
X77931448Y-9320001D01*
X77981903Y-9533650D01*
X78026715Y-9719283D01*
X78064096Y-9869652D01*
X78092260Y-9977511D01*
X78109420Y-10035612D01*
X78113416Y-10043754D01*
X78124319Y-10014585D01*
X78147090Y-9932257D01*
X78179825Y-9804401D01*
X78220621Y-9638650D01*
X78267572Y-9442634D01*
X78318775Y-9223986D01*
X78329198Y-9178908D01*
X78382064Y-8950458D01*
X78431660Y-8737422D01*
X78475901Y-8548658D01*
X78512699Y-8393024D01*
X78539971Y-8279381D01*
X78555630Y-8216585D01*
X78556614Y-8212945D01*
X78584525Y-8111656D01*
X79797055Y-8111656D01*
X80389202Y-8111656D01*
X80389202Y-7644172D01*
X76494333Y-7644172D01*
X75978704Y-7644172D01*
X75773834Y-7642864D01*
X75624866Y-7638628D01*
X75525420Y-7630993D01*
X75469114Y-7619489D01*
X75449974Y-7605215D01*
X75435183Y-7557813D01*
X75408257Y-7468717D01*
X75374659Y-7356028D01*
X75370002Y-7340307D01*
X75303131Y-7114356D01*
X74159846Y-7114356D01*
X73998242Y-7644172D01*
X72941149Y-7644172D01*
X73014354Y-7449386D01*
X73039883Y-7381329D01*
X73084775Y-7261500D01*
X73146559Y-7096506D01*
X73222761Y-6892958D01*
X73310906Y-6657462D01*
X73408521Y-6396627D01*
X73513133Y-6117062D01*
X73622268Y-5825374D01*
X73626826Y-5813190D01*
X74166092Y-4371779D01*
X75266696Y-4371779D01*
X75838801Y-5906687D01*
X75949689Y-6203992D01*
X76055072Y-6486154D01*
X76152745Y-6747296D01*
X76240501Y-6981538D01*
X76316135Y-7183000D01*
X76377443Y-7345803D01*
X76422217Y-7464069D01*
X76448253Y-7531917D01*
X76452620Y-7542883D01*
X76494333Y-7644172D01*
X80389202Y-7644172D01*
X80389202Y-7587123D01*
X79703558Y-7587123D01*
X78714049Y-7573597D01*
X78413309Y-7568785D01*
X78168535Y-7563170D01*
X77973363Y-7556418D01*
X77821428Y-7548191D01*
X77706368Y-7538155D01*
X77621818Y-7525974D01*
X77567368Y-7513146D01*
X77373228Y-7445502D01*
X77217512Y-7365465D01*
X77076328Y-7259149D01*
X76988246Y-7176563D01*
X76840528Y-7009786D01*
X76729468Y-6834400D01*
X76651330Y-6639409D01*
X76602380Y-6413814D01*
X76578882Y-6146620D01*
X76575447Y-5961227D01*
X76597524Y-5596436D01*
X76662817Y-5276123D01*
X76771244Y-5000461D01*
X76922725Y-4769619D01*
X77117179Y-4583769D01*
X77270941Y-4484791D01*
X77363321Y-4438555D01*
X77458445Y-4401086D01*
X77563935Y-4371501D01*
X77687410Y-4348914D01*
X77836491Y-4332440D01*
X78018798Y-4321195D01*
X78241950Y-4314293D01*
X78513569Y-4310851D01*
X78776380Y-4309989D01*
X79703558Y-4309448D01*
X79703558Y-7587123D01*
X80389202Y-7587123D01*
X80389202Y-3810798D01*
X72410798Y-3810798D01*
X72410798Y-11789202D01*
D12*
X39810000Y-22862779D02*
X39810000Y-22537221D01*
X38790000Y-22862779D02*
X38790000Y-22537221D01*
X44410000Y-22862779D02*
X44410000Y-22537221D01*
X43390000Y-22862779D02*
X43390000Y-22537221D01*
X41760000Y-22862779D02*
X41760000Y-22537221D01*
X40740000Y-22862779D02*
X40740000Y-22537221D01*
D11*
X32014285Y-22971428D02*
X31871428Y-23571428D01*
X31757142Y-23142857D01*
X31642857Y-23571428D01*
X31500000Y-22971428D01*
X31157142Y-22971428D02*
X31042857Y-22971428D01*
X30985714Y-23000000D01*
X30928571Y-23057142D01*
X30900000Y-23171428D01*
X30900000Y-23371428D01*
X30928571Y-23485714D01*
X30985714Y-23542857D01*
X31042857Y-23571428D01*
X31157142Y-23571428D01*
X31214285Y-23542857D01*
X31271428Y-23485714D01*
X31300000Y-23371428D01*
X31300000Y-23171428D01*
X31271428Y-23057142D01*
X31214285Y-23000000D01*
X31157142Y-22971428D01*
X30700000Y-22971428D02*
X30557142Y-23571428D01*
X30442857Y-23142857D01*
X30328571Y-23571428D01*
X30185714Y-22971428D01*
%LPC*%
D17*
X70250000Y-20000000D03*
X80250000Y-20000000D03*
D18*
X36825000Y-26750000D03*
X38095000Y-26750000D03*
X39365000Y-26750000D03*
X40635000Y-26750000D03*
X41905000Y-26750000D03*
X43175000Y-26750000D03*
D19*
X35340000Y-27470000D03*
X44670000Y-27470000D03*
X44670000Y-33220000D03*
X35340000Y-33220000D03*
D20*
X35535000Y-38940000D03*
X44465000Y-38940000D03*
D21*
X31100000Y-25000000D03*
D22*
X9370000Y-37350000D03*
X11910000Y-37350000D03*
D23*
X14450000Y-37350000D03*
D24*
X30000000Y-30000000D03*
D25*
X30000000Y-10000000D03*
G36*
G01*
X38910000Y-24827500D02*
X38910000Y-25172500D01*
G75*
G02*
X38762500Y-25320000I-147500J0D01*
G01*
X38467500Y-25320000D01*
G75*
G02*
X38320000Y-25172500I0J147500D01*
G01*
X38320000Y-24827500D01*
G75*
G02*
X38467500Y-24680000I147500J0D01*
G01*
X38762500Y-24680000D01*
G75*
G02*
X38910000Y-24827500I0J-147500D01*
G01*
G37*
G36*
G01*
X39880000Y-24827500D02*
X39880000Y-25172500D01*
G75*
G02*
X39732500Y-25320000I-147500J0D01*
G01*
X39437500Y-25320000D01*
G75*
G02*
X39290000Y-25172500I0J147500D01*
G01*
X39290000Y-24827500D01*
G75*
G02*
X39437500Y-24680000I147500J0D01*
G01*
X39732500Y-24680000D01*
G75*
G02*
X39880000Y-24827500I0J-147500D01*
G01*
G37*
G36*
G01*
X36310000Y-24827500D02*
X36310000Y-25172500D01*
G75*
G02*
X36162500Y-25320000I-147500J0D01*
G01*
X35867500Y-25320000D01*
G75*
G02*
X35720000Y-25172500I0J147500D01*
G01*
X35720000Y-24827500D01*
G75*
G02*
X35867500Y-24680000I147500J0D01*
G01*
X36162500Y-24680000D01*
G75*
G02*
X36310000Y-24827500I0J-147500D01*
G01*
G37*
G36*
G01*
X37280000Y-24827500D02*
X37280000Y-25172500D01*
G75*
G02*
X37132500Y-25320000I-147500J0D01*
G01*
X36837500Y-25320000D01*
G75*
G02*
X36690000Y-25172500I0J147500D01*
G01*
X36690000Y-24827500D01*
G75*
G02*
X36837500Y-24680000I147500J0D01*
G01*
X37132500Y-24680000D01*
G75*
G02*
X37280000Y-24827500I0J-147500D01*
G01*
G37*
G36*
G01*
X39556250Y-22350000D02*
X39043750Y-22350000D01*
G75*
G02*
X38825000Y-22131250I0J218750D01*
G01*
X38825000Y-21693750D01*
G75*
G02*
X39043750Y-21475000I218750J0D01*
G01*
X39556250Y-21475000D01*
G75*
G02*
X39775000Y-21693750I0J-218750D01*
G01*
X39775000Y-22131250D01*
G75*
G02*
X39556250Y-22350000I-218750J0D01*
G01*
G37*
G36*
G01*
X39556250Y-23925000D02*
X39043750Y-23925000D01*
G75*
G02*
X38825000Y-23706250I0J218750D01*
G01*
X38825000Y-23268750D01*
G75*
G02*
X39043750Y-23050000I218750J0D01*
G01*
X39556250Y-23050000D01*
G75*
G02*
X39775000Y-23268750I0J-218750D01*
G01*
X39775000Y-23706250D01*
G75*
G02*
X39556250Y-23925000I-218750J0D01*
G01*
G37*
G36*
G01*
X44156250Y-22350000D02*
X43643750Y-22350000D01*
G75*
G02*
X43425000Y-22131250I0J218750D01*
G01*
X43425000Y-21693750D01*
G75*
G02*
X43643750Y-21475000I218750J0D01*
G01*
X44156250Y-21475000D01*
G75*
G02*
X44375000Y-21693750I0J-218750D01*
G01*
X44375000Y-22131250D01*
G75*
G02*
X44156250Y-22350000I-218750J0D01*
G01*
G37*
G36*
G01*
X44156250Y-23925000D02*
X43643750Y-23925000D01*
G75*
G02*
X43425000Y-23706250I0J218750D01*
G01*
X43425000Y-23268750D01*
G75*
G02*
X43643750Y-23050000I218750J0D01*
G01*
X44156250Y-23050000D01*
G75*
G02*
X44375000Y-23268750I0J-218750D01*
G01*
X44375000Y-23706250D01*
G75*
G02*
X44156250Y-23925000I-218750J0D01*
G01*
G37*
G36*
G01*
X41506250Y-22350000D02*
X40993750Y-22350000D01*
G75*
G02*
X40775000Y-22131250I0J218750D01*
G01*
X40775000Y-21693750D01*
G75*
G02*
X40993750Y-21475000I218750J0D01*
G01*
X41506250Y-21475000D01*
G75*
G02*
X41725000Y-21693750I0J-218750D01*
G01*
X41725000Y-22131250D01*
G75*
G02*
X41506250Y-22350000I-218750J0D01*
G01*
G37*
G36*
G01*
X41506250Y-23925000D02*
X40993750Y-23925000D01*
G75*
G02*
X40775000Y-23706250I0J218750D01*
G01*
X40775000Y-23268750D01*
G75*
G02*
X40993750Y-23050000I218750J0D01*
G01*
X41506250Y-23050000D01*
G75*
G02*
X41725000Y-23268750I0J-218750D01*
G01*
X41725000Y-23706250D01*
G75*
G02*
X41506250Y-23925000I-218750J0D01*
G01*
G37*
G36*
G01*
X41590000Y-25172500D02*
X41590000Y-24827500D01*
G75*
G02*
X41737500Y-24680000I147500J0D01*
G01*
X42032500Y-24680000D01*
G75*
G02*
X42180000Y-24827500I0J-147500D01*
G01*
X42180000Y-25172500D01*
G75*
G02*
X42032500Y-25320000I-147500J0D01*
G01*
X41737500Y-25320000D01*
G75*
G02*
X41590000Y-25172500I0J147500D01*
G01*
G37*
G36*
G01*
X40620000Y-25172500D02*
X40620000Y-24827500D01*
G75*
G02*
X40767500Y-24680000I147500J0D01*
G01*
X41062500Y-24680000D01*
G75*
G02*
X41210000Y-24827500I0J-147500D01*
G01*
X41210000Y-25172500D01*
G75*
G02*
X41062500Y-25320000I-147500J0D01*
G01*
X40767500Y-25320000D01*
G75*
G02*
X40620000Y-25172500I0J147500D01*
G01*
G37*
G36*
G01*
X43510000Y-24827500D02*
X43510000Y-25172500D01*
G75*
G02*
X43362500Y-25320000I-147500J0D01*
G01*
X43067500Y-25320000D01*
G75*
G02*
X42920000Y-25172500I0J147500D01*
G01*
X42920000Y-24827500D01*
G75*
G02*
X43067500Y-24680000I147500J0D01*
G01*
X43362500Y-24680000D01*
G75*
G02*
X43510000Y-24827500I0J-147500D01*
G01*
G37*
G36*
G01*
X44480000Y-24827500D02*
X44480000Y-25172500D01*
G75*
G02*
X44332500Y-25320000I-147500J0D01*
G01*
X44037500Y-25320000D01*
G75*
G02*
X43890000Y-25172500I0J147500D01*
G01*
X43890000Y-24827500D01*
G75*
G02*
X44037500Y-24680000I147500J0D01*
G01*
X44332500Y-24680000D01*
G75*
G02*
X44480000Y-24827500I0J-147500D01*
G01*
G37*
D26*
X11600000Y-11900000D03*
D27*
X5800000Y-11900000D03*
D28*
X8600000Y-16700000D03*
D29*
X4000000Y-36000000D03*
X86000000Y-36000000D03*
X86000000Y-4000000D03*
X4000000Y-4000000D03*
M02*
