G04 #@! TF.GenerationSoftware,KiCad,Pcbnew,(5.1.9-0-10_14)*
G04 #@! TF.CreationDate,2021-05-09T00:19:33+01:00*
G04 #@! TF.ProjectId,usb3-ngff-carrier,75736233-2d6e-4676-9666-2d6361727269,1*
G04 #@! TF.SameCoordinates,Original*
G04 #@! TF.FileFunction,Copper,L3,Inr*
G04 #@! TF.FilePolarity,Positive*
%FSLAX46Y46*%
G04 Gerber Fmt 4.6, Leading zero omitted, Abs format (unit mm)*
G04 Created by KiCad (PCBNEW (5.1.9-0-10_14)) date 2021-05-09 00:19:33*
%MOMM*%
%LPD*%
G01*
G04 APERTURE LIST*
G04 #@! TA.AperFunction,ComponentPad*
%ADD10C,3.500000*%
G04 #@! TD*
G04 #@! TA.AperFunction,ComponentPad*
%ADD11C,1.420000*%
G04 #@! TD*
G04 #@! TA.AperFunction,ComponentPad*
%ADD12R,1.420000X1.420000*%
G04 #@! TD*
G04 #@! TA.AperFunction,ComponentPad*
%ADD13C,1.200000*%
G04 #@! TD*
G04 #@! TA.AperFunction,ComponentPad*
%ADD14O,1.700000X1.700000*%
G04 #@! TD*
G04 #@! TA.AperFunction,ComponentPad*
%ADD15R,1.700000X1.700000*%
G04 #@! TD*
G04 #@! TA.AperFunction,ComponentPad*
%ADD16R,1.800000X4.400000*%
G04 #@! TD*
G04 #@! TA.AperFunction,ComponentPad*
%ADD17O,1.800000X4.000000*%
G04 #@! TD*
G04 #@! TA.AperFunction,ComponentPad*
%ADD18O,4.000000X1.800000*%
G04 #@! TD*
G04 #@! TA.AperFunction,ComponentPad*
%ADD19C,4.700000*%
G04 #@! TD*
G04 #@! TA.AperFunction,ViaPad*
%ADD20C,0.550000*%
G04 #@! TD*
G04 #@! TA.AperFunction,ViaPad*
%ADD21C,0.685800*%
G04 #@! TD*
G04 #@! TA.AperFunction,Conductor*
%ADD22C,0.254000*%
G04 #@! TD*
G04 #@! TA.AperFunction,Conductor*
%ADD23C,0.152400*%
G04 #@! TD*
G04 APERTURE END LIST*
D10*
X8150000Y-20730000D03*
X8150000Y-32770000D03*
D11*
X10860000Y-25500000D03*
X10860000Y-28000000D03*
X12859999Y-25500000D03*
D12*
X12859999Y-28000000D03*
D13*
X14860000Y-22500000D03*
X14860000Y-24250000D03*
X14860000Y-31000000D03*
X14860000Y-29250000D03*
X14860000Y-26750000D03*
D14*
X9370000Y-37350000D03*
X11910000Y-37350000D03*
D15*
X14450000Y-37350000D03*
D16*
X11600000Y-11900000D03*
D17*
X5800000Y-11900000D03*
D18*
X8600000Y-16700000D03*
D19*
X4000000Y-36000000D03*
X86000000Y-36000000D03*
X86000000Y-4000000D03*
X4000000Y-4000000D03*
D20*
X17550000Y-12675000D03*
X16650000Y-12675000D03*
X17125000Y-13400000D03*
X27600000Y-28500000D03*
X27600000Y-27600000D03*
X19950000Y-22700000D03*
X6050000Y-6700000D03*
X7350000Y-7400000D03*
X6550000Y-7400000D03*
X26700000Y-28500000D03*
X26700000Y-27600000D03*
X23200000Y-18800000D03*
X29125000Y-3100000D03*
X29875000Y-3100000D03*
X30625000Y-3100000D03*
X31375000Y-3100000D03*
X32125000Y-3100000D03*
X32875000Y-3100000D03*
X25600000Y-38650000D03*
X25200000Y-37850000D03*
X27600000Y-37850000D03*
X26400000Y-38650000D03*
X26000000Y-37850000D03*
X26800000Y-37850000D03*
X27200000Y-38650000D03*
X27275000Y-1075000D03*
X27675000Y-1875000D03*
X25275000Y-1875000D03*
X26475000Y-1075000D03*
X26875000Y-1875000D03*
X26075000Y-1875000D03*
X25675000Y-1075000D03*
X20750000Y-16700000D03*
X47500000Y-7500000D03*
X50000000Y-7500000D03*
X52500000Y-7500000D03*
X55000000Y-7500000D03*
X57500000Y-7500000D03*
X60000000Y-7500000D03*
X62500000Y-7500000D03*
X65000000Y-7500000D03*
X67500000Y-7500000D03*
X70000000Y-7500000D03*
X72500000Y-7500000D03*
X75000000Y-7500000D03*
X77500000Y-7500000D03*
X80000000Y-7500000D03*
X82500000Y-7500000D03*
X85000000Y-7500000D03*
X87500000Y-7500000D03*
X87500000Y-10000000D03*
X85000000Y-10000000D03*
X87500000Y-32500000D03*
X87500000Y-30000000D03*
X87500000Y-27500000D03*
X87500000Y-25000000D03*
X87500000Y-22500000D03*
X87500000Y-20000000D03*
X87500000Y-20000000D03*
X87500000Y-15000000D03*
X87500000Y-17500000D03*
X87500000Y-12500000D03*
X85000000Y-12500000D03*
X82500000Y-10000000D03*
X82500000Y-12500000D03*
X80000000Y-10000000D03*
X80000000Y-12500000D03*
X77500000Y-10000000D03*
X77500000Y-12500000D03*
X75000000Y-10000000D03*
X75000000Y-12500000D03*
X72500000Y-10000000D03*
X72500000Y-12500000D03*
X70000000Y-10000000D03*
X70000000Y-10000000D03*
X67500000Y-10000000D03*
X67500000Y-12500000D03*
X70000000Y-12500000D03*
X65000000Y-12500000D03*
X65000000Y-10000000D03*
X62500000Y-10000000D03*
X62500000Y-12500000D03*
X60000000Y-12500000D03*
X57500000Y-10000000D03*
X60000000Y-10000000D03*
X57500000Y-12500000D03*
X55000000Y-12500000D03*
X55000000Y-10000000D03*
X52500000Y-10000000D03*
X52500000Y-12500000D03*
X50000000Y-12500000D03*
X50000000Y-10000000D03*
X47500000Y-10000000D03*
X47500000Y-12500000D03*
X45000000Y-12500000D03*
X45000000Y-10000000D03*
X50000000Y-15000000D03*
X52500000Y-15000000D03*
X55000000Y-15000000D03*
X57500000Y-15000000D03*
X60000000Y-15000000D03*
X62500000Y-15000000D03*
X65000000Y-15000000D03*
X67500000Y-15000000D03*
X70000000Y-15000000D03*
X72500000Y-15000000D03*
X75000000Y-15000000D03*
X77500000Y-15000000D03*
X80000000Y-15000000D03*
X82500000Y-15000000D03*
X85000000Y-15000000D03*
X85000000Y-17500000D03*
X75000000Y-17500000D03*
X75000000Y-20000000D03*
X75000000Y-22500000D03*
X77500000Y-25000000D03*
X75000000Y-25000000D03*
X80000000Y-25000000D03*
X82500000Y-25000000D03*
X85000000Y-25000000D03*
X85000000Y-22500000D03*
X85000000Y-20000000D03*
X72500000Y-25000000D03*
X70000000Y-25000000D03*
X67500000Y-25000000D03*
X85000000Y-27500000D03*
X82500000Y-27500000D03*
X85000000Y-30000000D03*
X82500000Y-30000000D03*
X85000000Y-32500000D03*
X82500000Y-32500000D03*
X82500000Y-35000000D03*
X82500000Y-5000000D03*
X80000000Y-5000000D03*
X77500000Y-5000000D03*
X75000000Y-5000000D03*
X72500000Y-5000000D03*
X70000000Y-5000000D03*
X67500000Y-5000000D03*
X65000000Y-5000000D03*
X62500000Y-5000000D03*
X60000000Y-5000000D03*
X57500000Y-5000000D03*
X55000000Y-5000000D03*
X52500000Y-5000000D03*
X50000000Y-5000000D03*
X47500000Y-5000000D03*
X45000000Y-7500000D03*
X42500000Y-10000000D03*
X42500000Y-12500000D03*
X67500000Y-27500000D03*
X70000000Y-27500000D03*
X67500000Y-30000000D03*
X70000000Y-30000000D03*
X67500000Y-32500000D03*
X70000000Y-32500000D03*
X70000000Y-35000000D03*
X67500000Y-35000000D03*
X72500000Y-27500000D03*
X80000000Y-27500000D03*
X77500000Y-27500000D03*
X75000000Y-27500000D03*
X72500000Y-30000000D03*
X75000000Y-30000000D03*
X77500000Y-30000000D03*
X80000000Y-30000000D03*
X80000000Y-32500000D03*
X77500000Y-32500000D03*
X72500000Y-32500000D03*
X75000000Y-32500000D03*
X72500000Y-35000000D03*
X75000000Y-35000000D03*
X77500000Y-35000000D03*
X80000000Y-35000000D03*
X12500000Y-34000000D03*
X13500000Y-34000000D03*
X14500000Y-34000000D03*
X15500000Y-34000000D03*
X16500000Y-34000000D03*
X29000000Y-36750000D03*
X29750000Y-36750000D03*
X30500000Y-36750000D03*
X31250000Y-36750000D03*
X32000000Y-36750000D03*
X32750000Y-36750000D03*
X23300000Y-30300000D03*
X22600000Y-28900000D03*
X26700000Y-26700000D03*
X27400000Y-14250000D03*
X27400000Y-15800000D03*
X27400000Y-17400000D03*
X37300000Y-12100000D03*
X35600000Y-32050000D03*
X35600000Y-33350000D03*
X33700000Y-35600000D03*
X27450000Y-25850000D03*
X13400000Y-30100000D03*
X13400000Y-30900000D03*
X12800000Y-31300000D03*
X12800000Y-30500000D03*
X12800000Y-29700000D03*
X36400000Y-32700000D03*
X65000000Y-25000000D03*
X62500000Y-25000000D03*
X62500000Y-27500000D03*
X65000000Y-27500000D03*
X62500000Y-30000000D03*
X65000000Y-30000000D03*
X62500000Y-32500000D03*
X65000000Y-32500000D03*
X65000000Y-35000000D03*
X62500000Y-35000000D03*
X57500000Y-20000000D03*
X60000000Y-20000000D03*
X62500000Y-20000000D03*
X65000000Y-20000000D03*
X65000000Y-17500000D03*
X62500000Y-17500000D03*
X60000000Y-17500000D03*
X57500000Y-17500000D03*
X47500000Y-15000000D03*
X40000000Y-15000000D03*
X42500000Y-15000000D03*
X45000000Y-15000000D03*
X38100000Y-11400000D03*
X28550000Y-9850000D03*
X27950000Y-30350000D03*
X23200000Y-16300000D03*
X23200000Y-15050000D03*
X23200000Y-13900000D03*
X20750000Y-15700000D03*
X23200000Y-11550000D03*
X7800000Y-25000000D03*
X7000000Y-25600000D03*
X6300000Y-26400000D03*
X6200000Y-27600000D03*
X6200000Y-28800000D03*
X6800000Y-29800000D03*
X19600000Y-31000000D03*
X20400000Y-30200000D03*
X21200000Y-29400000D03*
X28550000Y-15050000D03*
X28550000Y-16450000D03*
X27400000Y-10900000D03*
X27400000Y-12550000D03*
X28550000Y-11600000D03*
X40000000Y-12500000D03*
X40000000Y-10000000D03*
X42500000Y-7500000D03*
X45000000Y-5000000D03*
X67500000Y-17500000D03*
X72500000Y-17500000D03*
X72500000Y-22500000D03*
X67500000Y-22500000D03*
X77500000Y-17500000D03*
X82500000Y-17500000D03*
X82500000Y-22500000D03*
X77500000Y-22500000D03*
X22300000Y-18150000D03*
X23200000Y-17550000D03*
X13000000Y-7400000D03*
X12200000Y-7400000D03*
X11400000Y-7400000D03*
X10600000Y-7400000D03*
X9800000Y-7400000D03*
X9000000Y-7400000D03*
X8200000Y-7400000D03*
X23250000Y-10300000D03*
X23250000Y-9150000D03*
X17100000Y-7350000D03*
X16120000Y-7400000D03*
X16110000Y-8350000D03*
X65000000Y-22500000D03*
X62500000Y-22500000D03*
X60000000Y-25000000D03*
X60000000Y-27500000D03*
X57500000Y-25000000D03*
X57500000Y-27500000D03*
X60000000Y-32500000D03*
X57500000Y-32500000D03*
X60000000Y-35000000D03*
X57500000Y-35000000D03*
X55000000Y-17500000D03*
X47500000Y-25000000D03*
X45000000Y-25000000D03*
X42800000Y-25000000D03*
X55000000Y-32500000D03*
X52500000Y-32500000D03*
X50000000Y-32500000D03*
X47500000Y-32500000D03*
X47500000Y-35000000D03*
X45000000Y-32500000D03*
X45000000Y-35000000D03*
X42500000Y-32500000D03*
X42500000Y-30000000D03*
X60000000Y-22500000D03*
X55000000Y-20000000D03*
X45000000Y-22500000D03*
X40000000Y-20000000D03*
X40600000Y-21900000D03*
X50800000Y-21800000D03*
X36100000Y-22100000D03*
X36100000Y-23100000D03*
X36100000Y-21100000D03*
X50800000Y-20800000D03*
X50800000Y-22800000D03*
X53700000Y-26800000D03*
X52900000Y-26800000D03*
X52100000Y-26800000D03*
X41400000Y-21900000D03*
X42200000Y-21900000D03*
X55300000Y-21900000D03*
X56100000Y-21900000D03*
X56900000Y-21900000D03*
X37300000Y-10600000D03*
X45000000Y-20000000D03*
X42500000Y-20000000D03*
X39400000Y-26900000D03*
X14950000Y-7400000D03*
X13850000Y-7400000D03*
X57500000Y-30000000D03*
X40400000Y-26900000D03*
X50800000Y-19800000D03*
X48400000Y-25000000D03*
X47950000Y-25800000D03*
X47500000Y-20000000D03*
X33300000Y-25450000D03*
X28550000Y-13400000D03*
X17250000Y-24650000D03*
X16450000Y-23500000D03*
X16450000Y-26000000D03*
X18500000Y-22750000D03*
X17100000Y-29450000D03*
X18500000Y-28000000D03*
X19900000Y-26650000D03*
X28550000Y-18550000D03*
X27400000Y-22100000D03*
X28550000Y-24000000D03*
X29900000Y-22250000D03*
X19300000Y-23800000D03*
X12700000Y-19100000D03*
X11200000Y-19600000D03*
X11700000Y-19100000D03*
X12200000Y-20600000D03*
X11200000Y-20600000D03*
X12200000Y-19600000D03*
X11700000Y-20100000D03*
X12700000Y-20100000D03*
X22600000Y-28000000D03*
X20700000Y-31600000D03*
X30700000Y-27000000D03*
X36200000Y-19350000D03*
X35564957Y-18414440D03*
X34850000Y-18850000D03*
D21*
X30650000Y-20500000D03*
X37100000Y-30600000D03*
D20*
X22600000Y-26850000D03*
X28533531Y-24925596D03*
X22650000Y-22550000D03*
X22850000Y-21750000D03*
X27400727Y-20806813D03*
X27400000Y-19800000D03*
X23200000Y-12750000D03*
X20700000Y-18500000D03*
X13490000Y-12290000D03*
X13490000Y-13090000D03*
X13490000Y-11490000D03*
X17150000Y-11925000D03*
X17575000Y-11200000D03*
X16675000Y-11200000D03*
X16025000Y-9850000D03*
X13490000Y-9860000D03*
X13490000Y-10680000D03*
X16025000Y-10675000D03*
X14325000Y-11200000D03*
X15225000Y-11200000D03*
X21950000Y-3640000D03*
X22450000Y-4140000D03*
X23450000Y-4140000D03*
X22950000Y-3640000D03*
X21950000Y-4640000D03*
X22950000Y-5640000D03*
X22450000Y-5140000D03*
X21950000Y-5640000D03*
X23450000Y-5140000D03*
X22950000Y-4640000D03*
X24200000Y-32300000D03*
X24200000Y-33300000D03*
X22650000Y-33800000D03*
X22650000Y-32800000D03*
X22650000Y-31800000D03*
X23150000Y-32300000D03*
X23150000Y-33300000D03*
X23650000Y-33800000D03*
X23650000Y-32800000D03*
X23650000Y-31800000D03*
X17200000Y-38075000D03*
X21925000Y-38100000D03*
D21*
X30650000Y-17500000D03*
X37100000Y-31700000D03*
D20*
X34850000Y-16250000D03*
X34850000Y-17950000D03*
X34850000Y-17100000D03*
D22*
X87495651Y-496788D02*
X87972419Y-640733D01*
X88412149Y-874541D01*
X88798096Y-1189312D01*
X89115547Y-1573045D01*
X89352420Y-2011135D01*
X89499690Y-2486886D01*
X89553950Y-3003131D01*
X89553951Y-36978176D01*
X89503212Y-37495651D01*
X89359268Y-37972416D01*
X89125459Y-38412149D01*
X88810688Y-38798096D01*
X88426955Y-39115548D01*
X87988869Y-39352419D01*
X87513110Y-39499692D01*
X86996868Y-39553950D01*
X3021814Y-39553950D01*
X2504349Y-39503212D01*
X2027584Y-39359268D01*
X1587851Y-39125459D01*
X1201904Y-38810688D01*
X884452Y-38426955D01*
X647581Y-37988869D01*
X500308Y-37513110D01*
X446050Y-36996868D01*
X446050Y-35726489D01*
X1223000Y-35726489D01*
X1223000Y-36273511D01*
X1329718Y-36810021D01*
X1539054Y-37315403D01*
X1842963Y-37770234D01*
X2229766Y-38157037D01*
X2684597Y-38460946D01*
X3189979Y-38670282D01*
X3726489Y-38777000D01*
X4273511Y-38777000D01*
X4810021Y-38670282D01*
X5315403Y-38460946D01*
X5770234Y-38157037D01*
X6157037Y-37770234D01*
X6199361Y-37706891D01*
X7928519Y-37706891D01*
X8025843Y-37981252D01*
X8174822Y-38231355D01*
X8369731Y-38447588D01*
X8603080Y-38621641D01*
X8865901Y-38746825D01*
X9013110Y-38791476D01*
X9243000Y-38670155D01*
X9243000Y-37477000D01*
X8049186Y-37477000D01*
X7928519Y-37706891D01*
X6199361Y-37706891D01*
X6460946Y-37315403D01*
X6594444Y-36993109D01*
X7928519Y-36993109D01*
X8049186Y-37223000D01*
X9243000Y-37223000D01*
X9243000Y-36029845D01*
X9497000Y-36029845D01*
X9497000Y-37223000D01*
X9517000Y-37223000D01*
X9517000Y-37477000D01*
X9497000Y-37477000D01*
X9497000Y-38670155D01*
X9726890Y-38791476D01*
X9874099Y-38746825D01*
X10136920Y-38621641D01*
X10370269Y-38447588D01*
X10565178Y-38231355D01*
X10714157Y-37981252D01*
X10748803Y-37883584D01*
X10778337Y-37954886D01*
X10918089Y-38164040D01*
X11095960Y-38341911D01*
X11305114Y-38481663D01*
X11537513Y-38577926D01*
X11784226Y-38627000D01*
X12035774Y-38627000D01*
X12282487Y-38577926D01*
X12514886Y-38481663D01*
X12724040Y-38341911D01*
X12901911Y-38164040D01*
X13041663Y-37954886D01*
X13137926Y-37722487D01*
X13170934Y-37556544D01*
X13170934Y-38200000D01*
X13179178Y-38283707D01*
X13203595Y-38364196D01*
X13243245Y-38438376D01*
X13296605Y-38503395D01*
X13361624Y-38556755D01*
X13435804Y-38596405D01*
X13516293Y-38620822D01*
X13600000Y-38629066D01*
X15300000Y-38629066D01*
X15383707Y-38620822D01*
X15464196Y-38596405D01*
X15538376Y-38556755D01*
X15603395Y-38503395D01*
X15656755Y-38438376D01*
X15696405Y-38364196D01*
X15720822Y-38283707D01*
X15729066Y-38200000D01*
X15729066Y-38005859D01*
X16498000Y-38005859D01*
X16498000Y-38144141D01*
X16524977Y-38279766D01*
X16577895Y-38407522D01*
X16654721Y-38522499D01*
X16752501Y-38620279D01*
X16867478Y-38697105D01*
X16995234Y-38750023D01*
X17130859Y-38777000D01*
X17269141Y-38777000D01*
X17404766Y-38750023D01*
X17532522Y-38697105D01*
X17647499Y-38620279D01*
X17745279Y-38522499D01*
X17822105Y-38407522D01*
X17875023Y-38279766D01*
X17902000Y-38144141D01*
X17902000Y-38030859D01*
X21223000Y-38030859D01*
X21223000Y-38169141D01*
X21249977Y-38304766D01*
X21302895Y-38432522D01*
X21379721Y-38547499D01*
X21477501Y-38645279D01*
X21592478Y-38722105D01*
X21720234Y-38775023D01*
X21855859Y-38802000D01*
X21994141Y-38802000D01*
X22129766Y-38775023D01*
X22257522Y-38722105D01*
X22372499Y-38645279D01*
X22470279Y-38547499D01*
X22547105Y-38432522D01*
X22600023Y-38304766D01*
X22627000Y-38169141D01*
X22627000Y-38030859D01*
X22600023Y-37895234D01*
X22547105Y-37767478D01*
X22470279Y-37652501D01*
X22372499Y-37554721D01*
X22257522Y-37477895D01*
X22129766Y-37424977D01*
X21994141Y-37398000D01*
X21855859Y-37398000D01*
X21720234Y-37424977D01*
X21592478Y-37477895D01*
X21477501Y-37554721D01*
X21379721Y-37652501D01*
X21302895Y-37767478D01*
X21249977Y-37895234D01*
X21223000Y-38030859D01*
X17902000Y-38030859D01*
X17902000Y-38005859D01*
X17875023Y-37870234D01*
X17822105Y-37742478D01*
X17745279Y-37627501D01*
X17647499Y-37529721D01*
X17532522Y-37452895D01*
X17404766Y-37399977D01*
X17269141Y-37373000D01*
X17130859Y-37373000D01*
X16995234Y-37399977D01*
X16867478Y-37452895D01*
X16752501Y-37529721D01*
X16654721Y-37627501D01*
X16577895Y-37742478D01*
X16524977Y-37870234D01*
X16498000Y-38005859D01*
X15729066Y-38005859D01*
X15729066Y-36500000D01*
X15720822Y-36416293D01*
X15696405Y-36335804D01*
X15656755Y-36261624D01*
X15603395Y-36196605D01*
X15538376Y-36143245D01*
X15464196Y-36103595D01*
X15383707Y-36079178D01*
X15300000Y-36070934D01*
X13600000Y-36070934D01*
X13516293Y-36079178D01*
X13435804Y-36103595D01*
X13361624Y-36143245D01*
X13296605Y-36196605D01*
X13243245Y-36261624D01*
X13203595Y-36335804D01*
X13179178Y-36416293D01*
X13170934Y-36500000D01*
X13170934Y-37143456D01*
X13137926Y-36977513D01*
X13041663Y-36745114D01*
X12901911Y-36535960D01*
X12724040Y-36358089D01*
X12514886Y-36218337D01*
X12282487Y-36122074D01*
X12035774Y-36073000D01*
X11784226Y-36073000D01*
X11537513Y-36122074D01*
X11305114Y-36218337D01*
X11095960Y-36358089D01*
X10918089Y-36535960D01*
X10778337Y-36745114D01*
X10748803Y-36816416D01*
X10714157Y-36718748D01*
X10565178Y-36468645D01*
X10370269Y-36252412D01*
X10136920Y-36078359D01*
X9874099Y-35953175D01*
X9726890Y-35908524D01*
X9497000Y-36029845D01*
X9243000Y-36029845D01*
X9013110Y-35908524D01*
X8865901Y-35953175D01*
X8603080Y-36078359D01*
X8369731Y-36252412D01*
X8174822Y-36468645D01*
X8025843Y-36718748D01*
X7928519Y-36993109D01*
X6594444Y-36993109D01*
X6670282Y-36810021D01*
X6777000Y-36273511D01*
X6777000Y-35726489D01*
X83223000Y-35726489D01*
X83223000Y-36273511D01*
X83329718Y-36810021D01*
X83539054Y-37315403D01*
X83842963Y-37770234D01*
X84229766Y-38157037D01*
X84684597Y-38460946D01*
X85189979Y-38670282D01*
X85726489Y-38777000D01*
X86273511Y-38777000D01*
X86810021Y-38670282D01*
X87315403Y-38460946D01*
X87770234Y-38157037D01*
X88157037Y-37770234D01*
X88460946Y-37315403D01*
X88670282Y-36810021D01*
X88777000Y-36273511D01*
X88777000Y-35726489D01*
X88670282Y-35189979D01*
X88460946Y-34684597D01*
X88157037Y-34229766D01*
X87770234Y-33842963D01*
X87315403Y-33539054D01*
X86810021Y-33329718D01*
X86273511Y-33223000D01*
X85726489Y-33223000D01*
X85189979Y-33329718D01*
X84684597Y-33539054D01*
X84229766Y-33842963D01*
X83842963Y-34229766D01*
X83539054Y-34684597D01*
X83329718Y-35189979D01*
X83223000Y-35726489D01*
X6777000Y-35726489D01*
X6670282Y-35189979D01*
X6460946Y-34684597D01*
X6297250Y-34439609D01*
X6659997Y-34439609D01*
X6846073Y-34780766D01*
X7263409Y-34996513D01*
X7714815Y-35126696D01*
X8182946Y-35166313D01*
X8649811Y-35113842D01*
X9097468Y-34971297D01*
X9453927Y-34780766D01*
X9640003Y-34439609D01*
X8150000Y-32949605D01*
X6659997Y-34439609D01*
X6297250Y-34439609D01*
X6157037Y-34229766D01*
X5770234Y-33842963D01*
X5315403Y-33539054D01*
X4810021Y-33329718D01*
X4273511Y-33223000D01*
X3726489Y-33223000D01*
X3189979Y-33329718D01*
X2684597Y-33539054D01*
X2229766Y-33842963D01*
X1842963Y-34229766D01*
X1539054Y-34684597D01*
X1329718Y-35189979D01*
X1223000Y-35726489D01*
X446050Y-35726489D01*
X446050Y-32802946D01*
X5753687Y-32802946D01*
X5806158Y-33269811D01*
X5948703Y-33717468D01*
X6139234Y-34073927D01*
X6480391Y-34260003D01*
X7970395Y-32770000D01*
X8329605Y-32770000D01*
X9819609Y-34260003D01*
X10160766Y-34073927D01*
X10376513Y-33656591D01*
X10506696Y-33205185D01*
X10546313Y-32737054D01*
X10493842Y-32270189D01*
X10351297Y-31822532D01*
X10160766Y-31466073D01*
X9819609Y-31279997D01*
X8329605Y-32770000D01*
X7970395Y-32770000D01*
X6480391Y-31279997D01*
X6139234Y-31466073D01*
X5923487Y-31883409D01*
X5793304Y-32334815D01*
X5753687Y-32802946D01*
X446050Y-32802946D01*
X446050Y-31100391D01*
X6659997Y-31100391D01*
X8150000Y-32590395D01*
X9640003Y-31100391D01*
X9453927Y-30759234D01*
X9036591Y-30543487D01*
X8585185Y-30413304D01*
X8117054Y-30373687D01*
X7650189Y-30426158D01*
X7202532Y-30568703D01*
X6846073Y-30759234D01*
X6659997Y-31100391D01*
X446050Y-31100391D01*
X446050Y-28074077D01*
X9510523Y-28074077D01*
X9550905Y-28335922D01*
X9641594Y-28584859D01*
X9696797Y-28688137D01*
X9931584Y-28748811D01*
X10680395Y-28000000D01*
X9931584Y-27251189D01*
X9696797Y-27311863D01*
X9584898Y-27552015D01*
X9522002Y-27809383D01*
X9510523Y-28074077D01*
X446050Y-28074077D01*
X446050Y-25388015D01*
X9723000Y-25388015D01*
X9723000Y-25611985D01*
X9766695Y-25831651D01*
X9852404Y-26038571D01*
X9976835Y-26224795D01*
X10135205Y-26383165D01*
X10321429Y-26507596D01*
X10528349Y-26593305D01*
X10748015Y-26637000D01*
X10971985Y-26637000D01*
X11191651Y-26593305D01*
X11398571Y-26507596D01*
X11584795Y-26383165D01*
X11743165Y-26224795D01*
X11860000Y-26049940D01*
X11976834Y-26224795D01*
X12135204Y-26383165D01*
X12321428Y-26507596D01*
X12528348Y-26593305D01*
X12748014Y-26637000D01*
X12971984Y-26637000D01*
X13191650Y-26593305D01*
X13398570Y-26507596D01*
X13584794Y-26383165D01*
X13741299Y-26226660D01*
X13685763Y-26348516D01*
X13630000Y-26585313D01*
X13621505Y-26828438D01*
X13627722Y-26866619D01*
X13569999Y-26860934D01*
X12149999Y-26860934D01*
X12066292Y-26869178D01*
X11985803Y-26893595D01*
X11911623Y-26933245D01*
X11846604Y-26986605D01*
X11806240Y-27035788D01*
X11725422Y-26954970D01*
X11608810Y-27071582D01*
X11548137Y-26836797D01*
X11307985Y-26724898D01*
X11050617Y-26662002D01*
X10785923Y-26650523D01*
X10524078Y-26690905D01*
X10275141Y-26781594D01*
X10171863Y-26836797D01*
X10111189Y-27071584D01*
X10860000Y-27820395D01*
X10874143Y-27806253D01*
X11053748Y-27985858D01*
X11039605Y-28000000D01*
X11053748Y-28014143D01*
X10874143Y-28193748D01*
X10860000Y-28179605D01*
X10111189Y-28928416D01*
X10171863Y-29163203D01*
X10412015Y-29275102D01*
X10669383Y-29337998D01*
X10934077Y-29349477D01*
X11195922Y-29309095D01*
X11444859Y-29218406D01*
X11548137Y-29163203D01*
X11608810Y-28928418D01*
X11725422Y-29045030D01*
X11806240Y-28964212D01*
X11846604Y-29013395D01*
X11911623Y-29066755D01*
X11985803Y-29106405D01*
X12066292Y-29130822D01*
X12149999Y-29139066D01*
X13569999Y-29139066D01*
X13653706Y-29130822D01*
X13734195Y-29106405D01*
X13808375Y-29066755D01*
X13857319Y-29026587D01*
X13833000Y-29148849D01*
X13833000Y-29351151D01*
X13872467Y-29549565D01*
X13949885Y-29736467D01*
X14062277Y-29904674D01*
X14205326Y-30047723D01*
X14320980Y-30125000D01*
X14205326Y-30202277D01*
X14062277Y-30345326D01*
X13949885Y-30513533D01*
X13872467Y-30700435D01*
X13833000Y-30898849D01*
X13833000Y-31101151D01*
X13872467Y-31299565D01*
X13949885Y-31486467D01*
X14062277Y-31654674D01*
X14205326Y-31797723D01*
X14373533Y-31910115D01*
X14560435Y-31987533D01*
X14758849Y-32027000D01*
X14961151Y-32027000D01*
X15159565Y-31987533D01*
X15346467Y-31910115D01*
X15514674Y-31797723D01*
X15657723Y-31654674D01*
X15740453Y-31530859D01*
X19998000Y-31530859D01*
X19998000Y-31669141D01*
X20024977Y-31804766D01*
X20077895Y-31932522D01*
X20154721Y-32047499D01*
X20252501Y-32145279D01*
X20367478Y-32222105D01*
X20495234Y-32275023D01*
X20630859Y-32302000D01*
X20769141Y-32302000D01*
X20904766Y-32275023D01*
X21032522Y-32222105D01*
X21147499Y-32145279D01*
X21245279Y-32047499D01*
X21322105Y-31932522D01*
X21375023Y-31804766D01*
X21389723Y-31730859D01*
X21948000Y-31730859D01*
X21948000Y-31869141D01*
X21974977Y-32004766D01*
X22027895Y-32132522D01*
X22104721Y-32247499D01*
X22157222Y-32300000D01*
X22104721Y-32352501D01*
X22027895Y-32467478D01*
X21974977Y-32595234D01*
X21948000Y-32730859D01*
X21948000Y-32869141D01*
X21974977Y-33004766D01*
X22027895Y-33132522D01*
X22104721Y-33247499D01*
X22157222Y-33300000D01*
X22104721Y-33352501D01*
X22027895Y-33467478D01*
X21974977Y-33595234D01*
X21948000Y-33730859D01*
X21948000Y-33869141D01*
X21974977Y-34004766D01*
X22027895Y-34132522D01*
X22104721Y-34247499D01*
X22202501Y-34345279D01*
X22317478Y-34422105D01*
X22445234Y-34475023D01*
X22580859Y-34502000D01*
X22719141Y-34502000D01*
X22854766Y-34475023D01*
X22982522Y-34422105D01*
X23097499Y-34345279D01*
X23150000Y-34292778D01*
X23202501Y-34345279D01*
X23317478Y-34422105D01*
X23445234Y-34475023D01*
X23580859Y-34502000D01*
X23719141Y-34502000D01*
X23854766Y-34475023D01*
X23982522Y-34422105D01*
X24097499Y-34345279D01*
X24195279Y-34247499D01*
X24272105Y-34132522D01*
X24325023Y-34004766D01*
X24327898Y-33990313D01*
X24404766Y-33975023D01*
X24532522Y-33922105D01*
X24647499Y-33845279D01*
X24745279Y-33747499D01*
X24822105Y-33632522D01*
X24875023Y-33504766D01*
X24902000Y-33369141D01*
X24902000Y-33230859D01*
X24875023Y-33095234D01*
X24822105Y-32967478D01*
X24745279Y-32852501D01*
X24692778Y-32800000D01*
X24745279Y-32747499D01*
X24822105Y-32632522D01*
X24875023Y-32504766D01*
X24902000Y-32369141D01*
X24902000Y-32230859D01*
X24875023Y-32095234D01*
X24822105Y-31967478D01*
X24745279Y-31852501D01*
X24647499Y-31754721D01*
X24532522Y-31677895D01*
X24404766Y-31624977D01*
X24327898Y-31609687D01*
X24325023Y-31595234D01*
X24272105Y-31467478D01*
X24195279Y-31352501D01*
X24097499Y-31254721D01*
X23982522Y-31177895D01*
X23854766Y-31124977D01*
X23719141Y-31098000D01*
X23580859Y-31098000D01*
X23445234Y-31124977D01*
X23317478Y-31177895D01*
X23202501Y-31254721D01*
X23150000Y-31307222D01*
X23097499Y-31254721D01*
X22982522Y-31177895D01*
X22854766Y-31124977D01*
X22719141Y-31098000D01*
X22580859Y-31098000D01*
X22445234Y-31124977D01*
X22317478Y-31177895D01*
X22202501Y-31254721D01*
X22104721Y-31352501D01*
X22027895Y-31467478D01*
X21974977Y-31595234D01*
X21948000Y-31730859D01*
X21389723Y-31730859D01*
X21402000Y-31669141D01*
X21402000Y-31530859D01*
X21375023Y-31395234D01*
X21322105Y-31267478D01*
X21245279Y-31152501D01*
X21147499Y-31054721D01*
X21032522Y-30977895D01*
X20904766Y-30924977D01*
X20769141Y-30898000D01*
X20630859Y-30898000D01*
X20495234Y-30924977D01*
X20367478Y-30977895D01*
X20252501Y-31054721D01*
X20154721Y-31152501D01*
X20077895Y-31267478D01*
X20024977Y-31395234D01*
X19998000Y-31530859D01*
X15740453Y-31530859D01*
X15770115Y-31486467D01*
X15847533Y-31299565D01*
X15887000Y-31101151D01*
X15887000Y-30898849D01*
X15847533Y-30700435D01*
X15770115Y-30513533D01*
X15657723Y-30345326D01*
X15514674Y-30202277D01*
X15399020Y-30125000D01*
X15514674Y-30047723D01*
X15657723Y-29904674D01*
X15658324Y-29903774D01*
X29023000Y-29903774D01*
X29023000Y-30096226D01*
X29060546Y-30284980D01*
X29134194Y-30462783D01*
X29241115Y-30622801D01*
X29377199Y-30758885D01*
X29537217Y-30865806D01*
X29715020Y-30939454D01*
X29903774Y-30977000D01*
X30096226Y-30977000D01*
X30284980Y-30939454D01*
X30462783Y-30865806D01*
X30622801Y-30758885D01*
X30758885Y-30622801D01*
X30824787Y-30524171D01*
X36330100Y-30524171D01*
X36330100Y-30675829D01*
X36359687Y-30824571D01*
X36417724Y-30964684D01*
X36501980Y-31090783D01*
X36561197Y-31150000D01*
X36501980Y-31209217D01*
X36417724Y-31335316D01*
X36359687Y-31475429D01*
X36330100Y-31624171D01*
X36330100Y-31775829D01*
X36359687Y-31924571D01*
X36417724Y-32064684D01*
X36501980Y-32190783D01*
X36609217Y-32298020D01*
X36735316Y-32382276D01*
X36875429Y-32440313D01*
X37024171Y-32469900D01*
X37175829Y-32469900D01*
X37324571Y-32440313D01*
X37464684Y-32382276D01*
X37590783Y-32298020D01*
X37698020Y-32190783D01*
X37782276Y-32064684D01*
X37840313Y-31924571D01*
X37869900Y-31775829D01*
X37869900Y-31624171D01*
X37840313Y-31475429D01*
X37782276Y-31335316D01*
X37698020Y-31209217D01*
X37638803Y-31150000D01*
X37698020Y-31090783D01*
X37782276Y-30964684D01*
X37840313Y-30824571D01*
X37869900Y-30675829D01*
X37869900Y-30524171D01*
X37840313Y-30375429D01*
X37782276Y-30235316D01*
X37698020Y-30109217D01*
X37590783Y-30001980D01*
X37464684Y-29917724D01*
X37324571Y-29859687D01*
X37175829Y-29830100D01*
X37024171Y-29830100D01*
X36875429Y-29859687D01*
X36735316Y-29917724D01*
X36609217Y-30001980D01*
X36501980Y-30109217D01*
X36417724Y-30235316D01*
X36359687Y-30375429D01*
X36330100Y-30524171D01*
X30824787Y-30524171D01*
X30865806Y-30462783D01*
X30939454Y-30284980D01*
X30977000Y-30096226D01*
X30977000Y-29903774D01*
X30939454Y-29715020D01*
X30865806Y-29537217D01*
X30758885Y-29377199D01*
X30622801Y-29241115D01*
X30462783Y-29134194D01*
X30284980Y-29060546D01*
X30096226Y-29023000D01*
X29903774Y-29023000D01*
X29715020Y-29060546D01*
X29537217Y-29134194D01*
X29377199Y-29241115D01*
X29241115Y-29377199D01*
X29134194Y-29537217D01*
X29060546Y-29715020D01*
X29023000Y-29903774D01*
X15658324Y-29903774D01*
X15770115Y-29736467D01*
X15847533Y-29549565D01*
X15887000Y-29351151D01*
X15887000Y-29148849D01*
X15847533Y-28950435D01*
X15770115Y-28763533D01*
X15657723Y-28595326D01*
X15514674Y-28452277D01*
X15346467Y-28339885D01*
X15159565Y-28262467D01*
X14961151Y-28223000D01*
X14758849Y-28223000D01*
X14560435Y-28262467D01*
X14373533Y-28339885D01*
X14205326Y-28452277D01*
X14062277Y-28595326D01*
X13999065Y-28689930D01*
X13999065Y-27643201D01*
X14072736Y-27716872D01*
X14189842Y-27599766D01*
X14237148Y-27823348D01*
X14458516Y-27924237D01*
X14695313Y-27980000D01*
X14938438Y-27988495D01*
X15178549Y-27949395D01*
X15406418Y-27864202D01*
X15482852Y-27823348D01*
X15530159Y-27599764D01*
X14860000Y-26929605D01*
X14845858Y-26943748D01*
X14666253Y-26764143D01*
X14680395Y-26750000D01*
X15039605Y-26750000D01*
X15709764Y-27420159D01*
X15933348Y-27372852D01*
X16034237Y-27151484D01*
X16090000Y-26914687D01*
X16094676Y-26780859D01*
X21898000Y-26780859D01*
X21898000Y-26919141D01*
X21924977Y-27054766D01*
X21977895Y-27182522D01*
X22054721Y-27297499D01*
X22152501Y-27395279D01*
X22196981Y-27425000D01*
X22152501Y-27454721D01*
X22054721Y-27552501D01*
X21977895Y-27667478D01*
X21924977Y-27795234D01*
X21898000Y-27930859D01*
X21898000Y-28069141D01*
X21924977Y-28204766D01*
X21977895Y-28332522D01*
X22054721Y-28447499D01*
X22152501Y-28545279D01*
X22267478Y-28622105D01*
X22395234Y-28675023D01*
X22530859Y-28702000D01*
X22669141Y-28702000D01*
X22804766Y-28675023D01*
X22932522Y-28622105D01*
X23047499Y-28545279D01*
X23145279Y-28447499D01*
X23222105Y-28332522D01*
X23275023Y-28204766D01*
X23302000Y-28069141D01*
X23302000Y-27930859D01*
X23275023Y-27795234D01*
X23222105Y-27667478D01*
X23145279Y-27552501D01*
X23047499Y-27454721D01*
X23003019Y-27425000D01*
X23047499Y-27395279D01*
X23145279Y-27297499D01*
X23222105Y-27182522D01*
X23275023Y-27054766D01*
X23299669Y-26930859D01*
X29998000Y-26930859D01*
X29998000Y-27069141D01*
X30024977Y-27204766D01*
X30077895Y-27332522D01*
X30154721Y-27447499D01*
X30252501Y-27545279D01*
X30367478Y-27622105D01*
X30495234Y-27675023D01*
X30630859Y-27702000D01*
X30769141Y-27702000D01*
X30904766Y-27675023D01*
X31032522Y-27622105D01*
X31147499Y-27545279D01*
X31245279Y-27447499D01*
X31322105Y-27332522D01*
X31375023Y-27204766D01*
X31402000Y-27069141D01*
X31402000Y-26930859D01*
X31375023Y-26795234D01*
X31322105Y-26667478D01*
X31245279Y-26552501D01*
X31147499Y-26454721D01*
X31032522Y-26377895D01*
X30904766Y-26324977D01*
X30769141Y-26298000D01*
X30630859Y-26298000D01*
X30495234Y-26324977D01*
X30367478Y-26377895D01*
X30252501Y-26454721D01*
X30154721Y-26552501D01*
X30077895Y-26667478D01*
X30024977Y-26795234D01*
X29998000Y-26930859D01*
X23299669Y-26930859D01*
X23302000Y-26919141D01*
X23302000Y-26780859D01*
X23275023Y-26645234D01*
X23222105Y-26517478D01*
X23145279Y-26402501D01*
X23047499Y-26304721D01*
X22932522Y-26227895D01*
X22804766Y-26174977D01*
X22669141Y-26148000D01*
X22530859Y-26148000D01*
X22395234Y-26174977D01*
X22267478Y-26227895D01*
X22152501Y-26304721D01*
X22054721Y-26402501D01*
X21977895Y-26517478D01*
X21924977Y-26645234D01*
X21898000Y-26780859D01*
X16094676Y-26780859D01*
X16098495Y-26671562D01*
X16059395Y-26431451D01*
X15974202Y-26203582D01*
X15933348Y-26127148D01*
X15709764Y-26079841D01*
X15039605Y-26750000D01*
X14680395Y-26750000D01*
X14010236Y-26079841D01*
X13811992Y-26121786D01*
X13867595Y-26038571D01*
X13924895Y-25900236D01*
X14189841Y-25900236D01*
X14860000Y-26570395D01*
X15530159Y-25900236D01*
X15482852Y-25676652D01*
X15261484Y-25575763D01*
X15024687Y-25520000D01*
X14781562Y-25511505D01*
X14541451Y-25550605D01*
X14313582Y-25635798D01*
X14237148Y-25676652D01*
X14189841Y-25900236D01*
X13924895Y-25900236D01*
X13953304Y-25831651D01*
X13996999Y-25611985D01*
X13996999Y-25388015D01*
X13953304Y-25168349D01*
X13867595Y-24961429D01*
X13743164Y-24775205D01*
X13584794Y-24616835D01*
X13398570Y-24492404D01*
X13191650Y-24406695D01*
X12971984Y-24363000D01*
X12748014Y-24363000D01*
X12528348Y-24406695D01*
X12321428Y-24492404D01*
X12135204Y-24616835D01*
X11976834Y-24775205D01*
X11860000Y-24950060D01*
X11743165Y-24775205D01*
X11584795Y-24616835D01*
X11398571Y-24492404D01*
X11191651Y-24406695D01*
X10971985Y-24363000D01*
X10748015Y-24363000D01*
X10528349Y-24406695D01*
X10321429Y-24492404D01*
X10135205Y-24616835D01*
X9976835Y-24775205D01*
X9852404Y-24961429D01*
X9766695Y-25168349D01*
X9723000Y-25388015D01*
X446050Y-25388015D01*
X446050Y-22399609D01*
X6659997Y-22399609D01*
X6846073Y-22740766D01*
X7263409Y-22956513D01*
X7714815Y-23086696D01*
X8182946Y-23126313D01*
X8649811Y-23073842D01*
X9097468Y-22931297D01*
X9453927Y-22740766D01*
X9640003Y-22399609D01*
X9639244Y-22398849D01*
X13833000Y-22398849D01*
X13833000Y-22601151D01*
X13872467Y-22799565D01*
X13949885Y-22986467D01*
X14062277Y-23154674D01*
X14205326Y-23297723D01*
X14320980Y-23375000D01*
X14205326Y-23452277D01*
X14062277Y-23595326D01*
X13949885Y-23763533D01*
X13872467Y-23950435D01*
X13833000Y-24148849D01*
X13833000Y-24351151D01*
X13872467Y-24549565D01*
X13949885Y-24736467D01*
X14062277Y-24904674D01*
X14205326Y-25047723D01*
X14373533Y-25160115D01*
X14560435Y-25237533D01*
X14758849Y-25277000D01*
X14961151Y-25277000D01*
X15159565Y-25237533D01*
X15346467Y-25160115D01*
X15514674Y-25047723D01*
X15657723Y-24904674D01*
X15689941Y-24856455D01*
X27831531Y-24856455D01*
X27831531Y-24994737D01*
X27858508Y-25130362D01*
X27911426Y-25258118D01*
X27988252Y-25373095D01*
X28086032Y-25470875D01*
X28201009Y-25547701D01*
X28328765Y-25600619D01*
X28464390Y-25627596D01*
X28602672Y-25627596D01*
X28738297Y-25600619D01*
X28866053Y-25547701D01*
X28981030Y-25470875D01*
X29078810Y-25373095D01*
X29155636Y-25258118D01*
X29208554Y-25130362D01*
X29235531Y-24994737D01*
X29235531Y-24856455D01*
X29208554Y-24720830D01*
X29155636Y-24593074D01*
X29078810Y-24478097D01*
X28981030Y-24380317D01*
X28866053Y-24303491D01*
X28738297Y-24250573D01*
X28602672Y-24223596D01*
X28464390Y-24223596D01*
X28328765Y-24250573D01*
X28201009Y-24303491D01*
X28086032Y-24380317D01*
X27988252Y-24478097D01*
X27911426Y-24593074D01*
X27858508Y-24720830D01*
X27831531Y-24856455D01*
X15689941Y-24856455D01*
X15770115Y-24736467D01*
X15847533Y-24549565D01*
X15887000Y-24351151D01*
X15887000Y-24148849D01*
X15847533Y-23950435D01*
X15770115Y-23763533D01*
X15657723Y-23595326D01*
X15514674Y-23452277D01*
X15399020Y-23375000D01*
X15514674Y-23297723D01*
X15657723Y-23154674D01*
X15770115Y-22986467D01*
X15847533Y-22799565D01*
X15887000Y-22601151D01*
X15887000Y-22480859D01*
X21948000Y-22480859D01*
X21948000Y-22619141D01*
X21974977Y-22754766D01*
X22027895Y-22882522D01*
X22104721Y-22997499D01*
X22202501Y-23095279D01*
X22317478Y-23172105D01*
X22445234Y-23225023D01*
X22580859Y-23252000D01*
X22719141Y-23252000D01*
X22854766Y-23225023D01*
X22982522Y-23172105D01*
X23097499Y-23095279D01*
X23195279Y-22997499D01*
X23272105Y-22882522D01*
X23325023Y-22754766D01*
X23352000Y-22619141D01*
X23352000Y-22480859D01*
X23325023Y-22345234D01*
X23302330Y-22290448D01*
X23395279Y-22197499D01*
X23472105Y-22082522D01*
X23525023Y-21954766D01*
X23552000Y-21819141D01*
X23552000Y-21680859D01*
X23525023Y-21545234D01*
X23472105Y-21417478D01*
X23395279Y-21302501D01*
X23297499Y-21204721D01*
X23182522Y-21127895D01*
X23054766Y-21074977D01*
X22919141Y-21048000D01*
X22780859Y-21048000D01*
X22645234Y-21074977D01*
X22517478Y-21127895D01*
X22402501Y-21204721D01*
X22304721Y-21302501D01*
X22227895Y-21417478D01*
X22174977Y-21545234D01*
X22148000Y-21680859D01*
X22148000Y-21819141D01*
X22174977Y-21954766D01*
X22197670Y-22009552D01*
X22104721Y-22102501D01*
X22027895Y-22217478D01*
X21974977Y-22345234D01*
X21948000Y-22480859D01*
X15887000Y-22480859D01*
X15887000Y-22398849D01*
X15847533Y-22200435D01*
X15770115Y-22013533D01*
X15657723Y-21845326D01*
X15514674Y-21702277D01*
X15346467Y-21589885D01*
X15159565Y-21512467D01*
X14961151Y-21473000D01*
X14758849Y-21473000D01*
X14560435Y-21512467D01*
X14373533Y-21589885D01*
X14205326Y-21702277D01*
X14062277Y-21845326D01*
X13949885Y-22013533D01*
X13872467Y-22200435D01*
X13833000Y-22398849D01*
X9639244Y-22398849D01*
X8150000Y-20909605D01*
X6659997Y-22399609D01*
X446050Y-22399609D01*
X446050Y-20762946D01*
X5753687Y-20762946D01*
X5806158Y-21229811D01*
X5948703Y-21677468D01*
X6139234Y-22033927D01*
X6480391Y-22220003D01*
X7970395Y-20730000D01*
X8329605Y-20730000D01*
X9819609Y-22220003D01*
X10160766Y-22033927D01*
X10376513Y-21616591D01*
X10506696Y-21165185D01*
X10535124Y-20829264D01*
X10577895Y-20932522D01*
X10654721Y-21047499D01*
X10752501Y-21145279D01*
X10867478Y-21222105D01*
X10995234Y-21275023D01*
X11130859Y-21302000D01*
X11269141Y-21302000D01*
X11404766Y-21275023D01*
X11532522Y-21222105D01*
X11647499Y-21145279D01*
X11700000Y-21092778D01*
X11752501Y-21145279D01*
X11867478Y-21222105D01*
X11995234Y-21275023D01*
X12130859Y-21302000D01*
X12269141Y-21302000D01*
X12404766Y-21275023D01*
X12532522Y-21222105D01*
X12647499Y-21145279D01*
X12745279Y-21047499D01*
X12822105Y-20932522D01*
X12875023Y-20804766D01*
X12879958Y-20779958D01*
X12904766Y-20775023D01*
X13032522Y-20722105D01*
X13147499Y-20645279D01*
X13245279Y-20547499D01*
X13322105Y-20432522D01*
X13375023Y-20304766D01*
X13402000Y-20169141D01*
X13402000Y-20030859D01*
X13375023Y-19895234D01*
X13322105Y-19767478D01*
X13297637Y-19730859D01*
X26698000Y-19730859D01*
X26698000Y-19869141D01*
X26724977Y-20004766D01*
X26777895Y-20132522D01*
X26854721Y-20247499D01*
X26910992Y-20303770D01*
X26855448Y-20359314D01*
X26778622Y-20474291D01*
X26725704Y-20602047D01*
X26698727Y-20737672D01*
X26698727Y-20875954D01*
X26725704Y-21011579D01*
X26778622Y-21139335D01*
X26855448Y-21254312D01*
X26953228Y-21352092D01*
X27068205Y-21428918D01*
X27195961Y-21481836D01*
X27331586Y-21508813D01*
X27469868Y-21508813D01*
X27605493Y-21481836D01*
X27733249Y-21428918D01*
X27848226Y-21352092D01*
X27946006Y-21254312D01*
X28022832Y-21139335D01*
X28075750Y-21011579D01*
X28102727Y-20875954D01*
X28102727Y-20737672D01*
X28075750Y-20602047D01*
X28022832Y-20474291D01*
X27989343Y-20424171D01*
X29880100Y-20424171D01*
X29880100Y-20575829D01*
X29909687Y-20724571D01*
X29967724Y-20864684D01*
X30051980Y-20990783D01*
X30159217Y-21098020D01*
X30285316Y-21182276D01*
X30425429Y-21240313D01*
X30574171Y-21269900D01*
X30725829Y-21269900D01*
X30874571Y-21240313D01*
X31014684Y-21182276D01*
X31140783Y-21098020D01*
X31248020Y-20990783D01*
X31332276Y-20864684D01*
X31390313Y-20724571D01*
X31419900Y-20575829D01*
X31419900Y-20424171D01*
X31390313Y-20275429D01*
X31332276Y-20135316D01*
X31248020Y-20009217D01*
X31140783Y-19901980D01*
X31014684Y-19817724D01*
X30874571Y-19759687D01*
X30725829Y-19730100D01*
X30574171Y-19730100D01*
X30425429Y-19759687D01*
X30285316Y-19817724D01*
X30159217Y-19901980D01*
X30051980Y-20009217D01*
X29967724Y-20135316D01*
X29909687Y-20275429D01*
X29880100Y-20424171D01*
X27989343Y-20424171D01*
X27946006Y-20359314D01*
X27889735Y-20303043D01*
X27945279Y-20247499D01*
X28022105Y-20132522D01*
X28075023Y-20004766D01*
X28102000Y-19869141D01*
X28102000Y-19730859D01*
X28075023Y-19595234D01*
X28022105Y-19467478D01*
X27945279Y-19352501D01*
X27847499Y-19254721D01*
X27732522Y-19177895D01*
X27604766Y-19124977D01*
X27469141Y-19098000D01*
X27330859Y-19098000D01*
X27195234Y-19124977D01*
X27067478Y-19177895D01*
X26952501Y-19254721D01*
X26854721Y-19352501D01*
X26777895Y-19467478D01*
X26724977Y-19595234D01*
X26698000Y-19730859D01*
X13297637Y-19730859D01*
X13245279Y-19652501D01*
X13192778Y-19600000D01*
X13245279Y-19547499D01*
X13322105Y-19432522D01*
X13375023Y-19304766D01*
X13402000Y-19169141D01*
X13402000Y-19030859D01*
X13375023Y-18895234D01*
X13322105Y-18767478D01*
X13245279Y-18652501D01*
X13147499Y-18554721D01*
X13032522Y-18477895D01*
X12918967Y-18430859D01*
X19998000Y-18430859D01*
X19998000Y-18569141D01*
X20024977Y-18704766D01*
X20077895Y-18832522D01*
X20154721Y-18947499D01*
X20252501Y-19045279D01*
X20367478Y-19122105D01*
X20495234Y-19175023D01*
X20630859Y-19202000D01*
X20769141Y-19202000D01*
X20904766Y-19175023D01*
X21032522Y-19122105D01*
X21147499Y-19045279D01*
X21245279Y-18947499D01*
X21322105Y-18832522D01*
X21375023Y-18704766D01*
X21402000Y-18569141D01*
X21402000Y-18430859D01*
X21375023Y-18295234D01*
X21322105Y-18167478D01*
X21245279Y-18052501D01*
X21147499Y-17954721D01*
X21032522Y-17877895D01*
X20904766Y-17824977D01*
X20769141Y-17798000D01*
X20630859Y-17798000D01*
X20495234Y-17824977D01*
X20367478Y-17877895D01*
X20252501Y-17954721D01*
X20154721Y-18052501D01*
X20077895Y-18167478D01*
X20024977Y-18295234D01*
X19998000Y-18430859D01*
X12918967Y-18430859D01*
X12904766Y-18424977D01*
X12769141Y-18398000D01*
X12630859Y-18398000D01*
X12495234Y-18424977D01*
X12367478Y-18477895D01*
X12252501Y-18554721D01*
X12200000Y-18607222D01*
X12147499Y-18554721D01*
X12032522Y-18477895D01*
X11904766Y-18424977D01*
X11769141Y-18398000D01*
X11630859Y-18398000D01*
X11495234Y-18424977D01*
X11367478Y-18477895D01*
X11252501Y-18554721D01*
X11154721Y-18652501D01*
X11077895Y-18767478D01*
X11024977Y-18895234D01*
X11020042Y-18920042D01*
X10995234Y-18924977D01*
X10867478Y-18977895D01*
X10752501Y-19054721D01*
X10654721Y-19152501D01*
X10577895Y-19267478D01*
X10524977Y-19395234D01*
X10498000Y-19530859D01*
X10498000Y-19669141D01*
X10524977Y-19804766D01*
X10577895Y-19932522D01*
X10654721Y-20047499D01*
X10707222Y-20100000D01*
X10654721Y-20152501D01*
X10577895Y-20267478D01*
X10524977Y-20395234D01*
X10516935Y-20435663D01*
X10493842Y-20230189D01*
X10351297Y-19782532D01*
X10160766Y-19426073D01*
X9819609Y-19239997D01*
X8329605Y-20730000D01*
X7970395Y-20730000D01*
X6480391Y-19239997D01*
X6139234Y-19426073D01*
X5923487Y-19843409D01*
X5793304Y-20294815D01*
X5753687Y-20762946D01*
X446050Y-20762946D01*
X446050Y-19060391D01*
X6659997Y-19060391D01*
X8150000Y-20550395D01*
X9640003Y-19060391D01*
X9453927Y-18719234D01*
X9036591Y-18503487D01*
X8585185Y-18373304D01*
X8117054Y-18333687D01*
X7650189Y-18386158D01*
X7202532Y-18528703D01*
X6846073Y-18719234D01*
X6659997Y-19060391D01*
X446050Y-19060391D01*
X446050Y-16700000D01*
X6166580Y-16700000D01*
X6192201Y-16960137D01*
X6268081Y-17210278D01*
X6391302Y-17440808D01*
X6557130Y-17642870D01*
X6759192Y-17808698D01*
X6989722Y-17931919D01*
X7239863Y-18007799D01*
X7434816Y-18027000D01*
X9765184Y-18027000D01*
X9960137Y-18007799D01*
X10210278Y-17931919D01*
X10440808Y-17808698D01*
X10642870Y-17642870D01*
X10808698Y-17440808D01*
X10817590Y-17424171D01*
X29880100Y-17424171D01*
X29880100Y-17575829D01*
X29909687Y-17724571D01*
X29967724Y-17864684D01*
X30051980Y-17990783D01*
X30159217Y-18098020D01*
X30285316Y-18182276D01*
X30425429Y-18240313D01*
X30574171Y-18269900D01*
X30725829Y-18269900D01*
X30874571Y-18240313D01*
X31014684Y-18182276D01*
X31140783Y-18098020D01*
X31248020Y-17990783D01*
X31332276Y-17864684D01*
X31390313Y-17724571D01*
X31419900Y-17575829D01*
X31419900Y-17424171D01*
X31390313Y-17275429D01*
X31332276Y-17135316D01*
X31248020Y-17009217D01*
X31140783Y-16901980D01*
X31014684Y-16817724D01*
X30874571Y-16759687D01*
X30725829Y-16730100D01*
X30574171Y-16730100D01*
X30425429Y-16759687D01*
X30285316Y-16817724D01*
X30159217Y-16901980D01*
X30051980Y-17009217D01*
X29967724Y-17135316D01*
X29909687Y-17275429D01*
X29880100Y-17424171D01*
X10817590Y-17424171D01*
X10931919Y-17210278D01*
X11007799Y-16960137D01*
X11033420Y-16700000D01*
X11007799Y-16439863D01*
X10931919Y-16189722D01*
X10927182Y-16180859D01*
X34148000Y-16180859D01*
X34148000Y-16319141D01*
X34174977Y-16454766D01*
X34227895Y-16582522D01*
X34289687Y-16675000D01*
X34227895Y-16767478D01*
X34174977Y-16895234D01*
X34148000Y-17030859D01*
X34148000Y-17169141D01*
X34174977Y-17304766D01*
X34227895Y-17432522D01*
X34289687Y-17525000D01*
X34227895Y-17617478D01*
X34174977Y-17745234D01*
X34148000Y-17880859D01*
X34148000Y-18019141D01*
X34174977Y-18154766D01*
X34227895Y-18282522D01*
X34304721Y-18397499D01*
X34307222Y-18400000D01*
X34304721Y-18402501D01*
X34227895Y-18517478D01*
X34174977Y-18645234D01*
X34148000Y-18780859D01*
X34148000Y-18919141D01*
X34174977Y-19054766D01*
X34227895Y-19182522D01*
X34304721Y-19297499D01*
X34402501Y-19395279D01*
X34517478Y-19472105D01*
X34645234Y-19525023D01*
X34780859Y-19552000D01*
X34919141Y-19552000D01*
X35054766Y-19525023D01*
X35182522Y-19472105D01*
X35297499Y-19395279D01*
X35395279Y-19297499D01*
X35472105Y-19182522D01*
X35499477Y-19116440D01*
X35536904Y-19116440D01*
X35524977Y-19145234D01*
X35498000Y-19280859D01*
X35498000Y-19419141D01*
X35524977Y-19554766D01*
X35577895Y-19682522D01*
X35654721Y-19797499D01*
X35752501Y-19895279D01*
X35867478Y-19972105D01*
X35995234Y-20025023D01*
X36130859Y-20052000D01*
X36269141Y-20052000D01*
X36404766Y-20025023D01*
X36532522Y-19972105D01*
X36647499Y-19895279D01*
X36732571Y-19810207D01*
X68323000Y-19810207D01*
X68323000Y-20189793D01*
X68397053Y-20562085D01*
X68542315Y-20912777D01*
X68753201Y-21228391D01*
X69021609Y-21496799D01*
X69337223Y-21707685D01*
X69687915Y-21852947D01*
X70060207Y-21927000D01*
X70439793Y-21927000D01*
X70812085Y-21852947D01*
X71162777Y-21707685D01*
X71478391Y-21496799D01*
X71746799Y-21228391D01*
X71957685Y-20912777D01*
X72102947Y-20562085D01*
X72177000Y-20189793D01*
X72177000Y-19810207D01*
X78323000Y-19810207D01*
X78323000Y-20189793D01*
X78397053Y-20562085D01*
X78542315Y-20912777D01*
X78753201Y-21228391D01*
X79021609Y-21496799D01*
X79337223Y-21707685D01*
X79687915Y-21852947D01*
X80060207Y-21927000D01*
X80439793Y-21927000D01*
X80812085Y-21852947D01*
X81162777Y-21707685D01*
X81478391Y-21496799D01*
X81746799Y-21228391D01*
X81957685Y-20912777D01*
X82102947Y-20562085D01*
X82177000Y-20189793D01*
X82177000Y-19810207D01*
X82102947Y-19437915D01*
X81957685Y-19087223D01*
X81746799Y-18771609D01*
X81478391Y-18503201D01*
X81162777Y-18292315D01*
X80812085Y-18147053D01*
X80439793Y-18073000D01*
X80060207Y-18073000D01*
X79687915Y-18147053D01*
X79337223Y-18292315D01*
X79021609Y-18503201D01*
X78753201Y-18771609D01*
X78542315Y-19087223D01*
X78397053Y-19437915D01*
X78323000Y-19810207D01*
X72177000Y-19810207D01*
X72102947Y-19437915D01*
X71957685Y-19087223D01*
X71746799Y-18771609D01*
X71478391Y-18503201D01*
X71162777Y-18292315D01*
X70812085Y-18147053D01*
X70439793Y-18073000D01*
X70060207Y-18073000D01*
X69687915Y-18147053D01*
X69337223Y-18292315D01*
X69021609Y-18503201D01*
X68753201Y-18771609D01*
X68542315Y-19087223D01*
X68397053Y-19437915D01*
X68323000Y-19810207D01*
X36732571Y-19810207D01*
X36745279Y-19797499D01*
X36822105Y-19682522D01*
X36875023Y-19554766D01*
X36902000Y-19419141D01*
X36902000Y-19280859D01*
X36875023Y-19145234D01*
X36822105Y-19017478D01*
X36745279Y-18902501D01*
X36647499Y-18804721D01*
X36532522Y-18727895D01*
X36404766Y-18674977D01*
X36269141Y-18648000D01*
X36228053Y-18648000D01*
X36239980Y-18619206D01*
X36266957Y-18483581D01*
X36266957Y-18345299D01*
X36239980Y-18209674D01*
X36187062Y-18081918D01*
X36110236Y-17966941D01*
X36012456Y-17869161D01*
X35897479Y-17792335D01*
X35769723Y-17739417D01*
X35634098Y-17712440D01*
X35511439Y-17712440D01*
X35472105Y-17617478D01*
X35410313Y-17525000D01*
X35472105Y-17432522D01*
X35525023Y-17304766D01*
X35552000Y-17169141D01*
X35552000Y-17030859D01*
X35525023Y-16895234D01*
X35472105Y-16767478D01*
X35410313Y-16675000D01*
X35472105Y-16582522D01*
X35525023Y-16454766D01*
X35552000Y-16319141D01*
X35552000Y-16180859D01*
X35525023Y-16045234D01*
X35472105Y-15917478D01*
X35395279Y-15802501D01*
X35297499Y-15704721D01*
X35182522Y-15627895D01*
X35054766Y-15574977D01*
X34919141Y-15548000D01*
X34780859Y-15548000D01*
X34645234Y-15574977D01*
X34517478Y-15627895D01*
X34402501Y-15704721D01*
X34304721Y-15802501D01*
X34227895Y-15917478D01*
X34174977Y-16045234D01*
X34148000Y-16180859D01*
X10927182Y-16180859D01*
X10808698Y-15959192D01*
X10642870Y-15757130D01*
X10440808Y-15591302D01*
X10210278Y-15468081D01*
X9960137Y-15392201D01*
X9765184Y-15373000D01*
X7434816Y-15373000D01*
X7239863Y-15392201D01*
X6989722Y-15468081D01*
X6759192Y-15591302D01*
X6557130Y-15757130D01*
X6391302Y-15959192D01*
X6268081Y-16189722D01*
X6192201Y-16439863D01*
X6166580Y-16700000D01*
X446050Y-16700000D01*
X446050Y-12027000D01*
X4265000Y-12027000D01*
X4265000Y-13127000D01*
X4319271Y-13424023D01*
X4430446Y-13704751D01*
X4594252Y-13958396D01*
X4804394Y-14175210D01*
X5052796Y-14346862D01*
X5329913Y-14466755D01*
X5435260Y-14491036D01*
X5673000Y-14370378D01*
X5673000Y-12027000D01*
X5927000Y-12027000D01*
X5927000Y-14370378D01*
X6164740Y-14491036D01*
X6270087Y-14466755D01*
X6547204Y-14346862D01*
X6795606Y-14175210D01*
X7005748Y-13958396D01*
X7169554Y-13704751D01*
X7280729Y-13424023D01*
X7335000Y-13127000D01*
X7335000Y-12027000D01*
X5927000Y-12027000D01*
X5673000Y-12027000D01*
X4265000Y-12027000D01*
X446050Y-12027000D01*
X446050Y-10673000D01*
X4265000Y-10673000D01*
X4265000Y-11773000D01*
X5673000Y-11773000D01*
X5673000Y-9429622D01*
X5927000Y-9429622D01*
X5927000Y-11773000D01*
X7335000Y-11773000D01*
X7335000Y-10673000D01*
X7280729Y-10375977D01*
X7169554Y-10095249D01*
X7005748Y-9841604D01*
X6868502Y-9700000D01*
X10270934Y-9700000D01*
X10270934Y-14100000D01*
X10279178Y-14183707D01*
X10303595Y-14264196D01*
X10343245Y-14338376D01*
X10396605Y-14403395D01*
X10461624Y-14456755D01*
X10535804Y-14496405D01*
X10616293Y-14520822D01*
X10700000Y-14529066D01*
X12500000Y-14529066D01*
X12583707Y-14520822D01*
X12664196Y-14496405D01*
X12738376Y-14456755D01*
X12803395Y-14403395D01*
X12856755Y-14338376D01*
X12896405Y-14264196D01*
X12920822Y-14183707D01*
X12929066Y-14100000D01*
X12929066Y-13514070D01*
X12944721Y-13537499D01*
X13042501Y-13635279D01*
X13157478Y-13712105D01*
X13285234Y-13765023D01*
X13420859Y-13792000D01*
X13559141Y-13792000D01*
X13694766Y-13765023D01*
X13822522Y-13712105D01*
X13937499Y-13635279D01*
X14035279Y-13537499D01*
X14112105Y-13422522D01*
X14165023Y-13294766D01*
X14192000Y-13159141D01*
X14192000Y-13020859D01*
X14165023Y-12885234D01*
X14112105Y-12757478D01*
X14067017Y-12690000D01*
X14112105Y-12622522D01*
X14165023Y-12494766D01*
X14192000Y-12359141D01*
X14192000Y-12220859D01*
X14165023Y-12085234D01*
X14112105Y-11957478D01*
X14067017Y-11890000D01*
X14086391Y-11861005D01*
X14120234Y-11875023D01*
X14255859Y-11902000D01*
X14394141Y-11902000D01*
X14529766Y-11875023D01*
X14657522Y-11822105D01*
X14772499Y-11745279D01*
X14775000Y-11742778D01*
X14777501Y-11745279D01*
X14892478Y-11822105D01*
X15020234Y-11875023D01*
X15155859Y-11902000D01*
X15294141Y-11902000D01*
X15429766Y-11875023D01*
X15557522Y-11822105D01*
X15672499Y-11745279D01*
X15770279Y-11647499D01*
X15847105Y-11532522D01*
X15900023Y-11404766D01*
X15907461Y-11367373D01*
X15955859Y-11377000D01*
X15994454Y-11377000D01*
X15999977Y-11404766D01*
X16052895Y-11532522D01*
X16129721Y-11647499D01*
X16227501Y-11745279D01*
X16342478Y-11822105D01*
X16448000Y-11865813D01*
X16448000Y-11994141D01*
X16449011Y-11999226D01*
X16445234Y-11999977D01*
X16317478Y-12052895D01*
X16202501Y-12129721D01*
X16104721Y-12227501D01*
X16027895Y-12342478D01*
X15974977Y-12470234D01*
X15948000Y-12605859D01*
X15948000Y-12744141D01*
X15974977Y-12879766D01*
X16027895Y-13007522D01*
X16104721Y-13122499D01*
X16202501Y-13220279D01*
X16317478Y-13297105D01*
X16423000Y-13340813D01*
X16423000Y-13469141D01*
X16449977Y-13604766D01*
X16502895Y-13732522D01*
X16579721Y-13847499D01*
X16677501Y-13945279D01*
X16792478Y-14022105D01*
X16920234Y-14075023D01*
X17055859Y-14102000D01*
X17194141Y-14102000D01*
X17329766Y-14075023D01*
X17457522Y-14022105D01*
X17572499Y-13945279D01*
X17670279Y-13847499D01*
X17747105Y-13732522D01*
X17800023Y-13604766D01*
X17827000Y-13469141D01*
X17827000Y-13330859D01*
X17825023Y-13320922D01*
X17882522Y-13297105D01*
X17997499Y-13220279D01*
X18095279Y-13122499D01*
X18172105Y-13007522D01*
X18225023Y-12879766D01*
X18252000Y-12744141D01*
X18252000Y-12680859D01*
X22498000Y-12680859D01*
X22498000Y-12819141D01*
X22524977Y-12954766D01*
X22577895Y-13082522D01*
X22654721Y-13197499D01*
X22752501Y-13295279D01*
X22867478Y-13372105D01*
X22995234Y-13425023D01*
X23130859Y-13452000D01*
X23269141Y-13452000D01*
X23404766Y-13425023D01*
X23532522Y-13372105D01*
X23647499Y-13295279D01*
X23745279Y-13197499D01*
X23822105Y-13082522D01*
X23875023Y-12954766D01*
X23902000Y-12819141D01*
X23902000Y-12680859D01*
X23875023Y-12545234D01*
X23822105Y-12417478D01*
X23745279Y-12302501D01*
X23647499Y-12204721D01*
X23532522Y-12127895D01*
X23404766Y-12074977D01*
X23269141Y-12048000D01*
X23130859Y-12048000D01*
X22995234Y-12074977D01*
X22867478Y-12127895D01*
X22752501Y-12204721D01*
X22654721Y-12302501D01*
X22577895Y-12417478D01*
X22524977Y-12545234D01*
X22498000Y-12680859D01*
X18252000Y-12680859D01*
X18252000Y-12605859D01*
X18225023Y-12470234D01*
X18172105Y-12342478D01*
X18095279Y-12227501D01*
X17997499Y-12129721D01*
X17882522Y-12052895D01*
X17843526Y-12036742D01*
X17852000Y-11994141D01*
X17852000Y-11855859D01*
X17850023Y-11845922D01*
X17907522Y-11822105D01*
X18022499Y-11745279D01*
X18120279Y-11647499D01*
X18197105Y-11532522D01*
X18250023Y-11404766D01*
X18277000Y-11269141D01*
X18277000Y-11130859D01*
X18250023Y-10995234D01*
X18197105Y-10867478D01*
X18120279Y-10752501D01*
X18022499Y-10654721D01*
X17907522Y-10577895D01*
X17779766Y-10524977D01*
X17644141Y-10498000D01*
X17505859Y-10498000D01*
X17370234Y-10524977D01*
X17242478Y-10577895D01*
X17127501Y-10654721D01*
X17125000Y-10657222D01*
X17122499Y-10654721D01*
X17007522Y-10577895D01*
X16879766Y-10524977D01*
X16744141Y-10498000D01*
X16705546Y-10498000D01*
X16700023Y-10470234D01*
X16647105Y-10342478D01*
X16593665Y-10262500D01*
X16647105Y-10182522D01*
X16700023Y-10054766D01*
X16727000Y-9919141D01*
X16727000Y-9879151D01*
X28773000Y-9879151D01*
X28773000Y-10120849D01*
X28820153Y-10357903D01*
X28912647Y-10581202D01*
X29046927Y-10782167D01*
X29217833Y-10953073D01*
X29418798Y-11087353D01*
X29642097Y-11179847D01*
X29879151Y-11227000D01*
X30120849Y-11227000D01*
X30357903Y-11179847D01*
X30581202Y-11087353D01*
X30782167Y-10953073D01*
X30953073Y-10782167D01*
X31087353Y-10581202D01*
X31179847Y-10357903D01*
X31227000Y-10120849D01*
X31227000Y-9879151D01*
X31179847Y-9642097D01*
X31087353Y-9418798D01*
X30953073Y-9217833D01*
X30782167Y-9046927D01*
X30581202Y-8912647D01*
X30357903Y-8820153D01*
X30120849Y-8773000D01*
X29879151Y-8773000D01*
X29642097Y-8820153D01*
X29418798Y-8912647D01*
X29217833Y-9046927D01*
X29046927Y-9217833D01*
X28912647Y-9418798D01*
X28820153Y-9642097D01*
X28773000Y-9879151D01*
X16727000Y-9879151D01*
X16727000Y-9780859D01*
X16700023Y-9645234D01*
X16647105Y-9517478D01*
X16570279Y-9402501D01*
X16472499Y-9304721D01*
X16357522Y-9227895D01*
X16229766Y-9174977D01*
X16094141Y-9148000D01*
X15955859Y-9148000D01*
X15820234Y-9174977D01*
X15692478Y-9227895D01*
X15577501Y-9304721D01*
X15479721Y-9402501D01*
X15402895Y-9517478D01*
X15349977Y-9645234D01*
X15323000Y-9780859D01*
X15323000Y-9919141D01*
X15349977Y-10054766D01*
X15402895Y-10182522D01*
X15456335Y-10262500D01*
X15402895Y-10342478D01*
X15349977Y-10470234D01*
X15342539Y-10507627D01*
X15294141Y-10498000D01*
X15155859Y-10498000D01*
X15020234Y-10524977D01*
X14892478Y-10577895D01*
X14777501Y-10654721D01*
X14775000Y-10657222D01*
X14772499Y-10654721D01*
X14657522Y-10577895D01*
X14529766Y-10524977D01*
X14394141Y-10498000D01*
X14255859Y-10498000D01*
X14172836Y-10514514D01*
X14165023Y-10475234D01*
X14112105Y-10347478D01*
X14060335Y-10270000D01*
X14112105Y-10192522D01*
X14165023Y-10064766D01*
X14192000Y-9929141D01*
X14192000Y-9790859D01*
X14165023Y-9655234D01*
X14112105Y-9527478D01*
X14035279Y-9412501D01*
X13937499Y-9314721D01*
X13822522Y-9237895D01*
X13694766Y-9184977D01*
X13559141Y-9158000D01*
X13420859Y-9158000D01*
X13285234Y-9184977D01*
X13157478Y-9237895D01*
X13042501Y-9314721D01*
X12944721Y-9412501D01*
X12881262Y-9507473D01*
X12856755Y-9461624D01*
X12803395Y-9396605D01*
X12738376Y-9343245D01*
X12664196Y-9303595D01*
X12583707Y-9279178D01*
X12500000Y-9270934D01*
X10700000Y-9270934D01*
X10616293Y-9279178D01*
X10535804Y-9303595D01*
X10461624Y-9343245D01*
X10396605Y-9396605D01*
X10343245Y-9461624D01*
X10303595Y-9535804D01*
X10279178Y-9616293D01*
X10270934Y-9700000D01*
X6868502Y-9700000D01*
X6795606Y-9624790D01*
X6547204Y-9453138D01*
X6270087Y-9333245D01*
X6164740Y-9308964D01*
X5927000Y-9429622D01*
X5673000Y-9429622D01*
X5435260Y-9308964D01*
X5329913Y-9333245D01*
X5052796Y-9453138D01*
X4804394Y-9624790D01*
X4594252Y-9841604D01*
X4430446Y-10095249D01*
X4319271Y-10375977D01*
X4265000Y-10673000D01*
X446050Y-10673000D01*
X446050Y-3726489D01*
X1223000Y-3726489D01*
X1223000Y-4273511D01*
X1329718Y-4810021D01*
X1539054Y-5315403D01*
X1842963Y-5770234D01*
X2229766Y-6157037D01*
X2684597Y-6460946D01*
X3189979Y-6670282D01*
X3726489Y-6777000D01*
X4273511Y-6777000D01*
X4810021Y-6670282D01*
X5315403Y-6460946D01*
X5770234Y-6157037D01*
X6157037Y-5770234D01*
X6460946Y-5315403D01*
X6670282Y-4810021D01*
X6777000Y-4273511D01*
X6777000Y-3726489D01*
X6746044Y-3570859D01*
X21248000Y-3570859D01*
X21248000Y-3709141D01*
X21274977Y-3844766D01*
X21327895Y-3972522D01*
X21404721Y-4087499D01*
X21457222Y-4140000D01*
X21404721Y-4192501D01*
X21327895Y-4307478D01*
X21274977Y-4435234D01*
X21248000Y-4570859D01*
X21248000Y-4709141D01*
X21274977Y-4844766D01*
X21327895Y-4972522D01*
X21404721Y-5087499D01*
X21457222Y-5140000D01*
X21404721Y-5192501D01*
X21327895Y-5307478D01*
X21274977Y-5435234D01*
X21248000Y-5570859D01*
X21248000Y-5709141D01*
X21274977Y-5844766D01*
X21327895Y-5972522D01*
X21404721Y-6087499D01*
X21502501Y-6185279D01*
X21617478Y-6262105D01*
X21745234Y-6315023D01*
X21880859Y-6342000D01*
X22019141Y-6342000D01*
X22154766Y-6315023D01*
X22282522Y-6262105D01*
X22397499Y-6185279D01*
X22450000Y-6132778D01*
X22502501Y-6185279D01*
X22617478Y-6262105D01*
X22745234Y-6315023D01*
X22880859Y-6342000D01*
X23019141Y-6342000D01*
X23154766Y-6315023D01*
X23282522Y-6262105D01*
X23397499Y-6185279D01*
X23495279Y-6087499D01*
X23572105Y-5972522D01*
X23625023Y-5844766D01*
X23629958Y-5819958D01*
X23654766Y-5815023D01*
X23782522Y-5762105D01*
X23897499Y-5685279D01*
X23995279Y-5587499D01*
X24072105Y-5472522D01*
X24125023Y-5344766D01*
X24152000Y-5209141D01*
X24152000Y-5070859D01*
X24125023Y-4935234D01*
X24072105Y-4807478D01*
X23995279Y-4692501D01*
X23942778Y-4640000D01*
X23995279Y-4587499D01*
X24072105Y-4472522D01*
X24125023Y-4344766D01*
X24152000Y-4209141D01*
X24152000Y-4070859D01*
X24125023Y-3935234D01*
X24072105Y-3807478D01*
X24017990Y-3726489D01*
X83223000Y-3726489D01*
X83223000Y-4273511D01*
X83329718Y-4810021D01*
X83539054Y-5315403D01*
X83842963Y-5770234D01*
X84229766Y-6157037D01*
X84684597Y-6460946D01*
X85189979Y-6670282D01*
X85726489Y-6777000D01*
X86273511Y-6777000D01*
X86810021Y-6670282D01*
X87315403Y-6460946D01*
X87770234Y-6157037D01*
X88157037Y-5770234D01*
X88460946Y-5315403D01*
X88670282Y-4810021D01*
X88777000Y-4273511D01*
X88777000Y-3726489D01*
X88670282Y-3189979D01*
X88460946Y-2684597D01*
X88157037Y-2229766D01*
X87770234Y-1842963D01*
X87315403Y-1539054D01*
X86810021Y-1329718D01*
X86273511Y-1223000D01*
X85726489Y-1223000D01*
X85189979Y-1329718D01*
X84684597Y-1539054D01*
X84229766Y-1842963D01*
X83842963Y-2229766D01*
X83539054Y-2684597D01*
X83329718Y-3189979D01*
X83223000Y-3726489D01*
X24017990Y-3726489D01*
X23995279Y-3692501D01*
X23897499Y-3594721D01*
X23782522Y-3517895D01*
X23654766Y-3464977D01*
X23629958Y-3460042D01*
X23625023Y-3435234D01*
X23572105Y-3307478D01*
X23495279Y-3192501D01*
X23397499Y-3094721D01*
X23282522Y-3017895D01*
X23154766Y-2964977D01*
X23019141Y-2938000D01*
X22880859Y-2938000D01*
X22745234Y-2964977D01*
X22617478Y-3017895D01*
X22502501Y-3094721D01*
X22450000Y-3147222D01*
X22397499Y-3094721D01*
X22282522Y-3017895D01*
X22154766Y-2964977D01*
X22019141Y-2938000D01*
X21880859Y-2938000D01*
X21745234Y-2964977D01*
X21617478Y-3017895D01*
X21502501Y-3094721D01*
X21404721Y-3192501D01*
X21327895Y-3307478D01*
X21274977Y-3435234D01*
X21248000Y-3570859D01*
X6746044Y-3570859D01*
X6670282Y-3189979D01*
X6460946Y-2684597D01*
X6157037Y-2229766D01*
X5770234Y-1842963D01*
X5315403Y-1539054D01*
X4810021Y-1329718D01*
X4273511Y-1223000D01*
X3726489Y-1223000D01*
X3189979Y-1329718D01*
X2684597Y-1539054D01*
X2229766Y-1842963D01*
X1842963Y-2229766D01*
X1539054Y-2684597D01*
X1329718Y-3189979D01*
X1223000Y-3726489D01*
X446050Y-3726489D01*
X446050Y-3021814D01*
X496788Y-2504349D01*
X640733Y-2027581D01*
X874541Y-1587851D01*
X1189312Y-1201904D01*
X1573045Y-884453D01*
X2011135Y-647580D01*
X2486886Y-500310D01*
X3003131Y-446050D01*
X86978186Y-446050D01*
X87495651Y-496788D01*
G04 #@! TA.AperFunction,Conductor*
D23*
G36*
X87495651Y-496788D02*
G01*
X87972419Y-640733D01*
X88412149Y-874541D01*
X88798096Y-1189312D01*
X89115547Y-1573045D01*
X89352420Y-2011135D01*
X89499690Y-2486886D01*
X89553950Y-3003131D01*
X89553951Y-36978176D01*
X89503212Y-37495651D01*
X89359268Y-37972416D01*
X89125459Y-38412149D01*
X88810688Y-38798096D01*
X88426955Y-39115548D01*
X87988869Y-39352419D01*
X87513110Y-39499692D01*
X86996868Y-39553950D01*
X3021814Y-39553950D01*
X2504349Y-39503212D01*
X2027584Y-39359268D01*
X1587851Y-39125459D01*
X1201904Y-38810688D01*
X884452Y-38426955D01*
X647581Y-37988869D01*
X500308Y-37513110D01*
X446050Y-36996868D01*
X446050Y-35726489D01*
X1223000Y-35726489D01*
X1223000Y-36273511D01*
X1329718Y-36810021D01*
X1539054Y-37315403D01*
X1842963Y-37770234D01*
X2229766Y-38157037D01*
X2684597Y-38460946D01*
X3189979Y-38670282D01*
X3726489Y-38777000D01*
X4273511Y-38777000D01*
X4810021Y-38670282D01*
X5315403Y-38460946D01*
X5770234Y-38157037D01*
X6157037Y-37770234D01*
X6199361Y-37706891D01*
X7928519Y-37706891D01*
X8025843Y-37981252D01*
X8174822Y-38231355D01*
X8369731Y-38447588D01*
X8603080Y-38621641D01*
X8865901Y-38746825D01*
X9013110Y-38791476D01*
X9243000Y-38670155D01*
X9243000Y-37477000D01*
X8049186Y-37477000D01*
X7928519Y-37706891D01*
X6199361Y-37706891D01*
X6460946Y-37315403D01*
X6594444Y-36993109D01*
X7928519Y-36993109D01*
X8049186Y-37223000D01*
X9243000Y-37223000D01*
X9243000Y-36029845D01*
X9497000Y-36029845D01*
X9497000Y-37223000D01*
X9517000Y-37223000D01*
X9517000Y-37477000D01*
X9497000Y-37477000D01*
X9497000Y-38670155D01*
X9726890Y-38791476D01*
X9874099Y-38746825D01*
X10136920Y-38621641D01*
X10370269Y-38447588D01*
X10565178Y-38231355D01*
X10714157Y-37981252D01*
X10748803Y-37883584D01*
X10778337Y-37954886D01*
X10918089Y-38164040D01*
X11095960Y-38341911D01*
X11305114Y-38481663D01*
X11537513Y-38577926D01*
X11784226Y-38627000D01*
X12035774Y-38627000D01*
X12282487Y-38577926D01*
X12514886Y-38481663D01*
X12724040Y-38341911D01*
X12901911Y-38164040D01*
X13041663Y-37954886D01*
X13137926Y-37722487D01*
X13170934Y-37556544D01*
X13170934Y-38200000D01*
X13179178Y-38283707D01*
X13203595Y-38364196D01*
X13243245Y-38438376D01*
X13296605Y-38503395D01*
X13361624Y-38556755D01*
X13435804Y-38596405D01*
X13516293Y-38620822D01*
X13600000Y-38629066D01*
X15300000Y-38629066D01*
X15383707Y-38620822D01*
X15464196Y-38596405D01*
X15538376Y-38556755D01*
X15603395Y-38503395D01*
X15656755Y-38438376D01*
X15696405Y-38364196D01*
X15720822Y-38283707D01*
X15729066Y-38200000D01*
X15729066Y-38005859D01*
X16498000Y-38005859D01*
X16498000Y-38144141D01*
X16524977Y-38279766D01*
X16577895Y-38407522D01*
X16654721Y-38522499D01*
X16752501Y-38620279D01*
X16867478Y-38697105D01*
X16995234Y-38750023D01*
X17130859Y-38777000D01*
X17269141Y-38777000D01*
X17404766Y-38750023D01*
X17532522Y-38697105D01*
X17647499Y-38620279D01*
X17745279Y-38522499D01*
X17822105Y-38407522D01*
X17875023Y-38279766D01*
X17902000Y-38144141D01*
X17902000Y-38030859D01*
X21223000Y-38030859D01*
X21223000Y-38169141D01*
X21249977Y-38304766D01*
X21302895Y-38432522D01*
X21379721Y-38547499D01*
X21477501Y-38645279D01*
X21592478Y-38722105D01*
X21720234Y-38775023D01*
X21855859Y-38802000D01*
X21994141Y-38802000D01*
X22129766Y-38775023D01*
X22257522Y-38722105D01*
X22372499Y-38645279D01*
X22470279Y-38547499D01*
X22547105Y-38432522D01*
X22600023Y-38304766D01*
X22627000Y-38169141D01*
X22627000Y-38030859D01*
X22600023Y-37895234D01*
X22547105Y-37767478D01*
X22470279Y-37652501D01*
X22372499Y-37554721D01*
X22257522Y-37477895D01*
X22129766Y-37424977D01*
X21994141Y-37398000D01*
X21855859Y-37398000D01*
X21720234Y-37424977D01*
X21592478Y-37477895D01*
X21477501Y-37554721D01*
X21379721Y-37652501D01*
X21302895Y-37767478D01*
X21249977Y-37895234D01*
X21223000Y-38030859D01*
X17902000Y-38030859D01*
X17902000Y-38005859D01*
X17875023Y-37870234D01*
X17822105Y-37742478D01*
X17745279Y-37627501D01*
X17647499Y-37529721D01*
X17532522Y-37452895D01*
X17404766Y-37399977D01*
X17269141Y-37373000D01*
X17130859Y-37373000D01*
X16995234Y-37399977D01*
X16867478Y-37452895D01*
X16752501Y-37529721D01*
X16654721Y-37627501D01*
X16577895Y-37742478D01*
X16524977Y-37870234D01*
X16498000Y-38005859D01*
X15729066Y-38005859D01*
X15729066Y-36500000D01*
X15720822Y-36416293D01*
X15696405Y-36335804D01*
X15656755Y-36261624D01*
X15603395Y-36196605D01*
X15538376Y-36143245D01*
X15464196Y-36103595D01*
X15383707Y-36079178D01*
X15300000Y-36070934D01*
X13600000Y-36070934D01*
X13516293Y-36079178D01*
X13435804Y-36103595D01*
X13361624Y-36143245D01*
X13296605Y-36196605D01*
X13243245Y-36261624D01*
X13203595Y-36335804D01*
X13179178Y-36416293D01*
X13170934Y-36500000D01*
X13170934Y-37143456D01*
X13137926Y-36977513D01*
X13041663Y-36745114D01*
X12901911Y-36535960D01*
X12724040Y-36358089D01*
X12514886Y-36218337D01*
X12282487Y-36122074D01*
X12035774Y-36073000D01*
X11784226Y-36073000D01*
X11537513Y-36122074D01*
X11305114Y-36218337D01*
X11095960Y-36358089D01*
X10918089Y-36535960D01*
X10778337Y-36745114D01*
X10748803Y-36816416D01*
X10714157Y-36718748D01*
X10565178Y-36468645D01*
X10370269Y-36252412D01*
X10136920Y-36078359D01*
X9874099Y-35953175D01*
X9726890Y-35908524D01*
X9497000Y-36029845D01*
X9243000Y-36029845D01*
X9013110Y-35908524D01*
X8865901Y-35953175D01*
X8603080Y-36078359D01*
X8369731Y-36252412D01*
X8174822Y-36468645D01*
X8025843Y-36718748D01*
X7928519Y-36993109D01*
X6594444Y-36993109D01*
X6670282Y-36810021D01*
X6777000Y-36273511D01*
X6777000Y-35726489D01*
X83223000Y-35726489D01*
X83223000Y-36273511D01*
X83329718Y-36810021D01*
X83539054Y-37315403D01*
X83842963Y-37770234D01*
X84229766Y-38157037D01*
X84684597Y-38460946D01*
X85189979Y-38670282D01*
X85726489Y-38777000D01*
X86273511Y-38777000D01*
X86810021Y-38670282D01*
X87315403Y-38460946D01*
X87770234Y-38157037D01*
X88157037Y-37770234D01*
X88460946Y-37315403D01*
X88670282Y-36810021D01*
X88777000Y-36273511D01*
X88777000Y-35726489D01*
X88670282Y-35189979D01*
X88460946Y-34684597D01*
X88157037Y-34229766D01*
X87770234Y-33842963D01*
X87315403Y-33539054D01*
X86810021Y-33329718D01*
X86273511Y-33223000D01*
X85726489Y-33223000D01*
X85189979Y-33329718D01*
X84684597Y-33539054D01*
X84229766Y-33842963D01*
X83842963Y-34229766D01*
X83539054Y-34684597D01*
X83329718Y-35189979D01*
X83223000Y-35726489D01*
X6777000Y-35726489D01*
X6670282Y-35189979D01*
X6460946Y-34684597D01*
X6297250Y-34439609D01*
X6659997Y-34439609D01*
X6846073Y-34780766D01*
X7263409Y-34996513D01*
X7714815Y-35126696D01*
X8182946Y-35166313D01*
X8649811Y-35113842D01*
X9097468Y-34971297D01*
X9453927Y-34780766D01*
X9640003Y-34439609D01*
X8150000Y-32949605D01*
X6659997Y-34439609D01*
X6297250Y-34439609D01*
X6157037Y-34229766D01*
X5770234Y-33842963D01*
X5315403Y-33539054D01*
X4810021Y-33329718D01*
X4273511Y-33223000D01*
X3726489Y-33223000D01*
X3189979Y-33329718D01*
X2684597Y-33539054D01*
X2229766Y-33842963D01*
X1842963Y-34229766D01*
X1539054Y-34684597D01*
X1329718Y-35189979D01*
X1223000Y-35726489D01*
X446050Y-35726489D01*
X446050Y-32802946D01*
X5753687Y-32802946D01*
X5806158Y-33269811D01*
X5948703Y-33717468D01*
X6139234Y-34073927D01*
X6480391Y-34260003D01*
X7970395Y-32770000D01*
X8329605Y-32770000D01*
X9819609Y-34260003D01*
X10160766Y-34073927D01*
X10376513Y-33656591D01*
X10506696Y-33205185D01*
X10546313Y-32737054D01*
X10493842Y-32270189D01*
X10351297Y-31822532D01*
X10160766Y-31466073D01*
X9819609Y-31279997D01*
X8329605Y-32770000D01*
X7970395Y-32770000D01*
X6480391Y-31279997D01*
X6139234Y-31466073D01*
X5923487Y-31883409D01*
X5793304Y-32334815D01*
X5753687Y-32802946D01*
X446050Y-32802946D01*
X446050Y-31100391D01*
X6659997Y-31100391D01*
X8150000Y-32590395D01*
X9640003Y-31100391D01*
X9453927Y-30759234D01*
X9036591Y-30543487D01*
X8585185Y-30413304D01*
X8117054Y-30373687D01*
X7650189Y-30426158D01*
X7202532Y-30568703D01*
X6846073Y-30759234D01*
X6659997Y-31100391D01*
X446050Y-31100391D01*
X446050Y-28074077D01*
X9510523Y-28074077D01*
X9550905Y-28335922D01*
X9641594Y-28584859D01*
X9696797Y-28688137D01*
X9931584Y-28748811D01*
X10680395Y-28000000D01*
X9931584Y-27251189D01*
X9696797Y-27311863D01*
X9584898Y-27552015D01*
X9522002Y-27809383D01*
X9510523Y-28074077D01*
X446050Y-28074077D01*
X446050Y-25388015D01*
X9723000Y-25388015D01*
X9723000Y-25611985D01*
X9766695Y-25831651D01*
X9852404Y-26038571D01*
X9976835Y-26224795D01*
X10135205Y-26383165D01*
X10321429Y-26507596D01*
X10528349Y-26593305D01*
X10748015Y-26637000D01*
X10971985Y-26637000D01*
X11191651Y-26593305D01*
X11398571Y-26507596D01*
X11584795Y-26383165D01*
X11743165Y-26224795D01*
X11860000Y-26049940D01*
X11976834Y-26224795D01*
X12135204Y-26383165D01*
X12321428Y-26507596D01*
X12528348Y-26593305D01*
X12748014Y-26637000D01*
X12971984Y-26637000D01*
X13191650Y-26593305D01*
X13398570Y-26507596D01*
X13584794Y-26383165D01*
X13741299Y-26226660D01*
X13685763Y-26348516D01*
X13630000Y-26585313D01*
X13621505Y-26828438D01*
X13627722Y-26866619D01*
X13569999Y-26860934D01*
X12149999Y-26860934D01*
X12066292Y-26869178D01*
X11985803Y-26893595D01*
X11911623Y-26933245D01*
X11846604Y-26986605D01*
X11806240Y-27035788D01*
X11725422Y-26954970D01*
X11608810Y-27071582D01*
X11548137Y-26836797D01*
X11307985Y-26724898D01*
X11050617Y-26662002D01*
X10785923Y-26650523D01*
X10524078Y-26690905D01*
X10275141Y-26781594D01*
X10171863Y-26836797D01*
X10111189Y-27071584D01*
X10860000Y-27820395D01*
X10874143Y-27806253D01*
X11053748Y-27985858D01*
X11039605Y-28000000D01*
X11053748Y-28014143D01*
X10874143Y-28193748D01*
X10860000Y-28179605D01*
X10111189Y-28928416D01*
X10171863Y-29163203D01*
X10412015Y-29275102D01*
X10669383Y-29337998D01*
X10934077Y-29349477D01*
X11195922Y-29309095D01*
X11444859Y-29218406D01*
X11548137Y-29163203D01*
X11608810Y-28928418D01*
X11725422Y-29045030D01*
X11806240Y-28964212D01*
X11846604Y-29013395D01*
X11911623Y-29066755D01*
X11985803Y-29106405D01*
X12066292Y-29130822D01*
X12149999Y-29139066D01*
X13569999Y-29139066D01*
X13653706Y-29130822D01*
X13734195Y-29106405D01*
X13808375Y-29066755D01*
X13857319Y-29026587D01*
X13833000Y-29148849D01*
X13833000Y-29351151D01*
X13872467Y-29549565D01*
X13949885Y-29736467D01*
X14062277Y-29904674D01*
X14205326Y-30047723D01*
X14320980Y-30125000D01*
X14205326Y-30202277D01*
X14062277Y-30345326D01*
X13949885Y-30513533D01*
X13872467Y-30700435D01*
X13833000Y-30898849D01*
X13833000Y-31101151D01*
X13872467Y-31299565D01*
X13949885Y-31486467D01*
X14062277Y-31654674D01*
X14205326Y-31797723D01*
X14373533Y-31910115D01*
X14560435Y-31987533D01*
X14758849Y-32027000D01*
X14961151Y-32027000D01*
X15159565Y-31987533D01*
X15346467Y-31910115D01*
X15514674Y-31797723D01*
X15657723Y-31654674D01*
X15740453Y-31530859D01*
X19998000Y-31530859D01*
X19998000Y-31669141D01*
X20024977Y-31804766D01*
X20077895Y-31932522D01*
X20154721Y-32047499D01*
X20252501Y-32145279D01*
X20367478Y-32222105D01*
X20495234Y-32275023D01*
X20630859Y-32302000D01*
X20769141Y-32302000D01*
X20904766Y-32275023D01*
X21032522Y-32222105D01*
X21147499Y-32145279D01*
X21245279Y-32047499D01*
X21322105Y-31932522D01*
X21375023Y-31804766D01*
X21389723Y-31730859D01*
X21948000Y-31730859D01*
X21948000Y-31869141D01*
X21974977Y-32004766D01*
X22027895Y-32132522D01*
X22104721Y-32247499D01*
X22157222Y-32300000D01*
X22104721Y-32352501D01*
X22027895Y-32467478D01*
X21974977Y-32595234D01*
X21948000Y-32730859D01*
X21948000Y-32869141D01*
X21974977Y-33004766D01*
X22027895Y-33132522D01*
X22104721Y-33247499D01*
X22157222Y-33300000D01*
X22104721Y-33352501D01*
X22027895Y-33467478D01*
X21974977Y-33595234D01*
X21948000Y-33730859D01*
X21948000Y-33869141D01*
X21974977Y-34004766D01*
X22027895Y-34132522D01*
X22104721Y-34247499D01*
X22202501Y-34345279D01*
X22317478Y-34422105D01*
X22445234Y-34475023D01*
X22580859Y-34502000D01*
X22719141Y-34502000D01*
X22854766Y-34475023D01*
X22982522Y-34422105D01*
X23097499Y-34345279D01*
X23150000Y-34292778D01*
X23202501Y-34345279D01*
X23317478Y-34422105D01*
X23445234Y-34475023D01*
X23580859Y-34502000D01*
X23719141Y-34502000D01*
X23854766Y-34475023D01*
X23982522Y-34422105D01*
X24097499Y-34345279D01*
X24195279Y-34247499D01*
X24272105Y-34132522D01*
X24325023Y-34004766D01*
X24327898Y-33990313D01*
X24404766Y-33975023D01*
X24532522Y-33922105D01*
X24647499Y-33845279D01*
X24745279Y-33747499D01*
X24822105Y-33632522D01*
X24875023Y-33504766D01*
X24902000Y-33369141D01*
X24902000Y-33230859D01*
X24875023Y-33095234D01*
X24822105Y-32967478D01*
X24745279Y-32852501D01*
X24692778Y-32800000D01*
X24745279Y-32747499D01*
X24822105Y-32632522D01*
X24875023Y-32504766D01*
X24902000Y-32369141D01*
X24902000Y-32230859D01*
X24875023Y-32095234D01*
X24822105Y-31967478D01*
X24745279Y-31852501D01*
X24647499Y-31754721D01*
X24532522Y-31677895D01*
X24404766Y-31624977D01*
X24327898Y-31609687D01*
X24325023Y-31595234D01*
X24272105Y-31467478D01*
X24195279Y-31352501D01*
X24097499Y-31254721D01*
X23982522Y-31177895D01*
X23854766Y-31124977D01*
X23719141Y-31098000D01*
X23580859Y-31098000D01*
X23445234Y-31124977D01*
X23317478Y-31177895D01*
X23202501Y-31254721D01*
X23150000Y-31307222D01*
X23097499Y-31254721D01*
X22982522Y-31177895D01*
X22854766Y-31124977D01*
X22719141Y-31098000D01*
X22580859Y-31098000D01*
X22445234Y-31124977D01*
X22317478Y-31177895D01*
X22202501Y-31254721D01*
X22104721Y-31352501D01*
X22027895Y-31467478D01*
X21974977Y-31595234D01*
X21948000Y-31730859D01*
X21389723Y-31730859D01*
X21402000Y-31669141D01*
X21402000Y-31530859D01*
X21375023Y-31395234D01*
X21322105Y-31267478D01*
X21245279Y-31152501D01*
X21147499Y-31054721D01*
X21032522Y-30977895D01*
X20904766Y-30924977D01*
X20769141Y-30898000D01*
X20630859Y-30898000D01*
X20495234Y-30924977D01*
X20367478Y-30977895D01*
X20252501Y-31054721D01*
X20154721Y-31152501D01*
X20077895Y-31267478D01*
X20024977Y-31395234D01*
X19998000Y-31530859D01*
X15740453Y-31530859D01*
X15770115Y-31486467D01*
X15847533Y-31299565D01*
X15887000Y-31101151D01*
X15887000Y-30898849D01*
X15847533Y-30700435D01*
X15770115Y-30513533D01*
X15657723Y-30345326D01*
X15514674Y-30202277D01*
X15399020Y-30125000D01*
X15514674Y-30047723D01*
X15657723Y-29904674D01*
X15658324Y-29903774D01*
X29023000Y-29903774D01*
X29023000Y-30096226D01*
X29060546Y-30284980D01*
X29134194Y-30462783D01*
X29241115Y-30622801D01*
X29377199Y-30758885D01*
X29537217Y-30865806D01*
X29715020Y-30939454D01*
X29903774Y-30977000D01*
X30096226Y-30977000D01*
X30284980Y-30939454D01*
X30462783Y-30865806D01*
X30622801Y-30758885D01*
X30758885Y-30622801D01*
X30824787Y-30524171D01*
X36330100Y-30524171D01*
X36330100Y-30675829D01*
X36359687Y-30824571D01*
X36417724Y-30964684D01*
X36501980Y-31090783D01*
X36561197Y-31150000D01*
X36501980Y-31209217D01*
X36417724Y-31335316D01*
X36359687Y-31475429D01*
X36330100Y-31624171D01*
X36330100Y-31775829D01*
X36359687Y-31924571D01*
X36417724Y-32064684D01*
X36501980Y-32190783D01*
X36609217Y-32298020D01*
X36735316Y-32382276D01*
X36875429Y-32440313D01*
X37024171Y-32469900D01*
X37175829Y-32469900D01*
X37324571Y-32440313D01*
X37464684Y-32382276D01*
X37590783Y-32298020D01*
X37698020Y-32190783D01*
X37782276Y-32064684D01*
X37840313Y-31924571D01*
X37869900Y-31775829D01*
X37869900Y-31624171D01*
X37840313Y-31475429D01*
X37782276Y-31335316D01*
X37698020Y-31209217D01*
X37638803Y-31150000D01*
X37698020Y-31090783D01*
X37782276Y-30964684D01*
X37840313Y-30824571D01*
X37869900Y-30675829D01*
X37869900Y-30524171D01*
X37840313Y-30375429D01*
X37782276Y-30235316D01*
X37698020Y-30109217D01*
X37590783Y-30001980D01*
X37464684Y-29917724D01*
X37324571Y-29859687D01*
X37175829Y-29830100D01*
X37024171Y-29830100D01*
X36875429Y-29859687D01*
X36735316Y-29917724D01*
X36609217Y-30001980D01*
X36501980Y-30109217D01*
X36417724Y-30235316D01*
X36359687Y-30375429D01*
X36330100Y-30524171D01*
X30824787Y-30524171D01*
X30865806Y-30462783D01*
X30939454Y-30284980D01*
X30977000Y-30096226D01*
X30977000Y-29903774D01*
X30939454Y-29715020D01*
X30865806Y-29537217D01*
X30758885Y-29377199D01*
X30622801Y-29241115D01*
X30462783Y-29134194D01*
X30284980Y-29060546D01*
X30096226Y-29023000D01*
X29903774Y-29023000D01*
X29715020Y-29060546D01*
X29537217Y-29134194D01*
X29377199Y-29241115D01*
X29241115Y-29377199D01*
X29134194Y-29537217D01*
X29060546Y-29715020D01*
X29023000Y-29903774D01*
X15658324Y-29903774D01*
X15770115Y-29736467D01*
X15847533Y-29549565D01*
X15887000Y-29351151D01*
X15887000Y-29148849D01*
X15847533Y-28950435D01*
X15770115Y-28763533D01*
X15657723Y-28595326D01*
X15514674Y-28452277D01*
X15346467Y-28339885D01*
X15159565Y-28262467D01*
X14961151Y-28223000D01*
X14758849Y-28223000D01*
X14560435Y-28262467D01*
X14373533Y-28339885D01*
X14205326Y-28452277D01*
X14062277Y-28595326D01*
X13999065Y-28689930D01*
X13999065Y-27643201D01*
X14072736Y-27716872D01*
X14189842Y-27599766D01*
X14237148Y-27823348D01*
X14458516Y-27924237D01*
X14695313Y-27980000D01*
X14938438Y-27988495D01*
X15178549Y-27949395D01*
X15406418Y-27864202D01*
X15482852Y-27823348D01*
X15530159Y-27599764D01*
X14860000Y-26929605D01*
X14845858Y-26943748D01*
X14666253Y-26764143D01*
X14680395Y-26750000D01*
X15039605Y-26750000D01*
X15709764Y-27420159D01*
X15933348Y-27372852D01*
X16034237Y-27151484D01*
X16090000Y-26914687D01*
X16094676Y-26780859D01*
X21898000Y-26780859D01*
X21898000Y-26919141D01*
X21924977Y-27054766D01*
X21977895Y-27182522D01*
X22054721Y-27297499D01*
X22152501Y-27395279D01*
X22196981Y-27425000D01*
X22152501Y-27454721D01*
X22054721Y-27552501D01*
X21977895Y-27667478D01*
X21924977Y-27795234D01*
X21898000Y-27930859D01*
X21898000Y-28069141D01*
X21924977Y-28204766D01*
X21977895Y-28332522D01*
X22054721Y-28447499D01*
X22152501Y-28545279D01*
X22267478Y-28622105D01*
X22395234Y-28675023D01*
X22530859Y-28702000D01*
X22669141Y-28702000D01*
X22804766Y-28675023D01*
X22932522Y-28622105D01*
X23047499Y-28545279D01*
X23145279Y-28447499D01*
X23222105Y-28332522D01*
X23275023Y-28204766D01*
X23302000Y-28069141D01*
X23302000Y-27930859D01*
X23275023Y-27795234D01*
X23222105Y-27667478D01*
X23145279Y-27552501D01*
X23047499Y-27454721D01*
X23003019Y-27425000D01*
X23047499Y-27395279D01*
X23145279Y-27297499D01*
X23222105Y-27182522D01*
X23275023Y-27054766D01*
X23299669Y-26930859D01*
X29998000Y-26930859D01*
X29998000Y-27069141D01*
X30024977Y-27204766D01*
X30077895Y-27332522D01*
X30154721Y-27447499D01*
X30252501Y-27545279D01*
X30367478Y-27622105D01*
X30495234Y-27675023D01*
X30630859Y-27702000D01*
X30769141Y-27702000D01*
X30904766Y-27675023D01*
X31032522Y-27622105D01*
X31147499Y-27545279D01*
X31245279Y-27447499D01*
X31322105Y-27332522D01*
X31375023Y-27204766D01*
X31402000Y-27069141D01*
X31402000Y-26930859D01*
X31375023Y-26795234D01*
X31322105Y-26667478D01*
X31245279Y-26552501D01*
X31147499Y-26454721D01*
X31032522Y-26377895D01*
X30904766Y-26324977D01*
X30769141Y-26298000D01*
X30630859Y-26298000D01*
X30495234Y-26324977D01*
X30367478Y-26377895D01*
X30252501Y-26454721D01*
X30154721Y-26552501D01*
X30077895Y-26667478D01*
X30024977Y-26795234D01*
X29998000Y-26930859D01*
X23299669Y-26930859D01*
X23302000Y-26919141D01*
X23302000Y-26780859D01*
X23275023Y-26645234D01*
X23222105Y-26517478D01*
X23145279Y-26402501D01*
X23047499Y-26304721D01*
X22932522Y-26227895D01*
X22804766Y-26174977D01*
X22669141Y-26148000D01*
X22530859Y-26148000D01*
X22395234Y-26174977D01*
X22267478Y-26227895D01*
X22152501Y-26304721D01*
X22054721Y-26402501D01*
X21977895Y-26517478D01*
X21924977Y-26645234D01*
X21898000Y-26780859D01*
X16094676Y-26780859D01*
X16098495Y-26671562D01*
X16059395Y-26431451D01*
X15974202Y-26203582D01*
X15933348Y-26127148D01*
X15709764Y-26079841D01*
X15039605Y-26750000D01*
X14680395Y-26750000D01*
X14010236Y-26079841D01*
X13811992Y-26121786D01*
X13867595Y-26038571D01*
X13924895Y-25900236D01*
X14189841Y-25900236D01*
X14860000Y-26570395D01*
X15530159Y-25900236D01*
X15482852Y-25676652D01*
X15261484Y-25575763D01*
X15024687Y-25520000D01*
X14781562Y-25511505D01*
X14541451Y-25550605D01*
X14313582Y-25635798D01*
X14237148Y-25676652D01*
X14189841Y-25900236D01*
X13924895Y-25900236D01*
X13953304Y-25831651D01*
X13996999Y-25611985D01*
X13996999Y-25388015D01*
X13953304Y-25168349D01*
X13867595Y-24961429D01*
X13743164Y-24775205D01*
X13584794Y-24616835D01*
X13398570Y-24492404D01*
X13191650Y-24406695D01*
X12971984Y-24363000D01*
X12748014Y-24363000D01*
X12528348Y-24406695D01*
X12321428Y-24492404D01*
X12135204Y-24616835D01*
X11976834Y-24775205D01*
X11860000Y-24950060D01*
X11743165Y-24775205D01*
X11584795Y-24616835D01*
X11398571Y-24492404D01*
X11191651Y-24406695D01*
X10971985Y-24363000D01*
X10748015Y-24363000D01*
X10528349Y-24406695D01*
X10321429Y-24492404D01*
X10135205Y-24616835D01*
X9976835Y-24775205D01*
X9852404Y-24961429D01*
X9766695Y-25168349D01*
X9723000Y-25388015D01*
X446050Y-25388015D01*
X446050Y-22399609D01*
X6659997Y-22399609D01*
X6846073Y-22740766D01*
X7263409Y-22956513D01*
X7714815Y-23086696D01*
X8182946Y-23126313D01*
X8649811Y-23073842D01*
X9097468Y-22931297D01*
X9453927Y-22740766D01*
X9640003Y-22399609D01*
X9639244Y-22398849D01*
X13833000Y-22398849D01*
X13833000Y-22601151D01*
X13872467Y-22799565D01*
X13949885Y-22986467D01*
X14062277Y-23154674D01*
X14205326Y-23297723D01*
X14320980Y-23375000D01*
X14205326Y-23452277D01*
X14062277Y-23595326D01*
X13949885Y-23763533D01*
X13872467Y-23950435D01*
X13833000Y-24148849D01*
X13833000Y-24351151D01*
X13872467Y-24549565D01*
X13949885Y-24736467D01*
X14062277Y-24904674D01*
X14205326Y-25047723D01*
X14373533Y-25160115D01*
X14560435Y-25237533D01*
X14758849Y-25277000D01*
X14961151Y-25277000D01*
X15159565Y-25237533D01*
X15346467Y-25160115D01*
X15514674Y-25047723D01*
X15657723Y-24904674D01*
X15689941Y-24856455D01*
X27831531Y-24856455D01*
X27831531Y-24994737D01*
X27858508Y-25130362D01*
X27911426Y-25258118D01*
X27988252Y-25373095D01*
X28086032Y-25470875D01*
X28201009Y-25547701D01*
X28328765Y-25600619D01*
X28464390Y-25627596D01*
X28602672Y-25627596D01*
X28738297Y-25600619D01*
X28866053Y-25547701D01*
X28981030Y-25470875D01*
X29078810Y-25373095D01*
X29155636Y-25258118D01*
X29208554Y-25130362D01*
X29235531Y-24994737D01*
X29235531Y-24856455D01*
X29208554Y-24720830D01*
X29155636Y-24593074D01*
X29078810Y-24478097D01*
X28981030Y-24380317D01*
X28866053Y-24303491D01*
X28738297Y-24250573D01*
X28602672Y-24223596D01*
X28464390Y-24223596D01*
X28328765Y-24250573D01*
X28201009Y-24303491D01*
X28086032Y-24380317D01*
X27988252Y-24478097D01*
X27911426Y-24593074D01*
X27858508Y-24720830D01*
X27831531Y-24856455D01*
X15689941Y-24856455D01*
X15770115Y-24736467D01*
X15847533Y-24549565D01*
X15887000Y-24351151D01*
X15887000Y-24148849D01*
X15847533Y-23950435D01*
X15770115Y-23763533D01*
X15657723Y-23595326D01*
X15514674Y-23452277D01*
X15399020Y-23375000D01*
X15514674Y-23297723D01*
X15657723Y-23154674D01*
X15770115Y-22986467D01*
X15847533Y-22799565D01*
X15887000Y-22601151D01*
X15887000Y-22480859D01*
X21948000Y-22480859D01*
X21948000Y-22619141D01*
X21974977Y-22754766D01*
X22027895Y-22882522D01*
X22104721Y-22997499D01*
X22202501Y-23095279D01*
X22317478Y-23172105D01*
X22445234Y-23225023D01*
X22580859Y-23252000D01*
X22719141Y-23252000D01*
X22854766Y-23225023D01*
X22982522Y-23172105D01*
X23097499Y-23095279D01*
X23195279Y-22997499D01*
X23272105Y-22882522D01*
X23325023Y-22754766D01*
X23352000Y-22619141D01*
X23352000Y-22480859D01*
X23325023Y-22345234D01*
X23302330Y-22290448D01*
X23395279Y-22197499D01*
X23472105Y-22082522D01*
X23525023Y-21954766D01*
X23552000Y-21819141D01*
X23552000Y-21680859D01*
X23525023Y-21545234D01*
X23472105Y-21417478D01*
X23395279Y-21302501D01*
X23297499Y-21204721D01*
X23182522Y-21127895D01*
X23054766Y-21074977D01*
X22919141Y-21048000D01*
X22780859Y-21048000D01*
X22645234Y-21074977D01*
X22517478Y-21127895D01*
X22402501Y-21204721D01*
X22304721Y-21302501D01*
X22227895Y-21417478D01*
X22174977Y-21545234D01*
X22148000Y-21680859D01*
X22148000Y-21819141D01*
X22174977Y-21954766D01*
X22197670Y-22009552D01*
X22104721Y-22102501D01*
X22027895Y-22217478D01*
X21974977Y-22345234D01*
X21948000Y-22480859D01*
X15887000Y-22480859D01*
X15887000Y-22398849D01*
X15847533Y-22200435D01*
X15770115Y-22013533D01*
X15657723Y-21845326D01*
X15514674Y-21702277D01*
X15346467Y-21589885D01*
X15159565Y-21512467D01*
X14961151Y-21473000D01*
X14758849Y-21473000D01*
X14560435Y-21512467D01*
X14373533Y-21589885D01*
X14205326Y-21702277D01*
X14062277Y-21845326D01*
X13949885Y-22013533D01*
X13872467Y-22200435D01*
X13833000Y-22398849D01*
X9639244Y-22398849D01*
X8150000Y-20909605D01*
X6659997Y-22399609D01*
X446050Y-22399609D01*
X446050Y-20762946D01*
X5753687Y-20762946D01*
X5806158Y-21229811D01*
X5948703Y-21677468D01*
X6139234Y-22033927D01*
X6480391Y-22220003D01*
X7970395Y-20730000D01*
X8329605Y-20730000D01*
X9819609Y-22220003D01*
X10160766Y-22033927D01*
X10376513Y-21616591D01*
X10506696Y-21165185D01*
X10535124Y-20829264D01*
X10577895Y-20932522D01*
X10654721Y-21047499D01*
X10752501Y-21145279D01*
X10867478Y-21222105D01*
X10995234Y-21275023D01*
X11130859Y-21302000D01*
X11269141Y-21302000D01*
X11404766Y-21275023D01*
X11532522Y-21222105D01*
X11647499Y-21145279D01*
X11700000Y-21092778D01*
X11752501Y-21145279D01*
X11867478Y-21222105D01*
X11995234Y-21275023D01*
X12130859Y-21302000D01*
X12269141Y-21302000D01*
X12404766Y-21275023D01*
X12532522Y-21222105D01*
X12647499Y-21145279D01*
X12745279Y-21047499D01*
X12822105Y-20932522D01*
X12875023Y-20804766D01*
X12879958Y-20779958D01*
X12904766Y-20775023D01*
X13032522Y-20722105D01*
X13147499Y-20645279D01*
X13245279Y-20547499D01*
X13322105Y-20432522D01*
X13375023Y-20304766D01*
X13402000Y-20169141D01*
X13402000Y-20030859D01*
X13375023Y-19895234D01*
X13322105Y-19767478D01*
X13297637Y-19730859D01*
X26698000Y-19730859D01*
X26698000Y-19869141D01*
X26724977Y-20004766D01*
X26777895Y-20132522D01*
X26854721Y-20247499D01*
X26910992Y-20303770D01*
X26855448Y-20359314D01*
X26778622Y-20474291D01*
X26725704Y-20602047D01*
X26698727Y-20737672D01*
X26698727Y-20875954D01*
X26725704Y-21011579D01*
X26778622Y-21139335D01*
X26855448Y-21254312D01*
X26953228Y-21352092D01*
X27068205Y-21428918D01*
X27195961Y-21481836D01*
X27331586Y-21508813D01*
X27469868Y-21508813D01*
X27605493Y-21481836D01*
X27733249Y-21428918D01*
X27848226Y-21352092D01*
X27946006Y-21254312D01*
X28022832Y-21139335D01*
X28075750Y-21011579D01*
X28102727Y-20875954D01*
X28102727Y-20737672D01*
X28075750Y-20602047D01*
X28022832Y-20474291D01*
X27989343Y-20424171D01*
X29880100Y-20424171D01*
X29880100Y-20575829D01*
X29909687Y-20724571D01*
X29967724Y-20864684D01*
X30051980Y-20990783D01*
X30159217Y-21098020D01*
X30285316Y-21182276D01*
X30425429Y-21240313D01*
X30574171Y-21269900D01*
X30725829Y-21269900D01*
X30874571Y-21240313D01*
X31014684Y-21182276D01*
X31140783Y-21098020D01*
X31248020Y-20990783D01*
X31332276Y-20864684D01*
X31390313Y-20724571D01*
X31419900Y-20575829D01*
X31419900Y-20424171D01*
X31390313Y-20275429D01*
X31332276Y-20135316D01*
X31248020Y-20009217D01*
X31140783Y-19901980D01*
X31014684Y-19817724D01*
X30874571Y-19759687D01*
X30725829Y-19730100D01*
X30574171Y-19730100D01*
X30425429Y-19759687D01*
X30285316Y-19817724D01*
X30159217Y-19901980D01*
X30051980Y-20009217D01*
X29967724Y-20135316D01*
X29909687Y-20275429D01*
X29880100Y-20424171D01*
X27989343Y-20424171D01*
X27946006Y-20359314D01*
X27889735Y-20303043D01*
X27945279Y-20247499D01*
X28022105Y-20132522D01*
X28075023Y-20004766D01*
X28102000Y-19869141D01*
X28102000Y-19730859D01*
X28075023Y-19595234D01*
X28022105Y-19467478D01*
X27945279Y-19352501D01*
X27847499Y-19254721D01*
X27732522Y-19177895D01*
X27604766Y-19124977D01*
X27469141Y-19098000D01*
X27330859Y-19098000D01*
X27195234Y-19124977D01*
X27067478Y-19177895D01*
X26952501Y-19254721D01*
X26854721Y-19352501D01*
X26777895Y-19467478D01*
X26724977Y-19595234D01*
X26698000Y-19730859D01*
X13297637Y-19730859D01*
X13245279Y-19652501D01*
X13192778Y-19600000D01*
X13245279Y-19547499D01*
X13322105Y-19432522D01*
X13375023Y-19304766D01*
X13402000Y-19169141D01*
X13402000Y-19030859D01*
X13375023Y-18895234D01*
X13322105Y-18767478D01*
X13245279Y-18652501D01*
X13147499Y-18554721D01*
X13032522Y-18477895D01*
X12918967Y-18430859D01*
X19998000Y-18430859D01*
X19998000Y-18569141D01*
X20024977Y-18704766D01*
X20077895Y-18832522D01*
X20154721Y-18947499D01*
X20252501Y-19045279D01*
X20367478Y-19122105D01*
X20495234Y-19175023D01*
X20630859Y-19202000D01*
X20769141Y-19202000D01*
X20904766Y-19175023D01*
X21032522Y-19122105D01*
X21147499Y-19045279D01*
X21245279Y-18947499D01*
X21322105Y-18832522D01*
X21375023Y-18704766D01*
X21402000Y-18569141D01*
X21402000Y-18430859D01*
X21375023Y-18295234D01*
X21322105Y-18167478D01*
X21245279Y-18052501D01*
X21147499Y-17954721D01*
X21032522Y-17877895D01*
X20904766Y-17824977D01*
X20769141Y-17798000D01*
X20630859Y-17798000D01*
X20495234Y-17824977D01*
X20367478Y-17877895D01*
X20252501Y-17954721D01*
X20154721Y-18052501D01*
X20077895Y-18167478D01*
X20024977Y-18295234D01*
X19998000Y-18430859D01*
X12918967Y-18430859D01*
X12904766Y-18424977D01*
X12769141Y-18398000D01*
X12630859Y-18398000D01*
X12495234Y-18424977D01*
X12367478Y-18477895D01*
X12252501Y-18554721D01*
X12200000Y-18607222D01*
X12147499Y-18554721D01*
X12032522Y-18477895D01*
X11904766Y-18424977D01*
X11769141Y-18398000D01*
X11630859Y-18398000D01*
X11495234Y-18424977D01*
X11367478Y-18477895D01*
X11252501Y-18554721D01*
X11154721Y-18652501D01*
X11077895Y-18767478D01*
X11024977Y-18895234D01*
X11020042Y-18920042D01*
X10995234Y-18924977D01*
X10867478Y-18977895D01*
X10752501Y-19054721D01*
X10654721Y-19152501D01*
X10577895Y-19267478D01*
X10524977Y-19395234D01*
X10498000Y-19530859D01*
X10498000Y-19669141D01*
X10524977Y-19804766D01*
X10577895Y-19932522D01*
X10654721Y-20047499D01*
X10707222Y-20100000D01*
X10654721Y-20152501D01*
X10577895Y-20267478D01*
X10524977Y-20395234D01*
X10516935Y-20435663D01*
X10493842Y-20230189D01*
X10351297Y-19782532D01*
X10160766Y-19426073D01*
X9819609Y-19239997D01*
X8329605Y-20730000D01*
X7970395Y-20730000D01*
X6480391Y-19239997D01*
X6139234Y-19426073D01*
X5923487Y-19843409D01*
X5793304Y-20294815D01*
X5753687Y-20762946D01*
X446050Y-20762946D01*
X446050Y-19060391D01*
X6659997Y-19060391D01*
X8150000Y-20550395D01*
X9640003Y-19060391D01*
X9453927Y-18719234D01*
X9036591Y-18503487D01*
X8585185Y-18373304D01*
X8117054Y-18333687D01*
X7650189Y-18386158D01*
X7202532Y-18528703D01*
X6846073Y-18719234D01*
X6659997Y-19060391D01*
X446050Y-19060391D01*
X446050Y-16700000D01*
X6166580Y-16700000D01*
X6192201Y-16960137D01*
X6268081Y-17210278D01*
X6391302Y-17440808D01*
X6557130Y-17642870D01*
X6759192Y-17808698D01*
X6989722Y-17931919D01*
X7239863Y-18007799D01*
X7434816Y-18027000D01*
X9765184Y-18027000D01*
X9960137Y-18007799D01*
X10210278Y-17931919D01*
X10440808Y-17808698D01*
X10642870Y-17642870D01*
X10808698Y-17440808D01*
X10817590Y-17424171D01*
X29880100Y-17424171D01*
X29880100Y-17575829D01*
X29909687Y-17724571D01*
X29967724Y-17864684D01*
X30051980Y-17990783D01*
X30159217Y-18098020D01*
X30285316Y-18182276D01*
X30425429Y-18240313D01*
X30574171Y-18269900D01*
X30725829Y-18269900D01*
X30874571Y-18240313D01*
X31014684Y-18182276D01*
X31140783Y-18098020D01*
X31248020Y-17990783D01*
X31332276Y-17864684D01*
X31390313Y-17724571D01*
X31419900Y-17575829D01*
X31419900Y-17424171D01*
X31390313Y-17275429D01*
X31332276Y-17135316D01*
X31248020Y-17009217D01*
X31140783Y-16901980D01*
X31014684Y-16817724D01*
X30874571Y-16759687D01*
X30725829Y-16730100D01*
X30574171Y-16730100D01*
X30425429Y-16759687D01*
X30285316Y-16817724D01*
X30159217Y-16901980D01*
X30051980Y-17009217D01*
X29967724Y-17135316D01*
X29909687Y-17275429D01*
X29880100Y-17424171D01*
X10817590Y-17424171D01*
X10931919Y-17210278D01*
X11007799Y-16960137D01*
X11033420Y-16700000D01*
X11007799Y-16439863D01*
X10931919Y-16189722D01*
X10927182Y-16180859D01*
X34148000Y-16180859D01*
X34148000Y-16319141D01*
X34174977Y-16454766D01*
X34227895Y-16582522D01*
X34289687Y-16675000D01*
X34227895Y-16767478D01*
X34174977Y-16895234D01*
X34148000Y-17030859D01*
X34148000Y-17169141D01*
X34174977Y-17304766D01*
X34227895Y-17432522D01*
X34289687Y-17525000D01*
X34227895Y-17617478D01*
X34174977Y-17745234D01*
X34148000Y-17880859D01*
X34148000Y-18019141D01*
X34174977Y-18154766D01*
X34227895Y-18282522D01*
X34304721Y-18397499D01*
X34307222Y-18400000D01*
X34304721Y-18402501D01*
X34227895Y-18517478D01*
X34174977Y-18645234D01*
X34148000Y-18780859D01*
X34148000Y-18919141D01*
X34174977Y-19054766D01*
X34227895Y-19182522D01*
X34304721Y-19297499D01*
X34402501Y-19395279D01*
X34517478Y-19472105D01*
X34645234Y-19525023D01*
X34780859Y-19552000D01*
X34919141Y-19552000D01*
X35054766Y-19525023D01*
X35182522Y-19472105D01*
X35297499Y-19395279D01*
X35395279Y-19297499D01*
X35472105Y-19182522D01*
X35499477Y-19116440D01*
X35536904Y-19116440D01*
X35524977Y-19145234D01*
X35498000Y-19280859D01*
X35498000Y-19419141D01*
X35524977Y-19554766D01*
X35577895Y-19682522D01*
X35654721Y-19797499D01*
X35752501Y-19895279D01*
X35867478Y-19972105D01*
X35995234Y-20025023D01*
X36130859Y-20052000D01*
X36269141Y-20052000D01*
X36404766Y-20025023D01*
X36532522Y-19972105D01*
X36647499Y-19895279D01*
X36732571Y-19810207D01*
X68323000Y-19810207D01*
X68323000Y-20189793D01*
X68397053Y-20562085D01*
X68542315Y-20912777D01*
X68753201Y-21228391D01*
X69021609Y-21496799D01*
X69337223Y-21707685D01*
X69687915Y-21852947D01*
X70060207Y-21927000D01*
X70439793Y-21927000D01*
X70812085Y-21852947D01*
X71162777Y-21707685D01*
X71478391Y-21496799D01*
X71746799Y-21228391D01*
X71957685Y-20912777D01*
X72102947Y-20562085D01*
X72177000Y-20189793D01*
X72177000Y-19810207D01*
X78323000Y-19810207D01*
X78323000Y-20189793D01*
X78397053Y-20562085D01*
X78542315Y-20912777D01*
X78753201Y-21228391D01*
X79021609Y-21496799D01*
X79337223Y-21707685D01*
X79687915Y-21852947D01*
X80060207Y-21927000D01*
X80439793Y-21927000D01*
X80812085Y-21852947D01*
X81162777Y-21707685D01*
X81478391Y-21496799D01*
X81746799Y-21228391D01*
X81957685Y-20912777D01*
X82102947Y-20562085D01*
X82177000Y-20189793D01*
X82177000Y-19810207D01*
X82102947Y-19437915D01*
X81957685Y-19087223D01*
X81746799Y-18771609D01*
X81478391Y-18503201D01*
X81162777Y-18292315D01*
X80812085Y-18147053D01*
X80439793Y-18073000D01*
X80060207Y-18073000D01*
X79687915Y-18147053D01*
X79337223Y-18292315D01*
X79021609Y-18503201D01*
X78753201Y-18771609D01*
X78542315Y-19087223D01*
X78397053Y-19437915D01*
X78323000Y-19810207D01*
X72177000Y-19810207D01*
X72102947Y-19437915D01*
X71957685Y-19087223D01*
X71746799Y-18771609D01*
X71478391Y-18503201D01*
X71162777Y-18292315D01*
X70812085Y-18147053D01*
X70439793Y-18073000D01*
X70060207Y-18073000D01*
X69687915Y-18147053D01*
X69337223Y-18292315D01*
X69021609Y-18503201D01*
X68753201Y-18771609D01*
X68542315Y-19087223D01*
X68397053Y-19437915D01*
X68323000Y-19810207D01*
X36732571Y-19810207D01*
X36745279Y-19797499D01*
X36822105Y-19682522D01*
X36875023Y-19554766D01*
X36902000Y-19419141D01*
X36902000Y-19280859D01*
X36875023Y-19145234D01*
X36822105Y-19017478D01*
X36745279Y-18902501D01*
X36647499Y-18804721D01*
X36532522Y-18727895D01*
X36404766Y-18674977D01*
X36269141Y-18648000D01*
X36228053Y-18648000D01*
X36239980Y-18619206D01*
X36266957Y-18483581D01*
X36266957Y-18345299D01*
X36239980Y-18209674D01*
X36187062Y-18081918D01*
X36110236Y-17966941D01*
X36012456Y-17869161D01*
X35897479Y-17792335D01*
X35769723Y-17739417D01*
X35634098Y-17712440D01*
X35511439Y-17712440D01*
X35472105Y-17617478D01*
X35410313Y-17525000D01*
X35472105Y-17432522D01*
X35525023Y-17304766D01*
X35552000Y-17169141D01*
X35552000Y-17030859D01*
X35525023Y-16895234D01*
X35472105Y-16767478D01*
X35410313Y-16675000D01*
X35472105Y-16582522D01*
X35525023Y-16454766D01*
X35552000Y-16319141D01*
X35552000Y-16180859D01*
X35525023Y-16045234D01*
X35472105Y-15917478D01*
X35395279Y-15802501D01*
X35297499Y-15704721D01*
X35182522Y-15627895D01*
X35054766Y-15574977D01*
X34919141Y-15548000D01*
X34780859Y-15548000D01*
X34645234Y-15574977D01*
X34517478Y-15627895D01*
X34402501Y-15704721D01*
X34304721Y-15802501D01*
X34227895Y-15917478D01*
X34174977Y-16045234D01*
X34148000Y-16180859D01*
X10927182Y-16180859D01*
X10808698Y-15959192D01*
X10642870Y-15757130D01*
X10440808Y-15591302D01*
X10210278Y-15468081D01*
X9960137Y-15392201D01*
X9765184Y-15373000D01*
X7434816Y-15373000D01*
X7239863Y-15392201D01*
X6989722Y-15468081D01*
X6759192Y-15591302D01*
X6557130Y-15757130D01*
X6391302Y-15959192D01*
X6268081Y-16189722D01*
X6192201Y-16439863D01*
X6166580Y-16700000D01*
X446050Y-16700000D01*
X446050Y-12027000D01*
X4265000Y-12027000D01*
X4265000Y-13127000D01*
X4319271Y-13424023D01*
X4430446Y-13704751D01*
X4594252Y-13958396D01*
X4804394Y-14175210D01*
X5052796Y-14346862D01*
X5329913Y-14466755D01*
X5435260Y-14491036D01*
X5673000Y-14370378D01*
X5673000Y-12027000D01*
X5927000Y-12027000D01*
X5927000Y-14370378D01*
X6164740Y-14491036D01*
X6270087Y-14466755D01*
X6547204Y-14346862D01*
X6795606Y-14175210D01*
X7005748Y-13958396D01*
X7169554Y-13704751D01*
X7280729Y-13424023D01*
X7335000Y-13127000D01*
X7335000Y-12027000D01*
X5927000Y-12027000D01*
X5673000Y-12027000D01*
X4265000Y-12027000D01*
X446050Y-12027000D01*
X446050Y-10673000D01*
X4265000Y-10673000D01*
X4265000Y-11773000D01*
X5673000Y-11773000D01*
X5673000Y-9429622D01*
X5927000Y-9429622D01*
X5927000Y-11773000D01*
X7335000Y-11773000D01*
X7335000Y-10673000D01*
X7280729Y-10375977D01*
X7169554Y-10095249D01*
X7005748Y-9841604D01*
X6868502Y-9700000D01*
X10270934Y-9700000D01*
X10270934Y-14100000D01*
X10279178Y-14183707D01*
X10303595Y-14264196D01*
X10343245Y-14338376D01*
X10396605Y-14403395D01*
X10461624Y-14456755D01*
X10535804Y-14496405D01*
X10616293Y-14520822D01*
X10700000Y-14529066D01*
X12500000Y-14529066D01*
X12583707Y-14520822D01*
X12664196Y-14496405D01*
X12738376Y-14456755D01*
X12803395Y-14403395D01*
X12856755Y-14338376D01*
X12896405Y-14264196D01*
X12920822Y-14183707D01*
X12929066Y-14100000D01*
X12929066Y-13514070D01*
X12944721Y-13537499D01*
X13042501Y-13635279D01*
X13157478Y-13712105D01*
X13285234Y-13765023D01*
X13420859Y-13792000D01*
X13559141Y-13792000D01*
X13694766Y-13765023D01*
X13822522Y-13712105D01*
X13937499Y-13635279D01*
X14035279Y-13537499D01*
X14112105Y-13422522D01*
X14165023Y-13294766D01*
X14192000Y-13159141D01*
X14192000Y-13020859D01*
X14165023Y-12885234D01*
X14112105Y-12757478D01*
X14067017Y-12690000D01*
X14112105Y-12622522D01*
X14165023Y-12494766D01*
X14192000Y-12359141D01*
X14192000Y-12220859D01*
X14165023Y-12085234D01*
X14112105Y-11957478D01*
X14067017Y-11890000D01*
X14086391Y-11861005D01*
X14120234Y-11875023D01*
X14255859Y-11902000D01*
X14394141Y-11902000D01*
X14529766Y-11875023D01*
X14657522Y-11822105D01*
X14772499Y-11745279D01*
X14775000Y-11742778D01*
X14777501Y-11745279D01*
X14892478Y-11822105D01*
X15020234Y-11875023D01*
X15155859Y-11902000D01*
X15294141Y-11902000D01*
X15429766Y-11875023D01*
X15557522Y-11822105D01*
X15672499Y-11745279D01*
X15770279Y-11647499D01*
X15847105Y-11532522D01*
X15900023Y-11404766D01*
X15907461Y-11367373D01*
X15955859Y-11377000D01*
X15994454Y-11377000D01*
X15999977Y-11404766D01*
X16052895Y-11532522D01*
X16129721Y-11647499D01*
X16227501Y-11745279D01*
X16342478Y-11822105D01*
X16448000Y-11865813D01*
X16448000Y-11994141D01*
X16449011Y-11999226D01*
X16445234Y-11999977D01*
X16317478Y-12052895D01*
X16202501Y-12129721D01*
X16104721Y-12227501D01*
X16027895Y-12342478D01*
X15974977Y-12470234D01*
X15948000Y-12605859D01*
X15948000Y-12744141D01*
X15974977Y-12879766D01*
X16027895Y-13007522D01*
X16104721Y-13122499D01*
X16202501Y-13220279D01*
X16317478Y-13297105D01*
X16423000Y-13340813D01*
X16423000Y-13469141D01*
X16449977Y-13604766D01*
X16502895Y-13732522D01*
X16579721Y-13847499D01*
X16677501Y-13945279D01*
X16792478Y-14022105D01*
X16920234Y-14075023D01*
X17055859Y-14102000D01*
X17194141Y-14102000D01*
X17329766Y-14075023D01*
X17457522Y-14022105D01*
X17572499Y-13945279D01*
X17670279Y-13847499D01*
X17747105Y-13732522D01*
X17800023Y-13604766D01*
X17827000Y-13469141D01*
X17827000Y-13330859D01*
X17825023Y-13320922D01*
X17882522Y-13297105D01*
X17997499Y-13220279D01*
X18095279Y-13122499D01*
X18172105Y-13007522D01*
X18225023Y-12879766D01*
X18252000Y-12744141D01*
X18252000Y-12680859D01*
X22498000Y-12680859D01*
X22498000Y-12819141D01*
X22524977Y-12954766D01*
X22577895Y-13082522D01*
X22654721Y-13197499D01*
X22752501Y-13295279D01*
X22867478Y-13372105D01*
X22995234Y-13425023D01*
X23130859Y-13452000D01*
X23269141Y-13452000D01*
X23404766Y-13425023D01*
X23532522Y-13372105D01*
X23647499Y-13295279D01*
X23745279Y-13197499D01*
X23822105Y-13082522D01*
X23875023Y-12954766D01*
X23902000Y-12819141D01*
X23902000Y-12680859D01*
X23875023Y-12545234D01*
X23822105Y-12417478D01*
X23745279Y-12302501D01*
X23647499Y-12204721D01*
X23532522Y-12127895D01*
X23404766Y-12074977D01*
X23269141Y-12048000D01*
X23130859Y-12048000D01*
X22995234Y-12074977D01*
X22867478Y-12127895D01*
X22752501Y-12204721D01*
X22654721Y-12302501D01*
X22577895Y-12417478D01*
X22524977Y-12545234D01*
X22498000Y-12680859D01*
X18252000Y-12680859D01*
X18252000Y-12605859D01*
X18225023Y-12470234D01*
X18172105Y-12342478D01*
X18095279Y-12227501D01*
X17997499Y-12129721D01*
X17882522Y-12052895D01*
X17843526Y-12036742D01*
X17852000Y-11994141D01*
X17852000Y-11855859D01*
X17850023Y-11845922D01*
X17907522Y-11822105D01*
X18022499Y-11745279D01*
X18120279Y-11647499D01*
X18197105Y-11532522D01*
X18250023Y-11404766D01*
X18277000Y-11269141D01*
X18277000Y-11130859D01*
X18250023Y-10995234D01*
X18197105Y-10867478D01*
X18120279Y-10752501D01*
X18022499Y-10654721D01*
X17907522Y-10577895D01*
X17779766Y-10524977D01*
X17644141Y-10498000D01*
X17505859Y-10498000D01*
X17370234Y-10524977D01*
X17242478Y-10577895D01*
X17127501Y-10654721D01*
X17125000Y-10657222D01*
X17122499Y-10654721D01*
X17007522Y-10577895D01*
X16879766Y-10524977D01*
X16744141Y-10498000D01*
X16705546Y-10498000D01*
X16700023Y-10470234D01*
X16647105Y-10342478D01*
X16593665Y-10262500D01*
X16647105Y-10182522D01*
X16700023Y-10054766D01*
X16727000Y-9919141D01*
X16727000Y-9879151D01*
X28773000Y-9879151D01*
X28773000Y-10120849D01*
X28820153Y-10357903D01*
X28912647Y-10581202D01*
X29046927Y-10782167D01*
X29217833Y-10953073D01*
X29418798Y-11087353D01*
X29642097Y-11179847D01*
X29879151Y-11227000D01*
X30120849Y-11227000D01*
X30357903Y-11179847D01*
X30581202Y-11087353D01*
X30782167Y-10953073D01*
X30953073Y-10782167D01*
X31087353Y-10581202D01*
X31179847Y-10357903D01*
X31227000Y-10120849D01*
X31227000Y-9879151D01*
X31179847Y-9642097D01*
X31087353Y-9418798D01*
X30953073Y-9217833D01*
X30782167Y-9046927D01*
X30581202Y-8912647D01*
X30357903Y-8820153D01*
X30120849Y-8773000D01*
X29879151Y-8773000D01*
X29642097Y-8820153D01*
X29418798Y-8912647D01*
X29217833Y-9046927D01*
X29046927Y-9217833D01*
X28912647Y-9418798D01*
X28820153Y-9642097D01*
X28773000Y-9879151D01*
X16727000Y-9879151D01*
X16727000Y-9780859D01*
X16700023Y-9645234D01*
X16647105Y-9517478D01*
X16570279Y-9402501D01*
X16472499Y-9304721D01*
X16357522Y-9227895D01*
X16229766Y-9174977D01*
X16094141Y-9148000D01*
X15955859Y-9148000D01*
X15820234Y-9174977D01*
X15692478Y-9227895D01*
X15577501Y-9304721D01*
X15479721Y-9402501D01*
X15402895Y-9517478D01*
X15349977Y-9645234D01*
X15323000Y-9780859D01*
X15323000Y-9919141D01*
X15349977Y-10054766D01*
X15402895Y-10182522D01*
X15456335Y-10262500D01*
X15402895Y-10342478D01*
X15349977Y-10470234D01*
X15342539Y-10507627D01*
X15294141Y-10498000D01*
X15155859Y-10498000D01*
X15020234Y-10524977D01*
X14892478Y-10577895D01*
X14777501Y-10654721D01*
X14775000Y-10657222D01*
X14772499Y-10654721D01*
X14657522Y-10577895D01*
X14529766Y-10524977D01*
X14394141Y-10498000D01*
X14255859Y-10498000D01*
X14172836Y-10514514D01*
X14165023Y-10475234D01*
X14112105Y-10347478D01*
X14060335Y-10270000D01*
X14112105Y-10192522D01*
X14165023Y-10064766D01*
X14192000Y-9929141D01*
X14192000Y-9790859D01*
X14165023Y-9655234D01*
X14112105Y-9527478D01*
X14035279Y-9412501D01*
X13937499Y-9314721D01*
X13822522Y-9237895D01*
X13694766Y-9184977D01*
X13559141Y-9158000D01*
X13420859Y-9158000D01*
X13285234Y-9184977D01*
X13157478Y-9237895D01*
X13042501Y-9314721D01*
X12944721Y-9412501D01*
X12881262Y-9507473D01*
X12856755Y-9461624D01*
X12803395Y-9396605D01*
X12738376Y-9343245D01*
X12664196Y-9303595D01*
X12583707Y-9279178D01*
X12500000Y-9270934D01*
X10700000Y-9270934D01*
X10616293Y-9279178D01*
X10535804Y-9303595D01*
X10461624Y-9343245D01*
X10396605Y-9396605D01*
X10343245Y-9461624D01*
X10303595Y-9535804D01*
X10279178Y-9616293D01*
X10270934Y-9700000D01*
X6868502Y-9700000D01*
X6795606Y-9624790D01*
X6547204Y-9453138D01*
X6270087Y-9333245D01*
X6164740Y-9308964D01*
X5927000Y-9429622D01*
X5673000Y-9429622D01*
X5435260Y-9308964D01*
X5329913Y-9333245D01*
X5052796Y-9453138D01*
X4804394Y-9624790D01*
X4594252Y-9841604D01*
X4430446Y-10095249D01*
X4319271Y-10375977D01*
X4265000Y-10673000D01*
X446050Y-10673000D01*
X446050Y-3726489D01*
X1223000Y-3726489D01*
X1223000Y-4273511D01*
X1329718Y-4810021D01*
X1539054Y-5315403D01*
X1842963Y-5770234D01*
X2229766Y-6157037D01*
X2684597Y-6460946D01*
X3189979Y-6670282D01*
X3726489Y-6777000D01*
X4273511Y-6777000D01*
X4810021Y-6670282D01*
X5315403Y-6460946D01*
X5770234Y-6157037D01*
X6157037Y-5770234D01*
X6460946Y-5315403D01*
X6670282Y-4810021D01*
X6777000Y-4273511D01*
X6777000Y-3726489D01*
X6746044Y-3570859D01*
X21248000Y-3570859D01*
X21248000Y-3709141D01*
X21274977Y-3844766D01*
X21327895Y-3972522D01*
X21404721Y-4087499D01*
X21457222Y-4140000D01*
X21404721Y-4192501D01*
X21327895Y-4307478D01*
X21274977Y-4435234D01*
X21248000Y-4570859D01*
X21248000Y-4709141D01*
X21274977Y-4844766D01*
X21327895Y-4972522D01*
X21404721Y-5087499D01*
X21457222Y-5140000D01*
X21404721Y-5192501D01*
X21327895Y-5307478D01*
X21274977Y-5435234D01*
X21248000Y-5570859D01*
X21248000Y-5709141D01*
X21274977Y-5844766D01*
X21327895Y-5972522D01*
X21404721Y-6087499D01*
X21502501Y-6185279D01*
X21617478Y-6262105D01*
X21745234Y-6315023D01*
X21880859Y-6342000D01*
X22019141Y-6342000D01*
X22154766Y-6315023D01*
X22282522Y-6262105D01*
X22397499Y-6185279D01*
X22450000Y-6132778D01*
X22502501Y-6185279D01*
X22617478Y-6262105D01*
X22745234Y-6315023D01*
X22880859Y-6342000D01*
X23019141Y-6342000D01*
X23154766Y-6315023D01*
X23282522Y-6262105D01*
X23397499Y-6185279D01*
X23495279Y-6087499D01*
X23572105Y-5972522D01*
X23625023Y-5844766D01*
X23629958Y-5819958D01*
X23654766Y-5815023D01*
X23782522Y-5762105D01*
X23897499Y-5685279D01*
X23995279Y-5587499D01*
X24072105Y-5472522D01*
X24125023Y-5344766D01*
X24152000Y-5209141D01*
X24152000Y-5070859D01*
X24125023Y-4935234D01*
X24072105Y-4807478D01*
X23995279Y-4692501D01*
X23942778Y-4640000D01*
X23995279Y-4587499D01*
X24072105Y-4472522D01*
X24125023Y-4344766D01*
X24152000Y-4209141D01*
X24152000Y-4070859D01*
X24125023Y-3935234D01*
X24072105Y-3807478D01*
X24017990Y-3726489D01*
X83223000Y-3726489D01*
X83223000Y-4273511D01*
X83329718Y-4810021D01*
X83539054Y-5315403D01*
X83842963Y-5770234D01*
X84229766Y-6157037D01*
X84684597Y-6460946D01*
X85189979Y-6670282D01*
X85726489Y-6777000D01*
X86273511Y-6777000D01*
X86810021Y-6670282D01*
X87315403Y-6460946D01*
X87770234Y-6157037D01*
X88157037Y-5770234D01*
X88460946Y-5315403D01*
X88670282Y-4810021D01*
X88777000Y-4273511D01*
X88777000Y-3726489D01*
X88670282Y-3189979D01*
X88460946Y-2684597D01*
X88157037Y-2229766D01*
X87770234Y-1842963D01*
X87315403Y-1539054D01*
X86810021Y-1329718D01*
X86273511Y-1223000D01*
X85726489Y-1223000D01*
X85189979Y-1329718D01*
X84684597Y-1539054D01*
X84229766Y-1842963D01*
X83842963Y-2229766D01*
X83539054Y-2684597D01*
X83329718Y-3189979D01*
X83223000Y-3726489D01*
X24017990Y-3726489D01*
X23995279Y-3692501D01*
X23897499Y-3594721D01*
X23782522Y-3517895D01*
X23654766Y-3464977D01*
X23629958Y-3460042D01*
X23625023Y-3435234D01*
X23572105Y-3307478D01*
X23495279Y-3192501D01*
X23397499Y-3094721D01*
X23282522Y-3017895D01*
X23154766Y-2964977D01*
X23019141Y-2938000D01*
X22880859Y-2938000D01*
X22745234Y-2964977D01*
X22617478Y-3017895D01*
X22502501Y-3094721D01*
X22450000Y-3147222D01*
X22397499Y-3094721D01*
X22282522Y-3017895D01*
X22154766Y-2964977D01*
X22019141Y-2938000D01*
X21880859Y-2938000D01*
X21745234Y-2964977D01*
X21617478Y-3017895D01*
X21502501Y-3094721D01*
X21404721Y-3192501D01*
X21327895Y-3307478D01*
X21274977Y-3435234D01*
X21248000Y-3570859D01*
X6746044Y-3570859D01*
X6670282Y-3189979D01*
X6460946Y-2684597D01*
X6157037Y-2229766D01*
X5770234Y-1842963D01*
X5315403Y-1539054D01*
X4810021Y-1329718D01*
X4273511Y-1223000D01*
X3726489Y-1223000D01*
X3189979Y-1329718D01*
X2684597Y-1539054D01*
X2229766Y-1842963D01*
X1842963Y-2229766D01*
X1539054Y-2684597D01*
X1329718Y-3189979D01*
X1223000Y-3726489D01*
X446050Y-3726489D01*
X446050Y-3021814D01*
X496788Y-2504349D01*
X640733Y-2027581D01*
X874541Y-1587851D01*
X1189312Y-1201904D01*
X1573045Y-884453D01*
X2011135Y-647580D01*
X2486886Y-500310D01*
X3003131Y-446050D01*
X86978186Y-446050D01*
X87495651Y-496788D01*
G37*
G04 #@! TD.AperFunction*
M02*
