M48
; DRILL file {KiCad (5.1.9-0-10_14)} date Sunday, May 09, 2021 at 12:10:29 AM
; FORMAT={-:-/ absolute / inch / decimal}
; #@! TF.CreationDate,2021-05-09T00:10:29+01:00
; #@! TF.GenerationSoftware,Kicad,Pcbnew,(5.1.9-0-10_14)
; #@! TF.FileFunction,Plated,1,4,PTH
FMAT,2
INCH
T1C0.0098
T2C0.0130
T3C0.0276
T4C0.0315
T5C0.0362
T6C0.0394
T7C0.0906
T8C0.1063
%
G90
G05
T1
X0.2382Y-0.2638
X0.2441Y-1.0866
X0.2441Y-1.1339
X0.248Y-1.0394
X0.2579Y-0.2913
X0.2677Y-1.1732
X0.2756Y-1.0079
X0.2894Y-0.2913
X0.3071Y-0.9843
X0.3228Y-0.2913
X0.3543Y-0.2913
X0.3858Y-0.2913
X0.4173Y-0.2913
X0.4409Y-0.7717
X0.4409Y-0.811
X0.4488Y-0.2913
X0.4606Y-0.752
X0.4606Y-0.7913
X0.4803Y-0.2913
X0.4803Y-0.7717
X0.4803Y-0.811
X0.4921Y-1.3386
X0.5Y-0.752
X0.5Y-0.7913
X0.5039Y-1.1693
X0.5039Y-1.2008
X0.5039Y-1.2323
X0.5118Y-0.2913
X0.5276Y-1.185
X0.5276Y-1.2165
X0.5311Y-0.3882
X0.5311Y-0.4205
X0.5311Y-0.4524
X0.5311Y-0.4839
X0.5311Y-0.5154
X0.5315Y-1.3386
X0.5453Y-0.2913
X0.564Y-0.4409
X0.5709Y-1.3386
X0.5886Y-0.2913
X0.5994Y-0.4409
X0.6102Y-1.3386
X0.6309Y-0.3878
X0.6309Y-0.4203
X0.6343Y-0.3287
X0.6346Y-0.2913
X0.6476Y-0.9252
X0.6476Y-1.0236
X0.6496Y-1.3386
X0.6555Y-0.499
X0.6565Y-0.4409
X0.6732Y-0.2894
X0.6732Y-1.1594
X0.6742Y-0.5276
X0.6752Y-0.4695
X0.6772Y-1.499
X0.6791Y-0.9705
X0.6909Y-0.499
X0.6919Y-0.4409
X0.7283Y-0.8957
X0.7283Y-1.1024
X0.7598Y-0.937
X0.7717Y-1.2205
X0.7835Y-1.0492
X0.7854Y-0.8937
X0.8031Y-1.189
X0.815Y-0.7283
X0.815Y-1.2441
X0.8169Y-0.6181
X0.8169Y-0.6575
X0.8346Y-1.1575
X0.8632Y-1.5
X0.8642Y-0.1433
X0.8642Y-0.1827
X0.8642Y-0.222
X0.878Y-0.7146
X0.8839Y-0.163
X0.8839Y-0.2024
X0.8898Y-1.0571
X0.8898Y-1.1024
X0.8898Y-1.1378
X0.8917Y-0.8878
X0.8917Y-1.252
X0.8917Y-1.2913
X0.8917Y-1.3307
X0.8996Y-0.8563
X0.9035Y-0.1433
X0.9035Y-0.1827
X0.9035Y-0.222
X0.9114Y-1.2717
X0.9114Y-1.311
X0.9134Y-0.4547
X0.9134Y-0.502
X0.9134Y-0.5472
X0.9134Y-0.5925
X0.9134Y-0.6417
X0.9134Y-0.6909
X0.9134Y-0.7402
X0.9154Y-0.3602
X0.9154Y-0.4055
X0.9173Y-1.1929
X0.9232Y-0.163
X0.9232Y-0.2024
X0.9311Y-1.252
X0.9311Y-1.2913
X0.9311Y-1.3307
X0.9528Y-1.2717
X0.9528Y-1.311
X0.9921Y-1.4902
X0.9951Y-0.0738
X1.0079Y-1.5217
X1.0108Y-0.0423
X1.0236Y-1.4902
X1.0266Y-0.0738
X1.0394Y-1.5217
X1.0423Y-0.0423
X1.0512Y-1.0512
X1.0512Y-1.0866
X1.0512Y-1.122
X1.0551Y-1.4902
X1.0581Y-0.0738
X1.0709Y-1.5217
X1.0738Y-0.0423
X1.0787Y-0.4291
X1.0787Y-0.4941
X1.0787Y-0.561
X1.0787Y-0.622
X1.0787Y-0.685
X1.0787Y-0.7795
X1.0787Y-0.8701
X1.0788Y-0.8192
X1.0807Y-1.0177
X1.0866Y-1.0866
X1.0866Y-1.122
X1.0866Y-1.4902
X1.0896Y-0.0738
X1.1004Y-1.1949
X1.1234Y-0.9813
X1.124Y-0.3878
X1.124Y-0.4567
X1.124Y-0.5276
X1.124Y-0.5925
X1.124Y-0.6476
X1.124Y-0.7303
X1.124Y-0.9449
X1.1417Y-1.4469
X1.1467Y-0.122
X1.1713Y-1.4469
X1.1762Y-0.122
X1.1772Y-0.876
X1.2008Y-1.4469
X1.2057Y-0.122
X1.2087Y-1.063
X1.2303Y-1.4469
X1.2352Y-0.122
X1.2598Y-1.4469
X1.2648Y-0.122
X1.2894Y-1.4469
X1.2943Y-0.122
X1.311Y-1.002
X1.3268Y-1.4016
X1.372Y-0.6398
X1.372Y-0.6732
X1.372Y-0.7067
X1.372Y-0.7421
X1.4002Y-0.725
X1.4016Y-1.2618
X1.4016Y-1.313
X1.4213Y-0.8307
X1.4213Y-0.8701
X1.4213Y-0.9094
X1.4252Y-0.7618
X1.4331Y-1.2874
X1.4685Y-0.4173
X1.4685Y-0.4764
X1.5Y-0.4488
X1.5512Y-1.0591
X1.5748Y-0.3937
X1.5748Y-0.4921
X1.5748Y-0.5906
X1.5748Y-0.7874
X1.5906Y-1.0591
X1.5984Y-0.8622
X1.6299Y-0.8622
X1.6614Y-0.8622
X1.6732Y-0.2953
X1.6732Y-0.3937
X1.6732Y-0.4921
X1.6732Y-0.5906
X1.6732Y-0.7874
X1.6732Y-1.1811
X1.6732Y-1.2795
X1.685Y-0.9843
X1.7717Y-0.1969
X1.7717Y-0.2953
X1.7717Y-0.3937
X1.7717Y-0.4921
X1.7717Y-0.5906
X1.7717Y-0.7874
X1.7717Y-0.8858
X1.7717Y-0.9843
X1.7717Y-1.2795
X1.7717Y-1.378
X1.8701Y-0.1969
X1.8701Y-0.2953
X1.8701Y-0.3937
X1.8701Y-0.4921
X1.8701Y-0.5906
X1.8701Y-0.7874
X1.8701Y-0.9843
X1.8701Y-1.2795
X1.8701Y-1.378
X1.8878Y-1.0157
X1.9055Y-0.9843
X1.9685Y-0.1969
X1.9685Y-0.2953
X1.9685Y-0.3937
X1.9685Y-0.4921
X1.9685Y-0.5906
X1.9685Y-1.2795
X2.0Y-0.7795
X2.0Y-0.8189
X2.0Y-0.8583
X2.0Y-0.8976
X2.0512Y-1.0551
X2.0669Y-0.1969
X2.0669Y-0.2953
X2.0669Y-0.3937
X2.0669Y-0.4921
X2.0669Y-0.5906
X2.0669Y-1.2795
X2.0827Y-1.0551
X2.1142Y-1.0551
X2.1654Y-0.1969
X2.1654Y-0.2953
X2.1654Y-0.3937
X2.1654Y-0.4921
X2.1654Y-0.5906
X2.1654Y-0.689
X2.1654Y-0.7874
X2.1654Y-1.2795
X2.1772Y-0.8622
X2.2087Y-0.8622
X2.2402Y-0.8622
X2.2638Y-0.1969
X2.2638Y-0.2953
X2.2638Y-0.3937
X2.2638Y-0.4921
X2.2638Y-0.5906
X2.2638Y-0.689
X2.2638Y-0.7874
X2.2638Y-0.9843
X2.2638Y-1.0827
X2.2638Y-1.1811
X2.2638Y-1.2795
X2.2638Y-1.378
X2.3622Y-0.1969
X2.3622Y-0.2953
X2.3622Y-0.3937
X2.3622Y-0.4921
X2.3622Y-0.5906
X2.3622Y-0.689
X2.3622Y-0.7874
X2.3622Y-0.8858
X2.3622Y-0.9843
X2.3622Y-1.0827
X2.3622Y-1.2795
X2.3622Y-1.378
X2.4606Y-0.1969
X2.4606Y-0.2953
X2.4606Y-0.3937
X2.4606Y-0.4921
X2.4606Y-0.5906
X2.4606Y-0.689
X2.4606Y-0.7874
X2.4606Y-0.8858
X2.4606Y-0.9843
X2.4606Y-1.0827
X2.4606Y-1.1811
X2.4606Y-1.2795
X2.4606Y-1.378
X2.5591Y-0.1969
X2.5591Y-0.2953
X2.5591Y-0.3937
X2.5591Y-0.4921
X2.5591Y-0.5906
X2.5591Y-0.689
X2.5591Y-0.7874
X2.5591Y-0.8858
X2.5591Y-0.9843
X2.5591Y-1.0827
X2.5591Y-1.1811
X2.5591Y-1.2795
X2.5591Y-1.378
X2.6575Y-0.1969
X2.6575Y-0.2953
X2.6575Y-0.3937
X2.6575Y-0.4921
X2.6575Y-0.5906
X2.6575Y-0.689
X2.6575Y-0.8858
X2.6575Y-0.9843
X2.6575Y-1.0827
X2.6575Y-1.1811
X2.6575Y-1.2795
X2.6575Y-1.378
X2.7559Y-0.1969
X2.7559Y-0.2953
X2.7559Y-0.3937
X2.7559Y-0.3937
X2.7559Y-0.4921
X2.7559Y-0.5906
X2.7559Y-0.9843
X2.7559Y-1.0827
X2.7559Y-1.1811
X2.7559Y-1.2795
X2.7559Y-1.378
X2.8543Y-0.1969
X2.8543Y-0.2953
X2.8543Y-0.3937
X2.8543Y-0.4921
X2.8543Y-0.5906
X2.8543Y-0.689
X2.8543Y-0.8858
X2.8543Y-0.9843
X2.8543Y-1.0827
X2.8543Y-1.1811
X2.8543Y-1.2795
X2.8543Y-1.378
X2.9528Y-0.1969
X2.9528Y-0.2953
X2.9528Y-0.3937
X2.9528Y-0.4921
X2.9528Y-0.5906
X2.9528Y-0.689
X2.9528Y-0.7874
X2.9528Y-0.8858
X2.9528Y-0.9843
X2.9528Y-1.0827
X2.9528Y-1.1811
X2.9528Y-1.2795
X2.9528Y-1.378
X3.0512Y-0.1969
X3.0512Y-0.2953
X3.0512Y-0.3937
X3.0512Y-0.4921
X3.0512Y-0.5906
X3.0512Y-0.689
X3.0512Y-0.8858
X3.0512Y-0.9843
X3.0512Y-1.0827
X3.0512Y-1.1811
X3.0512Y-1.2795
X3.0512Y-1.378
X3.1496Y-0.1969
X3.1496Y-0.2953
X3.1496Y-0.3937
X3.1496Y-0.4921
X3.1496Y-0.5906
X3.1496Y-0.9843
X3.1496Y-1.0827
X3.1496Y-1.1811
X3.1496Y-1.2795
X3.1496Y-1.378
X3.248Y-0.1969
X3.248Y-0.2953
X3.248Y-0.3937
X3.248Y-0.4921
X3.248Y-0.5906
X3.248Y-0.689
X3.248Y-0.8858
X3.248Y-0.9843
X3.248Y-1.0827
X3.248Y-1.1811
X3.248Y-1.2795
X3.248Y-1.378
X3.3465Y-0.2953
X3.3465Y-0.3937
X3.3465Y-0.4921
X3.3465Y-0.5906
X3.3465Y-0.689
X3.3465Y-0.7874
X3.3465Y-0.8858
X3.3465Y-0.9843
X3.3465Y-1.0827
X3.3465Y-1.1811
X3.3465Y-1.2795
X3.4449Y-0.2953
X3.4449Y-0.3937
X3.4449Y-0.4921
X3.4449Y-0.5906
X3.4449Y-0.689
X3.4449Y-0.7874
X3.4449Y-0.7874
X3.4449Y-0.8858
X3.4449Y-0.9843
X3.4449Y-1.0827
X3.4449Y-1.1811
X3.4449Y-1.2795
T2
X1.2067Y-0.689
X1.2067Y-0.8071
X1.4606Y-1.2047
X1.4606Y-1.248
T3
X0.585Y-0.8858
X0.585Y-0.9547
X0.585Y-1.0531
X0.585Y-1.1516
X0.585Y-1.2205
T5
X0.4276Y-1.0039
X0.4276Y-1.1024
X0.5063Y-1.0039
X0.5063Y-1.1024
T6
X0.3689Y-1.4705
X0.4689Y-1.4705
X0.5689Y-1.4705
T7
X0.3209Y-0.8161
X0.3209Y-1.2902
T8
X0.1575Y-0.1575
X0.1575Y-1.4173
X3.3858Y-0.1575
X3.3858Y-1.4173
T4
G00X0.2283Y-0.4252
M15
G01X0.2283Y-0.5118
M16
G05
G00X0.2953Y-0.6575
M15
G01X0.3819Y-0.6575
M16
G05
G00X0.4567Y-0.4173
M15
G01X0.4567Y-0.5197
M16
G05
T0
M30
