G04 #@! TF.GenerationSoftware,KiCad,Pcbnew,(5.1.9-0-10_14)*
G04 #@! TF.CreationDate,2021-05-09T00:19:33+01:00*
G04 #@! TF.ProjectId,usb3-ngff-carrier,75736233-2d6e-4676-9666-2d6361727269,1*
G04 #@! TF.SameCoordinates,Original*
G04 #@! TF.FileFunction,Legend,Top*
G04 #@! TF.FilePolarity,Positive*
%FSLAX46Y46*%
G04 Gerber Fmt 4.6, Leading zero omitted, Abs format (unit mm)*
G04 Created by KiCad (PCBNEW (5.1.9-0-10_14)) date 2021-05-09 00:19:33*
%MOMM*%
%LPD*%
G01*
G04 APERTURE LIST*
%ADD10C,0.152400*%
%ADD11C,0.150000*%
%ADD12C,0.250000*%
%ADD13C,0.120000*%
%ADD14C,0.127000*%
%ADD15C,0.240000*%
%ADD16C,0.125000*%
%ADD17C,0.100000*%
%ADD18R,1.220000X0.650000*%
%ADD19R,1.200000X4.700000*%
%ADD20C,1.500000*%
%ADD21C,3.500000*%
%ADD22C,1.420000*%
%ADD23R,1.420000X1.420000*%
%ADD24C,1.200000*%
%ADD25C,3.000000*%
%ADD26C,5.300000*%
%ADD27O,1.700000X1.700000*%
%ADD28R,1.700000X1.700000*%
%ADD29C,1.100000*%
%ADD30C,1.600000*%
%ADD31R,1.550000X0.300000*%
%ADD32R,2.750000X1.200000*%
%ADD33R,1.000000X0.900000*%
%ADD34R,0.550000X1.700000*%
%ADD35R,1.800000X2.500000*%
%ADD36R,1.800000X4.400000*%
%ADD37O,1.800000X4.000000*%
%ADD38O,4.000000X1.800000*%
%ADD39C,4.700000*%
G04 APERTURE END LIST*
D10*
X32475000Y-32900000D02*
X32475000Y-31700000D01*
X31275000Y-32900000D02*
X32475000Y-32900000D01*
X31275000Y-31700000D02*
X31275000Y-32900000D01*
X32475000Y-31700000D02*
X31275000Y-31700000D01*
D11*
X31870357Y-32307142D02*
X31956071Y-32335714D01*
X31984642Y-32364285D01*
X32013214Y-32421428D01*
X32013214Y-32507142D01*
X31984642Y-32564285D01*
X31956071Y-32592857D01*
X31898928Y-32621428D01*
X31670357Y-32621428D01*
X31670357Y-32021428D01*
X31870357Y-32021428D01*
X31927500Y-32050000D01*
X31956071Y-32078571D01*
X31984642Y-32135714D01*
X31984642Y-32192857D01*
X31956071Y-32250000D01*
X31927500Y-32278571D01*
X31870357Y-32307142D01*
X31670357Y-32307142D01*
X29327500Y-32571428D02*
X29327500Y-31971428D01*
X29527500Y-32400000D01*
X29727500Y-31971428D01*
X29727500Y-32571428D01*
X30013214Y-32514285D02*
X30041785Y-32542857D01*
X30013214Y-32571428D01*
X29984642Y-32542857D01*
X30013214Y-32514285D01*
X30013214Y-32571428D01*
X30270357Y-32028571D02*
X30298928Y-32000000D01*
X30356071Y-31971428D01*
X30498928Y-31971428D01*
X30556071Y-32000000D01*
X30584642Y-32028571D01*
X30613214Y-32085714D01*
X30613214Y-32142857D01*
X30584642Y-32228571D01*
X30241785Y-32571428D01*
X30613214Y-32571428D01*
X8919047Y-39321428D02*
X9680952Y-39321428D01*
X11519047Y-39371428D02*
X12280952Y-39371428D01*
X11900000Y-39752380D02*
X11900000Y-38990476D01*
D12*
X13790476Y-34928571D02*
X13457142Y-34928571D01*
X13457142Y-35452380D02*
X13457142Y-34452380D01*
X13933333Y-34452380D01*
X14266666Y-35166666D02*
X14742857Y-35166666D01*
X14171428Y-35452380D02*
X14504761Y-34452380D01*
X14838095Y-35452380D01*
X15171428Y-35452380D02*
X15171428Y-34452380D01*
X15742857Y-35452380D01*
X15742857Y-34452380D01*
X22852380Y-25052380D02*
X22376190Y-25385714D01*
X22852380Y-25623809D02*
X21852380Y-25623809D01*
X21852380Y-25242857D01*
X21900000Y-25147619D01*
X21947619Y-25100000D01*
X22042857Y-25052380D01*
X22185714Y-25052380D01*
X22280952Y-25100000D01*
X22328571Y-25147619D01*
X22376190Y-25242857D01*
X22376190Y-25623809D01*
X22328571Y-24623809D02*
X22328571Y-24290476D01*
X22852380Y-24147619D02*
X22852380Y-24623809D01*
X21852380Y-24623809D01*
X21852380Y-24147619D01*
X22804761Y-23766666D02*
X22852380Y-23623809D01*
X22852380Y-23385714D01*
X22804761Y-23290476D01*
X22757142Y-23242857D01*
X22661904Y-23195238D01*
X22566666Y-23195238D01*
X22471428Y-23242857D01*
X22423809Y-23290476D01*
X22376190Y-23385714D01*
X22328571Y-23576190D01*
X22280952Y-23671428D01*
X22233333Y-23719047D01*
X22138095Y-23766666D01*
X22042857Y-23766666D01*
X21947619Y-23719047D01*
X21900000Y-23671428D01*
X21852380Y-23576190D01*
X21852380Y-23338095D01*
X21900000Y-23195238D01*
X22328571Y-22766666D02*
X22328571Y-22433333D01*
X22852380Y-22290476D02*
X22852380Y-22766666D01*
X21852380Y-22766666D01*
X21852380Y-22290476D01*
X21852380Y-22004761D02*
X21852380Y-21433333D01*
X22852380Y-21719047D02*
X21852380Y-21719047D01*
X18852380Y-31333333D02*
X17852380Y-31333333D01*
X17852380Y-30952380D01*
X17900000Y-30857142D01*
X17947619Y-30809523D01*
X18042857Y-30761904D01*
X18185714Y-30761904D01*
X18280952Y-30809523D01*
X18328571Y-30857142D01*
X18376190Y-30952380D01*
X18376190Y-31333333D01*
X17852380Y-30428571D02*
X18852380Y-30190476D01*
X18138095Y-30000000D01*
X18852380Y-29809523D01*
X17852380Y-29571428D01*
X18852380Y-28619047D02*
X18376190Y-28952380D01*
X18852380Y-29190476D02*
X17852380Y-29190476D01*
X17852380Y-28809523D01*
X17900000Y-28714285D01*
X17947619Y-28666666D01*
X18042857Y-28619047D01*
X18185714Y-28619047D01*
X18280952Y-28666666D01*
X18328571Y-28714285D01*
X18376190Y-28809523D01*
X18376190Y-29190476D01*
X20152380Y-31352380D02*
X21152380Y-31114285D01*
X20438095Y-30923809D01*
X21152380Y-30733333D01*
X20152380Y-30495238D01*
X20152380Y-30209523D02*
X21152380Y-29971428D01*
X20438095Y-29780952D01*
X21152380Y-29590476D01*
X20152380Y-29352380D01*
X20866666Y-29019047D02*
X20866666Y-28542857D01*
X21152380Y-29114285D02*
X20152380Y-28780952D01*
X21152380Y-28447619D01*
X21152380Y-28114285D02*
X20152380Y-28114285D01*
X21152380Y-27542857D01*
X20152380Y-27542857D01*
D13*
X17720000Y-10860000D02*
X19480000Y-10860000D01*
X19480000Y-7790000D02*
X17050000Y-7790000D01*
X14056000Y-1706000D02*
X19644000Y-1706000D01*
X19644000Y-7294000D02*
X14056000Y-7294000D01*
X23062230Y-7826697D02*
X22726697Y-8162230D01*
X22323303Y-7087770D02*
X21987770Y-7423303D01*
X22572500Y-10662742D02*
X22572500Y-11137258D01*
X21527500Y-10662742D02*
X21527500Y-11137258D01*
X20940580Y-19465000D02*
X20659420Y-19465000D01*
X20940580Y-20485000D02*
X20659420Y-20485000D01*
X34859420Y-29260000D02*
X35140580Y-29260000D01*
X34859420Y-28240000D02*
X35140580Y-28240000D01*
X34859420Y-31010000D02*
X35140580Y-31010000D01*
X34859420Y-29990000D02*
X35140580Y-29990000D01*
X31590000Y-34509420D02*
X31590000Y-34790580D01*
X32610000Y-34509420D02*
X32610000Y-34790580D01*
X34874420Y-11060000D02*
X35155580Y-11060000D01*
X34874420Y-10040000D02*
X35155580Y-10040000D01*
X34884420Y-12910000D02*
X35165580Y-12910000D01*
X34884420Y-11890000D02*
X35165580Y-11890000D01*
X32660000Y-5540580D02*
X32660000Y-5259420D01*
X31640000Y-5540580D02*
X31640000Y-5259420D01*
X21210000Y-6040580D02*
X21210000Y-5759420D01*
X20190000Y-6040580D02*
X20190000Y-5759420D01*
X23450000Y-1750000D02*
G75*
G03*
X23450000Y-1750000I-950000J0D01*
G01*
X21527500Y-13962742D02*
X21527500Y-14437258D01*
X22572500Y-13962742D02*
X22572500Y-14437258D01*
X10790000Y-3538748D02*
X10790000Y-4961252D01*
X13510000Y-3538748D02*
X13510000Y-4961252D01*
X7140000Y-3538748D02*
X7140000Y-4961252D01*
X9860000Y-3538748D02*
X9860000Y-4961252D01*
D11*
X16250000Y-20675000D02*
X16250000Y-32825000D01*
X-2250000Y-32825000D02*
X6025000Y-32825000D01*
X10275000Y-32825000D02*
X16250000Y-32825000D01*
X-2250000Y-20675000D02*
X-2250000Y-32825000D01*
X-2250000Y-20675000D02*
X6025000Y-20675000D01*
X10275000Y-20675000D02*
X16250000Y-20675000D01*
D12*
X12984999Y-35225000D02*
G75*
G03*
X12984999Y-35225000I-125000J0D01*
G01*
D13*
X15780000Y-36020000D02*
X15780000Y-37350000D01*
X14450000Y-36020000D02*
X15780000Y-36020000D01*
X13180000Y-36020000D02*
X13180000Y-38680000D01*
X13180000Y-38680000D02*
X8040000Y-38680000D01*
X13180000Y-36020000D02*
X8040000Y-36020000D01*
X8040000Y-36020000D02*
X8040000Y-38680000D01*
D14*
X27100000Y-30950000D02*
X32500000Y-30950000D01*
X32500000Y-30950000D02*
X32500000Y-29350000D01*
X32500000Y-26650000D02*
X32500000Y-24850000D01*
X32500000Y-10650000D02*
X32500000Y-9050000D01*
X32500000Y-9050000D02*
X27100000Y-9050000D01*
X24750000Y-24600000D02*
X24750000Y-26400000D01*
D15*
X23620000Y-29250000D02*
G75*
G03*
X23620000Y-29250000I-120000J0D01*
G01*
D13*
X34837221Y-27510000D02*
X35162779Y-27510000D01*
X34837221Y-26490000D02*
X35162779Y-26490000D01*
X29240000Y-34487221D02*
X29240000Y-34812779D01*
X30260000Y-34487221D02*
X30260000Y-34812779D01*
X30360000Y-5562779D02*
X30360000Y-5237221D01*
X29340000Y-5562779D02*
X29340000Y-5237221D01*
D12*
X20225000Y-20500001D02*
G75*
G03*
X20225000Y-20500001I-125000J0D01*
G01*
D11*
X21075000Y-25700000D02*
X21075000Y-24825000D01*
X21075000Y-21500000D02*
X21075000Y-22375000D01*
X17525000Y-21500000D02*
X17525000Y-25700000D01*
D13*
X17890000Y-37137221D02*
X17890000Y-37462779D01*
X18910000Y-37137221D02*
X18910000Y-37462779D01*
X17440000Y-32115000D02*
X17440000Y-34800000D01*
X19360000Y-32115000D02*
X17440000Y-32115000D01*
X19360000Y-34800000D02*
X19360000Y-32115000D01*
X24250000Y-35900000D02*
G75*
G03*
X24250000Y-35900000I-950000J0D01*
G01*
X20190000Y-37137221D02*
X20190000Y-37462779D01*
X21210000Y-37137221D02*
X21210000Y-37462779D01*
X19740000Y-32115000D02*
X19740000Y-34800000D01*
X21660000Y-32115000D02*
X19740000Y-32115000D01*
X21660000Y-34800000D02*
X21660000Y-32115000D01*
X24940000Y-32090000D02*
X24940000Y-36300000D01*
X27960000Y-32090000D02*
X24940000Y-32090000D01*
X27960000Y-36300000D02*
X27960000Y-32090000D01*
X28000000Y-7710000D02*
X28000000Y-3500000D01*
X24980000Y-7710000D02*
X28000000Y-7710000D01*
X24980000Y-3500000D02*
X24980000Y-7710000D01*
X14090000Y-9558578D02*
X14090000Y-9041422D01*
X15510000Y-9558578D02*
X15510000Y-9041422D01*
X16750000Y-11450000D02*
X16750000Y-16850000D01*
X13450000Y-11450000D02*
X13450000Y-16850000D01*
X16750000Y-11450000D02*
X13450000Y-11450000D01*
X20750000Y-11450000D02*
X20750000Y-16850000D01*
X17450000Y-11450000D02*
X17450000Y-16850000D01*
X20750000Y-11450000D02*
X17450000Y-11450000D01*
X6400000Y-16500000D02*
X-2100000Y-16500000D01*
X-2100000Y-16500000D02*
X-2100000Y-7300000D01*
X-2100000Y-7300000D02*
X12600000Y-7300000D01*
X12600000Y-14400000D02*
X12600000Y-16500000D01*
X12600000Y-16500000D02*
X10800000Y-16500000D01*
X12900000Y-8700000D02*
X12900000Y-7000000D01*
X12900000Y-7000000D02*
X11300000Y-7000000D01*
X12600000Y-7300000D02*
X12600000Y-9400000D01*
D16*
X20376190Y-2519047D02*
X20876190Y-2352380D01*
X20376190Y-2185714D01*
X20376190Y-2090476D02*
X20376190Y-1804761D01*
X20876190Y-1947619D02*
X20376190Y-1947619D01*
X20376190Y-1542857D02*
X20376190Y-1447619D01*
X20400000Y-1400000D01*
X20447619Y-1352380D01*
X20542857Y-1328571D01*
X20709523Y-1328571D01*
X20804761Y-1352380D01*
X20852380Y-1400000D01*
X20876190Y-1447619D01*
X20876190Y-1542857D01*
X20852380Y-1590476D01*
X20804761Y-1638095D01*
X20709523Y-1661904D01*
X20542857Y-1661904D01*
X20447619Y-1638095D01*
X20400000Y-1590476D01*
X20376190Y-1542857D01*
X20876190Y-1114285D02*
X20376190Y-1114285D01*
X20376190Y-923809D01*
X20400000Y-876190D01*
X20423809Y-852380D01*
X20471428Y-828571D01*
X20542857Y-828571D01*
X20590476Y-852380D01*
X20614285Y-876190D01*
X20638095Y-923809D01*
X20638095Y-1114285D01*
D11*
X22228571Y-37571428D02*
X22428571Y-38171428D01*
X22628571Y-37571428D01*
X23028571Y-37857142D02*
X23114285Y-37885714D01*
X23142857Y-37914285D01*
X23171428Y-37971428D01*
X23171428Y-38057142D01*
X23142857Y-38114285D01*
X23114285Y-38142857D01*
X23057142Y-38171428D01*
X22828571Y-38171428D01*
X22828571Y-37571428D01*
X23028571Y-37571428D01*
X23085714Y-37600000D01*
X23114285Y-37628571D01*
X23142857Y-37685714D01*
X23142857Y-37742857D01*
X23114285Y-37800000D01*
X23085714Y-37828571D01*
X23028571Y-37857142D01*
X22828571Y-37857142D01*
X23342857Y-37571428D02*
X23685714Y-37571428D01*
X23514285Y-38171428D02*
X23514285Y-37571428D01*
X23885714Y-38171428D02*
X23885714Y-37571428D01*
X24085714Y-38000000D01*
X24285714Y-37571428D01*
X24285714Y-38171428D01*
%LPC*%
D17*
G36*
X89700000Y-35050000D02*
G01*
X43000000Y-35050000D01*
X39000000Y-31050000D01*
X39000000Y-8950000D01*
X43000000Y-4950000D01*
X89700000Y-4950000D01*
X89700000Y-35050000D01*
G37*
X89700000Y-35050000D02*
X43000000Y-35050000D01*
X39000000Y-31050000D01*
X39000000Y-8950000D01*
X43000000Y-4950000D01*
X89700000Y-4950000D01*
X89700000Y-35050000D01*
D18*
X17290000Y-8350000D03*
X17290000Y-9300000D03*
X17290000Y-10250000D03*
X19910000Y-10250000D03*
X19910000Y-9300000D03*
X19910000Y-8350000D03*
D19*
X15195000Y-4500000D03*
X18505000Y-4500000D03*
G36*
G01*
X23196751Y-6564340D02*
X23585660Y-6953249D01*
G75*
G02*
X23585660Y-7236091I-141421J-141421D01*
G01*
X23302817Y-7518934D01*
G75*
G02*
X23019975Y-7518934I-141421J141421D01*
G01*
X22631066Y-7130025D01*
G75*
G02*
X22631066Y-6847183I141421J141421D01*
G01*
X22913909Y-6564340D01*
G75*
G02*
X23196751Y-6564340I141421J-141421D01*
G01*
G37*
G36*
G01*
X22030025Y-7731066D02*
X22418934Y-8119975D01*
G75*
G02*
X22418934Y-8402817I-141421J-141421D01*
G01*
X22136091Y-8685660D01*
G75*
G02*
X21853249Y-8685660I-141421J141421D01*
G01*
X21464340Y-8296751D01*
G75*
G02*
X21464340Y-8013909I141421J141421D01*
G01*
X21747183Y-7731066D01*
G75*
G02*
X22030025Y-7731066I141421J-141421D01*
G01*
G37*
G36*
G01*
X21775000Y-11325000D02*
X22325000Y-11325000D01*
G75*
G02*
X22525000Y-11525000I0J-200000D01*
G01*
X22525000Y-11925000D01*
G75*
G02*
X22325000Y-12125000I-200000J0D01*
G01*
X21775000Y-12125000D01*
G75*
G02*
X21575000Y-11925000I0J200000D01*
G01*
X21575000Y-11525000D01*
G75*
G02*
X21775000Y-11325000I200000J0D01*
G01*
G37*
G36*
G01*
X21775000Y-9675000D02*
X22325000Y-9675000D01*
G75*
G02*
X22525000Y-9875000I0J-200000D01*
G01*
X22525000Y-10275000D01*
G75*
G02*
X22325000Y-10475000I-200000J0D01*
G01*
X21775000Y-10475000D01*
G75*
G02*
X21575000Y-10275000I0J200000D01*
G01*
X21575000Y-9875000D01*
G75*
G02*
X21775000Y-9675000I200000J0D01*
G01*
G37*
G36*
G01*
X20475000Y-19725000D02*
X20475000Y-20225000D01*
G75*
G02*
X20250000Y-20450000I-225000J0D01*
G01*
X19800000Y-20450000D01*
G75*
G02*
X19575000Y-20225000I0J225000D01*
G01*
X19575000Y-19725000D01*
G75*
G02*
X19800000Y-19500000I225000J0D01*
G01*
X20250000Y-19500000D01*
G75*
G02*
X20475000Y-19725000I0J-225000D01*
G01*
G37*
G36*
G01*
X22025000Y-19725000D02*
X22025000Y-20225000D01*
G75*
G02*
X21800000Y-20450000I-225000J0D01*
G01*
X21350000Y-20450000D01*
G75*
G02*
X21125000Y-20225000I0J225000D01*
G01*
X21125000Y-19725000D01*
G75*
G02*
X21350000Y-19500000I225000J0D01*
G01*
X21800000Y-19500000D01*
G75*
G02*
X22025000Y-19725000I0J-225000D01*
G01*
G37*
G36*
G01*
X35325000Y-29000000D02*
X35325000Y-28500000D01*
G75*
G02*
X35550000Y-28275000I225000J0D01*
G01*
X36000000Y-28275000D01*
G75*
G02*
X36225000Y-28500000I0J-225000D01*
G01*
X36225000Y-29000000D01*
G75*
G02*
X36000000Y-29225000I-225000J0D01*
G01*
X35550000Y-29225000D01*
G75*
G02*
X35325000Y-29000000I0J225000D01*
G01*
G37*
G36*
G01*
X33775000Y-29000000D02*
X33775000Y-28500000D01*
G75*
G02*
X34000000Y-28275000I225000J0D01*
G01*
X34450000Y-28275000D01*
G75*
G02*
X34675000Y-28500000I0J-225000D01*
G01*
X34675000Y-29000000D01*
G75*
G02*
X34450000Y-29225000I-225000J0D01*
G01*
X34000000Y-29225000D01*
G75*
G02*
X33775000Y-29000000I0J225000D01*
G01*
G37*
G36*
G01*
X35325000Y-30750000D02*
X35325000Y-30250000D01*
G75*
G02*
X35550000Y-30025000I225000J0D01*
G01*
X36000000Y-30025000D01*
G75*
G02*
X36225000Y-30250000I0J-225000D01*
G01*
X36225000Y-30750000D01*
G75*
G02*
X36000000Y-30975000I-225000J0D01*
G01*
X35550000Y-30975000D01*
G75*
G02*
X35325000Y-30750000I0J225000D01*
G01*
G37*
G36*
G01*
X33775000Y-30750000D02*
X33775000Y-30250000D01*
G75*
G02*
X34000000Y-30025000I225000J0D01*
G01*
X34450000Y-30025000D01*
G75*
G02*
X34675000Y-30250000I0J-225000D01*
G01*
X34675000Y-30750000D01*
G75*
G02*
X34450000Y-30975000I-225000J0D01*
G01*
X34000000Y-30975000D01*
G75*
G02*
X33775000Y-30750000I0J225000D01*
G01*
G37*
G36*
G01*
X31850000Y-34975000D02*
X32350000Y-34975000D01*
G75*
G02*
X32575000Y-35200000I0J-225000D01*
G01*
X32575000Y-35650000D01*
G75*
G02*
X32350000Y-35875000I-225000J0D01*
G01*
X31850000Y-35875000D01*
G75*
G02*
X31625000Y-35650000I0J225000D01*
G01*
X31625000Y-35200000D01*
G75*
G02*
X31850000Y-34975000I225000J0D01*
G01*
G37*
G36*
G01*
X31850000Y-33425000D02*
X32350000Y-33425000D01*
G75*
G02*
X32575000Y-33650000I0J-225000D01*
G01*
X32575000Y-34100000D01*
G75*
G02*
X32350000Y-34325000I-225000J0D01*
G01*
X31850000Y-34325000D01*
G75*
G02*
X31625000Y-34100000I0J225000D01*
G01*
X31625000Y-33650000D01*
G75*
G02*
X31850000Y-33425000I225000J0D01*
G01*
G37*
G36*
G01*
X35340000Y-10800000D02*
X35340000Y-10300000D01*
G75*
G02*
X35565000Y-10075000I225000J0D01*
G01*
X36015000Y-10075000D01*
G75*
G02*
X36240000Y-10300000I0J-225000D01*
G01*
X36240000Y-10800000D01*
G75*
G02*
X36015000Y-11025000I-225000J0D01*
G01*
X35565000Y-11025000D01*
G75*
G02*
X35340000Y-10800000I0J225000D01*
G01*
G37*
G36*
G01*
X33790000Y-10800000D02*
X33790000Y-10300000D01*
G75*
G02*
X34015000Y-10075000I225000J0D01*
G01*
X34465000Y-10075000D01*
G75*
G02*
X34690000Y-10300000I0J-225000D01*
G01*
X34690000Y-10800000D01*
G75*
G02*
X34465000Y-11025000I-225000J0D01*
G01*
X34015000Y-11025000D01*
G75*
G02*
X33790000Y-10800000I0J225000D01*
G01*
G37*
G36*
G01*
X35350000Y-12650000D02*
X35350000Y-12150000D01*
G75*
G02*
X35575000Y-11925000I225000J0D01*
G01*
X36025000Y-11925000D01*
G75*
G02*
X36250000Y-12150000I0J-225000D01*
G01*
X36250000Y-12650000D01*
G75*
G02*
X36025000Y-12875000I-225000J0D01*
G01*
X35575000Y-12875000D01*
G75*
G02*
X35350000Y-12650000I0J225000D01*
G01*
G37*
G36*
G01*
X33800000Y-12650000D02*
X33800000Y-12150000D01*
G75*
G02*
X34025000Y-11925000I225000J0D01*
G01*
X34475000Y-11925000D01*
G75*
G02*
X34700000Y-12150000I0J-225000D01*
G01*
X34700000Y-12650000D01*
G75*
G02*
X34475000Y-12875000I-225000J0D01*
G01*
X34025000Y-12875000D01*
G75*
G02*
X33800000Y-12650000I0J225000D01*
G01*
G37*
G36*
G01*
X32400000Y-5075000D02*
X31900000Y-5075000D01*
G75*
G02*
X31675000Y-4850000I0J225000D01*
G01*
X31675000Y-4400000D01*
G75*
G02*
X31900000Y-4175000I225000J0D01*
G01*
X32400000Y-4175000D01*
G75*
G02*
X32625000Y-4400000I0J-225000D01*
G01*
X32625000Y-4850000D01*
G75*
G02*
X32400000Y-5075000I-225000J0D01*
G01*
G37*
G36*
G01*
X32400000Y-6625000D02*
X31900000Y-6625000D01*
G75*
G02*
X31675000Y-6400000I0J225000D01*
G01*
X31675000Y-5950000D01*
G75*
G02*
X31900000Y-5725000I225000J0D01*
G01*
X32400000Y-5725000D01*
G75*
G02*
X32625000Y-5950000I0J-225000D01*
G01*
X32625000Y-6400000D01*
G75*
G02*
X32400000Y-6625000I-225000J0D01*
G01*
G37*
G36*
G01*
X20950000Y-5575000D02*
X20450000Y-5575000D01*
G75*
G02*
X20225000Y-5350000I0J225000D01*
G01*
X20225000Y-4900000D01*
G75*
G02*
X20450000Y-4675000I225000J0D01*
G01*
X20950000Y-4675000D01*
G75*
G02*
X21175000Y-4900000I0J-225000D01*
G01*
X21175000Y-5350000D01*
G75*
G02*
X20950000Y-5575000I-225000J0D01*
G01*
G37*
G36*
G01*
X20950000Y-7125000D02*
X20450000Y-7125000D01*
G75*
G02*
X20225000Y-6900000I0J225000D01*
G01*
X20225000Y-6450000D01*
G75*
G02*
X20450000Y-6225000I225000J0D01*
G01*
X20950000Y-6225000D01*
G75*
G02*
X21175000Y-6450000I0J-225000D01*
G01*
X21175000Y-6900000D01*
G75*
G02*
X20950000Y-7125000I-225000J0D01*
G01*
G37*
D20*
X22500000Y-1750000D03*
G36*
G01*
X21775000Y-14625000D02*
X22325000Y-14625000D01*
G75*
G02*
X22525000Y-14825000I0J-200000D01*
G01*
X22525000Y-15225000D01*
G75*
G02*
X22325000Y-15425000I-200000J0D01*
G01*
X21775000Y-15425000D01*
G75*
G02*
X21575000Y-15225000I0J200000D01*
G01*
X21575000Y-14825000D01*
G75*
G02*
X21775000Y-14625000I200000J0D01*
G01*
G37*
G36*
G01*
X21775000Y-12975000D02*
X22325000Y-12975000D01*
G75*
G02*
X22525000Y-13175000I0J-200000D01*
G01*
X22525000Y-13575000D01*
G75*
G02*
X22325000Y-13775000I-200000J0D01*
G01*
X21775000Y-13775000D01*
G75*
G02*
X21575000Y-13575000I0J200000D01*
G01*
X21575000Y-13175000D01*
G75*
G02*
X21775000Y-12975000I200000J0D01*
G01*
G37*
G36*
G01*
X11049999Y-5150000D02*
X13250001Y-5150000D01*
G75*
G02*
X13500000Y-5399999I0J-249999D01*
G01*
X13500000Y-6050001D01*
G75*
G02*
X13250001Y-6300000I-249999J0D01*
G01*
X11049999Y-6300000D01*
G75*
G02*
X10800000Y-6050001I0J249999D01*
G01*
X10800000Y-5399999D01*
G75*
G02*
X11049999Y-5150000I249999J0D01*
G01*
G37*
G36*
G01*
X11049550Y-2200000D02*
X13250450Y-2200000D01*
G75*
G02*
X13500000Y-2449550I0J-249550D01*
G01*
X13500000Y-3100450D01*
G75*
G02*
X13250450Y-3350000I-249550J0D01*
G01*
X11049550Y-3350000D01*
G75*
G02*
X10800000Y-3100450I0J249550D01*
G01*
X10800000Y-2449550D01*
G75*
G02*
X11049550Y-2200000I249550J0D01*
G01*
G37*
G36*
G01*
X7399999Y-5150000D02*
X9600001Y-5150000D01*
G75*
G02*
X9850000Y-5399999I0J-249999D01*
G01*
X9850000Y-6050001D01*
G75*
G02*
X9600001Y-6300000I-249999J0D01*
G01*
X7399999Y-6300000D01*
G75*
G02*
X7150000Y-6050001I0J249999D01*
G01*
X7150000Y-5399999D01*
G75*
G02*
X7399999Y-5150000I249999J0D01*
G01*
G37*
G36*
G01*
X7399550Y-2200000D02*
X9600450Y-2200000D01*
G75*
G02*
X9850000Y-2449550I0J-249550D01*
G01*
X9850000Y-3100450D01*
G75*
G02*
X9600450Y-3350000I-249550J0D01*
G01*
X7399550Y-3350000D01*
G75*
G02*
X7150000Y-3100450I0J249550D01*
G01*
X7150000Y-2449550D01*
G75*
G02*
X7399550Y-2200000I249550J0D01*
G01*
G37*
D21*
X8150000Y-20730000D03*
X8150000Y-32770000D03*
D22*
X10860000Y-25500000D03*
X10860000Y-28000000D03*
X12859999Y-25500000D03*
D23*
X12859999Y-28000000D03*
D24*
X14860000Y-22500000D03*
X14860000Y-24250000D03*
X14860000Y-31000000D03*
X14860000Y-29250000D03*
X14860000Y-26750000D03*
D25*
X70250000Y-20000000D03*
D26*
X70250000Y-20000000D03*
D25*
X80250000Y-20000000D03*
D26*
X80250000Y-20000000D03*
D27*
X9370000Y-37350000D03*
X11910000Y-37350000D03*
D28*
X14450000Y-37350000D03*
D29*
X30000000Y-30000000D03*
D30*
X30000000Y-10000000D03*
D31*
X24725000Y-29250000D03*
X32275000Y-29000000D03*
X24725000Y-28750000D03*
X32275000Y-28500000D03*
X24725000Y-28250000D03*
X32275000Y-28000000D03*
X24725000Y-27750000D03*
X32275000Y-27500000D03*
X24725000Y-27250000D03*
X32275000Y-27000000D03*
X24725000Y-26750000D03*
X32275000Y-24500000D03*
X24725000Y-24250000D03*
X32275000Y-24000000D03*
X24725000Y-23750000D03*
X32275000Y-23500000D03*
X24725000Y-23250000D03*
X32275000Y-23000000D03*
X24725000Y-22750000D03*
X32275000Y-22500000D03*
X24725000Y-22250000D03*
X32275000Y-22000000D03*
X24725000Y-21750000D03*
X32275000Y-21500000D03*
X24725000Y-21250000D03*
X32275000Y-21000000D03*
X24725000Y-20750000D03*
X32275000Y-20500000D03*
X24725000Y-20250000D03*
X32275000Y-20000000D03*
X24725000Y-19750000D03*
X32275000Y-19500000D03*
X24725000Y-19250000D03*
X32275000Y-19000000D03*
X24725000Y-18750000D03*
X32275000Y-18500000D03*
X24725000Y-18250000D03*
X32275000Y-18000000D03*
X24725000Y-17750000D03*
X32275000Y-17500000D03*
X24725000Y-17250000D03*
X32275000Y-17000000D03*
X24725000Y-16750000D03*
X32275000Y-16500000D03*
X24725000Y-16250000D03*
X32275000Y-16000000D03*
X24725000Y-15750000D03*
X32275000Y-15500000D03*
X24725000Y-15250000D03*
X32275000Y-15000000D03*
X24725000Y-14750000D03*
X32275000Y-14500000D03*
X24725000Y-14250000D03*
X32275000Y-14000000D03*
X24725000Y-13750000D03*
X32275000Y-13500000D03*
X24725000Y-13250000D03*
X32275000Y-13000000D03*
X24725000Y-12750000D03*
X32275000Y-12500000D03*
X24725000Y-12250000D03*
X32275000Y-12000000D03*
X24725000Y-11750000D03*
X32275000Y-11500000D03*
X24725000Y-11250000D03*
X32275000Y-11000000D03*
X24725000Y-10750000D03*
D32*
X25500000Y-30350000D03*
X25500000Y-9650000D03*
G36*
G01*
X35350000Y-27256250D02*
X35350000Y-26743750D01*
G75*
G02*
X35568750Y-26525000I218750J0D01*
G01*
X36006250Y-26525000D01*
G75*
G02*
X36225000Y-26743750I0J-218750D01*
G01*
X36225000Y-27256250D01*
G75*
G02*
X36006250Y-27475000I-218750J0D01*
G01*
X35568750Y-27475000D01*
G75*
G02*
X35350000Y-27256250I0J218750D01*
G01*
G37*
G36*
G01*
X33775000Y-27256250D02*
X33775000Y-26743750D01*
G75*
G02*
X33993750Y-26525000I218750J0D01*
G01*
X34431250Y-26525000D01*
G75*
G02*
X34650000Y-26743750I0J-218750D01*
G01*
X34650000Y-27256250D01*
G75*
G02*
X34431250Y-27475000I-218750J0D01*
G01*
X33993750Y-27475000D01*
G75*
G02*
X33775000Y-27256250I0J218750D01*
G01*
G37*
G36*
G01*
X29493750Y-35000000D02*
X30006250Y-35000000D01*
G75*
G02*
X30225000Y-35218750I0J-218750D01*
G01*
X30225000Y-35656250D01*
G75*
G02*
X30006250Y-35875000I-218750J0D01*
G01*
X29493750Y-35875000D01*
G75*
G02*
X29275000Y-35656250I0J218750D01*
G01*
X29275000Y-35218750D01*
G75*
G02*
X29493750Y-35000000I218750J0D01*
G01*
G37*
G36*
G01*
X29493750Y-33425000D02*
X30006250Y-33425000D01*
G75*
G02*
X30225000Y-33643750I0J-218750D01*
G01*
X30225000Y-34081250D01*
G75*
G02*
X30006250Y-34300000I-218750J0D01*
G01*
X29493750Y-34300000D01*
G75*
G02*
X29275000Y-34081250I0J218750D01*
G01*
X29275000Y-33643750D01*
G75*
G02*
X29493750Y-33425000I218750J0D01*
G01*
G37*
G36*
G01*
X30106250Y-5050000D02*
X29593750Y-5050000D01*
G75*
G02*
X29375000Y-4831250I0J218750D01*
G01*
X29375000Y-4393750D01*
G75*
G02*
X29593750Y-4175000I218750J0D01*
G01*
X30106250Y-4175000D01*
G75*
G02*
X30325000Y-4393750I0J-218750D01*
G01*
X30325000Y-4831250D01*
G75*
G02*
X30106250Y-5050000I-218750J0D01*
G01*
G37*
G36*
G01*
X30106250Y-6625000D02*
X29593750Y-6625000D01*
G75*
G02*
X29375000Y-6406250I0J218750D01*
G01*
X29375000Y-5968750D01*
G75*
G02*
X29593750Y-5750000I218750J0D01*
G01*
X30106250Y-5750000D01*
G75*
G02*
X30325000Y-5968750I0J-218750D01*
G01*
X30325000Y-6406250D01*
G75*
G02*
X30106250Y-6625000I-218750J0D01*
G01*
G37*
D33*
X20100000Y-21550001D03*
X20100000Y-25649999D03*
X18500000Y-21550001D03*
X18500000Y-25649999D03*
D34*
X20725000Y-23600000D03*
G36*
G01*
X18143750Y-37650000D02*
X18656250Y-37650000D01*
G75*
G02*
X18875000Y-37868750I0J-218750D01*
G01*
X18875000Y-38306250D01*
G75*
G02*
X18656250Y-38525000I-218750J0D01*
G01*
X18143750Y-38525000D01*
G75*
G02*
X17925000Y-38306250I0J218750D01*
G01*
X17925000Y-37868750D01*
G75*
G02*
X18143750Y-37650000I218750J0D01*
G01*
G37*
G36*
G01*
X18143750Y-36075000D02*
X18656250Y-36075000D01*
G75*
G02*
X18875000Y-36293750I0J-218750D01*
G01*
X18875000Y-36731250D01*
G75*
G02*
X18656250Y-36950000I-218750J0D01*
G01*
X18143750Y-36950000D01*
G75*
G02*
X17925000Y-36731250I0J218750D01*
G01*
X17925000Y-36293750D01*
G75*
G02*
X18143750Y-36075000I218750J0D01*
G01*
G37*
G36*
G01*
X17943750Y-34250000D02*
X18856250Y-34250000D01*
G75*
G02*
X19100000Y-34493750I0J-243750D01*
G01*
X19100000Y-34981250D01*
G75*
G02*
X18856250Y-35225000I-243750J0D01*
G01*
X17943750Y-35225000D01*
G75*
G02*
X17700000Y-34981250I0J243750D01*
G01*
X17700000Y-34493750D01*
G75*
G02*
X17943750Y-34250000I243750J0D01*
G01*
G37*
G36*
G01*
X17943750Y-32375000D02*
X18856250Y-32375000D01*
G75*
G02*
X19100000Y-32618750I0J-243750D01*
G01*
X19100000Y-33106250D01*
G75*
G02*
X18856250Y-33350000I-243750J0D01*
G01*
X17943750Y-33350000D01*
G75*
G02*
X17700000Y-33106250I0J243750D01*
G01*
X17700000Y-32618750D01*
G75*
G02*
X17943750Y-32375000I243750J0D01*
G01*
G37*
D20*
X23300000Y-35900000D03*
G36*
G01*
X20443750Y-37650000D02*
X20956250Y-37650000D01*
G75*
G02*
X21175000Y-37868750I0J-218750D01*
G01*
X21175000Y-38306250D01*
G75*
G02*
X20956250Y-38525000I-218750J0D01*
G01*
X20443750Y-38525000D01*
G75*
G02*
X20225000Y-38306250I0J218750D01*
G01*
X20225000Y-37868750D01*
G75*
G02*
X20443750Y-37650000I218750J0D01*
G01*
G37*
G36*
G01*
X20443750Y-36075000D02*
X20956250Y-36075000D01*
G75*
G02*
X21175000Y-36293750I0J-218750D01*
G01*
X21175000Y-36731250D01*
G75*
G02*
X20956250Y-36950000I-218750J0D01*
G01*
X20443750Y-36950000D01*
G75*
G02*
X20225000Y-36731250I0J218750D01*
G01*
X20225000Y-36293750D01*
G75*
G02*
X20443750Y-36075000I218750J0D01*
G01*
G37*
G36*
G01*
X20243750Y-34250000D02*
X21156250Y-34250000D01*
G75*
G02*
X21400000Y-34493750I0J-243750D01*
G01*
X21400000Y-34981250D01*
G75*
G02*
X21156250Y-35225000I-243750J0D01*
G01*
X20243750Y-35225000D01*
G75*
G02*
X20000000Y-34981250I0J243750D01*
G01*
X20000000Y-34493750D01*
G75*
G02*
X20243750Y-34250000I243750J0D01*
G01*
G37*
G36*
G01*
X20243750Y-32375000D02*
X21156250Y-32375000D01*
G75*
G02*
X21400000Y-32618750I0J-243750D01*
G01*
X21400000Y-33106250D01*
G75*
G02*
X21156250Y-33350000I-243750J0D01*
G01*
X20243750Y-33350000D01*
G75*
G02*
X20000000Y-33106250I0J243750D01*
G01*
X20000000Y-32618750D01*
G75*
G02*
X20243750Y-32375000I243750J0D01*
G01*
G37*
G36*
G01*
X25524998Y-35425000D02*
X27375002Y-35425000D01*
G75*
G02*
X27625000Y-35674998I0J-249998D01*
G01*
X27625000Y-36500002D01*
G75*
G02*
X27375002Y-36750000I-249998J0D01*
G01*
X25524998Y-36750000D01*
G75*
G02*
X25275000Y-36500002I0J249998D01*
G01*
X25275000Y-35674998D01*
G75*
G02*
X25524998Y-35425000I249998J0D01*
G01*
G37*
G36*
G01*
X25524998Y-32350000D02*
X27375002Y-32350000D01*
G75*
G02*
X27625000Y-32599998I0J-249998D01*
G01*
X27625000Y-33425002D01*
G75*
G02*
X27375002Y-33675000I-249998J0D01*
G01*
X25524998Y-33675000D01*
G75*
G02*
X25275000Y-33425002I0J249998D01*
G01*
X25275000Y-32599998D01*
G75*
G02*
X25524998Y-32350000I249998J0D01*
G01*
G37*
G36*
G01*
X27415002Y-4375000D02*
X25564998Y-4375000D01*
G75*
G02*
X25315000Y-4125002I0J249998D01*
G01*
X25315000Y-3299998D01*
G75*
G02*
X25564998Y-3050000I249998J0D01*
G01*
X27415002Y-3050000D01*
G75*
G02*
X27665000Y-3299998I0J-249998D01*
G01*
X27665000Y-4125002D01*
G75*
G02*
X27415002Y-4375000I-249998J0D01*
G01*
G37*
G36*
G01*
X27415002Y-7450000D02*
X25564998Y-7450000D01*
G75*
G02*
X25315000Y-7200002I0J249998D01*
G01*
X25315000Y-6374998D01*
G75*
G02*
X25564998Y-6125000I249998J0D01*
G01*
X27415002Y-6125000D01*
G75*
G02*
X27665000Y-6374998I0J-249998D01*
G01*
X27665000Y-7200002D01*
G75*
G02*
X27415002Y-7450000I-249998J0D01*
G01*
G37*
G36*
G01*
X15256250Y-10725000D02*
X14343750Y-10725000D01*
G75*
G02*
X14100000Y-10481250I0J243750D01*
G01*
X14100000Y-9993750D01*
G75*
G02*
X14343750Y-9750000I243750J0D01*
G01*
X15256250Y-9750000D01*
G75*
G02*
X15500000Y-9993750I0J-243750D01*
G01*
X15500000Y-10481250D01*
G75*
G02*
X15256250Y-10725000I-243750J0D01*
G01*
G37*
G36*
G01*
X15256250Y-8850000D02*
X14343750Y-8850000D01*
G75*
G02*
X14100000Y-8606250I0J243750D01*
G01*
X14100000Y-8118750D01*
G75*
G02*
X14343750Y-7875000I243750J0D01*
G01*
X15256250Y-7875000D01*
G75*
G02*
X15500000Y-8118750I0J-243750D01*
G01*
X15500000Y-8606250D01*
G75*
G02*
X15256250Y-8850000I-243750J0D01*
G01*
G37*
D35*
X15100000Y-16850000D03*
X15100000Y-12850000D03*
X19100000Y-16850000D03*
X19100000Y-12850000D03*
D36*
X11600000Y-11900000D03*
D37*
X5800000Y-11900000D03*
D38*
X8600000Y-16700000D03*
D39*
X4000000Y-36000000D03*
X86000000Y-36000000D03*
X86000000Y-4000000D03*
X4000000Y-4000000D03*
M02*
